<?xml version="1.0" encoding="UTF-8"?>
<svg id="Layer_2" data-name="Layer 2" xmlns="http://www.w3.org/2000/svg" xmlns:xlink="http://www.w3.org/1999/xlink" viewBox="5 0 1920 408.56">
  <defs>
    <style>
      .cls-1 {
        fill: none;
      }

      .cls-2 {
        fill: #eeb34c;
      }

      .cls-3 {
        fill: #262834;
      }

      .cls-4 {
        fill: #e7632b;
      }

      .cls-5 {
        clip-path: url(#clippath);
      }

      .cls-6 {
        fill: #ed517f;
      }
    </style>
    <clipPath id="clippath">
      <rect class="cls-1" x="5.28" width="1920" height="408.56"/>
    </clipPath>
  </defs>
  <g id="GRAPHICS_1" data-name="GRAPHICS 1">
    <g class="cls-5">
      <g>
        <path class="cls-1" d="M805.35,216.22c-6.58,1.59-13.16,3.16-19.74,4.72,6.57-1.56,13.15-3.13,19.74-4.72Z"/>
        <path class="cls-1" d="M1823.37,193.28c-3.25-.73-6.51-1.44-9.77-2.16,3.26.72,6.52,1.43,9.77,2.16Z"/>
        <path class="cls-1" d="M1863.64,202.57c-1.1-.26-2.21-.52-3.31-.78,1.1.26,2.21.52,3.31.78Z"/>
        <path class="cls-1" d="M1843.64,197.89c-1.94-.45-3.89-.89-5.84-1.33,1.95.44,3.9.88,5.84,1.33Z"/>
        <path class="cls-1" d="M1883.42,207.32c-.5-.12-1.01-.24-1.51-.37.5.12,1.01.24,1.51.37Z"/>
        <path class="cls-1" d="M1802.81,188.74c-6.95-1.51-13.91-3.01-20.89-4.48,6.98,1.47,13.95,2.97,20.89,4.48Z"/>
        <path class="cls-1" d="M785.62,220.94c-6.57,1.56-13.15,3.1-19.72,4.61,6.57-1.52,13.14-3.06,19.72-4.61Z"/>
        <path class="cls-1" d="M696.68,240.32c-6.63,1.27-13.27,2.49-19.93,3.67,6.66-1.17,13.31-2.4,19.93-3.67Z"/>
        <path class="cls-1" d="M646.63,248.88c-13.45,2-27.01,3.75-40.69,5.21,13.68-1.46,27.24-3.21,40.69-5.21Z"/>
        <path class="cls-1" d="M1903.05,212.16c-.13-.03-.26-.06-.39-.1.13.03.26.06.39.1Z"/>
        <path class="cls-1" d="M676.75,243.98c-6.66,1.17-13.34,2.29-20.05,3.35,6.7-1.06,13.38-2.18,20.05-3.35Z"/>
        <path class="cls-1" d="M765.9,225.56c-23,5.31-46.02,10.32-69.22,14.76,23.2-4.45,46.22-9.46,69.22-14.76Z"/>
        <g>
          <path class="cls-2" d="M439.98,338.93c1.49,5.37,5.05,10.2,9.95,12.91,7.49,4.14,17.55,3.01,23.94-2.69,5.67,16.44,22.71,28.24,40.1,27.74,17.39-.49,33.73-13.23,38.46-29.98,9.42,5.47,22.78,2.63,29.16-6.19,3.47-4.81,4.59-11.01,3.6-16.84,123.07-19.81,244.72-48.86,368.37-65.02,161.38-21.09,350.69-12.9,535.74,16.74-2.59,5.08-3.11,11.26-.7,16.46,1.61,3.47,4.46,6.51,8.11,7.62,3.66,1.11,8.1-.09,10.15-3.31-2.44,7.95.85,16.9,6.76,22.75,5.91,5.85,14.04,8.98,22.2,10.57,8.71,1.69,18.24,1.67,25.86-2.89,8.94-5.35,13.43-15.74,16.4-25.72,4.61,6.48,13.73,9.31,21.2,6.58,4.54-1.66,8.22-5.3,10.26-9.67,113.48,24.13,222.56,55.97,319.38,93.62v-79.15c-131.38-48.14-333.83-96.47-462.1-118.25-87.08-14.79-175.18-23.15-263.42-27.14-9.6-.43-19.23-.75-28.87-.95-9.64-.2-19.3-.28-28.98-.24s-19.36.2-29.05.48-19.39.69-29.09,1.21c-3.23.18-6.47.36-9.7.57-12.93.81-25.86,1.84-38.77,3.08-3.23.31-6.46.64-9.68.98-32.26,3.39-64.41,8.16-96.23,14.35-12.73,2.48-25.4,5.18-38.01,8.11-30.26,7.04-60.02,14.42-89.65,21.56-6.58,1.59-13.16,3.16-19.74,4.72-6.57,1.56-13.15,3.1-19.72,4.61-23,5.31-46.02,10.32-69.22,14.76-6.63,1.27-13.27,2.49-19.93,3.67-6.66,1.17-13.34,2.29-20.05,3.35-3.35.53-6.71,1.05-10.07,1.55-13.45,2-27.01,3.75-40.69,5.21-10.26,1.09-20.6,2.02-31.02,2.75-58.89,4.16-127.04,2.53-197.93-3.2,4.58-6.88,4.64-16.78-.5-23.38-6.15-7.9-18.74-9.76-26.91-3.98-5.64-23.28-25.56-35.03-49.5-35.69-23.95-.66-47.28,9.47-45.88,33.38-8.58-3.26-17.76-6.57-26.73-4.64-7.26,1.56-13.65,7.93-14.08,14.84-75.9-11.72-149.29-26.65-212.3-42.78v91.94c118.64,37.33,302.76,58.78,438.89,55.58Z"/>
          <path class="cls-3" d="M438.97,339.21c2.1,7.31,7.63,13.41,15.08,15.4s15,.13,20.55-4.73l-1.75-.46c4.63,13.21,16.12,23.47,29.59,27.11,13.66,3.69,28.14-.39,38.58-9.76,5.84-5.24,10.24-12.03,12.41-19.58l-1.54.63c11.66,6.64,28.02,1.49,33.06-11.13,1.66-4.15,1.95-8.7,1.23-13.09l-.73,1.29c30.17-4.86,60.25-10.27,90.28-15.91,29.97-5.63,59.89-11.48,89.83-17.24,29.94-5.76,59.89-11.42,89.92-16.66s60.27-10.1,90.55-14.19c26.99-3.65,54.08-6.47,81.23-8.49,28-2.08,56.06-3.35,84.13-3.93s57.67-.46,86.5.32c29.68.8,59.35,2.28,88.97,4.37,29.94,2.11,59.84,4.85,89.67,8.17,30.31,3.37,60.56,7.34,90.72,11.89,7.25,1.09,14.5,2.22,21.74,3.38l-.63-1.54c-3.46,6.95-3.31,15.6,1.99,21.61,2.26,2.56,5.44,4.37,8.91,4.44s6.59-1.43,8.47-4.23l-1.91-.81c-2.01,6.79-.21,14.14,3.77,19.87,4.22,6.08,10.71,10.07,17.6,12.5s15.19,3.89,22.78,3.1,13.91-3.83,18.78-9.37c5.18-5.9,8.1-13.4,10.32-20.83l-1.91.25c3.88,5.33,10.39,8.42,16.98,8.11,7.13-.33,13.23-4.84,16.28-11.2l-1.18.48c22.01,4.68,43.95,9.67,65.82,14.98s43.21,10.82,64.69,16.72,41.93,11.84,62.76,18.25c20.34,6.26,40.58,12.83,60.7,19.75s39.13,13.82,58.5,21.25c2.3.88,4.6,1.77,6.9,2.66.65.25,1.32-.39,1.32-1.01v-26.9c0-14.17,0-28.35,0-42.52v-9.72c0-.49-.33-.85-.77-1.01-19.11-7-38.39-13.54-57.76-19.77-21.02-6.76-42.15-13.17-63.36-19.32-22.28-6.46-44.64-12.63-67.07-18.57-22.66-6-45.37-11.76-68.15-17.3-22.34-5.44-44.74-10.66-67.18-15.67-21.28-4.75-42.61-9.31-63.98-13.63-19.47-3.94-38.98-7.7-58.54-11.18-24.78-4.42-49.65-8.35-74.6-11.77-27.79-3.82-55.67-7.04-83.59-9.72-28-2.69-56.05-4.84-84.13-6.52-28.22-1.69-56.46-3.01-84.73-3.14-28.06-.13-56.13.74-84.12,2.63-28.1,1.9-56.12,4.82-84,8.79-27.75,3.95-55.35,8.93-82.71,15-27.47,6.09-54.78,12.93-82.12,19.58-27.33,6.64-54.68,13.23-82.16,19.27-27.55,6.05-55.24,11.55-83.1,15.99-27.78,4.43-55.74,7.81-83.8,9.76-24.92,1.74-49.9,2.36-74.87,2.26-27.1-.1-54.19-1.07-81.25-2.65-13.67-.8-27.33-1.76-40.98-2.86l.9,1.57c4.31-6.62,4.82-15.71.76-22.59-3.72-6.29-10.98-9.77-18.17-9.71-4.06.03-8.08,1.2-11.43,3.51l1.54.63c-2.11-8.59-6.42-16.53-12.91-22.59s-14.36-9.84-22.77-11.91c-9.03-2.22-18.58-2.53-27.77-1.21-8.44,1.21-16.94,4.02-23.63,9.46-7.35,5.99-10.87,14.84-10.37,24.23l1.32-1.01c-8.79-3.33-18.69-6.99-28.17-4.42-7.08,1.92-13.38,8.11-13.96,15.63l1.32-1.01c-29.19-4.51-58.3-9.53-87.31-15.08-27.5-5.26-54.92-11-82.2-17.3-14.3-3.3-28.56-6.76-42.78-10.4-.66-.17-1.32.32-1.32,1.01v88.15c0,1.19-.1,2.44,0,3.63,0,.05,0,.11,0,.16,0,.47.33.87.77,1.01,12.07,3.79,24.24,7.25,36.47,10.46,13.19,3.45,26.45,6.62,39.76,9.55,13.97,3.07,28,5.89,42.06,8.5s29.37,5.2,44.1,7.48c14.96,2.31,29.96,4.41,44.97,6.32,15.2,1.93,30.43,3.66,45.68,5.2s30.54,2.88,45.84,4.01,29.95,2.03,44.94,2.75,29.21,1.19,43.82,1.45,27.78.3,41.66.1c3.29-.05,6.57-.11,9.86-.19,1.34-.03,1.35-2.12,0-2.09-13.69.32-27.39.39-41.09.24-14.4-.15-28.8-.54-43.19-1.12s-29.79-1.42-44.67-2.43c-15.19-1.03-30.36-2.26-45.51-3.69-15.26-1.44-30.51-3.07-45.73-4.9s-30.32-3.85-45.44-6.08-29.53-4.57-44.25-7.18-28.42-5.26-42.56-8.25-26.89-5.91-40.24-9.26c-12.5-3.14-24.95-6.52-37.29-10.23-2.88-.87-5.76-1.75-8.63-2.65l.77,1.01v-88.15c0-1.12.23-2.53,0-3.63-.01-.05,0-.11,0-.16l-1.32,1.01c25.9,6.63,51.96,12.66,78.11,18.23,28.16,5.99,56.44,11.45,84.8,16.41,16.44,2.88,32.91,5.59,49.4,8.14.7.11,1.27-.27,1.32-1.01.54-7,6.97-12.52,13.54-13.88,8.84-1.83,17.8,1.59,25.94,4.68.62.24,1.36-.37,1.32-1.01-.43-8.02,2.12-15.63,8-21.22s13.79-8.52,21.61-9.99c16.48-3.11,35.77-.69,49.11,10.17,7.43,6.05,12.33,14.36,14.61,23.62.15.62.99,1.01,1.54.63,5.3-3.67,12.28-4.14,18.21-1.74,6.62,2.68,10.79,8.91,11.01,16.02.13,4.13-.99,8.18-3.24,11.64-.47.71.16,1.51.9,1.57,27.77,2.24,55.59,3.91,83.43,4.8,26.08.84,52.2,1.01,78.28.2s52.48-2.74,78.58-5.84c27.85-3.31,55.55-7.85,83.08-13.19,27.68-5.37,55.2-11.55,82.65-18.04,27.31-6.45,54.56-13.2,81.84-19.76s54.74-12.94,82.44-17.95c27.64-5,55.46-8.94,83.4-11.84s56.15-4.78,84.31-5.64c28.13-.85,56.28-.69,84.4.48,28.11,1.18,56.21,2.9,84.26,5.07s56.05,4.86,83.99,8.11,55.94,7.11,83.78,11.59c20.33,3.28,40.6,6.91,60.82,10.79s41.14,8.13,61.65,12.51c22.02,4.7,44,9.62,65.92,14.75,22.71,5.31,45.36,10.83,67.96,16.57s45.24,11.74,67.76,17.98c21.85,6.06,43.64,12.36,65.33,18.99,20.32,6.21,40.56,12.69,60.66,19.58,9.06,3.11,18.1,6.3,27.09,9.59l-.77-1.01v26.9c0,14.17,0,28.35,0,42.52v9.72l1.32-1.01c-19.2-7.46-38.53-14.57-57.98-21.34s-40.32-13.66-60.64-20c-20.74-6.47-41.59-12.61-62.53-18.44-21.34-5.94-42.77-11.55-64.27-16.86s-43.87-10.48-65.91-15.25c-2.68-.58-5.37-1.16-8.05-1.73-.42-.09-.98.05-1.18.48-2.72,5.68-8.05,9.87-14.47,10.16-5.81.27-11.73-2.34-15.18-7.08-.52-.71-1.64-.67-1.91.25-1.85,6.19-4.18,12.37-7.99,17.65-4.03,5.58-9.73,9.32-16.51,10.62s-14.31.38-21.08-1.47-13.32-4.98-18.07-10.2c-5.02-5.51-7.72-13.45-5.56-20.76.35-1.18-1.27-1.76-1.91-.81-1.57,2.34-4.45,3.39-7.19,3.17-2.99-.24-5.61-2.11-7.41-4.42-4.14-5.3-4.07-12.62-1.15-18.46.27-.54.09-1.42-.63-1.54-30.01-4.8-60.1-9.05-90.27-12.7-30.04-3.64-60.16-6.7-90.32-9.14-29.74-2.4-59.53-4.2-89.34-5.33s-58.35-1.58-87.53-1.33c-28.31.24-56.62,1.17-84.89,2.88s-54.36,4.04-81.42,7.3c-29.65,3.57-59.19,8.08-88.64,13s-60.21,10.56-90.23,16.27c-30.04,5.71-60.04,11.59-90.07,17.32-30.02,5.73-60.07,11.31-90.21,16.42-7.25,1.23-14.5,2.43-21.76,3.6-.6.1-.81.78-.73,1.29,1.11,6.84-.82,14.06-5.99,18.82-4.24,3.91-10.14,5.88-15.87,5.67-3.29-.12-6.49-1-9.35-2.63-.59-.34-1.35-.03-1.54.63-3.65,12.7-14,23.04-26.48,27.22s-26.73,1.28-37.14-7.06c-5.84-4.68-10.44-10.84-12.92-17.92-.27-.77-1.14-1-1.75-.46-4.98,4.36-12.15,5.9-18.52,4.19-6.75-1.82-11.72-7.32-13.62-13.94-.37-1.29-2.39-.74-2.02.56Z"/>
        </g>
        <g>
          <path class="cls-6" d="M227.47,219.35c8.97-1.93,18.15,1.38,26.73,4.64-1.4-23.91,21.93-34.04,45.88-33.38,23.95.66,43.87,12.41,49.5,35.69,8.17-5.78,20.76-3.92,26.91,3.98,5.14,6.59,5.08,16.49.5,23.38,70.89,5.73,139.04,7.36,197.93,3.2,10.42-.74,20.76-1.66,31.02-2.75,13.68-1.46,27.24-3.21,40.69-5.21,3.36-.5,6.72-1.02,10.07-1.55,6.7-1.06,13.38-2.18,20.05-3.35,6.66-1.17,13.31-2.4,19.93-3.67,23.2-4.45,46.22-9.46,69.22-14.76,6.57-1.52,13.14-3.06,19.72-4.61,6.57-1.56,13.15-3.13,19.74-4.72,29.63-7.14,59.39-14.52,89.65-21.56,12.61-2.93,25.28-5.64,38.01-8.11,31.82-6.19,63.96-10.96,96.23-14.35,3.23-.34,6.45-.66,9.68-.98,12.91-1.25,25.84-2.27,38.77-3.08,3.23-.2,6.47-.39,9.7-.57,9.7-.53,19.4-.93,29.09-1.21s19.38-.44,29.05-.48,19.33.04,28.98.24c9.64.2,19.27.51,28.87.95,88.24,3.99,176.34,12.35,263.42,27.14,128.28,21.78,330.72,70.12,462.1,118.25v-93.7c-8.58-2.22-17.19-4.43-25.86-6.6-.13-.03-.26-.06-.39-.1-6.39-1.6-12.8-3.18-19.24-4.75-.5-.12-1.01-.24-1.51-.37-6.07-1.48-12.16-2.94-18.27-4.39-1.1-.26-2.21-.52-3.31-.78-5.55-1.31-11.11-2.61-16.69-3.9-1.94-.45-3.89-.89-5.84-1.33-4.8-1.1-9.6-2.2-14.43-3.28-3.25-.73-6.51-1.44-9.77-2.16-3.6-.8-7.19-1.6-10.79-2.38-6.95-1.51-13.91-3.01-20.89-4.48-.4-5.87-1.84-11.6-4.71-16.73-5.41-9.64-16.49-14.5-27.54-14.15-2.44.08-5,.03-4.98.05.03.04-1.32-6.51-2.77-10.14-7.65-19.09-22.84-33.5-43.4-32.94-20.56.57-39.15,15.11-48.02,33.66-7.6-8.22-20.69-10.74-30.8-5.94-5.81,2.76-10.36,7.83-12.88,13.74-133.9-21.4-269.11-35.65-404.65-40.48-61.12-2.16-122.44-.82-183.26,5.85-59.08,6.48-117.79,17.74-174.95,34.08-56.27,15.91-112.28,30.78-170.37,38.63-6.91.93-19.61,2.8-24.89,3.3,1.36-2.36,2.06-5.1,1.78-7.81-.76-7.36-7.5-13.26-14.83-14.26-7.33-1-14.8,2.29-20.06,7.49,1.33-5.24-1.98-10.83-6.6-13.63s-10.26-3.35-15.67-3.33c-5.33.02-10.84.57-15.5,3.16s-8.29,7.62-7.85,12.93c-4.11-6.2-12.34-9.32-19.53-7.41-7.18,1.91-12.77,8.72-13.25,16.14-.25,3.9.88,7.61,2.92,10.83-182.16-1.59-378.53-41.52-539.02-79.56v73.69c63.01,16.12,136.4,31.06,212.3,42.78.43-6.91,6.82-13.28,14.08-14.84Z"/>
          <path class="cls-3" d="M227.75,220.36c8.97-1.84,17.9,1.5,26.17,4.64.62.24,1.36-.37,1.32-1.01-.43-8.02,2.12-15.63,8-21.22s13.79-8.52,21.61-9.99c16.48-3.11,35.77-.69,49.11,10.17,7.43,6.05,12.33,14.36,14.61,23.62.15.62.99,1.01,1.54.63,5.3-3.67,12.28-4.14,18.21-1.74,6.62,2.68,10.79,8.91,11.01,16.02.13,4.13-.99,8.18-3.24,11.64-.47.71.16,1.51.9,1.57,27.77,2.24,55.59,3.91,83.43,4.8,26.08.84,52.2,1.01,78.28.2,26.27-.81,52.48-2.74,78.58-5.84,27.85-3.31,55.55-7.85,83.08-13.19s55.2-11.55,82.65-18.04,54.56-13.2,81.84-19.76c27.36-6.57,54.74-12.94,82.44-17.95,27.64-5,55.46-8.94,83.4-11.84,28.02-2.91,56.15-4.78,84.31-5.64s56.28-.69,84.4.48c28.11,1.18,56.21,2.9,84.26,5.07,28.04,2.18,56.05,4.86,83.99,8.11s55.94,7.11,83.78,11.59c20.33,3.28,40.6,6.91,60.82,10.79,20.59,3.94,41.14,8.13,61.65,12.51,22.02,4.7,44,9.62,65.92,14.75s45.36,10.83,67.96,16.57,45.24,11.74,67.76,17.98,43.64,12.36,65.33,18.99c20.32,6.21,40.56,12.69,60.66,19.58,9.06,3.11,18.1,6.3,27.09,9.59.65.24,1.32-.37,1.32-1.01v-89.87c0-1.21.1-2.46,0-3.66,0-.05,0-.11,0-.16,0-.45-.32-.89-.77-1.01-19.06-4.94-38.17-9.71-57.32-14.3s-37.99-8.93-57.05-13.13c-10.86-2.4-21.73-4.77-32.62-7.07l.77,1.01c-.58-7.96-2.95-16.21-8.45-22.2-4.86-5.29-11.73-8.42-18.78-9.39-2.02-.28-4.03-.38-6.07-.33-1.72.04-3.56-.16-5.26.09l1.32,1.01c-.03-1.06-.44-2.21-.69-3.23-.49-2.04-1.01-4.07-1.7-6.05-1.45-4.17-3.52-8.22-5.86-11.96-4.46-7.15-10.42-13.5-17.81-17.66-16.07-9.07-35.8-5.41-50.24,5.12-8.45,6.16-15.31,14.42-19.86,23.84l1.64-.21c-9.8-10.45-27.21-11.66-38.03-2.12-3.15,2.78-5.62,6.29-7.29,10.14l1.18-.48c-31.79-5.08-63.64-9.75-95.55-14-31.99-4.26-64.03-8.07-96.12-11.43s-63.9-6.21-95.92-8.6c-32.17-2.4-64.38-4.3-96.62-5.68s-64.58-2.12-96.89-1.56c-32.15.56-64.28,2.29-96.27,5.47s-62.93,7.63-94.06,13.51c-30.98,5.85-61.67,13.13-91.99,21.74s-60.8,16.91-91.54,23.98c-15.36,3.53-30.79,6.75-46.3,9.53-14.06,2.52-28.18,4.52-42.32,6.49-4.93.69-9.87,1.43-14.82,1.9l.9,1.57c1.88-3.39,2.51-7.25,1.42-11.01-.91-3.13-2.82-5.93-5.28-8.05-5.51-4.76-13.01-5.84-19.85-3.6-4.16,1.36-7.91,3.76-11.04,6.81l1.75,1.02c.94-4.04-.39-8.07-2.96-11.23-2.87-3.51-7.12-5.47-11.49-6.33-4.7-.93-9.71-.96-14.47-.45s-9.25,1.79-12.93,4.75-6.14,7.36-5.83,12.1l1.95-.53c-4.23-6.23-12.06-9.54-19.48-8.16s-13.49,7.71-14.93,15.01c-.95,4.8.19,9.64,2.75,13.77l.9-1.57c-17.92-.16-35.83-.68-53.74-1.53-18.11-.85-36.2-2.03-54.27-3.5-18.12-1.47-36.22-3.22-54.29-5.21s-36.48-4.29-54.68-6.78-36.16-5.17-54.19-8.06-35.61-5.89-53.37-9.09-35.18-6.5-52.74-9.97c-17.15-3.39-34.27-6.91-51.37-10.54s-33.47-7.23-50.17-10.98c-16.17-3.64-32.33-7.36-48.46-11.16-3.82-.9-7.64-1.8-11.47-2.71-.66-.16-1.32.31-1.32,1.01v73.69c0,.45.32.9.77,1.01,25.9,6.63,51.96,12.66,78.11,18.23,28.16,5.99,56.44,11.45,84.8,16.41,16.44,2.88,32.91,5.59,49.4,8.14.7.11,1.27-.27,1.32-1.01.54-6.95,6.83-12.36,13.31-13.83,1.31-.3.76-2.31-.56-2.02-7.45,1.69-14.24,7.98-14.85,15.85l1.32-1.01c-29.19-4.51-58.3-9.53-87.31-15.08-27.5-5.26-54.92-11-82.2-17.3-14.3-3.3-28.56-6.76-42.78-10.4l.77,1.01v-24.94c0-13.23,0-26.47,0-39.7v-9.05l-1.32,1.01c15.99,3.79,31.99,7.52,48.01,11.16,16.57,3.77,33.17,7.46,49.78,11.05s34.16,7.26,51.27,10.7c17.47,3.52,34.96,6.9,52.49,10.14s35.58,6.4,53.42,9.35c17.99,2.97,36.02,5.75,54.07,8.33s36.3,4.96,54.49,7.1,36.18,4,54.31,5.61,36.37,2.94,54.59,3.96c17.95,1,35.92,1.69,53.89,2.03,4.32.08,8.65.14,12.97.18.78,0,1.32-.9.9-1.57-3.95-6.35-3.65-14.21,1.26-19.97,4.42-5.19,11.28-7.21,17.79-5.15,3.63,1.15,6.86,3.46,9,6.62.54.79,2.02.58,1.95-.53-.25-3.77,1.51-7.21,4.22-9.76,2.99-2.82,7.01-4.18,11-4.81s8.51-.66,12.66-.22,8.31,1.59,11.44,4.32,5.22,6.9,4.24,11.08c-.24,1.01.98,1.76,1.75,1.02,5.94-5.79,15.03-9.4,23.13-6.14,3.43,1.38,6.47,3.9,8.3,7.13,2.22,3.91,2.22,8.39.03,12.32-.35.64.08,1.65.9,1.57,5.14-.49,10.26-1.26,15.38-1.97,6.31-.88,12.62-1.72,18.92-2.65,15.62-2.31,31.16-5.13,46.62-8.32,30.71-6.34,61.09-14.17,91.31-22.51,15.25-4.21,30.44-8.66,45.75-12.65,15.33-4,30.75-7.64,46.25-10.93,30.9-6.56,62.1-11.73,93.46-15.53,32-3.88,64.16-6.29,96.37-7.43,32.13-1.14,64.31-1.04,96.44.04,32.08,1.07,64.14,2.75,96.17,4.89s64.35,4.8,96.47,7.92c31.95,3.11,63.86,6.69,95.71,10.7,32.08,4.04,64.11,8.54,96.07,13.44,7.65,1.17,15.29,2.37,22.92,3.59.42.07.99-.03,1.18-.48,2.74-6.3,7.71-11.68,14.24-14.1,6.04-2.24,12.84-1.99,18.8.38,3.41,1.36,6.48,3.45,8.99,6.12.43.46,1.35.39,1.64-.21,7.63-15.83,22.24-28.88,39.75-32.32,8.34-1.64,17.11-.89,24.83,2.75s13.46,9.15,18.07,15.79c2.73,3.93,5.02,8.2,6.79,12.65.82,2.04,1.4,4.17,1.93,6.31.22.89.44,1.79.63,2.69.06.29.12.58.19.87.03.15.06.68.05.16.02.74.65,1.11,1.32,1.01-.33.05.01.03.15.03.32,0,.65,0,.97,0,.96,0,1.93,0,2.89-.03,1.72-.04,3.43-.04,5.14.12,3.34.32,6.68,1.16,9.75,2.51,6.31,2.78,11.14,7.61,13.9,13.93,1.83,4.19,2.77,8.71,3.1,13.26.03.44.3.91.77,1.01,19.19,4.05,38.33,8.31,57.45,12.66,19.06,4.33,38.07,8.89,57.05,13.6,10.84,2.69,21.67,5.45,32.49,8.25l-.77-1.01v31.74c0,8.99,0,17.98,0,26.97v31.16c0,1.13-.23,2.55,0,3.66.01.05,0,.11,0,.16l1.32-1.01c-19.11-7-38.39-13.54-57.76-19.77-21.02-6.76-42.15-13.17-63.36-19.32-22.28-6.46-44.64-12.63-67.07-18.57s-45.37-11.76-68.15-17.3c-22.34-5.44-44.74-10.66-67.18-15.67-21.28-4.75-42.61-9.31-63.98-13.63-19.47-3.94-38.98-7.7-58.54-11.18-24.78-4.42-49.65-8.35-74.6-11.77-27.79-3.82-55.67-7.04-83.59-9.72s-56.05-4.84-84.13-6.52c-28.22-1.69-56.46-3.01-84.73-3.14s-56.13.74-84.12,2.63-56.12,4.82-84,8.79-55.35,8.93-82.71,15c-27.47,6.09-54.78,12.93-82.12,19.58-27.33,6.64-54.68,13.23-82.16,19.27s-55.24,11.55-83.1,15.99c-27.78,4.43-55.74,7.81-83.8,9.76-24.92,1.74-49.9,2.36-74.87,2.26-27.1-.1-54.19-1.07-81.25-2.65-13.67-.8-27.33-1.76-40.98-2.86l.9,1.57c4.31-6.62,4.82-15.71.76-22.59-3.72-6.29-10.98-9.77-18.17-9.71-4.06.03-8.08,1.2-11.43,3.51l1.54.63c-2.11-8.59-6.42-16.53-12.91-22.59s-14.36-9.84-22.77-11.91c-9.03-2.22-18.58-2.53-27.77-1.21-8.44,1.21-16.94,4.02-23.63,9.46-7.35,5.99-10.87,14.84-10.37,24.23l1.32-1.01c-8.68-3.29-17.89-6.57-27.28-4.64-1.32.27-.76,2.29.56,2.02Z"/>
        </g>
        <g>
          <path class="cls-4" d="M537.18,186.46c.48-7.42,6.07-14.23,13.25-16.14,7.18-1.91,15.42,1.21,19.53,7.41-.44-5.31,3.19-10.34,7.85-12.93s10.17-3.14,15.5-3.16c5.41-.02,11.04.53,15.67,3.33s7.94,8.39,6.6,13.63c5.26-5.2,12.73-8.49,20.06-7.49,7.33,1,14.07,6.91,14.83,14.26.28,2.71-.42,5.45-1.78,7.81,5.28-.49,17.98-2.36,24.89-3.3,58.09-7.85,114.1-22.72,170.37-38.63,57.16-16.33,115.87-27.6,174.95-34.08,60.82-6.67,122.14-8.01,183.26-5.85,135.54,4.83,270.75,19.08,404.65,40.48,2.52-5.91,7.06-10.98,12.88-13.74,10.11-4.81,23.2-2.28,30.8,5.94,8.88-18.55,27.46-33.1,48.02-33.66,20.56-.57,35.75,13.85,43.4,32.94,1.45,3.63,2.8,10.18,2.77,10.14-.02-.02,2.54.02,4.98-.05,11.05-.35,22.13,4.51,27.54,14.15,2.87,5.13,4.31,10.86,4.71,16.73,6.98,1.47,13.95,2.97,20.89,4.48,3.61.79,7.2,1.59,10.79,2.38,3.26.72,6.52,1.43,9.77,2.16,4.82,1.08,9.62,2.18,14.43,3.28,1.95.44,3.9.88,5.84,1.33,5.58,1.29,11.14,2.59,16.69,3.9,1.1.26,2.21.52,3.31.78,6.11,1.45,12.2,2.91,18.27,4.39.5.12,1.01.24,1.51.37,6.43,1.57,12.85,3.15,19.24,4.75.13.03.26.06.39.1,8.67,2.17,17.27,4.37,25.86,6.6v-92.08c-134.43-33.19-271.31-48.91-409.66-58.21.53-9.47-7.13-20.9-14.12-24.06-7.67-3.46-16.38-1.28-24.12,2.72,3.85-10.54,1.09-24.11-6.18-30.35-3.99-3.43-8.88-4.68-13.66-5.7-9.38-1.99-19.37-3.23-28.33,1.56-8.96,4.79-16.28,17.51-13.95,29.38-9.38-14.31-29.31-13.65-38.99,1.29-3.07,4.74-2.55,15.51-1.86,21.23-48.53-.47-99.23-3.97-147.83-4.97-90.74-1.86-181.74-6.45-271.66,8.51-86.81,14.44-170.14,43.71-256.99,57.24-43.17,6.72-86.74,10.57-130.35,12.9-14,.75-28.36,1.14-43,1.21,2.44-7.33,1.77-15.72-2.75-21.94-3.92-5.4-14.17-7.13-22.92-5.94-1.97-6.43-5.78-12.31-10.99-16.58-9.21-7.55-22.15-9.78-33.77-7.15-8.07,1.83-15.5,5.81-21.91,11.09-6.04-5.15-12.2-8.81-21.3-8.61-5.82.13-11.79,1.23-16.66,4.42-6.71,4.4-10.49,12.28-11.74,20.21-.85,5.4-.66,10.88-.14,16.34C255.14,116.72,116.31,84.09,1.09,44.54v73.19c160.49,38.04,356.86,77.97,539.02,79.56-2.05-3.22-3.17-6.93-2.92-10.83Z"/>
          <path class="cls-3" d="M538.23,186.46c.53-6.97,5.71-13.33,12.48-15.13s14.43,1.15,18.35,6.93c.54.79,2.02.58,1.95-.53-.25-3.77,1.51-7.21,4.22-9.76,2.99-2.82,7.01-4.18,11-4.81s8.51-.66,12.66-.22,8.31,1.59,11.44,4.32,5.22,6.9,4.24,11.08c-.24,1.01.98,1.76,1.75,1.02,5.94-5.79,15.03-9.4,23.13-6.14,3.43,1.38,6.47,3.9,8.3,7.13,2.22,3.91,2.22,8.39.03,12.32-.35.64.08,1.65.9,1.57,5.14-.49,10.26-1.26,15.38-1.97,6.31-.88,12.62-1.72,18.92-2.65,15.62-2.31,31.16-5.13,46.62-8.32,30.71-6.34,61.09-14.17,91.31-22.51,15.25-4.21,30.44-8.66,45.75-12.65s30.75-7.64,46.25-10.93c30.9-6.56,62.1-11.73,93.46-15.53,32-3.88,64.16-6.29,96.37-7.43,32.13-1.14,64.31-1.04,96.44.04s64.14,2.75,96.17,4.89c32.19,2.15,64.35,4.8,96.47,7.92,31.95,3.11,63.86,6.69,95.71,10.7,32.08,4.04,64.11,8.54,96.07,13.44,7.65,1.17,15.29,2.37,22.92,3.59.42.07.99-.03,1.18-.48,2.74-6.3,7.71-11.68,14.24-14.1,6.04-2.24,12.84-1.99,18.8.38,3.41,1.36,6.48,3.45,8.99,6.12.43.46,1.35.39,1.64-.21,7.63-15.83,22.24-28.88,39.75-32.32,8.34-1.64,17.11-.89,24.83,2.75s13.46,9.15,18.07,15.79c2.73,3.93,5.02,8.2,6.79,12.65.82,2.04,1.4,4.17,1.93,6.31.22.89.44,1.79.63,2.69.06.29.12.58.19.87.03.15.06.68.05.16.02.74.65,1.11,1.32,1.01-.33.05.01.03.15.03.32,0,.65,0,.97,0,.96,0,1.93,0,2.89-.03,1.72-.04,3.43-.04,5.14.12,3.34.32,6.68,1.16,9.75,2.51,6.31,2.78,11.14,7.61,13.9,13.93,1.83,4.19,2.77,8.71,3.1,13.26.03.44.3.91.77,1.01,19.19,4.05,38.33,8.31,57.45,12.66,19.06,4.33,38.07,8.89,57.05,13.6,10.84,2.69,21.67,5.45,32.49,8.25.66.17,1.32-.32,1.32-1.01v-88.3c0-1.19.1-2.43,0-3.62,0-.05,0-.11,0-.16,0-.45-.32-.9-.77-1.01-26.24-6.47-52.63-12.3-79.14-17.55-26.45-5.23-53.01-9.89-79.65-14.04s-53.23-7.78-79.93-11c-26.81-3.23-53.67-6.04-80.56-8.51-26.87-2.47-53.78-4.6-80.7-6.47-3.32-.23-6.64-.46-9.96-.68l1.05,1.05c.32-6.98-3.03-13.95-7.47-19.17-1.98-2.33-4.37-4.51-7.18-5.79-3.66-1.67-7.73-2.16-11.72-1.69-4.74.55-9.24,2.25-13.46,4.42l1.54,1.18c2.4-6.72,2.36-14.39.05-21.13-1.05-3.08-2.59-6.01-4.73-8.47-2.49-2.85-5.82-4.76-9.35-6-3.87-1.36-8.02-2.13-12.06-2.77s-8.48-1.02-12.71-.56c-7.67.83-14.41,4.33-19.16,10.43-5.11,6.56-7.72,15.13-6.17,23.39l1.91-.81c-5.14-7.73-13.96-11.98-23.22-10.56-8.76,1.34-17.84,8.23-19.5,17.25-.99,5.36-.73,10.98-.08,16.36l1.05-1.05c-27.82-.28-55.62-1.5-83.41-2.69-27.86-1.19-55.71-2.04-83.59-2.7s-56.36-1.44-84.55-1.66-56.3.11-84.41,1.67c-28.07,1.55-56.08,4.34-83.81,8.95s-53.94,10.48-80.64,16.96-53.23,13.48-79.88,20.06-53.39,12.74-80.41,17.54c-27.81,4.94-55.88,8.41-84,11.05s-56.22,4.63-84.38,5.38c-6.92.19-13.84.29-20.76.32l1.01,1.32c2.1-6.48,1.97-13.73-1.11-19.88-1.33-2.65-3.12-4.86-5.7-6.38s-5.55-2.37-8.49-2.83c-3.77-.59-7.59-.61-11.37-.12l1.01.77c-3.22-10.31-10.69-18.54-20.7-22.61-10-4.06-21.44-3.77-31.47-.02-5.93,2.22-11.35,5.52-16.24,9.52h1.48c-3.74-3.18-7.79-6.01-12.49-7.56-5.2-1.72-10.87-1.66-16.22-.74s-10.63,3.23-14.51,7.24c-3.59,3.71-5.98,8.46-7.34,13.4-1.85,6.75-1.7,13.84-1.07,20.75l1.05-1.05c-25.88-2.88-51.68-6.42-77.39-10.53-25.97-4.15-51.85-8.88-77.62-14.13s-51.2-10.99-76.62-17.26c-24.87-6.13-49.61-12.76-74.21-19.89-23.62-6.85-47.1-14.17-70.41-22.03-2.81-.95-5.61-1.9-8.41-2.86-.65-.22-1.32.36-1.32,1.01v73.19c0,.45.32.9.77,1.01,15.99,3.79,31.99,7.52,48.01,11.16s33.17,7.46,49.78,11.05,34.16,7.26,51.27,10.7c17.47,3.52,34.96,6.9,52.49,10.14s35.58,6.4,53.42,9.35c17.99,2.97,36.02,5.75,54.07,8.33s36.3,4.96,54.49,7.1,36.18,4,54.31,5.61,36.37,2.94,54.59,3.96c17.95,1,35.92,1.69,53.89,2.03,4.32.08,8.65.14,12.97.18.78,0,1.32-.9.9-1.57-1.95-3.14-2.97-6.6-2.78-10.3.07-1.35-2.02-1.34-2.09,0-.21,4.05.94,7.93,3.07,11.36l.9-1.57c-17.92-.16-35.83-.68-53.74-1.53-18.11-.85-36.2-2.03-54.27-3.5s-36.22-3.22-54.29-5.21-36.48-4.29-54.68-6.78-36.16-5.17-54.19-8.06-35.61-5.89-53.37-9.09-35.18-6.5-52.74-9.97-34.27-6.91-51.37-10.54-33.47-7.23-50.17-10.98c-16.17-3.64-32.33-7.36-48.46-11.16-3.82-.9-7.64-1.8-11.47-2.71l.77,1.01v-24.81c0-13.12,0-26.24,0-39.36v-9.02l-1.32,1.01c23.25,7.98,46.69,15.42,70.26,22.38,24.47,7.23,49.09,13.94,73.83,20.17s50.97,12.28,76.63,17.65,51.77,10.27,77.8,14.56c25.63,4.23,51.35,7.9,77.15,10.93,3.17.37,6.35.74,9.52,1.09.53.06,1.09-.53,1.05-1.05-.98-10.58-.68-22.28,6.29-30.97,3.23-4.03,7.6-6.62,12.59-7.88s10.74-1.59,15.84-.3,9.4,4.19,13.33,7.53c.46.39,1.01.38,1.48,0,8.12-6.64,18.07-11.3,28.65-11.79,9.87-.46,20.11,2.55,27.36,9.46,4.17,3.98,7.19,9.02,8.9,14.51.12.39.55.83,1.01.77,3.82-.5,7.75-.52,11.55.17,3.32.6,6.87,1.7,9.38,4.06,2.71,2.55,4.16,6.55,4.77,10.14.69,4.08.23,8.28-1.04,12.2-.21.65.35,1.33,1.01,1.32,28.19-.14,56.35-1.71,84.45-3.92,28.19-2.22,56.33-5.26,84.29-9.47,27.2-4.1,54.13-9.7,80.89-16.02,26.72-6.31,53.27-13.27,79.89-19.95,26.63-6.69,53.35-13.1,80.32-18.29s55.44-9.05,83.47-11.24,56.2-3,84.34-3.09c28.18-.09,56.36.54,84.54,1.21s55.85,1.21,83.76,2.33,55.8,2.52,83.72,3.2c6.72.16,13.44.29,20.16.35.52,0,1.11-.49,1.05-1.05-.53-4.43-.75-8.97-.32-13.42.2-2.06.55-4.24,1.41-6.14s2.4-3.71,3.88-5.22c5.85-5.98,14.65-8.63,22.71-5.99,4.65,1.52,8.53,4.73,11.22,8.78.67,1.01,2.13.36,1.91-.81-1.29-6.87.68-14.01,4.51-19.77s9.74-9.82,16.75-11.1c7.6-1.39,15.73.09,23.12,2,3.68.95,7.31,2.36,10.16,4.95,2.16,1.96,3.76,4.47,4.91,7.14,2.93,6.82,3.15,14.9.66,21.88-.33.92.79,1.57,1.54,1.18,6.7-3.43,14.74-5.87,22.12-3.11,5.66,2.12,9.78,7.71,12.25,13,1.53,3.29,2.47,6.9,2.31,10.54-.03.59.5,1.01,1.05,1.05,27.02,1.82,54.02,3.88,80.99,6.28,26.74,2.38,53.46,5.08,80.12,8.19s53.65,6.68,80.38,10.73c26.5,4.01,52.92,8.51,79.24,13.58,26.45,5.09,52.78,10.75,78.97,17.05,3.23.78,6.46,1.56,9.69,2.36l-.77-1.01v31.17c0,8.87,0,17.74,0,26.62v30.51c0,1.12-.23,2.52,0,3.62.01.05,0,.11,0,.16l1.32-1.01c-19.06-4.94-38.17-9.71-57.32-14.3s-37.99-8.93-57.05-13.13c-10.86-2.4-21.73-4.77-32.62-7.07l.77,1.01c-.58-7.96-2.95-16.21-8.45-22.2-4.86-5.29-11.73-8.42-18.78-9.39-2.02-.28-4.03-.38-6.07-.33-1.72.04-3.56-.16-5.26.09l1.32,1.01c-.03-1.06-.44-2.21-.69-3.23-.49-2.04-1.01-4.07-1.7-6.05-1.45-4.17-3.52-8.22-5.86-11.96-4.46-7.15-10.42-13.5-17.81-17.66-16.07-9.07-35.8-5.41-50.24,5.12-8.45,6.16-15.31,14.42-19.86,23.84l1.64-.21c-9.8-10.45-27.21-11.66-38.03-2.12-3.15,2.78-5.62,6.29-7.29,10.14l1.18-.48c-31.79-5.08-63.64-9.75-95.55-14-31.99-4.26-64.03-8.07-96.12-11.43-31.93-3.34-63.9-6.21-95.92-8.6-32.17-2.4-64.38-4.3-96.62-5.68-32.28-1.38-64.58-2.12-96.89-1.56-32.15.56-64.28,2.29-96.27,5.47-31.53,3.13-62.93,7.63-94.06,13.51-30.98,5.85-61.67,13.13-91.99,21.74-30.34,8.62-60.8,16.91-91.54,23.98-15.36,3.53-30.79,6.75-46.3,9.53-14.06,2.52-28.18,4.52-42.32,6.49-4.93.69-9.87,1.43-14.82,1.9l.9,1.57c1.88-3.39,2.51-7.25,1.42-11.01-.91-3.13-2.82-5.93-5.28-8.05-5.51-4.76-13.01-5.84-19.85-3.6-4.16,1.36-7.91,3.76-11.04,6.81l1.75,1.02c.94-4.04-.39-8.07-2.96-11.23-2.87-3.51-7.12-5.47-11.49-6.33-4.7-.93-9.71-.96-14.47-.45s-9.25,1.79-12.93,4.75-6.14,7.36-5.83,12.1l1.95-.53c-3.46-5.1-9.31-8.26-15.46-8.47s-12.14,3-15.78,8.07c-2.03,2.84-3.23,6.18-3.49,9.66-.1,1.34,1.99,1.34,2.09,0Z"/>
        </g>
      </g>
    </g>
  </g>
</svg>