<?xml version="1.0" encoding="UTF-8"?>
<svg id="Layer_2" data-name="Layer 2" xmlns="http://www.w3.org/2000/svg" viewBox="0 0 65.86 49.85">
  <defs>
    <style>
      .cls-1 {
        fill: #3dbeb2;
      }
    </style>
  </defs>
  <g id="Graphics_1" data-name="Graphics 1">
    <g>
      <path class="cls-1" d="M0,4.07c2.8,3.17,4.81,4.92,8.55,5.26,2.03.18,8.13.56,13.73.69,2.8.08,5.47.1,7.45.1,1.97,0,3.25,0,3.25,0,0,0,1.27-.01,3.25-.03,1.97-.03,4.65-.07,7.44-.19,5.6-.19,11.69-.64,13.72-.85,3.74-.38,5.72-2.16,8.49-5.36C62.47,1.15,60.28-.21,56.64.03c-1.97.13-7.89.56-13.33.77-2.72.12-5.32.18-7.23.22-1.92.03-3.15.05-3.15.05,0,0-1.24,0-3.16-.01-1.92-.02-4.52-.05-7.24-.13-5.44-.15-11.37-.51-13.34-.62C5.54.11,3.36,1.48,0,4.07Z"/>
      <path class="cls-1" d="M0,23.37c2.8,3.17,4.81,4.92,8.55,5.26,2.03.18,8.13.56,13.73.69,2.8.08,5.47.1,7.45.1,1.97,0,3.25,0,3.25,0,0,0,1.27-.01,3.25-.03,1.97-.03,4.65-.07,7.44-.19,5.6-.19,11.69-.64,13.72-.85,3.74-.38,5.72-2.16,8.49-5.36-3.39-2.55-5.58-3.9-9.22-3.67-1.97.13-7.89.56-13.33.77-2.72.12-5.32.18-7.23.22-1.92.03-3.15.05-3.15.05,0,0-1.24,0-3.16-.01-1.92-.02-4.52-.05-7.24-.13-5.44-.15-11.37-.51-13.34-.62-3.65-.19-5.82,1.19-9.18,3.78Z"/>
      <path class="cls-1" d="M0,43.8c2.8,3.17,4.81,4.92,8.55,5.26,2.03.18,8.13.56,13.73.69,2.8.08,5.47.1,7.45.1,1.97,0,3.25,0,3.25,0,0,0,1.27-.01,3.25-.03,1.97-.03,4.65-.07,7.44-.19,5.6-.19,11.69-.64,13.72-.85,3.74-.38,5.72-2.16,8.49-5.36-3.39-2.55-5.58-3.9-9.22-3.67-1.97.13-7.89.56-13.33.77-2.72.12-5.32.18-7.23.22-1.92.03-3.15.05-3.15.05,0,0-1.24,0-3.16-.01-1.92-.02-4.52-.05-7.24-.13-5.44-.15-11.37-.51-13.34-.62-3.65-.19-5.82,1.19-9.18,3.78Z"/>
    </g>
  </g>
</svg>