<?xml version="1.0" encoding="UTF-8"?>
<svg id="Layer_2" data-name="Layer 2" xmlns="http://www.w3.org/2000/svg" viewBox="0 0 1775.7 1525.41">
  <defs>
    <style>
      .cls-1 {
        fill: #48ccc6;
      }

      .cls-2 {
        fill: #42adb3;
      }

      .cls-3 {
        fill: #292d37;
      }

      .cls-4 {
        fill: #eb507c;
      }

      .cls-5 {
        fill: #f14d1a;
      }

      .cls-6 {
        fill: #e8c2b5;
      }

      .cls-7 {
        fill: #3d6b90;
      }

      .cls-8 {
        fill: #f3a736;
      }

      .cls-9 {
        fill: #102e49;
      }
    </style>
  </defs>
  <g id="COLOR">
    <g id="HAIR">
      <path class="cls-7" d="M1763.98,617.53c-.84-42.39-12.31-81.49-33.35-118.01-24.35-42.28-59.63-77.26-104.15-97.94-3.35-6.35-3.65-12.79-2.89-19.7,2.03-18.43,1.23-36.13-1.06-54.54-6.77-54.51-30.54-85.62-68.13-123.55-43.04-43.43-97.38-71.01-157.9-80.85-41.51-6.75-82.06-9.89-123.29-1.56-2.92.59-6.32-.33-7.12-1.81-.98-1.81,1.32-4.9-.42-6.7-27.02-28.08-61.66-49.04-98.5-62.73-73.64-27.37-152.09-9.27-223.1,17.73-2.91,1.11-5.25,3.44-8.64,1.11-7.92-5.44-15.2-11.15-22.93-17.24-34.88-27.47-76.57-42.17-121.28-42.49-41.22-.3-80.93,6.56-119.86,19.94-29.48,10.14-55.4,24.99-80.66,43.43-2.26-1.44-1.94-4.36-3.38-5.68-6.38-1.13-11.35-3.6-16.77-6.71-31.12-17.9-64.7-27.54-100.37-31.54-47.59-5.35-94.09-.47-139.09,16.14-38.81,14.33-75.09,32.71-108.53,57.2-37.32,27.32-66.79,62.04-90.12,101.75-41.1,69.96-56.92,147.28-28.53,225.25,3.24,8.89,11.05,27.68,9.6,34.16-.54,2.4-5.36.53-6.52,1.54-19.43,16.7-37.54,33.62-53.56,53.51-27.58,34.24-43.33,74.55-43.84,118.83-1.59,136.96,108.4,241.57,230.1,282.99,18.25,6.21,36.06,8.38,54.96,11.97-1-6.71,3.63-50.33,12.26-48.9.23.08.47.15.73.22-.03-.28-.05-.57-.06-.85-.04-.91,0-1.83-.04-2.74-.32.12-.95.08-1.3.01-18.72,6.43-53.69-1.4-73.03-9.57-36.37-15.37-69.23-36.11-98.33-62.7-28.12-25.68-47.93-57.1-58.7-93.63-24.34-90.3-4.91-184.03,78.08-235.21-16.35-60.13-11.61-120.73,8.15-178.65,12.08-37.83,30.14-72.02,54.3-103.43,15.07-19.6,30.29-37.53,47.99-54.68,17.5-16.96,37.13-29.78,59.56-39.39,25.74-11.02,51.31-19.78,78.77-25.67,27.58-5.91,54.54-5.56,81.86,1.76,31.8,8.51,61.62,20.93,90.03,37.23,6.58,3.77,11.27,8.89,18.05,12.34,16.41-16.06,48.49-32.1,69.16-40.96,34.23-14.67,69.75-20.91,107.06-20.15,56.63,1.16,91.93,22.72,136.73,54.67,6.61-5.89,12.43-10.24,20.2-13.37,30.27-12.17,61.43-20.88,94.62-22.25,38.97-1.6,76.89,3.22,114.17,13.34,24.89,6.76,46.81,18.72,63.84,37.72l40.35,45.04c64.38-12.16,125.11-9.36,186.04,16.81,30.36,13.04,55.54,32.09,76.91,57.28,20.3,23.93,48.81,67.83,52.71,99.45,3.84,31.13,2.75,62.03-2.31,92.28.52-2.21,1.28-2.18,1.59.15,4.86-2.9,10.46-3.58,16.89-3.2,40.8,2.41,71.49,37,89.45,71.1,17.54,33.31,27.36,70.01,28.85,107.92.86,21.97-3.46,42.27-10.31,62.79-12.7,38-34.52,71.52-65.06,97.31-17.9,15.12-38.37,23.77-61.55,27.3-26.61,3.97-52.42,2.69-79.74-1.11-14.74,15.54-33.31,26.22-55.73,28.93,7.94,28.86,4.12,58.74-13.03,83.08,20.77,22.3,19.13,58.28,4.51,84.18-7.01,12.43-14.26,24.06-25.76,33.83,17.7,40.13-11.5,97.76-39.05,128.74,15.33,24.19,60.97,35.86,86.16,23.82,30.88-14.75,59.44-55.26,43.68-90.23-.91-2.01-2.95-3.48-3.14-4.87-1.71-12.53,16.02,1.1,37.13-22.4,13.87-15.44,20.9-35.67,16.87-56.26-3.97-20.26-17.98-18.94-18.73-24.42-1.25-9.06,11.87-1.91,34.09-21.12,16.33-14.11,28.47-35.15,30.17-56.88.66-8.38,2.45-15.77-.8-23.56-2.07-4.96-5.13-11.18-8.37-15.44-3.12-4.1-9.41-8.24-12.84-12.09-2.94-3.31-3.85-7.47-8.19-8.37-4.05-.84-8.74.19-13.33-2.25,5.56-2.7,11.34-.87,16.98-.75,20.93.47,41.28-2.05,61.68-6.96,58.75-14.14,102.61-59.22,130.54-110.7,20.02-36.9,29.39-76.89,28.56-119.02ZM1418.55,840.29c.37.16.65.36.88.6-.31-.13-.6-.32-.88-.6Z"/>
      <g>
        <path class="cls-2" d="M1397.44,927.96c-27,3.03-34.31-3.45-47.21-27.46-4.33,8.55-9.62,15.8-15.63,21.86-.57-.19-1.14-.36-1.72-.51-4.67-2.34-9.84-3.57-15.35-3.78,6.95-5.36,12.67-12.18,16.33-20.64-9.01,7.69-15.88,16.2-26.53,20.85-14.54,6.35-30.47,4.64-44.6-2.05-21.04-9.96-28.19-22.14-34.88-34.44-2.62-3.89-3.89-7.05-5.03-11.53-3.63-7.37-3.78-16.94-6.58-24.65-13.95,11.02-34.58,14.48-51.57,14.86-5.61.12-11.08-.46-16.47-1.51-2.32-.92-4.79-1.53-7.53-1.76-18.13-4.91-35.59-14.04-54.75-18.35,3.52,4.92,6.93,9.84,10.26,14.78-3.45.12-7.16.94-10.62,2.36-1.9-2.73-3.82-5.44-5.81-8.14-11.29-15.35-18.66-19.32-38.49-21.89,8.61,14.37,15.6,27.98,17.65,44.2,1.43,11.33.36,23.67-3.75,34.38-9.71,3.74-17.15,12.84-18.95,23-4.16,2.32-8.92,3.96-14.33,4.7,4.52,2.27,9.35,3.6,14.24,4.07.2,1.24.48,2.47.86,3.7.72,2.26,1.59,4.38,2.6,6.37-1.48-.15-2.96-.33-4.44-.59.75,4.06,5.45,7.19,11.08,9.75,3.57,3.56,7.9,6.4,12.98,8.54,2.58,1.09,5.18,1.87,7.82,2.53,3.15,2.54,6.59,4.23,10.34,5.4,3.3,3.63,7.42,6.51,11.92,8.36-.47,3.65-.24,7.47.85,11.31,3.12,11.04,7.8,22.06,14.18,31.64,2.39,3.59,4.99,7.09,7.72,10.47.19.89.4,1.78.64,2.66,1.7,6.25,4.45,12.34,7.25,18.14,2.37,4.91,5.07,9.84,8.06,14.57,1.97,9.68,8.23,17.9,16.96,21.87,3.51,4.45,7.34,8.54,11.96,12.11,1.26.97,2.55,1.89,3.85,2.78,4.06,4.71,8.73,8.84,14.38,11.26,3.88,1.66,7.56,3,11.34,3.6,2.53,1.63,5.09,3.2,7.67,4.75-1.7,5.01-2.04,10.01-1.17,14.75-11.05,24.04-2.16,46-6.78,60.07-4.91,14.96-17.32,26.85-32.56,30.79-8.28,2.14-16.42-1.03-24.54-.65-1.97.48-2.96,5.92-1.9,8.03,5.18.67,10.39.94,15.58.85-3.87,2.36-7.24,5.56-9.74,9.31-2.77-.31-5.5-.76-8.16-1.35-3.83,16.5-9.04,31.71-16.63,46.77-5.8,11.5-10.17,22.8-15.34,34.56-7.63,17.32-18.35,32.14-28.08,48.85,12.66.99,33.98,1.45,34.47-15.66.37-12.97,13.49-3.76,23.91-13.66,13.49-12.82,6.21-25.54,14.57-27.86,8.37-2.32,10.42,11.43,29.13,12.62,21.69,1.38,42.83-10.29,51.38-31.47-11.73,4.42-39.23,2.51-39.6-8.25-.09-2.65,1.41-5.33,4.23-6.68,11.29-5.42,21.53-11.27,31.02-19.76l79.69-71.36c28.57-25.58,37.81-32.56,58.61-65.29,12.98-20.42,26.85-56.93,20-80.46-4.94,2.77-7.56,7.25-13.61,5.68l32.04-45.71c16.84-24.03,24.65-56.73,6.77-81.67Z"/>
        <path class="cls-2" d="M1185.22,1100.98c-51.43-17.04-65.9-56.41-89.28-100.6-.62-1.07-6.98-15.54-7.26-14.37,4.36,12.05,12.76,40.85,28.12,68.3,13.89,24.83,33.92,48.44,53.74,59.56,29.9,16.78,65.38,18.81,93.74.39,9.37-6.08,16.55-13.8,19.89-25-7.89,5.01-15.1,8.74-23.83,11.65-24.55,7.61-50.48,7.69-75.12.06Z"/>
      </g>
      <path class="cls-2" d="M470.3,884.57c1.98-18.36,3.12-34.01,7.26-50.36-3.56.06-5.53,2.33-6.97,4.87-6.29,11.09-13.52,20.34-22.58,29.55,10.8,1.97,16.66,8.21,22.29,15.94Z"/>
      <path class="cls-1" d="M1478.3,1018.74c-15.81-14.41-50.52-7.07-53.61,15.93-1.65,12.3,7.77,22.86,19.27,25.95,8.68,2.33,17.88.9,24.85-4.23,2.87-1.56,5.55-3.61,7.92-6.13,8.42-8.93,11.67-22.31,1.57-31.52Z"/>
      <path class="cls-1" d="M1417.07,1110.22c-8.28,4.08-16.49,8.61-20.88,17.5-5.85,11.84.31,28.48,13.12,32.3,9.3,2.77,20.6-1.89,26.13-10.11,4.48-6.66,3.21-14.55,1.59-21.11-2.5-10.2-9.89-17.19-19.96-18.58Z"/>
      <path class="cls-1" d="M1489.55,888.79c-5.39-.65-8.5-.96-13.9,1-8.34,3.02-16.33,6.62-20.27,13.78-4.47,8.11-5.57,16.97-2.22,26.04,7.3,19.75,31,30.09,51.13,20.91,14.52-6.62,20.1-23.41,16.71-37.15-3.66-14.81-16.6-22.79-31.44-24.58Z"/>
      <path class="cls-1" d="M1666.66,560.74c-10.48-39.32-37.53-84.68-76.73-100.46-24.86-10.01-38.68,3-35.88-12.12l-1.59-.15c-1.78,1.25-3.38,2.82-4.84,3.45-1.23.53-6.03.1-5.8-2.04,3.58-34.11,7.93-88.1-6.82-119.24-24.92-52.57-60.54-97.66-115.52-120.71-52.86-22.16-110.27-27.55-166.77-17.36-5.93,1.07-14.81,2.61-19.47-.84l-41.37-44.61c-16.57-17.87-36.82-29.87-60.71-36.21-36.04-9.57-72.75-14.27-110.4-12.64-27.7,1.2-77.08,11.81-101.06,27.68-5.62.32-11.24.31-16.87-.17-3.47-.61-6.93-1.29-10.4-1.88-38.15-24.76-64.98-42.22-110.2-45.86-70.68-5.68-134.93,17.18-189.96,60.54-34.4-21.28-69.31-37.53-107.6-48.14-25.8-7.15-51.29-8.13-77.53-2.59-28.67,6.05-55.44,15.3-82.24,27.16-41.5,18.37-68.48,50.09-96.29,84.96-27.79,34.85-46.83,73.6-59.55,116.44-15.34,51.68-18.58,105.71-4.38,157.95,1.64-.67,3.27-1.29,4.9-1.88-.03.7-.04,1.4,0,2.11.07,1.55.25,3.07.53,4.56-6.75,2.65-13.23,6.11-19.47,10.28-40.21,26.91-66.05,69.32-73.08,117.4-4.83,33.01-2.9,65.52,5.15,97.91,9.59,38.59,30.3,71.68,59.77,98.19,28.52,25.66,60.53,45.7,96.06,60.36,22.31,9.2,45,12.4,67.73,16.93.35.07.99.11,1.3-.01l2.77-1.47c-5.88-14.51-5.96-31.25-6.54-47.48-4.22,1.11-8.62,1.52-13.13,1.39,1.97-3.96,3.07-8.32,3-12.78,4.83,0,9.26-.72,13.06-2.35,4.96-21.64,16.68-39.63,33.53-53.5,1.19-.98,2.97-.27,3.35.47.35.7.26,2.64-.62,3.12-4.91,2.65-4.9,6.51-6.27,10.83-5.54,17.44-7.24,34.93-2.19,52.38,6.2,21.39,21.55,38.18,39.86,45.26,35.2,13.61,68.14-.86,88.6-34.11-11.77,3.32-23.75,4.18-35.19,2.55,2.42-3.64,4.04-7.68,4.8-11.82,19.26,1.42,38.88-5.68,48.74-24.4,2.5-4.74,3.26-9.96.86-14.31-.07-.13-.15-.24-.22-.36.12-.02.25-.04.37-.06,6.83-1.07,14.3-7.86,17.63-13.56.9-1.55,1.68-3.27,2.3-5.1,32.91-5.48,63.31-19.2,89.44-39.71,24.97-19.6,41.23-45.61,49.14-76.3,2.04-7.9-1.09-10.32-1.97-11.97.03-.09.07-.17.1-.26,0-.02.02-.03.03-.05.31-.68.64-1.35.96-2.01.88-.56,3.5-.72,4.66.33,28.2,25.36,65.64,33.6,102.14,23.96,8.11-2.14,15.82-4.72,23.16-7.96,1.64,2.85,3.72,5.41,6.15,7.57-1.41.65-2.85,1.29-4.31,1.91,1.89,12.77,5.93,24.07,13.17,34.71,18.5,27.19,44.7,47.95,75.87,58.37,16.35,5.46,32.13,7.8,49.29,5.5,16.73-2.24,33.01-6.04,48.45-12.37,5.66-2.32,10.48-5.38,14.58-8.99,2.54,7.96,8.06,14.6,15.42,18.18-4.14,2.75-5.12,6.81-7.04,8.54-.77.69-1.7,1-3.04.71-.24-.05-.49-.12-.75-.21-.07.01-.13.02-.19.03l.04.64c1.1.2,2.2.45,3.3.73,20.68,5.23,39.99,23.34,53.64,40.95,20.73.16,40.88,3.68,60.56,9.64,3.18,1.67,6.62,2.81,10.14,3.3,5.82,2.02,11.6,4.23,17.35,6.64,12.82,5.37,25.12,9.3,38.87,10.34,17.36,1.31,33.38-3.51,46.2-12.54,3.24,3.82,7.38,6.82,12.19,8.56-1.16,1.02-2.35,2.01-3.57,2.98,2.8,7.71,2.95,17.27,6.58,24.65,14.07,28.6,62.38,61.54,93.27,33.37,7.79-7.1,18.41-16.2,20.94-27.01.52-2.23.4-4.82-.24-7.55,1.28-.86,2.55-1.79,3.83-2.82,3.58-2.84,6.36-6.21,8.46-9.93,4.58,10.19,6.13,21.9,4.52,33.44,7.17,18.26,17.17,35.02,39.26,32.49l9.97-25.64c6.45-16.59,7.43-33.33,3.68-51.07-.94-4.43-2.18-8.74-3.69-12.94.33.01.66.03.99.03,5.04,0,10-1.45,14.39-3.96,15.66-2.61,29.39-8.94,41.19-19.91-.37-.12-.84-.25-1.35-.39,2.66-3.59,4.5-7.75,5.16-12.2,29.8,4.88,61.78,6.27,87.72,2.25,21.57-3.34,40.69-11.62,57.19-26.39,38.86-34.79,64.01-83.61,67.91-136.09,1.93-26.01-2.79-50.49-9.38-75.22Z"/>
    </g>
    <g id="FACE">
      <path class="cls-2" d="M489.05,1037.55c-2.3-.88-4.44-1.98-6.43-3.05,2.37-9.73,1.19-19.53-3.57-27.87.85-4.92,1.8-9.82,2.9-14.7,2-8.87.04-18.65-5.2-25.92.96-1.42,1.97-2.81,3.06-4.19-4.37-10.83-6.7-21.47-8.11-32.93.48-2.13.69-4.33.59-6.58-.14-3.21-.76-6.31-1.77-9.23-1.88-9.13-7.56-16.95-15.55-21.13-2.87-5.18-8.34-8.03-14.49-8.1-10.52-.12-20.64,2.19-28.52,10.24-1.46-3.2,1.27-4.98.37-8.76-34.6,5.11-67.08-12.92-79.84-45.01-7.56-19.02-6.51-38.38-1.57-58.57-19.9,28.12-21.04,64.19-8.42,94.63-3.57,2.5-6.62,5.72-8.84,9.42-1.17-2.48-2.3-4.98-3.33-7.53l-2.8,1.49c.03.91.03,1.81.07,2.72.01.28.03.57.06.85.71,6.66.05,13.57-1.17,21.06-5.79,35.48,8.21,70.91,38.38,90.62,16.34,10.68,37.69,7.37,49.73-7.79,4.7,16.23-22.61,30.88-36.93,28.11-8.46,19.45,25.79,28.35,25.27,38.17-.41,7.72-16.43,7.82-8.52,22.56,8.04,14.98,21,25.29,33.89,35.55-6.47,1.11-10.05-2.6-14.26-2.9-1.18,4.11-5.15,5.44-2.93,9.46,15.05,18.14,28.29,28.94,51.66,36.91,18.14,6.18,32.97,17.46,42.93,33.89-.18-10.88.1-16.33,1.22-19.54-6.26-6.71-11.71-12.78-16.49-18.76,10.05-4.82,17.62-15.09,17.1-26.59-.08-1.78-.31-3.53-.67-5.24l1.3-26.6c.9-18.43,2.21-36.13.86-54.69Z"/>
      <path class="cls-7" d="M1419.43,840.9c-.23-.24-.52-.44-.88-.6.28.28.57.47.88.6Z"/>
      <path class="cls-7" d="M1552.47,448.01l1.59.15c-.31-2.33-1.06-2.36-1.59-.15Z"/>
      <path class="cls-8" d="M1093.39,1124.02c-.66-11.6-1.57-23.19-2.74-34.75-1.03-10.11-3.07-20.44-2.73-30.65.49-2.04,1.06-4.05,1.54-6.12,1.57-6.8,1.97-13.15,1.05-20.01-1.22-9.11-4.8-18.11-10.16-25.62-1.41-1.98-2.89-3.88-4.42-5.72-1.39-3.73-3.5-7.16-6.49-9.91-3.23-2.96-6.56-4.93-10.19-6.27-4.81-3.82-9.92-7.34-15.27-10.67-21.02-13.08-42.43-25.59-63.76-38.19-1.97-15.43-4.94-30.77-11.19-45.43-3.14-7.36-9.52-12.17-11.97-19.11-5.43-5.51-9.25-11.68-15.73-16.94-13.82-11.22-27.57-21.15-43.34-29.78-16.46-9-30.42-20.41-40.72-36.15l-13.33-20.37c-35.9-15.89-76.54-54.34-82.24-95.21-7.83,2.4-13.55,6.68-20.99,8.39-32.88,7.53-67.66-.97-92.93-24-9.24,75.6-83.11,120.18-152.97,129.77.81,4.73,4.42,2.87,6.34,4.67-1.46,11.18-5.91,20.29-9.23,30.73-9.32,29.27-10.84,59.81-8.35,90.53,1.29,15.95,1.54,29.44-.96,46.78,1.73-1.45,3.5-2.79,5.28-4.03-.69,2.49-1.17,5.12-1.52,7.97-4.22,34.14,5.24,68.22,5.94,102.37.72,34.79-3.96,69.68-4.43,104.47-.09,6.4,2.42,12.97,6.54,18.28l11.4,51.7c14.16,69.87,31.18,120.6,64.2,183.66,10.17,19.43,26.38,34,42.52,48.31,19.21,17.02,49.48,37.17,75.55,37.88,11.75.32,22.15,5.2,33.46,6.15,11.78.98,59.55-2.24,69.28-7,11.08-5.41,21.85-11.49,32.07-18.39,3.83-2.58,7.58-5.29,11.24-8.12,2.31.16,4.62.2,6.93.1,22.13-.97,43.1-7.76,63.05-17,16.2-7.5,31.14-17.42,45.29-28.25,16.08-12.31,31.58-25.32,46.32-39.22,27.55-25.97,53.09-55.93,69.33-90.39,17.91-38,26.16-78.73,28.64-120.52,1.27-21.3.92-42.67-.28-63.96Z"/>
      <path class="cls-6" d="M819.3,1035.63c18.29,3.05,34.59,2.89,51.87.33-2.98-11.69-.62-20.49,3.87-29.9-22.57.92-42.01,12.06-55.74,29.56Z"/>
      <path class="cls-6" d="M544.82,1021.15c26.74,13.43,15.6,14.4,44.72,8.72-3.82-9.66-3.14-16.06-.12-23.92-11.08.37-32.75,10.74-44.6,15.2Z"/>
      <path class="cls-6" d="M640,1030.8l22.41-3.16c-6.02-4.51-10.74-9.65-18.69-13.08.16,5.91-.94,10.7-3.72,16.24Z"/>
      <path class="cls-6" d="M932.4,1022.74c.18,6.44-1.9,11.08-4.29,16.81,9.04-2.38,15.99-5.71,24.85-9.59-7.23-.92-13.13-4.15-20.56-7.22Z"/>
      <path class="cls-6" d="M912.35,1027.11c2.98-1.61,4.18-5.99,2.8-9.18-1.59-3.67-6.1-5.68-10.42-3.43-4.27,2.23-4.49,7.35-2.56,10.53,1.89,3.12,6.55,4.04,10.18,2.08Z"/>
      <path class="cls-6" d="M618.12,1008.13c-4.22,2.38-3.88,7.46-2.1,9.81,2.45,3.24,6.24,3.33,8.46,2.27,4.31-2.05,4.73-6.55,3.3-9.56-1.58-3.31-6.01-4.59-9.66-2.53Z"/>
      <path class="cls-5" d="M864.05,1337.91c-1.19-.33-2.7-2.69-3.93-2.73-2.79-.11-8.37.89-10.19.79-31.55-1.78-62.27-3.53-93.73-6.88-10.86-1.16-21.15-3.17-31.73.02-3.91,1.18-7.38,3.4-11.98,1.85-6.94-2.34-13.75-3.68-20.87-6.97l-20.94,4.29c-15.2,3.12-28.99,7.98-45.11,9.08,18.75,5.76,37.62,8.63,57.66,9.06l67.78,1.45c26.03.56,51.15-1.9,76.97-3.92,10.58-.82,20.13-4.68,30.72-4.87.19,0,.94-.03,1.44,1.17.14,1.05-.48,1.57-.77,1.87-3.12,3.36-9.46,6.41-13.98,7.67-1.15.32-2.32.61-3.48.89-2.44.59-4.89,1.13-7.35,1.59-4.94.92-9.93,1.55-14.95,1.91-.73.05-1.46.1-2.19.14-27.4,1.54-53.85,3.39-81.28,2.73l-71.01-1.72c-17.17-.42-31.65-5.77-45.46-14.33,2.1,5.22,28.75,28.48,29.9,29.87.07.09.05.1-.08,0,9.68,6.43,21.63,10.39,32.65,15.39,16.81,7.62,34.65,10.45,53.28,9.29,26.61-1.65,52.84-5.67,77.85-14.65,14.06-5.05,24.87-14.88,34.72-26.12,3.19-3.2,6.38-6.41,9.58-9.61.91-.92,1.77-1.88,2.73-2.76.5-.45,1.02-.88,1.58-1.25.57-.38,1.29-1.31,1.82-1.74.9-.73,1.78-1.12.36-1.52Z"/>
      <path class="cls-1" d="M1142.56,1192.33c3.02,2.32,7.46,3.24,11.52.88,6.42-3.74,8.4-10.29,6.01-15.92-2.57-6.05-8.01-9.63-15.1-7.71l-6.48,11.33c-2.48,4.34.79,8.92,4.05,11.42Z"/>
      <g>
        <path class="cls-1" d="M453.97,1024.82c2,1.18,4.96,1.14,7.05-.36,11.1-7.97,8.4-18.13,4.76-30.71-.5-1.72-1.53-3.16-2.51-3.43-9.04-2.46-18.25,29.21-9.3,34.49Z"/>
        <path class="cls-1" d="M476.84,988.65c1.97,1.23,2.5-1.73,3.84-3,11.98-11.29,26.95-19.23,43.52-22.97,30.18-6.82,60.08-9.41,91.23-11.17,30.28-1.71,60.6-.85,90.9-.2,23.82.52,47.64.87,71.46,1.45,18.16.44,36.32.89,54.48,1.33,18.84.46,37.68.92,56.52,1.38,13.72.33,27.43.67,41.15,1,3.44.08,6.9.25,10.34.25,18.2,1.03,37.72,5.09,53.14,15.23,12.78,8.4,23.85,18.39,35.85,28.09,1.37,1.11,1.96-.91,2.62-1.86,1.15-1.68-.64-2.73-1.99-4.12-8.18-8.45-15.41-17.44-25.62-23.64-20.19-12.26-45.46-16.72-68.78-17.61-30.44-1.16-60.92-.67-91.32-2.68-22.88-1.52-45.95-.69-68.88-.98l-53.96-.7c-18.67-.24-37.34-.48-56.02-.72-13.6-.18-27.2-.35-40.8-.53-3.42-.04-6.83-.09-10.25-.13-26.78-.35-51.95,1.17-77.88,5.87-17.21,3.12-32.48,10-46.26,20.19l-12.91,9.54c-1.12.83-2.66,1.76-2.37,2.92.21.87,1.22,2.58,1.99,3.06Z"/>
        <path class="cls-1" d="M821.19,962.96c-2.97-.99-5.33-.56-8.94-.67-22.52,27.51-26.06,41.67-31.88,76.09-.41,2.44,2.97,4.85,4.13,6.22-2.46-24.26,16.12-68.59,36.69-81.64Z"/>
        <path class="cls-1" d="M681.48,961.03c14.8,16.15,26.62,51.01,20.16,71.7,4.82-.36,4.53-3.31,5.04-8.02,1.97-18.1-.41-36.01-9.64-50.98-3.52-5.72-7.79-12.22-15.56-12.7Z"/>
        <path class="cls-1" d="M1047.66,1002.83c-8.71.9-9.71,17.43-7.02,24.86,1.21,3.35,5.15,4.07,7.81,3.65,6.37-1.01,4.8-20.4,4.11-24.95-.37-2.46-3.26-3.73-4.91-3.56Z"/>
        <path class="cls-1" d="M1089.62,1017.99l-28.26-7.36c-.54,4.47-.21,7.75.77,11.16l29.84,8.32c.4-4.91-1.28-8.05-2.35-12.12Z"/>
        <path class="cls-1" d="M477.23,1020c4.53,1.98,8.24,3.96,13.47,5.62.22-5.64-.6-9.88-1.39-14.66-3.46-1.3-6.2-2.94-9.66-2.98-1.01,4.17-2.04,7.6-2.42,12.02Z"/>
        <path class="cls-1" d="M1043.78,1041.58c-.87,31.87-15.24,63.89-32.84,89.84-15.33,22.61-36.5,38.53-62.18,47.55-20.3,7.13-40.46,6.67-60.85.28-67.22-21.06-69.73-79.34-109.43-127.87-9.12-12.62-22.92-20.38-39.33-19.02,15.7,4.11,30.22,24.54,38.29,38.63l23.2,40.51c16.4,28.64,37,58.21,68.46,70.83,23.76,9.53,48.84,10.38,73.79,5.09,44.01-9.33,69.9-38.87,89.85-77.31,13.82-26.63,12.69-40.5,18.81-68.92-3.38-.64-5.7-.35-7.76.36Z"/>
        <path class="cls-1" d="M655.61,1114.35c-.57.75-1.12,1.51-1.67,2.28-1.06,1.5-2.08,3.02-3.16,4.49-1.39,1.9-2.79,3.8-4.18,5.71-.01.02-.03.04-.04.05-16.32,20.65-38.07,35.54-62.86,43.81-14.18,4.73-29.05,4.73-43.48,2.81-11.51-1.54-20.07-7.62-28.95-14.03-18.8-13.57-31.63-31.16-40.41-52.63-9.31-22.77-15.26-47.18-15.86-71.92-.03-1.31-4.88-3.53-8.09-2.23-.42.17-.01,6.81,0,7.58,0,2.46.06,4.89.15,7.35.19,5.06.77,12.27,1.26,17.3,2.67,27.63,10.72,54.55,27.91,76.74,3.13,4.04,3.66,5.26,6.94,9.17,6.4,7.63,13.76,14.51,22.06,20.04,1.25.83,2.51,1.63,3.8,2.4,13.02,7.76,27.96,11.81,43.13,11.38,7.27-.21,13.77-.89,20.78-2.84,7.35-2.05,14.08-4.13,20.94-7.47,7.37-3.59,15.87-8,22.61-12.66,8.03-5.56,12.64-10.25,18.47-16,5.45-5.37,10.62-11.94,14.72-18.41,1.32-2.08,2.56-4.2,3.82-6.31,1.14-1.91,2.52-3.66,3.55-5.63.5-.95.57-1.86.18-2.85-.61.29-1.19,1.33-1.61,1.88Z"/>
      </g>
      <g>
        <path class="cls-4" d="M813.2,1191.45l-9.03-24.76c2.59-.64,3.38,1.39,5.82,2.17.99-6.88,1.48-13.26,1.76-20.35-20.22-27.12-31.67-54.77-50.08-82.68-.3,16.07-3.9,30.03-5.69,45.17l-6.35,53.87,7.72,2.2c-2.37,4.35-2.05,10.17,1.44,13.87-2.05-.56-4.08-.96-6.07-1.13,4.13,4.6,6.23,10.78,3.76,16.38-2.17,4.93-8.16,3.66-11.52,6.14-7.14,5.26-13.85,10.63-22.72,13.49l-7.28,14.9c-1.96,4.02-3.39,10.84.42,14.2,5.28,4.67,14.89,5.17,21.48,2.96-3.9-2.67-1.17-7.54-2.32-9.58-1.96-3.51-4.63-5.87-1.65-10.69,10.22-16.52,37.78-9.31,52.47,1.97,3.86,2.97,4.78,6.54,5.61,11.79,4.51-2.73,10.61-2.65,13.94-5.73,11.92-11.51,13.78-29.07,8.27-44.18Z"/>
        <path class="cls-4" d="M623.43,961.58c-28.84,1.66-56.06,3.8-84.12,8.82-6.64,1.19-14.97,2.01-20.61,5.33-9.25,9.35-15.05,21.4-19.24,33.61,5.06,5.3,11.18,7.97,18.22,8.31l12.64.62c29.6-18.07,62.93-32.88,98.3-22.8-5.15-4.21-11.17-6.46-17.64-7.36,2.67-1.7,4.35-4.41,5.06-7.37,19.3,6.24,37.04,17.86,52.96,30.83-2.65,4.37-14.6-5.77-20.42-6.51,6.29,4.37,14.23,12.33,18.6,22.58,1.35.53,4.65,1.14,6.79,1.79,7.3-8.56-2.97-21.08-8.08-27.08-12.92-15.16-26.91-28.36-42.46-40.76Z"/>
        <path class="cls-4" d="M799.82,1068.98l-2.62-23.26c-1.95-17.34,3.97-31.09,9.66-47.15-9.75,6.89-20.12,60.12-7.04,70.41Z"/>
        <path class="cls-4" d="M1188.77,1135.28c-22.13-7.56-40.48-21.57-56.72-39.46,1.93,21.85,3.27,51.04-11.68,69.59-.6-19,8.25-63.32,1.31-79.58-6.3-14.76-18.19-26.15-23.07-42.23-13.15-3.21-24.33-7.79-37.46-10.29-3.09-.59-3.9,5.01-3.34,6.9,2.75,9.36,2.35,18.01,1.24,27.32-4.16,35.05-22.04,63.44-44,89.98l-2.59,26.75c-3.44,35.52-29.78,69.72-49.47,97.39-9.46,13.29-16.84,28.02-16.54,44.52.04.1.1.2.15.31-.67,2.08-1.08,4.25-1.19,6.49-.27-.17-.55-.34-.85-.49l-6.32,35.25c-3.03,16.89-14.28,38.06-29.13,48.24.25.49.49.98.73,1.47-2.34,1.32-4.53,2.94-6.46,4.81-.2-.39-.4-.78-.6-1.16-6.32,4.58-10.64,9.52-15.14,14.79l-29.44,34.4c-7.12,8.32-14.45,16.04-23.59,22.08l-28.85,19.07c20.1-1.81,37.23-7.67,55.79-11.89,64.3-14.63,129.78-50.24,172.24-101.09,19.08-22.84,33.42-47.66,48.1-73.45,15.7-27.59,31.5-63.37,35.08-94.87.8-7.05,6.27-11.38,12.83-11.16,6.22.2,12.07,2.25,18.6,1.42,13.9-1.76,26.56-13.93,28.67-27.89,1.97-13-5.39-36.94,11.68-57.21ZM1175.08,1186.16c-1.47,11.44-10.46,19.91-20.21,22.19-11.32,2.65-22.31-2.52-28.31-12.93-3.93-6.82-4.05-13.82-1.27-20.95,2.3-5.9,8.07-9.41,14.59-12.93,5.97-3.22,11.47-5.63,18.75-2.52,10.23,4.37,17.92,15.66,16.45,27.15Z"/>
        <path class="cls-4" d="M912.54,826.24c41.59,24.55,76.39,60.92,78.18,111.82.06,1.7-1.16,2.84-1.91,2.84-5.24,0-4.05-41.18-31.77-69.32,2.46,6.94,8.84,11.75,11.97,19.11,7.94,18.63,10.6,38.35,12.62,57.95,2.73.55,5.98,2.8,9.36,3.88,20.19,6.41,36.49,20.91,46.23,40.02,18.82-9.56,24.86,5.71,30.54,8.11,5.02,2.12,9.98,2.97,15.94,3.92-14.39-50.87-46.47-23.02-59.98-62.01-5.56-8.43-20.29-16.26-25.08-24.25-4.55-7.58-7.84-17.42-1.64-25.47,1.74,8.67,3.51,15.05,8.91,19.4,5.55,4.47,12.97,6.63,20.14,3.66,21.68-8.97,22.59-43.19,12.97-65.32-11.4-26.2-39.66-62.85-68.98-67.96-2.51-.44-8.09,1.28-8.48-2.23,2.64-5.35,10.49-6.29,15.71-5.42.1.02.2.03.3.05l-.04-.64v-.17c-1.1-2.27-.88-6.27-1.67-9.86-17.43,10.47-50.21,14.72-71.01,16.06-18.85,1.22-35.76-2.75-54.08-9.1,19.7,29.43,32.67,38.4,61.77,54.92Z"/>
        <path class="cls-4" d="M822.37,1006.81c-3.79,2.73-7.43,5.61-10.82,8.71-1.95,4.19-2.74,12.85-3.07,17.67,23.72-38.6,70.11-49.37,110.93-32.68,18.79,7.68,36.26,18.14,53.35,29.14-.75,1.2-2.76.93-3.63,1.49-.76.5-.94,1.67-1.14,2.61-3.53,16.9-6.79,36.56,3.28,51.94,12.08,18.46,19.29,19.26,31.5,37.2,17.25-25.77,27.04-54.94,33.21-84.17-9.59-10.12-10.29-21.08-6.85-35.47l-44-26.42c-14.25-8.56-29.29-11.77-45.72-12.09l-100.77-1.95c-14.36,8.76-25.21,20.56-31.29,35.29,1.88-2.04,3.5-4.15,5.04-6.22-1.44,6.48,1.88,14.19,9.98,14.93Z"/>
      </g>
    </g>
    <g id="OUTLINES">
      <g>
        <path class="cls-3" d="M1743.56,501.14c-19.14-34.59-43.39-64.4-75.7-87.39-10.69-7.61-20.91-14.32-33.65-19.16,4.88-21.83,4.18-42.99,1.75-65.19-3.14-28.75-11.13-55.88-26.8-80.22-14.93-23.18-32.81-42.79-52.78-61.73-43.43-41.2-97.06-67.25-156.22-77.2-43.05-7.24-85.89-7.98-128.63.35-24.73-30.55-65.37-56.7-101.39-69.88-39.39-14.41-80.54-17.11-122.08-11.15-38.38,5.51-74.63,15.56-110.35,30.01C893.36,19.93,843.72-1.19,783.54.05c-59.26,1.23-120.88,16.22-171.3,47.44-7.85,4.86-14.52,9.98-21.12,16.29-3.88-6.7-8.98-10.45-15.23-14.03-31.62-18.09-65.73-28.28-102.01-32.49-46.53-5.4-92.33-1.99-136.87,13.11-46.19,15.66-89.46,37.58-128.19,67.22-62.91,48.15-112.03,126.15-127.06,203.97-10.89,56.38-1.94,103.29,20.95,155.89-14.49,8.24-25.58,18.75-36.9,30.18C22.16,531.72-1.73,584.44.1,647.53c1.37,47.4,15.24,91.94,40.24,132,45.25,72.51,121.89,126.28,202.25,151.68,17.48,5.53,33.99,7.68,52.34,6.73,4.53,30.04,25.84,62.61,53.42,74.52,3.88,1.67-6.63,6.9,1.89,21.92,4.35,7.67,12.61,13,19.14,18.94-11.23,11.4-8.19,25.87,1.82,36.83,6.86,7.51,15.46,12.38,22.87,18.56,4.21.29,7.79,4.01,14.26,2.9-12.89-10.26-25.85-20.57-33.89-35.55-7.91-14.74,8.11-14.84,8.52-22.56.53-9.82-33.72-18.72-25.27-38.17,14.32,2.77,41.63-11.88,36.93-28.11-12.03,15.16-33.39,18.47-49.73,7.79-30.17-19.71-44.18-55.14-38.38-90.62,1.22-7.49,1.88-14.4,1.17-21.06-.27-.07-.51-.15-.73-.22-8.63-1.42-13.26,42.19-12.26,48.9-18.9-3.59-36.71-5.75-54.96-11.97C118.01,878.62,8.03,774.02,9.62,637.06c.51-44.28,16.26-84.58,43.84-118.83,16.02-19.89,34.14-36.81,53.56-53.51,1.17-1,5.99.87,6.52-1.54,1.45-6.48-6.37-25.27-9.6-34.16-28.39-77.97-12.58-155.29,28.53-225.25,23.33-39.71,52.81-74.42,90.12-101.75,33.44-24.49,69.72-42.87,108.53-57.2,45-16.61,91.5-21.48,139.09-16.14,35.67,4.01,69.25,13.64,100.37,31.54,5.42,3.12,10.39,5.58,16.77,6.71,1.45,1.32,1.13,4.24,3.38,5.68,25.26-18.44,51.18-33.29,80.66-43.43,38.92-13.39,78.63-20.24,119.86-19.94,44.71.32,86.39,15.02,121.28,42.49,7.74,6.09,15.01,11.8,22.93,17.24,3.39,2.33,5.73,0,8.64-1.11,71.01-27,149.46-45.1,223.1-17.73,18.2,6.76,35.55,15.75,51.66,26.58,8.06,5.42,15.81,11.29,23.23,17.55,3.72,3.14,7.35,6.38,10.9,9.71,2.16,2.02,4.46,3.88,6.58,5.94,2.07,2,4.48,3.88,4.24,7.03-.08,1.09-.28,2.21.05,3.25.41,1.31,1.59,2.25,2.87,2.73,3.1,1.15,6.84.62,10,.03,2.82-.53,5.65-1.02,8.49-1.46,5.64-.89,11.3-1.62,16.98-2.19,11.29-1.14,22.64-1.65,33.98-1.6,20.21.1,40.39,2,60.34,5.24,60.52,9.84,114.87,37.42,157.9,80.85,37.58,37.93,61.35,69.04,68.13,123.55,2.29,18.42,3.09,36.11,1.06,54.54-.76,6.91-.46,13.35,2.89,19.7,44.52,20.67,79.8,55.66,104.15,97.94,21.03,36.52,32.51,75.63,33.35,118.01.83,42.13-8.54,82.11-28.56,119.02-27.93,51.48-71.79,96.56-130.54,110.7-20.39,4.91-40.74,7.42-61.68,6.96-5.64-.13-11.43-1.96-16.98.75,6.63,4.48,9.24,3.36,17.8,8.94,4.59,2.99,7.94,8.35,12.09,12.65,26.79,27.7,10.51,73.63-16.54,97-22.23,19.2-35.34,12.06-34.09,21.12.76,5.48,14.77,4.15,18.73,24.42,4.03,20.59-3,40.82-16.87,56.26-21.1,23.5-38.84,9.86-37.13,22.4.19,1.39,2.23,2.86,3.14,4.87,15.76,34.97-12.8,75.49-43.68,90.23-25.2,12.03-70.83.37-86.16-23.82,27.55-30.98,56.76-88.61,39.05-128.74,11.5-9.77,18.75-21.4,25.76-33.83,14.62-25.91,16.26-61.88-4.51-84.18,17.16-24.33,20.97-54.21,13.03-83.08,22.41-2.71,40.99-13.39,55.73-28.93,27.32,3.8,53.14,5.08,79.74,1.11,23.18-3.53,43.65-12.18,61.55-27.3,30.55-25.79,52.37-59.31,65.06-97.31,6.85-20.51,11.17-40.82,10.31-62.79-1.49-37.9-11.31-74.61-28.85-107.92-17.96-34.1-48.64-68.68-89.45-71.1-6.43-.38-12.03.3-16.89,3.2-2.8,15.12,11.01,2.11,35.88,12.12,39.2,15.78,66.25,61.14,76.73,100.46,6.59,24.73,11.31,49.21,9.38,75.22-3.9,52.47-29.05,101.3-67.91,136.09-16.5,14.77-35.62,23.05-57.19,26.39-39.86,6.18-94.03-.38-132.56-12.84-2.69-.87-5.95.43-6.58,2.22-4.17,11.79,39.62,18.34,47.61,20.96-12.86,11.95-28,18.41-45.43,20.53-12.76-31.25-26.46-44.73-53.69-65.16,11.85-3.37,22.8-6.32,33.14-12.34,1.27-.74,3.49-5.29,1.46-4.99-104.14,15.19-93.46-20.72-103.69-19.7-5,.5-.92,20.56,22.64,30.15,12.08,4.91,24.85,4.75,37.68,6.71l22.16,23.28c15.83,16.63,28.15,35.98,32.86,58.3,3.74,17.73,2.77,34.48-3.68,51.07l-9.97,25.64c-22.1,2.53-32.09-14.23-39.26-32.49,3.15-22.48-5.7-45.6-25.59-56.89-10.31-5.85-22.74-8-32.43-.47-13.33,10.35-13.79,32.53.66,42.78-.78-6.88-3.95-12.5-1.97-19.07,1.55-5.13,4.97-9.36,8.61-10.79,18.49-7.31,37.2,18.22,34.14,31.3-2.53,10.81-13.15,19.91-20.94,27.01-30.89,28.16-79.2-4.78-93.27-33.37-2.02-3.21-3.82-5.94-6.28-9.15,1.06,25.09,25.16,45.16,46.19,55.12,14.13,6.69,30.07,8.4,44.6,2.05,10.65-4.65,17.52-13.16,26.53-20.85-7.3,16.87-22.82,27.24-39.9,32.49-44.39,13.67-89-10.34-123.29-37.26l-29.15-22.88c-3.27-2.57-6.89-4.42-11.45-3.34.28,3.28,2.11,5.62,4.35,7.58l28.44,24.84c16.53,14.44,34.28,26.42,54.13,35.63,47.66,22.12,107.35,17.04,133.23-34,12.9,24,20.22,30.48,47.21,27.46,17.88,24.94,10.08,57.64-6.77,81.67l-32.04,45.71c6.04,1.56,8.66-2.92,13.61-5.68,6.84,23.53-7.03,60.05-20,80.46-20.8,32.73-30.05,39.7-58.61,65.29l-79.69,71.36c-9.48,8.49-19.73,14.34-31.02,19.76-2.82,1.35-4.32,4.04-4.23,6.68.36,10.76,27.86,12.68,39.6,8.25-8.56,21.18-29.69,32.85-51.38,31.47-18.72-1.19-20.76-14.94-29.13-12.62-8.36,2.32-1.08,15.04-14.57,27.86-10.42,9.9-23.55.69-23.91,13.66-.48,17.12-21.81,16.66-34.47,15.66,9.73-16.71,20.45-31.53,28.08-48.85,5.18-11.76,9.55-23.06,15.34-34.56,7.59-15.05,12.8-30.27,16.63-46.77,26.19,5.82,58.19-2.22,80.17-15.37,22.88-13.69,37.59-39.13,34.18-66.4-15.93,21.6-15.16,41.75-39.61,56.97-21.57,13.42-47.31,19.26-72.42,16-1.06-2.11-.07-7.55,1.9-8.03,8.12-.38,16.26,2.79,24.54.65,15.24-3.94,27.65-15.83,32.56-30.79,4.84-14.75-5.18-38.17,8.5-63.56,33.86,9.13,73.3-1.29,93.87-28.31,6.6-8.67,9.3-18.55,6.83-29.63,19.12-20.32,20.73-49.5,5.59-72.9,6.71-10.03,9.96-22.27,4.13-33.13-8.03-14.96-33.77-26.42-44.54-13.67,15.82-.64,29.94,9.83,31.88,25.48,1.01,8.14-5.26,15.14-11.89,19.39-26.74,17.13-63.89,4.47-88.28-13.07-29.56-21.26-47.53-54.77-64.95-86.39-12.64-22.96-26.12-44.27-41.43-65.7,27.41,6.17,51.36,22.22,78.75,21.62,16.99-.37,37.62-3.84,51.57-14.86,22.56-17.82,34.87-44.63,33.23-73.41-1.36-23.95-10.32-46-27.15-62.68-4.47-4.43-19.42-18.13-23.47-8.66-1.39,3.25.95,5.29,3.74,7.15,21.19,14.12,32.87,37.76,34.59,63.21,2.95,43.5-32.26,78.69-75.75,75.4-13.76-1.04-26.06-4.98-38.87-10.34-28.32-11.85-57.56-19.35-88.04-19.58-13.65-17.62-32.96-35.73-53.64-40.95-1.33.42-2.56.21-3.6-.78-5.23-.87-13.08.07-15.71,5.42.39,3.51,5.97,1.79,8.48,2.23,29.32,5.11,57.58,41.76,68.98,67.96,9.62,22.12,8.71,56.35-12.97,65.32-7.17,2.97-14.59.81-20.14-3.66-5.4-4.35-7.17-10.73-8.91-19.4-6.2,8.04-2.91,17.88,1.64,25.47,4.8,7.99,19.53,15.83,25.08,24.25,13.52,38.99,45.6,11.14,59.98,62.01-5.97-.95-10.92-1.8-15.94-3.92-5.68-2.4-11.72-17.67-30.54-8.11-9.74-19.11-26.04-33.61-46.23-40.02-3.38-1.07-6.63-3.33-9.36-3.88-23.98-4.84-47.88-8.08-73.28-8.45-23.82-9.77-49.44-11.43-74.26-3.82l-156.08-4.05-95.03-.19c-16.82-.03-30.45.22-46.48,4.99-18.8,5.6-37.54,9.15-53.91,22.88,2.49-17.34,2.25-30.83.96-46.78-2.49-30.72-.97-61.26,8.35-90.53,3.32-10.44,7.77-19.55,9.23-30.73-1.92-1.8-5.53.06-6.34-4.67,69.86-9.59,143.73-54.17,152.97-129.77,25.27,23.02,60.06,31.53,92.93,24,7.45-1.71,13.16-5.99,20.99-8.39,5.7,40.86,46.34,79.32,82.24,95.21l13.33,20.37c10.3,15.73,24.26,27.15,40.72,36.15,15.77,8.62,29.52,18.56,43.34,29.78,6.48,5.26,10.3,11.43,15.73,16.94,27.72,28.15,26.53,69.33,31.77,69.32.75,0,1.97-1.14,1.91-2.84-1.79-50.9-36.59-87.28-78.18-111.82-29.11-16.53-42.07-25.49-61.77-54.92,18.32,6.35,35.23,10.32,54.08,9.1,20.8-1.34,53.59-5.59,71.01-16.06.79,3.59.57,7.59,1.66,9.86v.17c.08-.01.14-.02.21-.03.27.09.51.16.75.21,1.06-.48,2.05-.68,3.04-.71,3.06-2.74,3.68-11.39,18.44-11.28,12.83.1,24.42,4.12,36.09,9.26,22.19,9.78,43.15,20.52,65.95,28.98,15.88,5.89,32.19,9.4,48.44,6.38,27.89-5.19,44.85-29.76,40.3-57.26-1.87-11.32-3.43-24.51-15.93-30.29,9.57,17.58,7.73,46.51-3.59,61.27-18.5,24.13-53.76,13.64-77.4,3.28l-60.38-26.47c-13.31-5.83-27.41-8.19-42.36-4.98,2.58-14.03,26.71-11.43,40.17-10.33,38.65,3.16,82.1,2.25,114.61-20.65,9.86-6.94,17.19-15.71,21.44-26.77,7.38-19.23-3.65-39.69-23.9-43.5-1.26-.24-3.38,1.02-3.44,1.83-.04.56,20.85,11.73,17.35,33.02-1.71,10.4-8.65,18.64-16.9,24.86-29.11,21.98-72.59,23.05-107.92,20.69-10.21-.68-19.58-1-29.96.22,10.01-28.69,6.86-59.86-3.32-87.7-12.78-34.94-44.14-58.21-81.46-60.85-1.54-.17-2.17-.99-.84-1.66,25.76-19.02,53.08-65.4,33.25-94.57-13.36-19.66-36.78-27.22-59.44-22.03-29.39,6.73-45.75,35.14-37.27,64.26,3.56,12.21,11.39,24.94,24.76,28.15,19.96,4.8,39.26-12.28,38.92-31.91-.11-6.6-3.22-11.41-7.37-14.5-4.86-3.63-10.6-3.93-16.32-1.37-2.68,1.2-6.25,6.47-2.85,7.82,3.56,1.42,7.92-.02,10,3.1,1.76,2.62,2.89,5.54,1.69,9.58-2.45,8.19-11.36,15.57-20.39,13.29-8.05-2.03-12.21-10.53-14.43-17.79-6.53-21.28,5.27-41.96,26.95-46.74,16.91-3.72,35.04,1.66,44.45,17.01,15.39,25.1-16.34,74.53-48.57,87.83-16.68,6.89-32.57,10.9-44.4,25.54-17.02,21.08-20.85,51.93-2.97,73.93,13.47,16.57,51.23,24.73,64.83,5.22-24.13,9.36-53.61-4.19-59.73-27.74-5.22-20.1,4-40.59,21.83-51.26,35.93-21.5,88.38-8.87,108.63,29.2,18.13,34.06,25.37,98.65-19.93,117.22-15.44,6.33-31.72,10.13-48.45,12.37-17.16,2.3-32.94-.04-49.29-5.5-31.17-10.42-57.37-31.18-75.87-58.37-7.24-10.64-11.28-21.94-13.17-34.71,13.91-5.91,25.7-13.08,37.63-21.56,4.48-3.18,24.54-21.43,17.9-23.15-5.96-1.55-24,12.73-29.2,17.32-15.03,13.3-32.06,20.79-51.33,25.87-36.5,9.63-73.94,1.4-102.14-23.96-1.17-1.05-3.84-.88-4.69-.31-4.32,2.9,3.92,2.63.91,14.28-7.91,30.69-24.17,56.7-49.14,76.3-27.2,21.36-59.03,35.38-93.5,40.37-17.81,2.58-51.24-1.94-54.38-20.95-2.4-14.51,9.23-25.41,23.38-28.09-9.67-5.05-19.75.72-26.59,7.24-10.78,10.28-10.89,25.49-.82,36.64,17.15,18.99,35.31,10.69,42.38,23.57,2.39,4.36,1.63,9.58-.86,14.31-16.81,31.91-61.97,30.09-85.4,9.77-13.37-11.59-18.9-30.38-12.01-46.61.61-1.44,3.01-2.76,1.77-4.05-3.69-3.83-10.83,4.9-12.49,14.87-3.04,18.28,4.41,35.68,19.18,47.26,19.74,15.47,45.66,19.45,70.61,12.42-20.46,33.25-53.4,47.72-88.6,34.11-18.31-7.08-33.67-23.86-39.86-45.26-5.05-17.44-3.34-34.94,2.19-52.38,1.37-4.32,1.36-8.18,6.27-10.83.88-.48.97-2.42.62-3.12-.37-.74-2.15-1.45-3.35-.47-16.85,13.87-28.57,31.86-33.53,53.5-24.91,10.66-76.43-17.41-96.53-32.62-27.24-20.61-45.17-48-59.27-79.37-1.58,12.15,3.36,22.46,8.3,32.54,17.05,34.72,45.55,61.53,80.15,78.33,19,9.23,43.96,20.25,64.42,14.86.58,16.23.66,32.97,6.54,47.48,9.81,24.21,25.64,45.74,48.61,59.14,24.49,14.29,53.29,17.7,79.41,7.77,14.34-5.45,25.21-14.7,32.2-28.33,1.21,16.28,3.41,30.45,9.27,44.97-4.35,5.53-7.53,11.23-10.87,18.16-7.69-1.59-14.44.25-19.19,6.15-8.58,10.66-9.72,23.46-9.43,36.78.26,12.25-2.41,24.15-.73,36.55,2.25,16.62,3.46,33.07,8.39,49.13,7.75,25.24,19.5,43.51,38.67,61.53-5.16,6.56-1.4,14.37-.94,18.84-9.96-16.43-24.79-27.71-42.93-33.89-23.38-7.97-36.61-18.77-51.66-36.91-3.87,3.94-2.64,10.14.52,15.36,9.88,16.35,26.08,27.86,44.13,34.82,13.14,5.07,22.66,12.85,32.43,22.75l22.29,22.59c8,48.18,21.29,94.55,41.45,139.17,3.02,6.69,4.37,12.69,6.84,19.45,7.18,19.67,13.76,39.14,22.95,57.92,16.4,33.5,78.3,87.99,117.21,92.04,13.63,1.42,26.93,3.45,40.7,3.1l37.92-.96c30.2-.76,59.1-4.74,88.31-11.79l30.58-7.38c68.42-16.51,134.63-53.62,176.51-111.44,22.79-6.68,50.19,4.33,58.8-27.2,16.25-1.39,26.81-13.12,31.72-28.12,4.14,1.61,7.61,4.39,12.06,5.55,37.53,9.77,74.58-16.58,77.45-55.21.24-3.19-1.68-5.6-3.46-6.43-7.74-3.6-12.51,10.05-24.67,8.1,7.09-4.76,13.67-9.19,20.66-15.06,38.21-32.07,74.36-65.17,110.77-100.39,8.88,21.98,43.9,31.95,65.03,33.28,16.85,1.06,32.44-3.48,45.98-13.29,29.06-21.04,50.55-58.12,37.19-94.51,13.01-3.27,22.89-9.96,31.16-19.42,19.95-22.8,28.91-60.93,7.19-85.74,31.76-14.7,52.88-44.04,55.24-78.03,1.62-23.31-6.92-37.23-23.06-52.27-.9-.84-1.41-2.38.03-2.64,45.96.05,87.77-10.57,124.02-39.21,31.64-25,55.68-57.24,73.06-93.73,34.74-72.95,30.39-157.93-8.57-228.36ZM444.5,923.87c-27.83,20.58-69.04,13.84-94.9-9.1-36.51-32.39-48.11-91.42-18.67-133.02-4.94,20.19-5.99,39.55,1.57,58.57,12.76,32.1,45.25,50.12,79.84,45.01.9,3.78-1.83,5.57-.37,8.76,7.88-8.05,18-10.36,28.52-10.24,8.51.1,15.71,5.5,16.56,15.03.92,10.31-4.72,19.19-12.55,24.99ZM470.3,884.57c-5.64-7.73-11.49-13.96-22.29-15.94,9.06-9.22,16.29-18.46,22.58-29.55,1.44-2.54,3.42-4.81,6.97-4.87-4.14,16.35-5.28,31.99-7.26,50.36ZM1264.28,1114.26c-28.36,18.42-63.84,16.39-93.74-.39-19.83-11.12-39.85-34.73-53.74-59.56-15.36-27.45-23.76-56.25-28.12-68.3.27-1.17,6.63,13.31,7.26,14.37,23.39,44.19,37.85,83.56,89.28,100.6,24.64,7.62,50.57,7.55,75.12-.06,8.73-2.91,15.95-6.65,23.83-11.65-3.34,11.2-10.52,18.92-19.89,25ZM1072.44,958.18c-1.6-.64-3.45-.41-4.61.37-.92.63-1.19,2.15-2.14,4.57-7.41-3.81-28.86-8.25-30.55-17.33,16.86,2.98,33.5-1.27,45.17-13.25,20.02-20.54,7.99-69.5,1.18-66.65-.78.33-1.68,1.64-1.46,3.09,2.21,14.97,1.54,42.36-9.15,54.07-12.47,13.67-32.78,17.33-49.01,9.19,30.3-4.19,40.36-35.86,37.04-62.08-2.05-16.22-9.04-29.83-17.65-44.2,19.83,2.58,27.2,6.55,38.49,21.89,13.43,18.26,24.59,37.02,35.71,56.85,18.37,32.75,35.46,67.47,64.26,91.92,29.7,25.21,74.52,41.79,111.13,19.01,9.04,27.91,1.03,52.68-25.66,65.31-29.88,14.14-65.53,12.94-94.83-2.64-31.6-16.8-48.73-54.56-66.04-85.37-8.36-14.87-15.81-28.33-31.88-34.75ZM1061.36,1010.63l28.26,7.36c1.07,4.07,2.75,7.21,2.35,12.12l-29.84-8.32c-.97-3.41-1.31-6.7-.77-11.16ZM1047.66,1002.83c1.65-.17,4.53,1.1,4.91,3.56.69,4.54,2.25,23.93-4.11,24.95-2.66.42-6.6-.29-7.81-3.65-2.69-7.43-1.7-23.97,7.02-24.86ZM1043.78,1041.58c2.06-.72,4.38-1,7.76-.36-6.12,28.42-4.99,42.29-18.81,68.92-19.95,38.44-45.84,67.97-89.85,77.31-24.95,5.29-50.02,4.44-73.79-5.09-31.46-12.62-52.06-42.19-68.46-70.83l-23.2-40.51c-8.07-14.09-22.58-34.53-38.29-38.63,16.42-1.37,30.21,6.4,39.33,19.02,39.7,48.54,42.21,106.81,109.43,127.87,20.39,6.39,40.55,6.85,60.85-.28,25.69-9.02,46.85-24.94,62.18-47.55,17.6-25.96,31.97-57.97,32.84-89.84ZM734.55,1238.29c1.14,2.04-1.59,6.91,2.32,9.58-6.59,2.22-16.2,1.71-21.48-2.96-3.8-3.36-2.38-10.18-.42-14.2l7.28-14.9c8.86-2.86,15.58-8.23,22.72-13.49,3.36-2.48,9.35-1.21,11.52-6.14,2.47-5.6.37-11.78-3.76-16.38,17.65,1.54,38.17,19.48,49.07,34.41,2.29-9.86-3.58-17.02-8.13-24.17-6.4-10.05-15.28-16.99-26.85-20.28l-17.17-4.89,6.35-53.87c1.78-15.14,5.39-29.1,5.69-45.17,18.41,27.91,29.86,55.56,50.08,82.68-.28,7.1-.78,13.47-1.76,20.35-2.45-.78-3.24-2.81-5.82-2.17l9.03,24.76c5.51,15.11,3.64,32.66-8.27,44.18-3.33,3.08-9.43,3.01-13.94,5.73-.84-5.25-1.75-8.82-5.61-11.79-14.69-11.28-42.25-18.49-52.47-1.97-2.98,4.82-.31,7.18,1.65,10.69ZM699.8,961.53l97.31.79c-11.01,14.36-18.94,28.37-22.82,44.86-2.49,7.93-1.9,15.07-1.39,25.04-17.74-11.42-38.36-14.2-58.74-6.81,7.1-17.89-1.29-48.94-14.35-63.87ZM681.48,961.03c7.77.48,12.03,6.98,15.56,12.7,9.24,14.98,11.62,32.89,9.64,50.98-.51,4.71-.22,7.66-5.04,8.02,6.46-20.69-5.36-55.55-20.16-71.7ZM641.07,1117.47c-21.31,27.97-52.89,45.87-88,47.99-15.24.92-27.51-2.66-38.63-13.3-7.84-7.5-21.11-15.05-23.14-26.83-.19-10.5,6.41-21.73,7.48-32.76,2.62-27.13,1.52-53.12-1.25-80.23,5.46,5.56,10.75,7.37,17.89,9.61-4.86,2.51-9.37.98-15.31,2.36,6.51,4.68,14.67,4.65,21.08-1.54,17.63,4.92,17.11,4.73,32.46,14.13-35.95,18.69,35.61-.35,56.59,2l35.28,3.94c-29.36,18.74-57.28,6.8-89.23,8.5,22.96,10.91,49.68,14,74.2,7.35,15.09-4.1,27.55-13,41.29-19.68,35.54-17.27-23.04-64.36-38.21-77.26,11.9-1.12,22.36-1.04,34.2-.31,21.86,23.32,27.22,53.06,22.13,83.6-19.36,25.21-29.28,46.78-48.83,72.44ZM647.26,1125.92c-.22.3-.44.6-.65.89.09-.36.31-.65.65-.89ZM492.56,989.47c1.01-1.78,4.6-4.16,6.74-3.6-2.61,5.29-3.56,7.32-4.73,11.72-2.27-2.37-3.19-6.05-2.01-8.12ZM648.57,1005.06c5.81.74,17.77,10.88,20.42,6.51-25.82-21.03-56.42-38.55-90.71-35.25,4.78,4.35,10.14,1.31,15.24,4.51-8.1-.39-43.51,11.75-43.82,17.94-.06,1.28,1.28,2.37,3.04,1.73,22.03-8.01,55.63-21.58,75.86-5.04-35.38-10.08-68.7,4.73-98.3,22.8l-12.64-.62c-7.03-.34-13.16-3.01-18.22-8.31,4.2-12.21,9.99-24.26,19.24-33.61,5.65-3.31,13.97-4.14,20.61-5.33,28.06-5.02,55.27-7.16,84.12-8.82,15.54,12.4,29.54,25.6,42.46,40.76,5.11,6,15.38,18.52,8.08,27.08-2.14-.65-5.44-1.26-6.79-1.79-4.37-10.26-12.31-18.22-18.6-22.58ZM662.42,1027.63l-22.41,3.16c2.79-5.54,3.88-10.34,3.72-16.24,7.96,3.43,12.67,8.57,18.69,13.08ZM624.48,1020.22c-2.22,1.06-6.02.96-8.46-2.27-1.78-2.36-2.12-7.43,2.1-9.81,3.65-2.06,8.08-.79,9.66,2.53,1.43,3.01,1.01,7.51-3.3,9.56ZM589.54,1029.87c-29.12,5.68-17.98,4.71-44.72-8.72,11.85-4.46,33.52-14.83,44.6-15.2-3.02,7.86-3.7,14.26.12,23.92ZM797.2,1045.72l2.62,23.26c-13.08-10.29-2.71-63.52,7.04-70.41-5.68,16.07-11.61,29.81-9.66,47.15ZM784.5,1044.6c-1.17-1.37-4.55-3.79-4.13-6.22,5.82-34.42,9.37-48.58,31.88-76.09,3.6.11,5.97-.32,8.94.67-20.56,13.05-39.14,57.37-36.69,81.64ZM871.17,1035.96c-17.28,2.55-33.58,2.71-51.87-.33,13.72-17.51,33.17-28.64,55.74-29.56-4.49,9.41-6.85,18.21-3.87,29.9ZM870.92,1045.01c22.67-.98,44.24,3.02,66.38,6.43,1.7.26,3.64-.45,4.64-1.2.88-.66-.26-2.88-.75-4.81,5.94-4.22,12.86-8.09,18.57-13.3,1.25-1.14,4.68-.53,4.3.52-5.92,16.52-7.34,34.7-.28,50.92,8.01,18.42,25.06,27.49,35.68,44.15-18.9,26.62-50.17,46.81-84.22,46.04-41.82-.95-87.33-34.79-98.44-72.79-5.21-17.82-5.59-36.27-8.77-54.71-.64-3.74,6.84-4.47,9.52-4.11,17.75,2.4,35.53,3.62,53.37,2.85ZM904.73,1014.5c4.32-2.25,8.83-.24,10.42,3.43,1.38,3.18.18,7.56-2.8,9.18-3.63,1.97-8.29,1.04-10.18-2.08-1.93-3.18-1.71-8.3,2.56-10.53ZM928.11,1039.55c2.39-5.73,4.47-10.37,4.29-16.81,7.42,3.07,13.33,6.29,20.56,7.22-8.86,3.88-15.8,7.21-24.85,9.59ZM1002.77,1122.9c-12.2-17.95-19.42-18.75-31.5-37.2-10.07-15.39-6.81-35.04-3.28-51.94.19-.93.38-2.11,1.14-2.61.86-.56,2.88-.29,3.63-1.49-17.09-11-34.56-21.46-53.35-29.14-40.82-16.69-87.2-5.93-110.93,32.68.33-4.82,1.12-13.49,3.07-17.67,9.86-9.02,21.53-16.31,34.12-22.75,14.86-7.61,30.61-10,47.33-15.76-14.17-3.56-28.38-.95-41.45,3.13-11.17,3.49-23.25,12.59-32.65,18.45,2.8-7.27,10.74-13.62,14.54-20.23-2.43-2.28-5.72-1.23-7.94.47-8.24,4.2-11.57,12.12-18.15,19.27,6.08-14.73,16.93-26.54,31.29-35.29l100.77,1.95c16.44.32,31.47,3.54,45.72,12.09l44,26.42c-3.44,14.39-2.74,25.35,6.85,35.47-6.17,29.24-15.96,58.41-33.21,84.17ZM477.23,982.67l12.91-9.54c13.78-10.19,29.05-17.07,46.26-20.19,25.92-4.7,51.09-6.21,77.88-5.87,3.42.04,6.83.09,10.25.13,13.6.18,27.2.35,40.8.53,18.67.24,37.34.48,56.02.72l53.96.7c22.93.3,46-.53,68.88.98,30.4,2.01,60.88,1.52,91.32,2.68,23.32.89,48.59,5.35,68.78,17.61,10.21,6.2,17.44,15.19,25.62,23.64,1.35,1.4,3.15,2.45,1.99,4.12-.65.95-1.25,2.97-2.62,1.86-12-9.7-23.07-19.68-35.85-28.09-15.42-10.14-34.93-14.2-53.14-15.23-3.44,0-6.9-.17-10.34-.25-13.72-.33-27.43-.67-41.15-1-18.84-.46-37.68-.92-56.52-1.38-18.16-.44-36.32-.89-54.48-1.33-23.82-.58-47.64-.94-71.46-1.45-30.29-.66-60.62-1.52-90.9.2-31.16,1.76-61.06,4.35-91.23,11.17-16.57,3.74-31.54,11.68-43.52,22.97-1.34,1.26-1.87,4.22-3.84,3-.76-.48-1.77-2.19-1.99-3.06-.28-1.16,1.26-2.09,2.37-2.92ZM490.69,1025.63c-5.23-1.67-8.94-3.65-13.47-5.62.38-4.42,1.41-7.85,2.42-12.02,3.46.05,6.2,1.68,9.66,2.98.78,4.78,1.61,9.02,1.39,14.66ZM489.05,1037.55c1.35,18.56.04,36.26-.86,54.69l-1.4,28.68c-13.07-26.16-26.17-57.52-22.22-85.97,6.71-10.21,13.72-1.53,24.48,2.6ZM463.27,990.32c.98.27,2.01,1.7,2.51,3.43,3.65,12.58,6.34,22.74-4.76,30.71-2.09,1.5-5.05,1.55-7.05.36-8.94-5.28.27-36.95,9.3-34.49ZM483.14,1150.83c-3.28-3.91-3.81-5.12-6.94-9.17-17.19-22.19-25.23-49.12-27.91-76.74-.49-5.03-1.07-12.24-1.26-17.3-.09-2.46-.14-4.89-.15-7.35,0-.78-.41-7.41,0-7.58,3.21-1.3,8.06.92,8.09,2.23.6,24.74,6.55,49.15,15.86,71.92,8.78,21.47,21.61,39.06,40.41,52.63,8.89,6.42,17.44,12.5,28.95,14.03,14.43,1.93,29.3,1.92,43.48-2.81,24.79-8.27,46.54-23.16,62.86-43.81.01-.02.03-.04.04-.05,1.11-1.51,2.21-3.02,3.32-4.53.22-.43.51-.81.85-1.16-.05.07-.1.13-.14.2.05-.07.11-.15.16-.22,1.08-1.48,2.11-3,3.16-4.49.54-.77,1.09-1.53,1.67-2.28.42-.55,1-1.59,1.61-1.88.39.99.32,1.91-.18,2.85-1.03,1.97-2.41,3.72-3.55,5.63-.34.57-.68,1.14-1.02,1.71.06-.1.12-.2.18-.3-.15.34-.34.66-.57.95-.79,1.32-1.58,2.64-2.41,3.94-4.11,6.47-9.27,13.04-14.72,18.41-.28.28-.56.55-.84.82.15-.15.3-.29.45-.44-2.16,2.28-4.44,4.48-6.83,6.6,0,0,0,0,0,0-3.22,2.96-6.68,5.85-11.26,9.02-3.65,2.53-7.82,4.98-12.05,7.26-1.6.88-3.2,1.73-4.83,2.54-1.95,1-3.88,1.95-5.73,2.86-6.86,3.34-13.59,5.42-20.94,7.47-3.62,1.01-7.1,1.67-10.63,2.11-4.2.58-8.33.84-12.35.75.73,0,1.46,0,2.2-.02-15.18.43-30.11-3.62-43.13-11.38-1.29-.77-2.55-1.57-3.8-2.4-8.3-5.53-15.66-12.4-22.06-20.04ZM721.52,1516.76c-11.31-.94-21.71-5.83-33.46-6.15-26.07-.71-56.34-20.86-75.55-37.88-16.14-14.3-32.35-28.88-42.52-48.31-33.02-63.06-50.04-113.79-64.2-183.66l-13.13-64.23c-.31-1.55,3.96,1.15,4.92,1.87,33.18,24.75,67.87,22.5,104.03,5.53,23.63-11.09,42.91-27.28,56.43-49.47l29.04-47.68c7.45-12.23,14.73-23.89,24.41-34.22,8.24-8.79,20.55-13.09,31.41-6.84,6.12,3.52,12.91,9.99,15.6,16.25-2.16,9.62-3.94,19.74-4.18,29.14-3.54.82-5.47,2.59-6.05,6.2l-10.34,64.88c-1.39,8.74,4,14.89,12.98,16.32-2.57,7.85,2.34,8.95.48,14.91-.54,1.72-3.04,1.36-4.59,2.55-11.14,8.54-23.86,14.49-37.7,16.9-11.53,2.01-20.59-1.82-29.69-9.18,8.2,15.05,20.7,15.69,37.14,14.65-.51.03-2.3,4.37-2.62,4.99-2.15,4.18-4.24,8.67-4.18,13.47.06,4.4,1.63,10.3,5.43,12.96,4.28,2.99,8.42,3.01,13.42,3.39,5.24.4,10.49.61,15.72,1.01,22.59,1.72,42.47-4.63,62.07-13.91,12.27-5.81,21.46-11.87,21.66-27.44.18-13.45-4.59-26.53-12.37-38.15-1.28-5.36.95-12.43,1.74-18.25,13.26,15.49,26.97,28.95,45.61,36.97,45.83,19.74,108.05,10.42,144.43-27.93-.49,47.18-22.88,76.09-48.87,111.87-9.2,12.66-15.76,25.88-18.1,41.81l-24.27-27.6c-16.17-18.39-31.76-36.31-47.69-56.04-1.99,4.84.74,9.59,3.43,13.33,20.04,27.89,42.34,53.36,67.16,77.58l-6.79,39.52c-2.89,16.83-11.97,33.13-26.4,43.03-2.25-2.23-2.49-7.14-6.41-5.43-.77,3.5,1.37,6.35,1.11,9.95-11.73,7.07-20.19,21.23-28.44,29.57-2.15,2.63-4.31,5.26-6.54,7.83-2.55,2.94-4.89,5.95-7.32,8.98-1.94,2.42-3.98,4.76-6.11,7.02-8.74,9.31-18.8,17.35-29.37,24.48-10.22,6.9-20.99,12.98-32.07,18.39-9.72,4.75-57.49,7.98-69.28,7ZM1033.8,1398.44c-42.47,50.85-107.94,86.46-172.24,101.09-18.56,4.22-35.69,10.08-55.79,11.89l28.85-19.07c9.14-6.04,16.47-13.77,23.59-22.08l29.44-34.4c4.5-5.26,8.83-10.21,15.14-14.79,4.61,8.64,7.23,17.96,15.07,25.12-.24-11.32-3.81-20.44-8.73-30.25,14.85-10.18,26.1-31.35,29.13-48.24l6.32-35.25c3.46,1.83,5.37,4.96,8.39,3.6-.54-4.3-5.11-6.67-6.51-9.9-.3-16.5,7.08-31.24,16.54-44.52,19.69-27.67,46.03-61.87,49.47-97.39l2.59-26.75c21.96-26.54,39.84-54.93,44-89.98,1.11-9.31,1.51-17.96-1.24-27.32-.56-1.89.25-7.48,3.34-6.9,13.12,2.5,24.3,7.08,37.46,10.29,4.89,16.08,16.77,27.48,23.07,42.23,6.94,16.27-1.92,60.58-1.31,79.58,14.95-18.55,13.61-47.74,11.68-69.59,16.24,17.89,34.59,31.91,56.72,39.46-17.07,20.27-9.71,44.21-11.68,57.21-2.12,13.96-14.78,26.12-28.67,27.89-6.53.83-12.38-1.21-18.6-1.42-6.55-.22-12.02,4.11-12.83,11.16-3.59,31.5-19.38,67.28-35.08,94.87-14.68,25.79-29.02,50.6-48.1,73.45Z"/>
        <path class="cls-3" d="M558.56,1184.29c-.13.01-.26.02-.39.03.13-.01.26-.02.39-.03Z"/>
        <path class="cls-3" d="M561.43,1184.01c-.06,0-.13.01-.19.02.06,0,.13-.01.19-.02Z"/>
        <path class="cls-3" d="M631.04,1149.49c.08-.08.16-.15.23-.23-.08.08-.16.15-.23.23Z"/>
        <path class="cls-3" d="M629.48,1151s-.08.07-.11.11c.04-.04.08-.07.11-.11Z"/>
        <path class="cls-3" d="M555.66,1184.49c-.17,0-.35.02-.52.03.18,0,.35-.02.52-.03Z"/>
        <path class="cls-3" d="M633.64,1146.94c-.29.28-.57.56-.85.84.28-.28.57-.56.85-.84Z"/>
      </g>
      <path class="cls-3" d="M1554.78,355.73c-3.9-31.63-32.41-75.52-52.71-99.45-21.37-25.19-46.55-44.25-76.91-57.28-60.93-26.17-121.66-28.96-186.04-16.81l-40.35-45.04c-17.02-19-38.94-30.96-63.84-37.72-37.28-10.12-75.2-14.94-114.17-13.34-33.19,1.37-64.35,10.07-94.62,22.25-7.77,3.12-13.59,7.48-20.2,13.37-44.8-31.95-80.1-53.51-136.73-54.67-37.32-.77-72.84,5.47-107.06,20.15-20.67,8.86-52.75,24.9-69.16,40.96-6.78-3.45-11.47-8.56-18.05-12.34-28.41-16.3-58.23-28.71-90.03-37.23-27.31-7.31-54.28-7.67-81.86-1.76-27.47,5.89-53.03,14.65-78.77,25.67-22.43,9.61-42.06,22.43-59.56,39.39-17.7,17.16-32.92,35.08-47.99,54.68-24.16,31.41-42.22,65.61-54.3,103.43-19.76,57.92-24.5,118.52-8.15,178.65-82.98,51.18-102.42,144.9-78.08,235.21,10.77,36.53,30.58,67.95,58.7,93.63,29.1,26.59,61.96,47.33,98.33,62.7,19.34,8.17,54.3,16,73.03,9.57-22.73-4.53-45.43-7.72-67.73-16.93-35.52-14.66-67.54-34.7-96.06-60.36-29.47-26.51-50.17-59.6-59.77-98.19-8.05-32.38-9.97-64.9-5.15-97.91,7.03-48.09,32.87-90.5,73.08-117.4,14.48-9.69,30.25-15.55,47.61-16.25,5.62-.23,11.68,1.62,16.45-2.73-16.54-6.14-33.24-2.95-50.02,3.9-14.2-52.24-10.96-106.28,4.38-157.95,12.71-42.84,31.76-81.59,59.55-116.44,27.81-34.88,54.79-66.59,96.29-84.96,26.8-11.86,53.57-21.11,82.24-27.16,26.23-5.54,51.73-4.56,77.53,2.59,38.28,10.61,73.2,26.87,107.6,48.14,55.03-43.36,119.29-66.22,189.96-60.54,45.45,3.66,72.32,21.28,110.78,46.23-21.69,1.56-40.82,5.35-60.37,12.32-6,2.14-11.99,3.64-16.74,8.07-1.28,1.39-1.75,3.11-1.13,4.66,2.12,5.38,17.31-.74,22.23-2.35,17.91-5.84,35.58-10.79,54.83-10.8,34.07-.03,66.68,10.23,95.37,27.8,1.16.71,2.83-.18,3.41-.51,4.1-2.32-6.74-14.06-12.89-17.36-18.47-9.91-37.69-15.36-59.07-19.47,23.57-16.26,74.02-27.16,102.12-28.38,37.65-1.63,74.35,3.08,110.4,12.64,23.88,6.34,44.13,18.34,60.71,36.21l41.37,44.61c4.66,3.45,13.54,1.91,19.47.84,56.49-10.2,113.9-4.81,166.77,17.36,54.98,23.05,90.6,68.14,115.52,120.71,14.76,31.13,10.41,85.12,6.82,119.24-.22,2.14,4.58,2.57,5.8,2.04,1.46-.63,3.06-2.21,4.84-3.45,5.06-30.25,6.15-61.15,2.31-92.28Z"/>
      <g>
        <path class="cls-3" d="M625.95,603.55c-16.51,7.83-27.34,22.81-34.76,39.06-12.36,27.08-25.42,50.65-56.16,59.28-21.06,5.91-46.59-11.18-51.01-31.94-3.8,11.45,2.97,20.97,10.02,28.64,23.16,25.21,58.2,12.54,77.99-9.56,1.66-1.85,4.87-5.13,5.25-5.7,1.71-2.66,3.96-5.18,7.41-11.2l7.59-14.05c8.45-20.58,15.88-40.69,39.13-49.27,10.74-3.96,29.36.81,29.19-2.87-.25-5.53-23.74-7.56-34.66-2.39Z"/>
        <path class="cls-3" d="M1504.56,486.24c-9.35.7-18.26,5.13-22.26,13.11,7.35,1.89,13.83-1.11,20.86-1.68,32.39-2.66,62.8,10.04,84.96,33.91,2.28,2.46,5.65,2.15,6.82,1.06,8.94-8.27-34.37-50.59-90.37-46.4Z"/>
        <path class="cls-3" d="M401.86,157.45c8.32-6.01,15.53-12.99,25.07-18.39,21.79-12.36,48.6-12.88,72.54-11.62,2.36.12,7.68-5.47,4.96-6.38-28.27-9.47-60.69-5.28-86.13,9.72-22.22,13.1-24.98,32.86-16.43,26.68Z"/>
        <path class="cls-3" d="M698.52,639.22c9.78,13.75,33.52,8.69,46.56.58,6.67-4.15,13.95-6.87,19.04-13.93-24.46,7.82-40.17,18.45-65.6,13.34Z"/>
        <path class="cls-3" d="M819.63,688.86c1.84,22.53,33.77,43.5,51.81,50.27,24.32,9.12,51.51,1.72,69.18-16.34,11.32-11.57,15.11-25.67,13.41-41.46-3.29-30.61-29.04-53.72-59.8-51.02-7.57.67-13.61,5.4-15.17,11.67,17.21-7.37,44.11,3.72,53.3,19.5,7.3,12.54,10.43,28.55,3.31,41.4-10.55,19.06-33.18,26.47-53.95,22.7-11.46-2.08-21.29-6.64-31.65-11.36-12.35-5.62-21.27-14.39-30.44-25.37Z"/>
      </g>
      <g>
        <path class="cls-3" d="M1459.75,1001.07c-16.79-.78-33.27,8.03-40.56,23.71-5.39,11.59-2.1,24.85,6.38,34.14,13.69,14.99,36.34,16.32,52.6,3.61,9.4-7.35,14.1-17.33,13.48-28.45-.95-16.95-17.2-32.33-31.91-33.01ZM1480.52,1041.36c-3.07,9.35-11.26,15.18-18.42,17.11-10.01,2.71-19.27.63-26.3-6.03-5.87-5.55-9.41-14.06-5.74-21.78,3.15-6.63,8.34-12.83,14.9-16.29,5.14-2.72,11.06-2.63,16.65-1.64,4.72.84,10.63,1.76,14.41,4.91,6.3,5.24,6.89,16.48,4.51,23.71Z"/>
        <path class="cls-3" d="M1418.72,1104.24c-9.42-.53-16.3,1.72-23.09,8.06-10.32,9.65-13.95,22.68-9.18,36.19,6.47,18.33,25.22,26.07,43.29,17.93,15.07-6.79,21.58-20.54,17.95-36.24-3.35-14.49-14.08-25.1-28.97-25.94ZM1433.38,1147.25c-4.91,7.08-14.94,11.1-23.21,8.71-11.38-3.29-16.85-17.62-11.65-27.82,3.38-6.64,10.35-14.25,18.36-14.75,8.63-.53,15.97,7.99,17.91,15.67,1.43,5.66,2.57,12.45-1.41,18.19Z"/>
        <path class="cls-3" d="M1513.55,885.56c-8.17-5.88-19.54-6.01-28.69-6.11-12.36-.11-21.8,2.51-28.92,8.11-16.65,13.09-20.54,36.65-9.05,54.8,9.18,14.51,25.26,22.73,41.8,22.73,6.7,0,13.48-1.35,19.9-4.18,13.41-5.91,22.46-19.05,24.19-35.17,1.67-15.53-5.34-30.18-19.23-40.18ZM1503.87,949.61c-9.38,4.28-19.87,4.42-29.54.4-9.44-3.93-16.82-11.49-20.24-20.74-3.12-8.46-2.4-16.94,2.16-25.21,3.91-7.11,12.24-10.6,19.74-13.32,2.92-1.06,5.11-1.43,7.49-1.43,1.76,0,3.62.2,5.95.49,16.19,1.95,27.34,10.64,30.59,23.82,3.08,12.48-1.53,29.33-16.15,36Z"/>
      </g>
      <g id="FACE-2" data-name="FACE">
        <path class="cls-3" d="M887.75,1399.48c-3.06,5.79-6.11,11.59-9.17,17.38-3.37,6.39-6.75,12.78-10.12,19.18-1.13,2.14-2.75,4.41-3.52,6.29-.05.67-2.45,3.79-1.12,4.81,1.59,1.23,3.2-2.17,4.08-3.49,1.22-1.82,2.01-3.32,2.93-5.29,1.15-2.46,2.53-4.49,3.77-6.91,6.15-11.95,12.62-22.98,15.4-36.24,0,.3-.46.88-.6,1.14-.55,1.04-1.1,2.08-1.65,3.12Z"/>
        <path class="cls-3" d="M981.52,773.85c-.99.02-1.98.23-3.04.71,1.34.3,2.27-.02,3.04-.71Z"/>
        <path class="cls-3" d="M977.27,774.97c1.05.99,2.27,1.2,3.6.78-1.1-.28-2.2-.53-3.3-.73-.1-.02-.2-.03-.3-.05Z"/>
        <path class="cls-3" d="M883.69,1322.66c18.49,15.6,6.93,24.81,8.87,42.92,5.5-4.35,4.2-10.15,5.93-15.48,1.49-4.61,2.04-12.01.79-16.72-1.16-4.35-3.84-6.6-6.74-10-3.14-3.69-6.84-6.87-10.65-9.85s-7.96-5.9-11.94-8.85c-1.5-1.12-2.94-2.27-4.36-3.49-.13-.11-.27-.23-.45-.27-.7-.17-1,1.04-.62,1.47,1.09,1.26,5.64,5.37,6.24,6.09.52.62,2.74,2.61,3.09,3.33,2.33,2.84,3.93,4.44,5.19,5.77.27.29,3.43,3.83,4.65,5.09Z"/>
        <path class="cls-3" d="M649.56,1370.87h-.08c.14.1.15.09.08,0Z"/>
        <path class="cls-3" d="M882.52,1324.73c-.08-.28-.18-.55-.31-.81-.67-1.38-1.92-2.43-2.97-3.53-1.77-1.86-5.82-2.33-8.28-2.53-3.32-.28-6.63.33-9.7,1.6-14.88,6.17-30.71,4.75-46.5,3.87l-45.82-2.56c-12.41-.69-24.41-2.11-36.76-1.08-9.94.84,1.61,9.69-38.54-1.27,5.66-7.04,22.5-50.29,16.92-53.44-3.59-2.03-7,8.48-7.95,11.64l-12.37,41.25c-9.88-1.82-18.33-.18-27.01,3.02-15.21,5.61-30.29,7.63-46.53,5.68-5.89-.71-13.78,1.58-16.16,6.64-1.8,3.84,1.85,6.12,3.94,6.66,3.41.88,5.63-.7,8.29-3.27,2.2-2.13,5.93,2.02,6.88,4.39,13.81,8.56,28.29,13.91,45.46,14.33l71.01,1.72c27.43.66,53.88-1.19,81.28-2.73,10.31-.58,19.38-2.16,29.29-4.9-.08.38-.16.76-.22,1.15-.18,1.19-.26,2.41.14,3.57.16.47.44.93.69,1.4-9.67,10.93-20.31,20.45-34.05,25.38-25.01,8.98-51.24,13-77.85,14.65-18.63,1.16-36.47-1.67-53.28-9.29-11.02-5-22.97-8.96-32.65-15.39-6.5,2.83,16.47,15.8,18.91,17.35,19.77,12.5,41.71,19.01,65.45,17.12,26.94-2.15,53.24-6.07,79.12-14.28,25.3-8.03,43.22-27.92,54.02-51.29.98-2.11,3.09-2.72,4.58-2.96,1.99-.33,1.21,4.53,2.7,5.02,3.69,1.22,6.1-1.18,7.21-4.51.59-1.77.88-3.64,1.05-5.5.22-2.26.63-4.88,0-7.09ZM751.01,1347.87l-67.78-1.45c-20.04-.43-38.91-3.3-57.66-9.06,16.12-1.09,29.91-5.96,45.11-9.08l20.94-4.29c7.11,3.29,13.92,4.63,20.87,6.97,4.6,1.55,8.06-.67,11.98-1.85,10.58-3.19,20.87-1.18,31.73-.02,31.46,3.36,62.2,5.36,93.75,7.14.54.03,1.35-.07,2.31-.21-.77,1.27-1.45,2.59-2.09,3.94-7.38,1.23-14.52,3.41-22.19,4-25.82,2.01-50.94,4.47-76.97,3.92Z"/>
        <path class="cls-3" d="M655.68,1230.42c-7.7-15.23-10.93-31.13-8.42-47.45,5.5-12.98,13.01-24.14,20.34-36.01,2.15-3.49,4.8-7.5,1.27-11.68-19.98,21.48-43.55,44.39-28.85,74.5,3.71,7.59,6.09,16.88,15.66,20.63Z"/>
        <path class="cls-3" d="M661.87,1220.53c-3.47,2.35-4.01,7.18-2.81,11,3.42,10.9,20.17,13.02,28.86,10.75,3.44-.9,5.51-2.71,8.93.23,2.3,1.98,13.9-2.62-14.97-19.91-6.15-3.69-13.63-6.39-20.02-2.06Z"/>
        <path class="cls-3" d="M602.35,1278.01c4.55-4.88,8.79-10.06,12.68-15.48,3.85-5.36,7.36-10.96,10.45-16.79,1.51-2.84,2.92-5.74,4.21-8.68,1.04-2.36,2.19-4.81,2.86-7.33.14-.52.49-1.27.58-1.8.12-.68.42-1.58.19-2.19-18.84,34.51-23.98,43.46-53.81,67.62-7.04,5.7-14.93,9.68-20.99,16.91,8.09-.07,10.87-7.3,18.11-8.86-5.69,15.63.27,41.86,6.96,55.49-.76-13.68-7.86-39.08-3.61-51.26l3.75-10.74c1.46-1.1,2.89-2.24,4.3-3.4,5.07-4.17,9.85-8.7,14.33-13.5Z"/>
        <path class="cls-3" d="M596.12,1345.66c-9.55,24.54,39.87,66.64,56.62,81.01l-43.94-55.76c-6.08-7.71-10.24-15.2-12.68-25.25Z"/>
        <path class="cls-3" d="M932.72,1354.55c1.86-26.93-6.97-40.04-30.18-53.61,11.19,17.69,22.56,19.26,26.33,46.21.37,2.66-.16,6.42,3.84,7.4Z"/>
        <path class="cls-3" d="M932.66,1289.39c1.09,1.05,3.19.03,3.57-.79,2.7-5.89-14.9-25.08-17.6-19.34-1.99,4.22,10.3,16.5,14.04,20.12Z"/>
        <path class="cls-3" d="M733.15,1310.82c3.6-1.61-1.82-22.03-5.32-26.01.63,4.89.3,28.24,5.32,26.01Z"/>
        <path class="cls-3" d="M706.49,833.58c-31.37.89-61.15,3.12-91.78,9.01-13.11,2.52-26.28,3.97-38.33,12.41,13.64,2.24,26.08.35,39.07-1.89,52.13-9,103.34-13.88,157.05-8.89l122.11,11.34c-10.9-8.22-23.65-8.12-36.1-10.29-50.52-8.81-100.73-13.14-152.02-11.69Z"/>
        <path class="cls-3" d="M681.07,772.45l71.12,4.54c11.72.8,22.63,2.32,34.86.68-34.52-13.13-71.28-10.18-105.93-7.38-3.35.93-3.51,2.21-.05,2.15Z"/>
        <path class="cls-3" d="M697.18,798.59c12.97,9.8,45.44,9.28,60.18,1.02-20.14-4.88-39.45-4.36-60.18-1.02Z"/>
        <path class="cls-3" d="M1154.86,1208.34c9.75-2.28,18.75-10.74,20.21-22.19,1.47-11.49-6.22-22.78-16.45-27.15-7.28-3.11-12.78-.71-18.75,2.52-6.52,3.52-12.29,7.03-14.59,12.93-2.78,7.14-2.66,14.13,1.27,20.95,6,10.41,16.99,15.58,28.31,12.93ZM1138.51,1180.91l6.48-11.33c7.09-1.91,12.52,1.66,15.1,7.71,2.4,5.63.41,12.18-6.01,15.92-4.06,2.36-8.49,1.44-11.52-.88-3.26-2.5-6.53-7.08-4.05-11.42Z"/>
        <path class="cls-3" d="M1091.9,1205.24c.33-1.54-.68-2.76-1.43-2.81-4.33-.28-8.25,19.38-10.52,24.22-4.11,15.9-9.62,30.57-15.14,46.07l-24.32,68.36c10.84-15.81,18.08-32.9,26.3-50.95,8.32-17.09,14.28-33.61,18.1-51.67l7.01-33.21Z"/>
        <path class="cls-3" d="M963.03,1363.9l-30.76,76c-.48,1.17-.37,2.25-.38,3.29,0,.57,1.19,1.2,1.94.68.47-.33,1.34-.67,2.18-2.16,18.83-33.72,41.26-84.76,41.93-122.5-4.53,15.86-8.88,29.82-14.9,44.7Z"/>
        <path class="cls-3" d="M1027.99,1186.05c20.39-29.34,40.24-80.26,40.48-115.29-10.72,39.36-26.37,75.79-40.48,115.29Z"/>
        <path class="cls-3" d="M991.23,1360.51c-.69-.25-2.81-.34-3.33.93-7.22,17.68-17.01,33.51-26.32,50.26-2.5,4.5-5.83,8.32-5.82,13.83,5.55-3.43,7.87-9.02,11.8-14.54,10.63-14.94,19.11-30.02,25.23-46.75.64-1.75-.64-3.39-1.56-3.72Z"/>
        <path class="cls-3" d="M511.13,1035.32c3.41,1.42,5.73-.61,8.58-1.88,2.14-5.35-5.65,1.86-8.58,1.88Z"/>
        <path class="cls-3" d="M810.36,1050.82c-.7,3.88,28.3,7.9,32.68,8.91,25.05,5.81,68.52,17.65,89.46-1.87-33.17,4.16-63.4-1.86-94.9-6.41l-23.84-3.45c-1.29-.19-3.23,1.88-3.4,2.82Z"/>
        <path class="cls-3" d="M864.24,988.78c21.23-1.8,41.2.74,60.8,8.22l22.39,8.55c1.74.66,3.34-.71,2.74-2.06-23.91-16.05-59.42-27.32-85.94-14.71Z"/>
        <path class="cls-3" d="M978.59,1028.68c1.4,3.83,20.93,2.24,24.89-.34-6.81-5.29-27.14-5.84-24.89.34Z"/>
        <path class="cls-3" d="M996.52,1001.58c-3.75.04-13.32,12.18-16.08,16.05,2.08-.2,23.33-16.13,16.08-16.05Z"/>
        <path class="cls-3" d="M523.33,1014.19c-3.65-3.03-7.03-3.44-10.94-3.84,2.13,3.9,7.04,5.87,10.94,3.84Z"/>
      </g>
    </g>
    <g id="TEXT">
      <g>
        <path class="cls-9" d="M519.52,248.37c44.73.57,84.29,32.47,83.57,89.24-.68,53.44-38.44,79.45-83.8,78.88-50.27-.64-82.18-35.78-81.57-83.83.64-50.59,35.02-84.89,81.8-84.3ZM495.55,312.94c-.2,15.54,1.93,35.4,8.09,50.06,5.39,12.28,13.55,19.36,23.07,19.48,10.62.13,20.87-7.67,21.17-31.29.2-15.54-3.66-36.37-9.83-50.88-6.62-15.47-15.25-23.35-23.81-23.46-9.04-.11-18.34,7.69-18.7,36.08Z"/>
        <path class="cls-9" d="M675.01,170.14c44.17.56,83.24,32.07,82.53,88.14-.67,52.78-37.96,78.47-82.75,77.9-49.65-.63-81.17-35.33-80.57-82.79.63-49.97,34.58-83.84,80.79-83.25ZM651.34,233.9c-.19,15.35,1.91,34.96,7.99,49.44,5.33,12.13,13.39,19.12,22.78,19.24,10.49.13,20.62-7.57,20.91-30.91.19-15.35-3.62-35.92-9.7-50.25-6.54-15.28-15.06-23.06-23.52-23.17-8.93-.11-18.11,7.6-18.46,35.64Z"/>
        <path class="cls-9" d="M833.51,309.39c-4.36,17.73-2.19,32.82,12.77,36.5,6.94,1.71,12.32-.9,16.13-2.41,1.81-.7,3.07-1.21,4.77-.79,2.62.65,4.56,3.42,2.97,9.89-.87,3.55-3.17,7.56-6.28,11.54-9.16,11.32-29.53,23.64-56.82,16.93-33-8.12-39.8-33.67-31.45-67.59,3.38-13.72,11.71-38.98,16.72-59.34,1.67-6.78.58-10.98-4.71-13.42-7.44-2.97-12.31-6.46-10.83-12.48,1.52-6.17,4.15-12.22,11.62-13.99,12.77-3.4,25.69-8.72,35.38-14.19,16.18-9.27,21.83-21.62,32.01-19.11,6.33,1.56,10.43,7.47,7.73,18.42-1.71,6.94-7.76,24.91-8.1,26.3-.23.92-.22,1.58,1.01,1.88,3.55.87,20.85,3.66,25.17,4.72,8.02,1.97,11.96,5.24,9.57,14.95-1.48,6.02-6.84,13.85-11.61,17.26-1.34.81-3.92,1.33-7.47.46-3.55-.87-16.39-5.18-21.63-6.47-.92-.23-2.7-.33-3.77,2.68-2.32,6.79-9.16,31.92-13.19,48.27Z"/>
        <path class="cls-9" d="M1027.98,241.23c6.46,9.38,6.5,19.66,4.18,32.24-1.6,8.7-7.49,12.75-13.54,11.63-5.28-.97-8.96-6.3-12.8-12.47-6.54-9.87-14.36-23.2-30.67-26.2-10.25-1.89-16.25,2.79-17.51,9.63-1.94,10.56,8.5,14.89,29.91,27.66,22.17,13.07,44.53,29.39,38.27,63.41-5.63,30.6-36.5,47.4-77.97,39.77-16.31-3-41.45-12.13-51.19-25.48-4.55-5.82-6.54-18.54-3.71-33.92,1.52-8.23,6.42-13.11,14.04-11.71,3.57.66,6.42,4.39,9.3,8.78,6.98,10.92,15.52,28.23,36.02,32,9.63,1.77,15.72-2.57,17.12-10.18,2.23-12.11-14.99-18.01-33.7-32.38-15.49-11.84-32.32-25.06-27.06-53.63,5.6-30.44,38.63-45.88,73.73-39.42,16.31,3,38.91,10.21,45.57,20.27Z"/>
        <path class="cls-9" d="M1121.63,336.95l-4.56,39.4c-1.6,13.81.16,19.27,4.23,25.3,3.91,6.02,9.27,7.92,8.34,15.92-.73,6.28-4.52,10.14-14.57,8.98-9.58-1.11-20.77-3.36-29.72-4.4-11.62-1.35-20.83-1.45-34.49-3.04-7.85-.91-10.31-5.81-9.69-11.15.89-7.69,7.66-11.2,11.03-14.15,8.81-8.84,10.67-18.02,11.62-26.18l5.98-51.65c1.29-11.15-2.98-18.17-7.04-21.66-3.14-3.07-6.64-5.86-6.04-11.04,1.11-9.58,12.82-9.02,27.62-13.19,16.6-4.6,30.59-9.98,36.55-9.29,7.22.84,10.78,4.43,9.89,12.12-1.25,10.83-5.18,29.63-9.16,64.01ZM1118.91,190.11c13.97,1.62,24.04,12.17,22.39,26.46-2.25,19.47-25.12,32.89-46.01,30.47-15.07-1.75-21.16-11.04-19.81-22.66,2.2-19,23.33-36.6,43.43-34.27Z"/>
        <path class="cls-9" d="M1216.64,359.25c-3,.05-4.29.63-4.37,2.84-.37,10.1,9.41,27.36,34.96,28.31,20.82.77,33.33-8.39,41.65-15.51,2.28-1.65,4.84-2.82,6.74-2.75,3.32.12,5.25,3.36,4.99,10.14-.83,22.25-27.86,52.68-72.66,51.01-50.16-1.86-78.74-36.26-77-83.27,1.75-47.01,36.84-86.14,87.95-84.24,46.38,1.72,61.8,37.36,60.99,59.13-.43,11.67-6.84,18.23-15.84,22.47-18.01,8.5-51.44,11.2-67.42,11.87ZM1232.37,293.17c-15.31-.57-25.52,14.85-26.11,30.78-.25,6.78,1.81,10.81,6.55,10.99,8.04.3,26.67-3.59,34.09-12.01,2.15-2.45,3.19-5.09,3.33-8.72.43-11.52-6.82-20.63-17.86-21.04Z"/>
        <path class="cls-9" d="M1326.87,318.93c-.87-6.93,13.84-15.82,12.06-30-2.12-16.85-24.25-15.99-27.23-39.61-2.48-19.69,10.33-33.62,25.13-35.48,18.27-2.3,34.27,6.56,37.68,33.66,4.86,38.59-20.53,74.58-39.12,76.92-4.25.54-8.09-2.02-8.53-5.49Z"/>
        <path class="cls-9" d="M1487.59,338.42c4.9,10.23,3.34,20.36-.9,32.39-2.93,8.31-9.35,11.39-15.14,9.35-5.05-1.78-7.83-7.6-10.66-14.26-4.9-10.73-10.53-25.06-26.11-30.55-9.8-3.45-16.43.22-18.73,6.75-3.56,10.09,6.05,15.98,25.14,31.88,19.78,16.31,39.26,35.85,27.81,68.36-10.3,29.24-43.3,40.98-82.93,27.02-15.59-5.49-38.91-18.38-46.42-33.04-3.58-6.43-3.56-19.27,1.62-33.97,2.77-7.87,8.36-11.9,15.63-9.34,3.41,1.2,5.64,5.32,7.79,10.08,5.18,11.84,10.89,30.2,30.48,37.1,9.21,3.24,15.88-.08,18.44-7.35,4.08-11.58-11.96-20.06-28.14-37.11-13.4-14.06-27.92-29.68-18.3-57,10.25-29.09,45.16-39.15,78.7-27.34,15.59,5.49,36.71,16.1,41.7,27.03Z"/>
        <path class="cls-9" d="M395.12,609.09l10.09,31.07c3.54,10.89,6.72,14.37,11.84,17.5,5,3.17,9.65,2.75,11.7,9.06,1.61,4.95.09,9.14-7.83,11.71-7.55,2.45-16.7,4.6-23.76,6.89-9.16,2.97-16.1,6.05-26.87,9.54-6.19,2.01-9.71-.81-11.07-5.02-1.97-6.07,1.9-11.02,3.41-14.38,3.57-9.64,1.82-17.15-.27-23.58l-13.22-40.72c-2.85-8.79-8.46-12.58-12.69-13.8-3.4-1.22-6.98-2.11-8.31-6.2-2.45-7.55,6.51-11.14,16.16-19.34,10.85-9.13,19.48-17.96,24.19-19.49,5.69-1.85,9.59-.38,11.56,5.69,2.77,8.54,6.27,23.96,15.08,51.06Z"/>
        <path class="cls-9" d="M523.63,630.3c-2.48-1.62-3.99-3.58-5.71-2.99-1.23.42-2.15,2.94-3.97,6.46-3.84,6.83-10.65,17.03-25.91,22.28-24.48,8.44-52.88-3.67-67.12-45.01-15.43-44.78-1.69-77.19,26.49-86.9,20.67-7.12,31.25,1.62,33.22.94,1.23-.42,1.33-2.52-1.68-11.26l-3.48-10.09c-2.46-7.14-8.91-9.87-12.58-10.53-3.18-.84-6.36-1.67-7.63-5.36-2.25-6.52,6.27-10.97,15.77-19.34,10.73-9.2,17.56-17.75,23.59-19.83,5.17-1.78,9.75-.47,11.83,5.56,5.43,15.75,4.16,16.05,16.41,51.6l28.49,82.68c1.53,4.43,5.36,9.17,11.02,7.22,2.09-.72,3.19-1.93,5.04-2.56,1.6-.55,3.55,1.53,4.53,4.36,5.26,15.26-3.97,30.82-20.09,36.38-11.93,4.11-19.4,2.83-28.23-3.62ZM501.11,576.52c-10.6-30.76-23.09-37.05-32.2-33.91-10.21,3.52-15.43,15.92-5.81,43.85,9.54,27.68,22.18,36.82,33.99,32.74,9.6-3.31,14.1-13.4,4.01-42.68Z"/>
        <path class="cls-9" d="M604.3,515.17c-2.43.46-3.39,1.12-3.14,2.93,1.14,8.25,11.56,20.86,32.44,17.97,17.02-2.35,25.85-11.59,31.59-18.56,1.61-1.67,3.53-2.98,5.08-3.2,2.71-.37,4.74,1.97,5.51,7.51,2.51,18.18-15.08,46.76-51.69,51.82-41,5.67-69.12-18.16-74.44-56.57-5.31-38.42,17.58-75.22,59.35-80.99,37.9-5.24,55.52,21.49,57.98,39.28,1.32,9.54-2.94,15.78-9.64,20.51-13.41,9.47-40.16,16.46-53.04,19.29ZM607.6,459.27c-12.5,1.73-18.58,15.71-16.78,28.73.77,5.55,3.02,8.52,6.88,7.98,6.58-.91,21.14-6.73,25.96-14.62,1.39-2.3,1.86-4.6,1.45-7.56-1.3-9.41-8.49-15.77-17.51-14.53Z"/>
        <path class="cls-9" d="M753,423.43c36.7.09,69.44,25.94,69.32,72.52-.1,43.85-30.87,65.52-68.09,65.43-41.25-.1-67.73-28.66-67.64-68.1.1-41.51,28.02-69.95,66.4-69.86ZM733.87,476.62c-.03,12.75,1.88,29.02,7.06,41.01,4.53,10.03,11.28,15.77,19.09,15.79,8.72.02,17.06-6.47,17.11-25.86.03-12.75-3.31-29.81-8.49-41.66-5.56-12.64-12.71-19.03-19.73-19.05-7.42-.02-14.98,6.47-15.04,29.77Z"/>
        <path class="cls-9" d="M1223.44,567.77c2.16-.85,4.68-3.34,7.32-12.07,3.43-11.33.81-21.1-9.03-24.08-8.47-2.56-16.3,3.09-23.84,14.54-4.46,6.67-9.44,11.42-18.9,8.56-10.21-3.09-16.7-12.67-12.7-25.87,4.71-15.57,28.08-26.31,61.34-16.25,30.02,9.08,53.87,30.03,42.64,67.15-4.71,15.57-9.53,27.02-13.72,40.85-1.36,4.48-1.65,10.38,4.08,12.11,2.12.64,3.72.31,5.58.87,1.62.49,1.99,3.32,1.12,6.19-4.67,15.45-21.27,22.66-37.59,17.72-12.71-3.84-18.36-10.32-20.37-18.94-.32-1.19-.69-2.66-1.69-2.96-1.12-.34-2.45.48-3.75,1.17-9.58,4.71-24.07,6.32-36.28,2.62-20.92-6.33-33.92-21.82-27.59-42.75,5.95-19.68,22.94-27.73,46.9-29.18,16.57-.84,31.72,2.12,36.48.3ZM1218.69,589.31c-4.24-1.28-9.02-1.64-14.11-1.01-9.12.91-17.18,5.54-19.55,13.39-1.92,6.35.61,12.83,8.2,15.13,12.33,3.73,20.94-4.95,24.41-16.41,2.68-8.84,2.29-10.72,1.05-11.1Z"/>
        <path class="cls-9" d="M1404.73,654.44c-1.18,4.49-.51,10.53,5.1,12.02,2.12.56,3.81.2,5.56.66,1.62.43,2.09,3.22,1.33,6.09-4.08,15.46-20.14,23.22-36.59,18.88-14.84-3.92-20.01-12.62-22.06-20.5-.29-1.41-.74-3.26-2.61-3.76-.75-.2-2.29.6-4.59,1.72-6.42,3.11-19.65,9.75-37.85,4.94-30.67-8.1-36.07-30.06-29.25-55.87,4.51-17.08,13.5-38.98,15.21-45.46,1.84-6.98,1.03-11.47-1.85-16.23-3.28-5.27-7.63-7.48-5.98-13.71,1.35-5.11,5.78-6.74,13.71-5.45,25.87,4.03,34.46,2.83,40.57,4.44,7.23,1.91,7.62,7.48,6.44,11.97-4.58,17.33-12.02,29.37-20.58,61.78-5.2,19.7-3.2,31.83,10.39,35.42,8.23,2.17,18.74-.79,23.45-18.61l8.89-33.66c2.93-11.09,3.18-15.56.16-21.3-2.47-5.32-6.41-7.56-4.73-13.92,1.35-5.11,5.38-6.72,13.21-5.58,21.41,3.25,35.96,3.23,40.57,4.44,6.73,1.78,6.91,7.16,5.72,11.65-2.37,8.98-6.85,14.33-12.45,35.52l-11.75,44.51Z"/>
        <path class="cls-9" d="M1501.98,600.13l-19.98,85.28c-2.61,11.15-1.69,15.77,1.07,21.1,2.63,5.3,6.83,7.35,5.32,13.81-1.19,5.07-4.65,7.87-12.76,5.97-7.48-1.75-16.93-4.77-23.9-6.4-9.25-2.17-17.79-3.37-27.93-5.74-6.33-1.48-7.88-5.72-6.87-10.03,1.45-6.21,7.32-8.44,10.35-10.54,8.05-6.4,10.44-13.73,11.98-20.32l23.81-101.62c1.6-6.84-2.35-11.64-5.11-14.16-2.37-2.43-4.49-4.8-3.6-8.6,1.57-6.72,11.15-5.94,23.65-7.96,13.98-2.07,24.32-5.67,30.53-4.21,5.19,1.22,8.37,4.77,6.92,10.98-3.8,16.22-4.91,15.82-13.49,52.44Z"/>
        <path class="cls-9" d="M1564.83,671.24c-4.96,14.08-4.39,26.53,7.49,30.71,5.51,1.94,10.09.26,13.31-.67,1.52-.43,2.6-.74,3.94-.26,2.08.73,3.44,3.14,1.63,8.28-.99,2.82-3.18,5.9-6.03,8.89-8.36,8.48-25.91,16.89-47.58,9.25-26.21-9.23-29.7-30.57-20.21-57.5,3.84-10.9,12.64-30.78,18.33-46.95,1.9-5.39,1.34-8.89-2.76-11.3-5.82-3.01-9.5-6.24-7.82-11.01,1.73-4.9,4.35-9.62,10.57-10.46,10.66-1.75,21.6-5.05,29.92-8.73,13.9-6.25,19.48-15.84,27.56-13,5.02,1.77,7.89,6.91,4.83,15.6-1.94,5.51-8.3,19.65-8.69,20.75-.26.74-.31,1.27.67,1.62,2.82.99,16.67,4.63,20.1,5.84,6.37,2.24,9.31,5.21,6.59,12.92-1.68,4.77-6.67,10.72-10.82,13.12-1.16.55-3.3.76-6.11-.23-2.82-.99-12.92-5.52-17.08-6.98-.73-.26-2.17-.49-3.28,1.87-2.43,5.34-10,25.25-14.57,38.23Z"/>
        <path class="cls-9" d="M1177.65,442.37c-8.31-.56-14.98-.16-23.29-.72-8.82-.59-21.98-2.5-30.12-3.04-11.87-.8-15.59,3.89-16,10-.72,10.68,17.4,14.79,16.32,30.9-.84,12.55-23.62,75.24-35.25,101.37-1.2,2.65-2.33,4.27-3.18,4.21-.68-.05-1.47-.95-2.2-2.7-6.5-14.74-26.83-95.15-26.19-104.64,1.16-17.3,18.85-19.52,19.58-30.37.49-7.29-4.63-12.23-15.31-12.95-11.02-.74-24.49-.62-41.79-1.79-17.3-1.16-26.39-2.79-36.22-3.45-14.75-.99-22.25,1.57-22.92,11.57-.4,5.94,5.37,11.43,8.52,15.23,7.42,8.84,11.61,17.47,13.7,24.42l44.5,146.59c2.93,9.71,6.06,18.95,7.84,24.12.42,1.34.86,2.65,1.35,3.92,0,0,0,0,0,0,2.06,5.32,4.34,9.47,7.42,12.36,5.1,5.47,12.34,9.06,22.91,9.62,34.17,1.8,40.91-33.31,49.97-58.12,3.11-8.46,41.26-117.01,44.66-125.31,11.12-28.72,26.57-27.86,27.37-39.9.44-6.62-3.53-10.8-11.68-11.34Z"/>
        <path class="cls-9" d="M421.95,261.65c9.02-1.13,21.69-3.4,30.52-6.15,42.08-13.08,64.23-45.06,55.22-74.03-4.83-15.55-18.43-22.69-33.98-17.86-17.28,5.72-20.42,21.4-20.08,34.34.36,2.22.6,10.51.5,15.56-.47,8.17-3.74,14.87-16.85,18.95-34.15,10.62-87.57-14.9-147.02,3.6-64.03,19.91-94.3,78.49-77.8,131.54,12.71,40.86,46.36,59.82,81.74,48.82,28.66-8.91,44.86-31.01,38.83-52.54-4.46-14.33-17.6-23.29-32.55-18.64-11.89,3.7-16.42,12.8-19.37,19.41-2.75,6.2-5.39,11.71-12.41,13.89-10.06,3.13-20.58-5.97-24.84-19.69-9.96-32.02,10.1-65.35,54.92-79.29,17.38-5.41,34.16-6.28,42.98-2.67,4,2.1,7.52,17.73,9.79,30.39l19.08,105.2c1.43,8.98,1.67,19.68-4.2,31.27-2.78,4.69-9.29,11.3-7.43,20.53,1.3,6.41,5.98,11.15,15.41,9.25,16.4-3.32,27.09-6.66,41.05-9.48,10.74-2.17,24.54-3.78,36.03-6.11,12.06-2.44,14.99-8.33,13.47-15.87-1.94-9.61-8.85-9.78-15.65-15.28-6.99-5.45-11.07-11.1-14.43-27.68h-.06c-.36-1.87-.68-3.88-.99-5.73l-17.38-94.58c-3.52-20.98-7.17-34.88,5.5-37.16Z"/>
        <path class="cls-9" d="M362.26,520.62s.05.03.08.04c-9.4-39-38.15-39.57-49.72-38.12-3.62.45-7.18,1.43-10.5,2.97-2.41,1.12-4.7,2.46-6.89,3.96-1.57,1.07-3.07,2.22-4.52,3.45-1.45,1.23-2.84,2.54-4.17,3.91-1.34,1.39-2.62,2.83-3.83,4.34-1.23,1.53-2.4,3.11-3.5,4.74-1.13,1.67-2.19,3.38-3.18,5.13-1.02,1.79-1.98,3.62-2.87,5.48-.92,1.91-1.77,3.85-2.57,5.82-.82,2.02-1.58,4.06-2.28,6.12-.72,2.12-1.39,4.26-2,6.41-.63,2.21-1.2,4.43-1.73,6.67-.54,2.29-1.03,4.59-1.47,6.9-.45,2.36-.86,4.74-1.22,7.11-.37,2.43-.69,4.86-.98,7.3-.29,2.48-.54,4.97-.75,7.46-.21,2.53-.39,5.06-.53,7.6-.14,2.57-.24,5.14-.31,7.71-.07,2.6-.11,5.2-.11,7.8,0,2.62.02,5.24.08,7.86.06,2.63.14,5.27.26,7.9.12,2.64.26,5.28.43,7.92.17,2.64.37,5.27.59,7.91.22,2.63.47,5.25.75,7.87.27,2.61.57,5.21.89,7.81.32,2.58.66,5.16,1.02,7.73.36,2.54.74,5.08,1.14,7.62.4,2.5.82,5,1.26,7.49.37,2.08.76,4.15,1.15,6.22-.19,1.8-.56,3-1.15,3.2-.61.2-1.63-.31-2.91-1.59-11.02-10.62-57.8-74.02-60.66-82.6-5.2-15.63,9.56-23.94,6.3-33.75-2.19-6.59-8.47-9.09-18.12-5.88-9.96,3.31-21.76,8.26-37.39,13.46-15.63,5.2-24.21,7.03-33.09,9.99-13.33,4.43-19,9.38-16,18.42,1.78,5.36,8.83,8.12,12.96,10.33,9.7,5.11,16.49,11.19,20.83,16.55l91.84,112.9c8.37,10.32,16.78,19.77,18.17,21.35,3.96,4.19,10.41,8.59,16.98,11.29,9,4.06,19.13,4.22,31.01-2.69,28.52-16.59,15.42-48.49,9.63-73.29-20.61-89.35-15.2-124.18,7.56-137.4.27-.16.55-.3.82-.43,3.22,9.03,11.11,13.78,23.16,9.96,16.8-5.32,29.76-23.17,25.56-38.93Z"/>
      </g>
    </g>
  </g>
</svg>