<?xml version="1.0" encoding="UTF-8"?>
<svg id="Layer_2" data-name="Layer 2" xmlns="http://www.w3.org/2000/svg" viewBox="0 0 47.79 47.14">
  <defs>
    <style>
      .cls-1 {
        fill: #3dbeb2;
      }
    </style>
  </defs>
  <g id="Graphics_1" data-name="Graphics 1">
    <g>
      <path class="cls-1" d="M0,47.06c4.22.24,6.88.05,9.75-2.37,1.56-1.31,6.12-5.38,10.15-9.27,2.03-1.93,3.92-3.82,5.31-5.22,1.38-1.41,2.28-2.31,2.28-2.31,0,0,.89-.91,2.26-2.33,1.37-1.42,3.22-3.35,5.1-5.42,3.8-4.11,7.77-8.76,9.05-10.34,2.36-2.92,2.5-5.58,2.17-9.8-4.2.61-6.7,1.22-9.1,3.97-1.3,1.49-5.15,6.01-8.84,10.02-1.83,2.02-3.61,3.9-4.94,5.29-1.33,1.38-2.18,2.28-2.18,2.28,0,0-.87.88-2.23,2.23-1.36,1.35-3.21,3.18-5.19,5.05-3.93,3.76-8.36,7.72-9.83,9.05-2.7,2.46-3.25,4.97-3.78,9.18Z"/>
      <path class="cls-1" d="M.42,1.02c-.21,4.22,0,6.88,2.44,9.74,1.32,1.55,5.42,6.08,9.33,10.09,1.95,2.01,3.85,3.89,5.25,5.28,1.41,1.38,2.33,2.26,2.33,2.26,0,0,.92.88,2.34,2.25,1.43,1.36,3.38,3.19,5.46,5.07,4.14,3.77,8.81,7.71,10.4,8.98,2.94,2.34,5.6,2.46,9.81,2.1-.64-4.19-1.26-6.69-4.03-9.07-1.5-1.29-6.04-5.11-10.07-8.77-2.03-1.82-3.93-3.59-5.33-4.9-1.39-1.32-2.29-2.17-2.29-2.17,0,0-.88-.87-2.25-2.21-1.36-1.35-3.2-3.19-5.08-5.15-3.79-3.91-7.77-8.31-9.11-9.77C7.15,2.05,4.64,1.51.42,1.02Z"/>
    </g>
  </g>
</svg>