<?xml version="1.0" encoding="UTF-8"?>
<svg id="Layer_2" data-name="Layer 2" xmlns="http://www.w3.org/2000/svg" xmlns:xlink="http://www.w3.org/1999/xlink" viewBox="0 0 1187.88 621.21">
  <defs>
    <style>
      .cls-1 {
        fill: none;
      }

      .cls-2 {
        fill: #f44d19;
      }

      .cls-3 {
        fill: #f4a837;
      }

      .cls-4 {
        fill: #262834;
      }

      .cls-5 {
        fill: #3d6c91;
      }

      .cls-6 {
        clip-path: url(#clippath);
      }
    </style>
    <clipPath id="clippath">
      <rect class="cls-1" x="3.71" width="1180" height="621.21"/>
    </clipPath>
  </defs>
  <g id="Graphics_1" data-name="Graphics 1">
    <g class="cls-6">
      <g>
        <g>
          <path class="cls-2" d="M595.88,198.7c121.3,54.93,218.56,118.63,358.36,116.63,6.2-.09,84.99-6.49,85.86-3.08-2.63-10.29-2.23-21.31,2.44-32.44,4.93-11.76,19.67-20.36,30.85-14.17-1.72-12.84,6.9-26.29,19.31-30.15,12.41-3.85,27.17,2.34,33.07,13.89.11-14.63,12.83-26.32,26.33-32.07,10.68-4.55,22.36-6.4,33.94-5.78v-50.79c-39.49,8.39-85.8,16.47-135.29,21.61-1.21-6.72-3.98-14.13-8.58-22.33-11.69-20.81-36.89-33.66-63.09-27.05-1.13-19.23-12.73-38.37-30.8-45.22-18.07-6.85-41.53,1.62-48.27,19.67-8.38-20.99-27.64-37.32-49.78-42.19-34.78-7.66-59.13,11.79-78.57,37.62-11.14,14.8-21.35,34.66-25.25,54.68.33-1.71-81.18-45.07-88.92-49.63C572.01,57.52,481.98,20.41,382.43,10.6c-96.9-9.55-194.76-1.1-290.88,12.22C61.66,26.96,31.68,31.64,1.84,37.13v126.5c5.52-.99,9.24-1.65,10.36-1.84,197.94-34.5,395.95-48.09,583.68,36.91Z"/>
          <path class="cls-4" d="M595,200.21c17.56,7.95,34.96,16.25,52.32,24.64s33.59,16.34,50.46,24.35,33.21,15.53,50.07,22.71,33.51,13.69,50.64,19.51,34.8,10.91,52.58,14.9c18.42,4.14,37.09,7.13,55.89,8.9,9.82.92,19.67,1.51,29.53,1.76,6.52.17,13.09.37,19.61.02,8.19-.45,16.38-1.08,24.56-1.62,11.5-.76,23-1.48,34.51-1.97,4.79-.2,9.58-.38,14.38-.41,1.77-.01,3.54,0,5.31.07.68.03,1.36.06,2.04.12.27.02.53.05.8.08.67.06-.23-.07.38.05.33.06.67.18.99.23.27.04-.47-.25-.07-.02-.16-.1-.48-.44-.59-.81.66,2.15,3.93,1.26,3.38-.93-4.12-16.43-.18-40.86,18.93-45.85,3.97-1.04,8.15-.75,11.78,1.22,1.04.56,2.82-.11,2.64-1.51-1.21-9.59,3.32-19.49,11.21-25.05s18.28-5.76,26.77-1.31c4.73,2.48,8.66,6.23,11.13,10.99.83,1.59,3.24.79,3.27-.88.13-9.06,5.41-16.83,12.15-22.5,7.73-6.51,17.45-10.35,27.29-12.3,6.28-1.24,12.69-1.62,19.08-1.3.95.05,1.75-.84,1.75-1.75v-50.79c0-1.19-1.12-1.92-2.22-1.69-16.27,3.46-32.6,6.63-48.98,9.5-17.9,3.14-35.87,5.92-53.9,8.28-10.63,1.4-21.29,2.65-31.96,3.76l1.69,1.29c-1.29-7-3.97-13.69-7.25-19.98-2.99-5.72-6.66-10.99-11.26-15.53-8.9-8.78-20.59-14.64-32.98-16.34-7.46-1.03-15.02-.58-22.33,1.24l2.22,1.69c-1.02-16.51-9.19-32.85-23.04-42.24-6.49-4.4-14.08-6.92-21.93-7.08-7.41-.16-14.89,1.66-21.39,5.21-7.32,4-13.18,10.28-16.15,18.1h3.38c-5.36-13.31-14.71-24.69-26.55-32.77s-26.47-12.64-40.98-12.39c-13.48.24-26.3,5.03-37.22,12.83s-20.87,18.92-28.97,30.29c-9.82,13.78-17.58,29.42-21.83,45.84-.54,2.09-1.01,4.19-1.43,6.3l3.44.47c.13-1.26-1.46-2.13-2.32-2.71-1.52-1.02-3.11-1.95-4.68-2.88-5.46-3.21-10.99-6.29-16.53-9.36-14.48-8.03-29.05-15.91-43.61-23.81-5.58-3.03-11.17-6.05-16.74-9.1-5.87-3.21-11.6-6.65-17.41-9.97-24.94-14.28-50.5-27.5-76.74-39.23-26-11.62-52.67-21.79-79.93-30.04s-55.47-14.63-83.85-18.7c-30.99-4.44-62.37-6.3-93.65-6.84-32.15-.56-64.32.51-96.39,2.72s-64.1,5.57-96.01,9.62c-31.89,4.04-63.72,8.65-95.41,14.03-7.84,1.33-15.68,2.72-23.5,4.16-.75.14-1.29.97-1.29,1.69v110.99c0,5.08-.2,10.21,0,15.3,0,.07,0,.14,0,.21,0,1.22,1.11,1.89,2.22,1.69,18.04-3.23,36.11-6.28,54.22-9.11,19.69-3.08,39.42-5.91,59.19-8.4,19.73-2.48,39.51-4.63,59.32-6.35s39.26-3,58.93-3.8c19.56-.79,39.13-1.09,58.7-.81,19.57.28,39.13,1.14,58.64,2.65s38.93,3.69,58.27,6.6,38.58,6.56,57.64,10.99,38.35,9.75,57.17,15.84,38.25,13.31,56.87,21.25c4.6,1.96,9.18,3.98,13.74,6.04,2.04.92,3.82-2.1,1.77-3.03-18.62-8.42-37.61-16.03-56.9-22.75s-38.09-12.34-57.48-17.26-38.35-8.89-57.76-12.19-38.87-5.84-58.43-7.7c-19.47-1.86-39-3.03-58.55-3.61s-39.4-.56-59.09-.01c-19.8.55-39.59,1.62-59.34,3.14s-39.72,3.49-59.52,5.81-39.65,5.01-59.42,7.97-39.26,6.15-58.84,9.57c-3.36.59-6.72,1.19-10.07,1.79l2.22,1.69V42.25c0-1.6.19-3.32,0-4.92,0-.07,0-.14,0-.21l-1.29,1.69c31.72-5.83,63.6-10.75,95.55-15.11s63.49-8.07,95.37-10.79c31.72-2.71,63.53-4.41,95.37-4.63s63.87,1.01,95.62,4.24c28.37,2.89,56.49,8.11,84.06,15.36,27.4,7.2,54.25,16.4,80.44,27.18,26.21,10.79,51.76,23.18,76.67,36.68,14.79,8.02,29.22,16.68,44,24.71,13.93,7.57,27.88,15.1,41.78,22.72,6.7,3.67,13.4,7.36,20.06,11.12,4.17,2.36,8.4,4.67,12.42,7.28.45.29.88.59,1.31.9-.45-.32-.1-.16.05.06.13.2.03.17-.16-.23-.05-.1-.22-.58-.2-.79-.2,1.96,3.06,2.4,3.44.47,3.2-16.25,10.09-31.68,19.02-45.57,7.45-11.58,16.49-22.57,27.14-31.34,9.77-8.05,21.48-13.99,34.18-15.41,13.75-1.54,27.92,1.61,39.92,8.42s21.74,16.95,27.86,29.18c.76,1.51,1.45,3.05,2.09,4.62s2.74,1.68,3.38,0c4.87-12.82,18.64-20.26,31.87-20.72,15.19-.54,28.46,8.57,36.11,21.28,4.46,7.41,7.11,15.89,7.65,24.52.07,1.15,1.06,1.98,2.22,1.69,12.02-2.99,24.86-1.94,36.13,3.29,10.65,4.94,19.52,13.13,25.22,23.39,3.74,6.72,6.77,13.89,8.16,21.48.13.69.98,1.36,1.69,1.29,18.83-1.96,37.62-4.38,56.35-7.2,17.52-2.65,34.98-5.65,52.37-8.99,9.03-1.73,18.04-3.56,27.04-5.47l-2.22-1.69v50.79l1.75-1.75c-12.01-.61-24.11,1.36-35.16,6.16-8.83,3.83-17.16,9.99-22.29,18.25-2.84,4.57-4.5,9.79-4.57,15.19l3.27-.88c-4.92-9.46-15.23-15.45-25.78-15.88s-21.13,5.93-26.35,15.51c-2.89,5.32-4.28,11.47-3.52,17.51l2.64-1.51c-7.85-4.24-17.15-2.06-23.98,3.15-3.54,2.7-6.56,6.14-8.57,10.12-2.56,5.09-4.02,10.84-4.68,16.48-.73,6.3-.19,12.69,1.35,18.84l3.38-.93c-.66-2.17-4.08-2.07-5.86-2.17-3.79-.22-7.59-.13-11.38-.04-11.15.27-22.3.94-33.44,1.62-9.97.62-19.93,1.32-29.89,1.97-12.25.81-24.56.48-36.82-.18-19.19-1.02-38.3-3.34-57.18-6.91-18.1-3.42-35.97-7.97-53.55-13.42s-34.51-11.67-51.38-18.52-33.56-14.31-50.08-22.01c-16.88-7.87-33.63-16.01-50.38-24.14s-34.66-16.79-52.13-24.88c-4.3-1.99-8.61-3.97-12.93-5.93-2.04-.92-3.82,2.1-1.77,3.03Z"/>
        </g>
        <g>
          <path class="cls-5" d="M16,490.03c15.38-1.98,29.64-14.95,29.77-30.4,12.36,15.38,33.7,23.02,53.06,18.99s35.84-19.53,41-38.56c.63-2.31.5-5.21-.3-7.52,14.26,9.1,31.5,14.26,47.78,10.25,17.69-4.35,32.41-22.1,29.64-39.8,122.36,5.35,270.8,33.71,435.14,109.69,236.65,109.42,416.43,114.91,533.97,95.34v-128.13c-117.41,14.6-287.81,7.99-505.64-73.49C381.68,294.66,133.43,317.35,1.84,344.6v144.8c4.64.97,9.4,1.24,14.16.63Z"/>
          <path class="cls-4" d="M16,491.78c12.6-1.69,24.43-9.82,29.37-21.73,1.37-3.31,2.1-6.85,2.15-10.43l-2.99,1.24c10.8,13.33,28.09,20.99,45.19,20.55,16.96-.43,32.74-9.25,42.86-22.72,2.78-3.7,5.06-7.73,6.83-12.01,1.94-4.69,3.46-9.59,1.81-14.61l-2.58,1.98c13,8.25,28.58,13.49,44.09,11.38,13.36-1.82,25.55-9.98,32-21.9,3.49-6.46,5-13.73,3.91-21.01l-1.69,2.22c14.96.66,29.91,1.63,44.83,2.93,15.68,1.37,31.34,3.08,46.94,5.14,16.35,2.16,32.65,4.7,48.88,7.61,17.04,3.05,34,6.5,50.88,10.33,17.73,4.03,35.37,8.49,52.9,13.35,18.19,5.05,36.26,10.54,54.19,16.45,18.9,6.23,37.64,12.92,56.21,20.05,19.29,7.4,38.39,15.28,57.3,23.61s38.8,17.75,58.41,26.15c18.46,7.91,37.09,15.42,55.89,22.48,17.84,6.69,35.83,12.98,53.97,18.81,16.94,5.45,34,10.5,51.18,15.11,16.29,4.38,32.68,8.36,49.16,11.92,15.38,3.32,30.85,6.26,46.37,8.8s29.57,4.46,44.42,6.12c13.81,1.54,27.65,2.75,41.52,3.58,13.1.79,26.23,1.26,39.35,1.37,12.19.11,24.39-.08,36.57-.59,11.46-.48,22.91-1.24,34.33-2.3,10.66-.99,21.29-2.23,31.89-3.74,4.8-.68,9.59-1.42,14.38-2.22.75-.12,1.29-.98,1.29-1.69v-12.72c0-10.19,0-20.38,0-30.56v-69.09c0-5.17.19-10.38,0-15.54,0-.07,0-.15,0-.22,0-.86-.81-1.87-1.75-1.75-14.29,1.77-28.64,3.15-43.01,4.14-15.67,1.08-31.38,1.71-47.08,1.92-17.08.23-34.17-.04-51.24-.78-18.54-.8-37.05-2.14-55.51-4-19.84-1.99-39.62-4.57-59.31-7.69-21.25-3.37-42.4-7.36-63.42-11.92-22.68-4.92-45.21-10.5-67.58-16.68-23.88-6.59-47.56-13.87-71.04-21.76-25.15-8.45-49.89-18.03-74.93-26.8s-49.02-16.4-73.86-23.54c-23.47-6.75-47.12-12.86-70.93-18.31s-45.64-9.81-68.64-13.78c-21.76-3.76-43.61-6.95-65.53-9.58-20.71-2.48-41.48-4.45-62.28-5.9-19.65-1.36-39.33-2.26-59.02-2.67-18.33-.39-36.67-.35-54.99.1-17.15.43-34.29,1.22-51.41,2.4-15.77,1.09-31.52,2.49-47.23,4.24-14.29,1.58-28.56,3.44-42.78,5.58-12.77,1.92-25.52,4.08-38.21,6.48-5.56,1.05-11.12,2.15-16.66,3.3-.75.15-1.29.96-1.29,1.69,0,4.82,0,9.64,0,14.46v112.6c0,5.82-.2,11.67,0,17.49,0,.08,0,.17,0,.25,0,.73.54,1.54,1.29,1.69,4.82.98,9.73,1.29,14.62.69.95-.12,1.74-.72,1.75-1.75,0-.86-.81-1.87-1.75-1.75-4.58.56-9.17.36-13.69-.56l1.29,1.69v-138.86c0-1.86.18-3.83,0-5.69,0-.08,0-.17,0-.25l-1.29,1.69c11.92-2.47,23.88-4.71,35.88-6.74,13.36-2.26,26.76-4.27,40.19-6.01,15.03-1.95,30.09-3.59,45.19-4.93,16.41-1.46,32.86-2.56,49.32-3.31,17.77-.81,35.56-1.23,53.35-1.24,19.05-.02,38.1.42,57.14,1.3,20.26.94,40.5,2.38,60.68,4.31,21.37,2.04,42.7,4.64,63.94,7.78,22.46,3.32,44.83,7.25,67.09,11.75,23.52,4.76,46.91,10.18,70.14,16.23,24.29,6.32,48.4,13.33,72.29,20.99,12.48,4,24.91,8.19,37.27,12.54s25.16,9.2,37.75,13.78c24.05,8.75,48.34,16.89,72.83,24.33,22.95,6.98,46.09,13.34,69.4,19.04,21.55,5.26,43.25,9.95,65.06,14,20.43,3.79,40.97,7.02,61.58,9.66,18.98,2.42,38.03,4.33,57.11,5.68,17.77,1.25,35.57,2.02,53.38,2.26,16.36.22,32.73,0,49.08-.69,14.99-.64,29.97-1.67,44.9-3.13,6.73-.66,13.46-1.41,20.18-2.24l-1.75-1.75v122.91c0,1.63-.17,3.38,0,5,0,.07,0,.15,0,.22l1.29-1.69c-10.04,1.67-20.12,3.09-30.23,4.26-10.98,1.27-21.99,2.26-33.01,2.99-11.83.78-23.68,1.24-35.53,1.42-12.68.19-25.36.04-38.03-.41-13.47-.49-26.93-1.33-40.36-2.5-14.32-1.25-28.61-2.88-42.85-4.87-15.21-2.12-30.36-4.65-45.44-7.54-16.04-3.08-32-6.57-47.87-10.45-16.87-4.12-33.63-8.68-50.28-13.63-17.62-5.24-35.11-10.92-52.47-17-18.58-6.51-37-13.48-55.26-20.86-19.26-7.79-38.33-16.04-57.21-24.7s-38.53-17.41-58.11-25.42-37.63-14.89-56.7-21.65-36.62-12.49-55.15-18.07c-17.71-5.34-35.55-10.26-53.49-14.75-17.09-4.28-34.27-8.16-51.54-11.63-16.56-3.33-33.19-6.29-49.88-8.86-15.96-2.46-31.97-4.56-48.02-6.3s-30.55-2.98-45.86-3.97c-7.12-.46-14.24-.84-21.36-1.16-1.25-.05-1.85,1.16-1.69,2.22,1.78,11.92-4.96,23.63-14.2,30.72-10.9,8.37-25.05,9.81-38.15,6.66-8.02-1.93-15.56-5.41-22.5-9.81-1.26-.8-3.05.53-2.58,1.98,1.34,4.07.1,7.91-1.4,11.74-1.42,3.62-3.31,7.06-5.51,10.26-4.38,6.38-10.2,11.79-16.84,15.75-13.83,8.25-30.6,9.2-45.52,3.35-8.39-3.29-15.88-8.73-21.55-15.73-1-1.24-2.97-.16-2.99,1.24-.23,14.86-13.92,26.76-28.02,28.65-.95.13-1.74.72-1.75,1.75,0,.85.81,1.88,1.75,1.75Z"/>
        </g>
        <g>
          <path class="cls-3" d="M680.41,406.41c217.83,81.48,388.24,88.09,505.64,73.49V211.54c-11.58-.62-23.25,1.22-33.94,5.78-13.5,5.75-26.23,17.44-26.33,32.07-5.9-11.54-20.66-17.74-33.07-13.89-12.41,3.85-21.03,17.3-19.31,30.15-11.18-6.19-25.92,2.42-30.85,14.17-4.67,11.13-5.07,22.14-2.44,32.44-.87-3.41-79.67,2.99-85.86,3.08-139.8,2-237.06-61.71-358.36-116.63C408.15,113.69,210.14,127.29,12.2,161.79c-1.12.19-4.85.85-10.36,1.84v180.98c131.59-27.25,379.84-49.94,678.56,61.8Z"/>
          <path class="cls-4" d="M679.94,408.1c20.68,7.73,41.52,15.02,62.53,21.8,19.79,6.39,39.72,12.34,59.78,17.81,18.82,5.13,37.75,9.83,56.79,14.07,17.98,4,36.05,7.59,54.19,10.74,17.09,2.96,34.24,5.52,51.45,7.66,16.07,2,32.18,3.63,48.32,4.86,15.23,1.16,30.49,1.97,45.76,2.39,14.16.4,28.33.47,42.49.19,13.24-.26,26.47-.82,39.69-1.69,12.25-.81,24.48-1.9,36.68-3.28,2.81-.32,5.61-.65,8.41-1,.94-.12,1.75-.71,1.75-1.75v-168.44c0-12.09,0-24.17,0-36.26v-52.76c0-3.48.06-6.97,0-10.46,0-.15,0-.29,0-.44,0-.98-.8-1.7-1.75-1.75-12.01-.61-24.11,1.36-35.16,6.16-8.83,3.83-17.16,9.99-22.29,18.25-2.84,4.57-4.5,9.79-4.57,15.19l3.27-.88c-4.92-9.46-15.23-15.45-25.78-15.88s-21.13,5.93-26.35,15.51c-2.89,5.32-4.28,11.47-3.52,17.51l2.64-1.51c-7.85-4.24-17.15-2.06-23.98,3.15-3.54,2.7-6.56,6.14-8.57,10.12-2.56,5.09-4.02,10.84-4.68,16.48-.73,6.3-.19,12.69,1.35,18.84l3.38-.93c-.65-2.13-3.93-2.05-5.68-2.16-3.61-.22-7.24-.14-10.85-.06-10.83.24-21.66.88-32.47,1.54-9.99.61-19.98,1.3-29.97,1.97-10.76.72-21.51.64-32.29.21-18.91-.74-37.76-2.73-56.41-5.95s-35.44-7.26-52.78-12.36c-16.98-4.98-33.69-10.84-50.16-17.29-16.51-6.46-32.77-13.53-48.89-20.9s-32.81-15.4-49.12-23.3-33.49-16.28-50.32-24.23c-18.1-8.55-36.29-16.92-54.9-24.34-19.26-7.68-38.88-14.48-58.76-20.38-19.47-5.78-39.2-10.7-59.09-14.79s-39.76-7.32-59.82-9.83c-19.93-2.49-39.94-4.24-59.99-5.32s-40.37-1.5-60.57-1.34-40.59.92-60.85,2.16c-20.32,1.25-40.6,2.99-60.84,5.12-20.37,2.15-40.71,4.71-60.99,7.58s-40.9,6.11-61.29,9.55c-8.13,1.37-16.25,2.79-24.37,4.25-.75.13-1.29.97-1.29,1.69v4.84c0,4.39,0,8.77,0,13.16v155.61c0,2.35-.06,4.71,0,7.06,0,.1,0,.2,0,.31,0,1.2,1.12,1.92,2.22,1.69,13.89-2.88,27.85-5.45,41.85-7.74,15.94-2.6,31.93-4.84,47.97-6.72,17.9-2.1,35.85-3.76,53.83-5,19.86-1.37,39.76-2.23,59.67-2.59,21.62-.39,43.26-.19,64.87.58,23.14.83,46.26,2.31,69.32,4.44,24.78,2.28,49.48,5.31,74.08,9.07,26.08,3.98,52.03,8.77,77.82,14.35,27.53,5.95,54.86,12.79,81.95,20.48,28.72,8.15,57.17,17.27,85.3,27.28,7.02,2.5,14.01,5.05,20.99,7.66,2.12.79,3.03-2.6.93-3.38-28.36-10.6-57.06-20.3-86.05-29.02-27.42-8.25-55.11-15.63-83.01-22.1-26.21-6.08-52.61-11.35-79.15-15.79-24.96-4.17-50.05-7.61-75.22-10.29-23.54-2.51-47.15-4.35-70.8-5.51-22.06-1.08-44.14-1.56-66.22-1.44-20.32.12-40.64.75-60.93,1.91-18.51,1.06-37,2.56-55.44,4.52-16.65,1.77-33.26,3.91-49.81,6.43-14.52,2.21-28.99,4.73-43.4,7.56-3.16.62-6.32,1.26-9.47,1.91l2.22,1.69v-173.61c0-2.33.18-4.74,0-7.06,0-.1,0-.2,0-.31l-1.29,1.69c18.57-3.33,37.18-6.46,55.83-9.36,20.22-3.15,40.48-6.03,60.79-8.55,20.19-2.5,40.42-4.64,60.69-6.34s40.47-2.94,60.74-3.65,40.18-.88,60.26-.43,40.01,1.51,59.95,3.28,39.95,4.26,59.77,7.53,39.59,7.35,59.12,12.25,39.34,10.78,58.6,17.46,39.12,14.61,58.13,23.24c17.16,7.79,34.17,15.9,51.14,24.1s32.74,15.92,49.18,23.74,32.24,15.12,48.6,22.14c16.26,6.98,32.72,13.52,49.44,19.33,16.74,5.81,33.75,10.89,51,14.98s35.84,7.39,54.02,9.42c9.49,1.06,19.02,1.8,28.57,2.23,8.8.39,17.68.67,26.49.38,6.77-.22,13.53-.86,20.28-1.31,11.13-.75,22.25-1.47,33.39-2.03,8.95-.45,18-1.05,26.96-.65.62.03,1.24.06,1.86.12.26.02.52.05.78.08.43.04-.25-.04-.04,0,.09.02.18.03.27.04.33.06.65.17.98.23.07.01-.42-.25-.08-.02-.21-.14-.49-.43-.61-.82.66,2.15,3.93,1.26,3.38-.93-4.12-16.43-.18-40.86,18.93-45.85,3.97-1.04,8.15-.75,11.78,1.22,1.04.56,2.82-.11,2.64-1.51-1.21-9.59,3.32-19.49,11.21-25.05s18.28-5.76,26.77-1.31c4.73,2.48,8.66,6.23,11.13,10.99.83,1.59,3.24.79,3.27-.88.13-9.06,5.41-16.83,12.15-22.5,7.73-6.51,17.45-10.35,27.29-12.3,6.28-1.24,12.69-1.62,19.08-1.3l-1.75-1.75v7.19c0,6.52,0,13.05,0,19.57v141.68c0,12.09,0,24.17,0,36.26v52.76c0,3.47-.16,6.99,0,10.46,0,.15,0,.29,0,.44l1.75-1.75c-11.95,1.48-23.94,2.69-35.95,3.62-12.92,1.01-25.86,1.7-38.82,2.1-13.97.43-27.95.53-41.93.3-14.91-.25-29.82-.86-44.71-1.81-15.9-1.02-31.77-2.43-47.6-4.21-16.85-1.89-33.64-4.21-50.38-6.91-17.85-2.88-35.63-6.2-53.32-9.93-18.88-3.98-37.66-8.42-56.33-13.28-19.76-5.15-39.4-10.77-58.9-16.83-20.78-6.46-41.41-13.41-61.87-20.81-5.13-1.86-10.26-3.74-15.37-5.65-2.12-.79-3.03,2.6-.93,3.38Z"/>
        </g>
      </g>
    </g>
  </g>
</svg>