<?xml version="1.0" encoding="UTF-8"?>
<svg id="Layer_2" data-name="Layer 2" xmlns="http://www.w3.org/2000/svg" xmlns:xlink="http://www.w3.org/1999/xlink" viewBox="0 0 1920 599.04">
  <defs>
    <style>
      .cls-1 {
        fill: none;
      }

      .cls-2 {
        fill: #69b6bb;
      }

      .cls-3 {
        fill: #f4a837;
      }

      .cls-4 {
        fill: #262834;
      }

      .cls-5 {
        fill: #e7632b;
      }

      .cls-6 {
        clip-path: url(#clippath);
      }
    </style>
    <clipPath id="clippath">
      <rect class="cls-1" width="1920" height="599.04"/>
    </clipPath>
  </defs>
  <g id="GRAPHICS_1" data-name="GRAPHICS 1">
    <g class="cls-6">
      <g>
        <g>
          <path class="cls-3" d="M1928.61,17.42C984.34,75.5,362.04,197.97-9.19,297.59v81.17C386.78,270.65,1008.61,143.84,1928.61,60.03V17.42Z"/>
          <path class="cls-4" d="M1928.61,16.42c-22.95,1.41-45.89,2.87-68.83,4.38s-44.8,3-67.2,4.57-44.36,3.17-66.54,4.82-43.29,3.28-64.93,5-42.85,3.44-64.27,5.23c-20.9,1.75-41.8,3.54-62.69,5.39s-41.35,3.69-62.03,5.61c-20.16,1.87-40.32,3.78-60.48,5.75s-39.88,3.93-59.81,5.96c-19.43,1.98-38.86,4.01-58.29,6.08-19.21,2.05-38.41,4.14-57.61,6.27s-37.42,4.21-56.12,6.38c-18.49,2.14-36.97,4.33-55.45,6.56s-35.99,4.39-53.98,6.64-35.54,4.5-53.3,6.82c-17.26,2.25-34.51,4.54-51.76,6.87s-34.13,4.65-51.19,7.04c-16.66,2.33-33.31,4.7-49.96,7.12s-32.62,4.77-48.92,7.21c-15.97,2.39-31.93,4.82-47.89,7.3s-31.25,4.88-46.86,7.37c-15.29,2.44-30.57,4.92-45.84,7.44-14.95,2.47-29.89,4.97-44.82,7.51-14.61,2.48-29.22,5-43.81,7.56s-28.55,5.04-42.81,7.61c-13.94,2.51-27.88,5.06-41.81,7.65s-27.22,5.09-40.82,7.68c-13.29,2.53-26.57,5.1-39.84,7.71-12.96,2.54-25.91,5.12-38.86,7.72s-25.27,5.12-37.89,7.73c-12.31,2.55-24.62,5.12-36.92,7.73-11.99,2.55-23.98,5.12-35.96,7.73s-23.35,5.11-35.01,7.71-22.72,5.1-34.06,7.69-22.09,5.08-33.12,7.67c-10.74,2.51-21.47,5.06-32.19,7.63-10.43,2.5-20.85,5.03-31.26,7.59-10.12,2.48-20.23,5-30.34,7.53-9.81,2.47-19.62,4.96-29.42,7.47s-19.01,4.91-28.51,7.41c-8.88,2.33-17.76,4.69-26.63,7.07-.42.11-.73.53-.73.96v81.17c0,.65.64,1.14,1.27.96,9.79-2.67,19.59-5.32,29.39-7.95s20.13-5.36,30.21-8.01c10.34-2.71,20.68-5.4,31.03-8.06s21.23-5.44,31.85-8.12,21.78-5.47,32.68-8.16,22.34-5.49,33.52-8.2,22.91-5.52,34.37-8.23,23.47-5.54,35.22-8.26,24.13-5.57,36.21-8.32,24.62-5.57,36.94-8.31c12.6-2.8,25.2-5.58,37.81-8.32,12.89-2.81,25.79-5.58,38.69-8.33,13.18-2.81,26.38-5.58,39.57-8.33,13.48-2.81,26.97-5.58,40.46-8.33s27.57-5.58,41.36-8.32c14.08-2.8,28.17-5.57,42.26-8.3s28.77-5.55,43.17-8.28c14.69-2.79,29.38-5.54,44.08-8.26,14.99-2.78,30-5.52,45-8.23,15.3-2.76,30.61-5.5,45.93-8.19,15.61-2.75,31.24-5.47,46.86-8.15s31.86-5.44,47.8-8.11c16.24-2.72,32.49-5.4,48.75-8.06,16.56-2.7,33.13-5.37,49.7-8,16.88-2.68,33.77-5.33,50.66-7.94s34.54-5.3,51.81-7.9,35.06-5.23,52.6-7.8c17.85-2.61,35.71-5.18,53.57-7.72s36.37-5.13,54.56-7.63,37.12-5.08,55.69-7.56c18.85-2.52,37.7-5,56.55-7.45,19.18-2.49,38.36-4.94,57.55-7.35,19.52-2.45,39.04-4.87,58.56-7.24,19.85-2.42,39.71-4.79,59.58-7.13s40.39-4.72,60.6-7.02c20.54-2.34,41.08-4.64,61.63-6.89s41.77-4.55,62.66-6.77c21.23-2.25,42.46-4.46,63.7-6.64s43.16-4.37,64.75-6.5,43.86-4.28,65.8-6.35c21.46-2.03,42.92-4.03,64.38-5.98.54-.05,1-.42,1-1V17.42c0-1.29-2-1.29-2,0v42.61l1-1c-22.28,2.03-44.55,4.1-66.82,6.21s-43.85,4.2-65.76,6.36c-21.65,2.14-43.3,4.31-64.95,6.53-21.22,2.17-42.44,4.39-63.66,6.64-20.88,2.22-41.75,4.48-62.62,6.77-20.53,2.26-41.06,4.56-61.59,6.9-20.19,2.3-40.38,4.64-60.56,7.02-19.92,2.35-39.84,4.74-59.75,7.16-19.51,2.38-39.02,4.79-58.52,7.25-19.17,2.41-38.34,4.86-57.51,7.35-18.84,2.45-37.68,4.93-56.51,7.45s-36.92,4.98-55.37,7.53-36.36,5.05-54.53,7.64c-17.85,2.54-35.7,5.11-53.54,7.72-17.53,2.56-35.05,5.16-52.57,7.8-17.2,2.59-34.4,5.21-51.6,7.87s-33.76,5.26-50.63,7.94c-16.62,2.64-33.24,5.32-49.86,8.03s-32.48,5.34-48.72,8.06c-15.93,2.67-31.85,5.37-47.77,8.11-15.62,2.69-31.23,5.4-46.83,8.15-15.36,2.71-30.72,5.45-46.07,8.23s-29.99,5.45-44.97,8.23c-14.69,2.72-29.37,5.47-44.05,8.26-14.38,2.73-28.76,5.49-43.14,8.29-14.08,2.74-28.16,5.5-42.23,8.3-13.78,2.74-27.56,5.51-41.33,8.32-13.48,2.75-26.96,5.52-40.43,8.33-13.19,2.75-26.37,5.52-39.54,8.33s-25.78,5.52-38.66,8.33-25.2,5.52-37.78,8.32c-12.31,2.74-24.62,5.51-36.91,8.31s-24.13,5.52-36.18,8.32c-11.74,2.73-23.47,5.48-35.19,8.26-11.45,2.72-22.9,5.46-34.34,8.23-11.17,2.71-22.34,5.44-33.5,8.2-10.93,2.7-21.86,5.43-32.78,8.19-10.61,2.68-21.22,5.38-31.82,8.11s-20.67,5.35-31,8.06c-10.07,2.64-20.12,5.31-30.18,8.01-9.44,2.53-18.87,5.08-28.3,7.65l1.27.96v-81.17l-.73.96c9.24-2.48,18.49-4.93,27.74-7.36s18.96-4.95,28.44-7.38,19.63-5.01,29.45-7.48,20.24-5.05,30.37-7.54,20.85-5.09,31.29-7.59,21.47-5.12,32.22-7.63,22.1-5.14,33.16-7.67c11.36-2.59,22.72-5.16,34.1-7.69,11.63-2.59,23.27-5.16,34.92-7.69,12.04-2.62,24.08-5.2,36.13-7.76s24.54-5.17,36.82-7.71,25.37-5.21,38.06-7.76c12.91-2.6,25.83-5.16,38.76-7.69s26.57-5.17,39.87-7.71,27.23-5.15,40.86-7.68c13.94-2.58,27.89-5.13,41.85-7.65,14.27-2.57,28.56-5.11,42.84-7.61,14.61-2.56,29.22-5.08,43.85-7.56s29.9-5.04,44.86-7.5,30.57-5,45.87-7.44c15.62-2.5,31.26-4.95,46.89-7.37,15.91-2.46,31.83-4.88,47.75-7.27,16.37-2.45,32.75-4.86,49.13-7.23,16.6-2.4,33.2-4.77,49.81-7.09,17.07-2.39,34.14-4.73,51.22-7.04s34.67-4.64,52.02-6.89,35.43-4.57,53.16-6.79c18.07-2.26,36.14-4.48,54.22-6.66,18.43-2.22,36.86-4.4,55.29-6.53,18.78-2.17,37.58-4.31,56.37-6.39,19.15-2.13,38.3-4.21,57.45-6.25,19.51-2.08,39.02-4.11,58.54-6.09,19.88-2.02,39.76-4,59.64-5.93,20.24-1.97,40.49-3.89,60.74-5.76s41.08-3.75,61.63-5.56,42.12-3.66,63.19-5.42c21.28-1.78,42.57-3.51,63.85-5.19,21.81-1.72,43.63-3.4,65.44-5.02,22.03-1.64,44.07-3.24,66.11-4.78,22.49-1.58,44.98-3.1,67.48-4.58,22.05-1.45,44.09-2.85,66.15-4.21,1.28-.08,1.29-2.08,0-2Z"/>
        </g>
        <g>
          <path class="cls-5" d="M1928.61,60.03C1008.61,143.84,386.78,270.65-9.19,378.76v92.14c389.16-114.51,1008.17-254.94,1937.79-364.41v-46.46Z"/>
          <path class="cls-4" d="M1928.61,59.03c-22.28,2.03-44.55,4.1-66.82,6.21s-43.85,4.2-65.76,6.36-43.3,4.31-64.95,6.53c-21.22,2.17-42.44,4.39-63.66,6.64-20.88,2.22-41.75,4.48-62.62,6.77-20.53,2.26-41.06,4.56-61.59,6.9-20.19,2.3-40.38,4.64-60.56,7.02s-39.84,4.74-59.75,7.16c-19.51,2.38-39.02,4.79-58.52,7.25s-38.34,4.86-57.51,7.35c-18.84,2.45-37.68,4.93-56.51,7.45s-36.92,4.98-55.37,7.53c-18.18,2.51-36.36,5.05-54.53,7.64-17.85,2.54-35.7,5.11-53.54,7.72-17.53,2.56-35.05,5.16-52.57,7.8-17.2,2.59-34.4,5.21-51.6,7.87s-33.76,5.26-50.63,7.94c-16.62,2.64-33.24,5.32-49.86,8.03s-32.48,5.34-48.72,8.06c-15.93,2.67-31.85,5.37-47.77,8.11-15.62,2.69-31.23,5.4-46.83,8.15s-30.72,5.45-46.07,8.23-29.99,5.45-44.97,8.23c-14.69,2.72-29.37,5.47-44.05,8.26-14.38,2.73-28.76,5.49-43.14,8.29-14.08,2.74-28.16,5.5-42.23,8.3-13.78,2.74-27.56,5.51-41.33,8.32-13.48,2.75-26.96,5.52-40.43,8.33s-26.37,5.52-39.54,8.33-25.78,5.52-38.66,8.33c-12.6,2.74-25.2,5.52-37.78,8.32-12.31,2.74-24.62,5.51-36.91,8.31-12.07,2.74-24.13,5.52-36.18,8.32s-23.47,5.48-35.19,8.26c-11.45,2.72-22.9,5.46-34.34,8.23s-22.34,5.44-33.5,8.2c-10.93,2.7-21.86,5.43-32.78,8.19s-21.22,5.38-31.82,8.11c-10.34,2.66-20.67,5.35-31,8.06-10.07,2.64-20.12,5.31-30.18,8.01-9.44,2.53-18.87,5.08-28.3,7.65-.42.12-.73.53-.73.96v88.36c0,1.19-.1,2.43,0,3.62,0,.05,0,.11,0,.16,0,.64.64,1.15,1.27.96,9.65-2.84,19.31-5.66,28.97-8.45s19.79-5.69,29.7-8.51c10.17-2.89,20.35-5.75,30.53-8.59s20.98-5.82,31.49-8.7,21.47-5.85,32.22-8.74,22.04-5.9,33.08-8.81c11.35-2.99,22.7-5.96,34.06-8.9s23.2-5.98,34.81-8.93c11.89-3.02,23.78-6.01,35.69-8.98,12.23-3.05,24.46-6.07,36.7-9.06s24.97-6.08,37.46-9.07,25.57-6.1,38.36-9.11c13.13-3.09,26.26-6.15,39.41-9.18,13.43-3.1,26.88-6.17,40.32-9.2,13.69-3.09,27.39-6.16,41.1-9.19,14-3.1,28.01-6.17,42.02-9.21s28.73-6.2,43.11-9.26c14.63-3.11,29.26-6.19,43.9-9.23s29.89-6.19,44.84-9.24c15.31-3.12,30.64-6.21,45.96-9.27,15.58-3.11,31.17-6.18,46.76-9.23,15.9-3.1,31.81-6.18,47.72-9.22s32.58-6.19,48.88-9.23,33.12-6.15,49.68-9.18c16.88-3.08,33.77-6.14,50.67-9.15s34.56-6.14,51.86-9.15c17.55-3.06,35.11-6.09,52.67-9.09,17.89-3.05,35.78-6.06,53.68-9.04,18.29-3.05,36.59-6.06,54.9-9.03s37.14-6,55.72-8.95,37.83-5.96,56.75-8.89c19.33-2.99,38.66-5.94,58-8.86s39.22-5.88,58.84-8.76,39.92-5.83,59.89-8.69c20.39-2.92,40.78-5.8,61.17-8.65s41.34-5.73,62.02-8.54c21.09-2.86,42.19-5.69,63.29-8.47,21.47-2.83,42.94-5.63,64.41-8.39,21.75-2.79,43.51-5.55,65.27-8.26s44.24-5.48,66.36-8.16c21.74-2.63,43.49-5.23,65.24-7.79.54-.06,1-.41,1-1v-15.73c0-8.32,0-16.63,0-24.95v-5.78c0-1.29-2-1.29-2,0v46.46l1-1c-22.56,2.66-45.12,5.35-67.67,8.09-22.11,2.68-44.22,5.4-66.32,8.17-21.83,2.73-43.65,5.49-65.46,8.3-21.38,2.75-42.76,5.54-64.14,8.36-21.04,2.78-42.07,5.6-63.1,8.46-20.67,2.81-41.33,5.65-61.99,8.54s-40.62,5.71-60.93,8.62c-20.03,2.87-40.06,5.78-60.08,8.73-19.68,2.9-39.36,5.83-59.02,8.8-19.26,2.91-38.52,5.85-57.77,8.83-18.91,2.93-37.82,5.89-56.73,8.89-18.64,2.96-37.27,5.95-55.9,8.98s-36.45,5.96-54.67,9-35.91,6.02-53.85,9.08c-17.55,2.99-35.1,6.02-52.64,9.09-17.28,3.02-34.56,6.07-51.83,9.16-16.89,3.02-33.77,6.07-50.64,9.15-16.56,3.03-33.11,6.09-49.65,9.18-16.29,3.05-32.57,6.12-48.85,9.23s-31.92,6.13-47.87,9.25c-15.58,3.04-31.16,6.12-46.73,9.23-15.26,3.05-30.52,6.13-45.77,9.24s-29.99,6.15-44.98,9.27-29.25,6.12-43.86,9.23c-14.37,3.06-28.73,6.14-43.08,9.26-14,3.04-28,6.11-41.99,9.21-13.74,3.05-27.48,6.12-41.21,9.23-13.39,3.03-26.77,6.08-40.15,9.17-13.09,3.02-26.16,6.07-39.24,9.14-12.83,3.02-25.65,6.07-38.47,9.14s-25.05,6.04-37.57,9.1c-12.19,2.98-24.37,5.99-36.54,9.03-11.89,2.97-23.78,5.96-35.66,8.98-11.64,2.96-23.28,5.95-34.91,8.96-11.31,2.93-22.61,5.89-33.91,8.87s-22.12,5.87-33.17,8.84c-10.74,2.89-21.47,5.8-32.19,8.74s-20.98,5.77-31.46,8.7c-10.17,2.84-20.34,5.7-30.5,8.59s-19.79,5.65-29.67,8.5c-9.31,2.69-18.61,5.41-27.91,8.14l1.27.96v-88.36c0-1.1.25-2.54,0-3.62-.01-.05,0-.11,0-.16l-.73.96c9.79-2.67,19.59-5.32,29.39-7.95s20.13-5.36,30.21-8.01c10.34-2.71,20.68-5.4,31.03-8.06s21.23-5.44,31.85-8.12,21.78-5.47,32.68-8.16c11.17-2.76,22.34-5.49,33.52-8.2,11.45-2.77,22.91-5.52,34.37-8.23,11.73-2.78,23.47-5.54,35.22-8.26,12.06-2.8,24.13-5.57,36.21-8.32s24.62-5.57,36.94-8.31,25.2-5.58,37.81-8.32,25.79-5.58,38.69-8.33c13.18-2.81,26.38-5.58,39.57-8.33s26.97-5.58,40.46-8.33c13.78-2.8,27.57-5.58,41.36-8.32,14.08-2.8,28.17-5.57,42.26-8.3s28.77-5.55,43.17-8.28,29.38-5.54,44.08-8.26c14.99-2.78,30-5.52,45-8.23,15.3-2.76,30.61-5.5,45.93-8.19,15.61-2.75,31.24-5.47,46.86-8.15,15.93-2.74,31.86-5.44,47.8-8.11,16.24-2.72,32.49-5.4,48.75-8.06,16.56-2.7,33.13-5.37,49.7-8s33.77-5.33,50.66-7.94,34.54-5.3,51.81-7.9,35.06-5.23,52.6-7.8c17.85-2.61,35.71-5.18,53.57-7.72s36.37-5.13,54.56-7.63c18.56-2.56,37.12-5.08,55.69-7.56s37.7-5,56.55-7.45c19.18-2.49,38.36-4.94,57.55-7.35,19.52-2.45,39.04-4.87,58.56-7.24s39.71-4.79,59.58-7.13,40.39-4.72,60.6-7.02c20.54-2.34,41.08-4.64,61.63-6.89s41.77-4.55,62.66-6.77c21.23-2.25,42.46-4.46,63.7-6.64s43.16-4.37,64.75-6.5c21.93-2.16,43.86-4.28,65.8-6.35,21.46-2.03,42.92-4.03,64.38-5.98,1.27-.12,1.28-2.12,0-2Z"/>
        </g>
        <g>
          <path class="cls-2" d="M1928.61,106.49C998.99,215.96,379.97,356.39-9.19,470.9v112.89C696.38,369.74,1420.63,236.95,1928.61,160.87v-54.38Z"/>
          <path class="cls-4" d="M1928.61,105.49c-22.56,2.66-45.12,5.35-67.67,8.09-22.11,2.68-44.22,5.4-66.32,8.17s-43.65,5.49-65.46,8.3c-21.38,2.75-42.76,5.54-64.14,8.36s-42.07,5.6-63.1,8.46c-20.67,2.81-41.33,5.65-61.99,8.54s-40.62,5.71-60.93,8.62c-20.03,2.87-40.06,5.78-60.08,8.73-19.68,2.9-39.36,5.83-59.02,8.8-19.26,2.91-38.52,5.85-57.77,8.83s-37.82,5.89-56.73,8.89c-18.64,2.96-37.27,5.95-55.9,8.98s-36.45,5.96-54.67,9c-17.96,2.99-35.91,6.02-53.85,9.08-17.55,2.99-35.1,6.02-52.64,9.09s-34.56,6.07-51.83,9.16c-16.89,3.02-33.77,6.07-50.64,9.15s-33.11,6.09-49.65,9.18c-16.29,3.05-32.57,6.12-48.85,9.23-15.96,3.05-31.92,6.13-47.87,9.25-15.58,3.04-31.16,6.12-46.73,9.23-15.26,3.05-30.52,6.13-45.77,9.24s-29.99,6.15-44.98,9.27-29.25,6.12-43.86,9.23-28.73,6.14-43.08,9.26c-14,3.04-28,6.11-41.99,9.21-13.74,3.05-27.48,6.12-41.21,9.23-13.39,3.03-26.77,6.08-40.15,9.17s-26.16,6.07-39.24,9.14c-12.83,3.02-25.65,6.07-38.47,9.14s-25.05,6.04-37.57,9.1-24.37,5.99-36.54,9.03-23.78,5.96-35.66,8.98c-11.64,2.96-23.28,5.95-34.91,8.96-11.31,2.93-22.61,5.89-33.91,8.87s-22.12,5.87-33.17,8.84c-10.74,2.89-21.47,5.8-32.19,8.74s-20.98,5.77-31.46,8.7-20.34,5.7-30.5,8.59-19.79,5.65-29.67,8.5c-9.31,2.69-18.61,5.41-27.91,8.14-.42.12-.73.52-.73.96v38.26c0,10.84,0,21.69,0,32.53s0,18.82,0,28.23v9.27c0,1.46-.11,2.96,0,4.41,0,.07,0,.13,0,.2,0,.64.64,1.15,1.27.96,17.2-5.22,34.41-10.39,51.64-15.51,17.29-5.14,34.6-10.24,51.92-15.29,17.22-5.02,34.46-10,51.71-14.94,17.23-4.93,34.47-9.81,51.72-14.65,17.22-4.83,34.46-9.62,51.7-14.37,17.29-4.76,34.59-9.48,51.9-14.16,17.19-4.65,34.4-9.25,51.61-13.82,17.17-4.55,34.35-9.07,51.53-13.54s34.44-8.92,51.67-13.33,34.2-8.7,51.32-13,34.11-8.52,51.18-12.73c17-4.19,34.01-8.34,51.02-12.46s33.89-8.17,50.84-12.2,33.91-8.03,50.87-11.99c16.8-3.92,33.61-7.82,50.42-11.67s33.45-7.64,50.18-11.42c16.71-3.77,33.42-7.5,50.15-11.21,16.54-3.67,33.09-7.3,49.64-10.91s32.89-7.13,49.34-10.65,32.67-6.97,49.02-10.41c16.29-3.43,32.59-6.83,48.89-10.2,16.1-3.33,32.2-6.63,48.31-9.91,15.97-3.25,31.94-6.47,47.93-9.67s31.68-6.31,47.52-9.43c15.76-3.1,31.53-6.18,47.31-9.23,15.55-3.01,31.1-5.99,46.65-8.95s30.79-5.84,46.18-8.72c15.23-2.85,30.46-5.68,45.7-8.49,15.13-2.79,30.26-5.55,45.4-8.29,14.88-2.7,29.77-5.37,44.66-8.03s29.41-5.22,44.12-7.8c14.51-2.55,29.03-5.07,43.55-7.58,14.38-2.48,28.77-4.95,43.15-7.39s28.23-4.78,42.35-7.14c13.9-2.32,27.81-4.63,41.72-6.92,13.75-2.26,27.5-4.51,41.26-6.73,13.46-2.18,26.93-4.34,40.4-6.49,13.23-2.11,26.47-4.2,39.71-6.28,13-2.04,26-4.06,39-6.07,12.81-1.98,25.62-3.94,38.44-5.89,12.05-1.83,24.11-3.65,36.17-5.46.43-.06.73-.56.73-.96v-18.36c0-9.76,0-19.52,0-29.28v-6.75c0-1.29-2-1.29-2,0v54.38l.73-.96c-12.52,1.87-25.03,3.76-37.54,5.67s-25.65,3.92-38.46,5.9c-13.01,2.01-26.02,4.04-39.02,6.08s-26.49,4.18-39.73,6.29c-13.48,2.15-26.95,4.32-40.42,6.5-13.76,2.23-27.52,4.48-41.28,6.74-13.92,2.29-27.83,4.6-41.74,6.93-14.13,2.36-28.25,4.74-42.37,7.14s-28.79,4.91-43.18,7.4-29.05,5.04-43.57,7.59c-14.72,2.58-29.43,5.19-44.14,7.81-14.9,2.66-29.79,5.34-44.68,8.04s-30.14,5.49-45.21,8.26c-15.31,2.82-30.62,5.67-45.92,8.53s-30.81,5.79-46.2,8.73-31.12,5.95-46.67,8.96c-15.78,3.06-31.55,6.14-47.32,9.24s-31.7,6.27-47.54,9.44c-15.99,3.2-31.96,6.43-47.94,9.68s-32.22,6.59-48.32,9.92-32.61,6.78-48.91,10.21c-16.35,3.44-32.69,6.91-49.03,10.41-16.46,3.53-32.91,7.08-49.35,10.66-16.56,3.61-33.11,7.25-49.65,10.92s-33.45,7.45-50.16,11.22-33.47,7.59-50.19,11.43c-16.82,3.86-33.63,7.76-50.43,11.68-16.89,3.95-33.77,7.93-50.65,11.94-17.03,4.05-34.06,8.14-51.08,12.26-17.02,4.12-34.03,8.28-51.03,12.47-17.07,4.21-34.13,8.46-51.19,12.74-17.12,4.3-34.22,8.63-51.32,13.01-17.23,4.41-34.46,8.85-51.67,13.34s-34.37,8.99-51.54,13.55c-17.21,4.57-34.42,9.18-51.61,13.83s-34.61,9.4-51.9,14.17c-17.25,4.75-34.48,9.55-51.7,14.38-17.25,4.85-34.49,9.73-51.72,14.66-17.25,4.94-34.49,9.92-51.71,14.95s-34.63,10.16-51.92,15.3-33.19,9.93-49.77,14.96l1.27.96v-38.26c0-10.84,0-21.69,0-32.53s0-18.82,0-28.23v-9.27c0-1.38.26-3.05,0-4.41-.01-.06,0-.13,0-.2l-.73.96c9.65-2.84,19.31-5.66,28.97-8.45,9.89-2.86,19.79-5.69,29.7-8.51s20.35-5.75,30.53-8.59,20.98-5.82,31.49-8.7c10.73-2.94,21.47-5.85,32.22-8.74,11.02-2.96,22.04-5.9,33.08-8.81s22.7-5.96,34.06-8.9,23.2-5.98,34.81-8.93,23.78-6.01,35.69-8.98c12.23-3.05,24.46-6.07,36.7-9.06s24.97-6.08,37.46-9.07,25.57-6.1,38.36-9.11c13.13-3.09,26.26-6.15,39.41-9.18s26.88-6.17,40.32-9.2c13.69-3.09,27.39-6.16,41.1-9.19,14-3.1,28.01-6.17,42.02-9.21,14.36-3.12,28.73-6.2,43.11-9.26s29.26-6.19,43.9-9.23c14.94-3.11,29.89-6.19,44.84-9.24s30.64-6.21,45.96-9.27,31.17-6.18,46.76-9.23c15.9-3.1,31.81-6.18,47.72-9.22,16.29-3.11,32.58-6.19,48.88-9.23,16.55-3.09,33.12-6.15,49.68-9.18,16.88-3.08,33.77-6.14,50.67-9.15,17.28-3.09,34.56-6.14,51.86-9.15s35.11-6.09,52.67-9.09,35.78-6.06,53.68-9.04c18.29-3.05,36.59-6.06,54.9-9.03,18.57-3.02,37.14-6,55.72-8.95s37.83-5.96,56.75-8.89c19.33-2.99,38.66-5.94,58-8.86s39.22-5.88,58.84-8.76c19.96-2.93,39.92-5.83,59.89-8.69,20.39-2.92,40.78-5.8,61.17-8.65,20.67-2.88,41.34-5.73,62.02-8.54,21.09-2.86,42.19-5.69,63.29-8.47,21.47-2.83,42.94-5.63,64.41-8.39,21.75-2.79,43.51-5.55,65.27-8.26,22.12-2.76,44.24-5.48,66.36-8.16,21.74-2.63,43.49-5.23,65.24-7.79,1.26-.15,1.28-2.15,0-2Z"/>
        </g>
      </g>
    </g>
  </g>
</svg>