<?xml version="1.0" encoding="UTF-8"?>
<svg id="Layer_2" data-name="Layer 2" xmlns="http://www.w3.org/2000/svg" xmlns:xlink="http://www.w3.org/1999/xlink" viewBox="0 0 1191.72 598.98">
  <defs>
    <style>
      .cls-1 {
        fill: none;
      }

      .cls-2 {
        fill: #f44d19;
      }

      .cls-3 {
        fill: #f4a837;
      }

      .cls-4 {
        fill: #262834;
      }

      .cls-5 {
        fill: #41afb4;
      }

      .cls-6 {
        clip-path: url(#clippath);
      }
    </style>
    <clipPath id="clippath">
      <rect class="cls-1" x="6.4" y="14.98" width="1179" height="584"/>
    </clipPath>
  </defs>
  <g id="Graphics_1" data-name="Graphics 1">
    <g class="cls-6">
      <g>
        <path class="cls-1" d="M1.9,594.41v2.57h1188V203.8C980.21,215.19,472.95,276.58,1.9,594.41Z"/>
        <path class="cls-1" d="M1189.9,73.35V0H1.9v254.51C103.79,171.3,466.47-63.37,1189.9,73.35Z"/>
        <g>
          <path class="cls-3" d="M1189.9,109.67v-36.32C466.47-63.37,103.79,171.3,1.9,254.51v92.54C162.13,230.95,527.58,47.88,1189.9,109.67Z"/>
          <path class="cls-4" d="M1191.72,109.67c0-10.6,0-21.21,0-31.81v-4.51c0-.75-.56-1.61-1.34-1.76-19.5-3.68-39.05-7.16-58.63-10.41-19.05-3.16-38.13-6.11-57.24-8.83s-36.95-5.06-55.46-7.27c-17.99-2.15-36.01-4.08-54.05-5.81s-34.82-3.12-52.26-4.37c-16.89-1.21-33.79-2.22-50.7-3.02-16.37-.78-32.76-1.36-49.15-1.73-15.93-.37-31.86-.54-47.8-.51s-30.72.24-46.08.65-29.72.97-44.57,1.74c-14.42.74-28.84,1.67-43.24,2.78s-27.73,2.31-41.57,3.73-26.75,2.92-40.1,4.63-25.9,3.49-38.81,5.48-24.92,4.01-37.34,6.25-23.86,4.47-35.75,6.93c-11.52,2.39-23,4.92-34.46,7.6-11,2.58-21.97,5.29-32.9,8.15s-21.04,5.64-31.5,8.66-20.11,5.94-30.11,9.11-19.27,6.23-28.85,9.53c-9.16,3.16-18.28,6.42-27.36,9.81s-17.45,6.63-26.11,10.1-16.65,6.8-24.91,10.35c-7.82,3.36-15.61,6.82-23.35,10.37s-14.73,6.87-22.03,10.43-13.92,6.9-20.81,10.47c-6.52,3.38-13,6.83-19.43,10.36-6.09,3.34-12.14,6.75-18.16,10.22-5.69,3.29-11.34,6.65-16.96,10.07-5.25,3.2-10.46,6.45-15.63,9.76-4.83,3.09-9.63,6.24-14.39,9.44-4.42,2.97-8.81,5.98-13.16,9.04-4.03,2.83-8.02,5.7-11.99,8.62-3.61,2.65-7.18,5.34-10.74,8.06-3.32,2.55-6.61,5.12-9.88,7.73-1.39,1.11-3.09,2.17-4.3,3.47-.9.97-.53,3.09-.53,4.29v20.92c0,10.1,0,20.2,0,30.31s0,18.11,0,27.16v11.16c0,1.28,1.59,2.41,2.75,1.58,4-2.9,8.03-5.77,12.08-8.6,4.25-2.97,8.53-5.91,12.82-8.82,4.52-3.05,9.07-6.07,13.64-9.05s9.53-6.15,14.33-9.16c5-3.14,10.04-6.24,15.09-9.29s10.55-6.31,15.87-9.39,11.07-6.36,16.65-9.47,11.65-6.43,17.52-9.56,12.13-6.41,18.23-9.54,12.66-6.41,19.04-9.53,13.2-6.39,19.85-9.5,13.75-6.36,20.67-9.44,14.37-6.33,21.6-9.4,14.72-6.17,22.12-9.15c7.7-3.1,15.43-6.14,23.18-9.1s16-6.03,24.04-8.93,16.57-5.9,24.89-8.73,17.24-5.78,25.89-8.55,17.74-5.59,26.64-8.26,18.33-5.41,27.52-7.98c9.45-2.65,18.92-5.21,28.42-7.68s19.52-4.99,29.31-7.35,20.23-4.78,30.37-7.02,20.74-4.5,31.14-6.6,21.36-4.22,32.06-6.19,21.98-3.93,33-5.75,22.61-3.62,33.93-5.28,23.27-3.3,34.92-4.79,23.89-2.95,35.85-4.26,24.53-2.58,36.81-3.71,25.18-2.2,37.78-3.14,25.83-1.8,38.76-2.54,26.49-1.38,39.75-1.91c13.65-.54,27.3-.95,40.95-1.25,13.92-.31,27.83-.49,41.75-.56s28.51-.02,42.76.15c14.6.17,29.19.47,43.78.89s29.88.98,44.81,1.65,30.72,1.51,46.07,2.46,31.27,2.05,46.89,3.27c15.43,1.2,30.85,2.52,46.25,3.96,2.34.22,2.32-3.43,0-3.65-15.96-1.49-31.93-2.85-47.9-4.09s-31.38-2.3-47.08-3.25-30.53-1.74-45.81-2.42-29.99-1.21-44.99-1.63-29.16-.69-43.74-.86-28.48-.2-42.72-.12c-13.97.08-27.95.28-41.92.59s-27.14.73-40.7,1.28-26.61,1.18-39.91,1.94-25.82,1.59-38.72,2.56-25.17,2-37.74,3.16c-12.33,1.14-24.65,2.4-36.95,3.76-11.95,1.32-23.88,2.75-35.8,4.29s-23.34,3.11-34.99,4.82-22.73,3.45-34.08,5.32-22,3.74-32.97,5.76c-10.75,1.98-21.48,4.06-32.19,6.24s-20.76,4.32-31.11,6.62-20.15,4.58-30.19,7-19.64,4.84-29.43,7.4-18.95,5.04-28.38,7.69-18.44,5.27-27.63,8.03-17.76,5.43-26.61,8.27-17.18,5.6-25.73,8.52-16.68,5.78-24.99,8.79-16.03,5.88-24,8.94-15.54,6.03-23.26,9.15-15.04,6.16-22.52,9.34-14.35,6.17-21.48,9.36-13.86,6.26-20.75,9.49-13.25,6.28-19.83,9.5c-6.4,3.14-12.77,6.33-19.11,9.58s-12.17,6.31-18.21,9.54-11.64,6.29-17.41,9.52-11.17,6.29-16.71,9.51-10.59,6.21-15.84,9.39-10.07,6.15-15.07,9.29-9.61,6.09-14.38,9.2-9.06,5.96-13.55,9-8.6,5.87-12.86,8.85c-3.91,2.74-7.79,5.5-11.65,8.3l2.75,1.58v-31.29c0-8.91,0-17.82,0-26.73v-30.71c0-1.18.16-2.48,0-3.65,0-.05,0-.11,0-.16l-.53,1.29c2.63-2.14,5.27-4.26,7.94-6.36,1.43-1.12,2.86-2.24,4.3-3.35-.44.34.08-.06.23-.18.2-.15.4-.31.6-.46.38-.29.76-.58,1.14-.87.76-.58,1.52-1.16,2.28-1.74,3.26-2.47,6.53-4.9,9.83-7.31,3.57-2.61,7.17-5.18,10.79-7.72,3.88-2.72,7.78-5.4,11.71-8.04,4.22-2.84,8.46-5.63,12.74-8.39,4.52-2.92,9.08-5.79,13.66-8.62,4.87-3.01,9.78-5.97,14.71-8.88,5.21-3.07,10.45-6.09,15.72-9.05s11.07-6.15,16.65-9.14c5.88-3.15,11.8-6.24,17.75-9.27s12.49-6.27,18.78-9.31,13.12-6.24,19.72-9.26,13.87-6.24,20.86-9.25,14.33-6.08,21.68-9.05,15.22-6.06,22.88-8.97,16.01-5.97,24.06-8.82c8.31-2.94,16.65-5.79,25.03-8.55s17.45-5.64,26.23-8.31,18.19-5.42,27.33-7.98,18.84-5.16,28.31-7.58c9.82-2.51,19.67-4.91,29.55-7.19s20.42-4.6,30.67-6.73,21.09-4.25,31.66-6.19c10.96-2.02,21.94-3.9,32.95-5.67s22.61-3.49,33.94-5.05,23.38-3.06,35.09-4.4,24.28-2.62,36.44-3.73,24.95-2.13,37.44-2.98,25.86-1.62,38.8-2.21,26.66-1.07,39.99-1.38,27.34-.49,41.01-.51,28.27.12,42.41.41c14.55.3,29.09.76,43.63,1.37s29.78,1.42,44.65,2.37,30.74,2.13,46.09,3.44c15.72,1.34,31.43,2.85,47.13,4.52s32.42,3.62,48.59,5.68c16.63,2.12,33.24,4.42,49.83,6.88s33.97,5.22,50.91,8.09c16.87,2.85,33.71,5.87,50.52,9.05l-1.34-1.76v36.32c0,2.35,3.65,2.35,3.65,0Z"/>
        </g>
        <g>
          <path class="cls-2" d="M1189.9,152.42v-42.75C527.58,47.88,162.13,230.95,1.9,347.05v117.38c157.26-121.06,518.85-320.44,1188-312Z"/>
          <path class="cls-4" d="M1191.72,152.42v-14.38c0-7.69,0-15.39,0-23.08v-5.29c0-1.05-.84-1.73-1.82-1.82-18.7-1.74-37.41-3.32-56.14-4.71s-36.45-2.54-54.69-3.55c-17.74-.98-35.5-1.8-53.26-2.44-17.27-.62-34.56-1.08-51.84-1.36-16.81-.28-33.62-.39-50.43-.34s-32.69.27-49.04.65c-15.89.37-31.78.9-47.66,1.59s-30.87,1.5-46.29,2.48c-14.99.96-29.97,2.07-44.93,3.34s-29.07,2.61-43.59,4.15-28.19,3.13-42.26,4.91-27.41,3.62-41.08,5.65-26.45,4.06-39.65,6.3-25.6,4.49-38.36,6.94c-12.39,2.38-24.75,4.88-37.08,7.53s-23.9,5.25-35.81,8.07-23.07,5.59-34.56,8.57-22.25,5.9-33.32,9.03c-10.73,3.03-21.43,6.18-32.09,9.45-10.33,3.16-20.62,6.43-30.88,9.82s-19.82,6.66-29.68,10.14c-9.53,3.37-19.03,6.85-28.49,10.43s-18.25,7.01-27.31,10.66-17.62,7.21-26.37,10.95-16.71,7.25-25.01,11.01-15.96,7.33-23.87,11.12c-7.62,3.65-15.21,7.37-22.75,11.18s-14.46,7.39-21.64,11.2c-6.88,3.66-13.73,7.38-20.54,11.18s-13.01,7.34-19.45,11.11-12.29,7.27-18.38,11-11.58,7.17-17.32,10.84c-5.46,3.49-10.89,7.04-16.28,10.64s-10.2,6.88-15.24,10.4c-2.42,1.69-4.83,3.38-7.24,5.09-1.18.84-2.35,1.68-3.52,2.52-1.24.89-3.63,2.06-3.78,3.65-.07.79,0,1.62,0,2.41v6.5c0,7.32,0,14.65,0,21.97,0,9.48,0,18.96,0,28.44,0,9.43,0,18.86,0,28.3,0,7.18,0,14.37,0,21.55v8.21c0,1.25,1.61,2.45,2.75,1.58,3.93-3.02,7.88-6.01,11.85-8.98,4.19-3.12,8.41-6.22,12.65-9.28s8.86-6.34,13.33-9.46c4.69-3.27,9.41-6.51,14.16-9.71s9.88-6.6,14.85-9.84,10.44-6.74,15.7-10.05,10.91-6.8,16.41-10.13,11.49-6.9,17.28-10.28,11.97-6.92,18-10.31,12.57-7,18.9-10.42,13.06-6.99,19.63-10.4,13.67-7.03,20.55-10.46,14.16-6.98,21.29-10.39,14.8-6.99,22.24-10.39c7.63-3.49,15.3-6.91,22.99-10.27s15.82-6.83,23.77-10.14,16.46-6.77,24.73-10.06,17.05-6.68,25.61-9.91,17.73-6.6,26.63-9.79,18.24-6.44,27.4-9.55,18.94-6.33,28.45-9.38,19.46-6.14,29.22-9.09,20.17-5.99,30.3-8.86,20.7-5.77,31.09-8.53,21.43-5.59,32.19-8.25c10.97-2.71,21.97-5.33,32.98-7.86s22.72-5.12,34.11-7.53c11.62-2.46,23.26-4.83,34.92-7.1s24.03-4.58,36.07-6.72,24.57-4.26,36.88-6.24,25.24-3.95,37.88-5.78,25.97-3.64,38.98-5.29,26.6-3.28,39.91-4.76c13.7-1.52,27.41-2.94,41.14-4.24s27.97-2.54,41.97-3.65c14.4-1.14,28.81-2.16,43.22-3.07s29.37-1.74,44.06-2.44,30.23-1.32,45.35-1.81,30.79-.87,46.19-1.13c15.83-.27,31.67-.41,47.5-.44s31.12.06,46.68.25c2.35.03,2.35-3.62,0-3.65-16.18-.2-32.37-.29-48.56-.25s-31.49.19-47.23.47c-15.46.27-30.92.66-46.38,1.16s-30.21,1.11-45.3,1.83-29.36,1.53-44.02,2.47-28.8,1.95-43.18,3.1-28.1,2.35-42.13,3.69-27.27,2.72-40.89,4.24-26.72,3.1-40.06,4.81c-13.06,1.68-26.12,3.45-39.15,5.34s-25.25,3.76-37.85,5.79-24.71,4.09-37.04,6.29-24.05,4.39-36.04,6.73-23.28,4.65-34.89,7.12-22.74,4.93-34.08,7.54-22.1,5.18-33.11,7.91-21.36,5.39-32,8.22-20.83,5.63-31.21,8.58-20.2,5.83-30.27,8.87-19.49,5.98-29.19,9.1-18.97,6.18-28.42,9.39c-9.19,3.12-18.36,6.33-27.5,9.6s-17.67,6.43-26.47,9.75-17.16,6.57-25.7,9.97-16.57,6.67-24.82,10.11-16.05,6.78-24.03,10.26c-7.72,3.38-15.42,6.82-23.08,10.32s-14.84,6.87-22.22,10.39-14.21,6.86-21.27,10.39-13.72,6.91-20.53,10.46-13.16,6.91-19.7,10.45-12.55,6.86-18.79,10.37-12.07,6.86-18.07,10.36-11.54,6.81-17.26,10.28c-5.49,3.33-10.95,6.71-16.38,10.13s-10.48,6.65-15.68,10.04-9.96,6.55-14.9,9.89-9.4,6.4-14.06,9.66-8.94,6.3-13.37,9.5-8.44,6.15-12.62,9.27c-3.83,2.86-7.64,5.75-11.43,8.66l2.75,1.58v-112.56c0-1.51.16-3.11,0-4.61,0-.07,0-.14,0-.2l-.9,1.58c4-2.9,8.03-5.77,12.08-8.6,4.25-2.97,8.53-5.91,12.82-8.82,4.52-3.05,9.07-6.07,13.64-9.05s9.53-6.15,14.33-9.16,10.04-6.24,15.09-9.29,10.55-6.31,15.87-9.39,11.07-6.36,16.65-9.47,11.65-6.43,17.52-9.56,12.13-6.41,18.23-9.54,12.66-6.41,19.04-9.53,13.2-6.39,19.85-9.5,13.75-6.36,20.67-9.44,14.37-6.33,21.6-9.4c7.35-3.12,14.72-6.17,22.12-9.15s15.43-6.14,23.18-9.1,16-6.03,24.04-8.93,16.57-5.9,24.89-8.73,17.24-5.78,25.89-8.55,17.74-5.59,26.64-8.26,18.33-5.41,27.52-7.98c9.45-2.65,18.92-5.21,28.42-7.68s19.52-4.99,29.31-7.35,20.23-4.78,30.37-7.02,20.74-4.5,31.14-6.6,21.36-4.22,32.06-6.19,21.98-3.93,33-5.75,22.61-3.62,33.93-5.28,23.27-3.3,34.92-4.79,23.89-2.95,35.85-4.26,24.53-2.58,36.81-3.71,25.18-2.2,37.78-3.14,25.83-1.8,38.76-2.54,26.49-1.38,39.75-1.91,27.3-.95,40.95-1.25c13.92-.31,27.83-.49,41.75-.56s28.51-.02,42.76.15c14.6.17,29.19.47,43.78.89s29.88.98,44.81,1.65,30.72,1.51,46.07,2.46c15.64.96,31.27,2.05,46.89,3.27,15.43,1.2,30.85,2.52,46.25,3.96l-1.82-1.82v42.75c0,2.35,3.65,2.35,3.65,0Z"/>
        </g>
        <g>
          <path class="cls-5" d="M1189.9,152.42C520.75,143.99,159.16,343.37,1.9,464.43v129.98C472.95,276.58,980.21,215.19,1189.9,203.8v-51.38Z"/>
          <path class="cls-4" d="M1189.9,150.6c-19.14-.24-38.29-.32-57.44-.22s-37.27.36-55.9.79-36.26,1-54.38,1.75-35.26,1.62-52.87,2.68c-17.14,1.03-34.27,2.21-51.38,3.56-16.65,1.31-33.29,2.77-49.91,4.4-16.16,1.58-32.31,3.31-48.44,5.2s-31.42,3.83-47.1,5.96-30.41,4.29-45.58,6.66-29.47,4.74-44.16,7.33-28.42,5.15-42.59,7.93c-13.88,2.72-27.73,5.58-41.55,8.58s-26.59,5.91-39.85,9.06-25.8,6.27-38.66,9.6-24.91,6.58-37.32,10.06-24.03,6.87-35.99,10.48-23.16,7.12-34.68,10.86c-11.17,3.62-22.3,7.35-33.39,11.2s-21.44,7.55-32.11,11.49-20.6,7.73-30.84,11.75-19.77,7.87-29.59,11.96-19.08,8.05-28.56,12.21-18.14,8.08-27.15,12.26c-8.69,4.03-17.34,8.14-25.94,12.34s-16.54,8.18-24.75,12.39-15.76,8.18-23.58,12.39-14.99,8.16-22.42,12.35-14.17,8.08-21.19,12.22-13.53,8.07-20.23,12.2c-6.36,3.92-12.68,7.9-18.96,11.93s-12,7.79-17.94,11.78-11.27,7.63-16.85,11.53c-5.3,3.7-10.56,7.44-15.78,11.24-4.94,3.59-9.85,7.23-14.73,10.91-2.34,1.77-4.68,3.55-7,5.34-1.25.96-1.02,2.16-1.02,3.54,0,5.05,0,10.11,0,15.16v83.91c0,7.04,0,14.09,0,21.13v7.9c0,1.32,1.58,2.36,2.75,1.58,22.86-15.42,46.02-30.39,69.46-44.9,22.86-14.14,45.98-27.85,69.35-41.12,22.9-13.01,46.04-25.59,69.4-37.76,22.87-11.91,45.95-23.42,69.22-34.54,22.89-10.93,45.96-21.47,69.2-31.63,22.55-9.86,45.26-19.35,68.11-28.48s44.73-17.47,67.28-25.7,44-15.69,66.17-23.05c21.63-7.19,43.37-14.07,65.2-20.66,21-6.34,42.09-12.39,63.25-18.18,20.41-5.58,40.9-10.9,61.44-15.96s39.55-9.49,59.41-13.89c19.11-4.23,38.26-8.23,57.46-12.02,18.17-3.58,36.38-6.97,54.62-10.16,17.27-3.02,34.56-5.86,51.89-8.52,16.21-2.49,32.45-4.82,48.71-6.99,15.3-2.04,30.62-3.93,45.96-5.68,14.07-1.6,28.16-3.08,42.26-4.43,12.86-1.23,25.72-2.36,38.6-3.37,11.56-.91,23.13-1.72,34.7-2.44,5.13-.32,10.25-.62,15.38-.9.98-.05,1.82-.79,1.82-1.82v-51.38c0-2.35-3.65-2.35-3.65,0v51.38l1.82-1.82c-10.98.6-21.96,1.28-32.93,2.06-12.26.86-24.51,1.83-36.76,2.9-13.6,1.19-27.19,2.5-40.77,3.93-14.71,1.55-29.41,3.23-44.09,5.05-15.98,1.98-31.94,4.12-47.88,6.41-16.85,2.42-33.68,5.01-50.48,7.77-17.86,2.93-35.69,6.06-53.48,9.37-18.74,3.49-37.45,7.19-56.11,11.1-19.49,4.08-38.94,8.39-58.33,12.93s-40.62,9.77-60.83,15.03-41.68,11.13-62.41,17.09-43.07,12.71-64.47,19.5-43.81,14.25-65.56,21.83-44.9,16.04-67.16,24.56c-22.73,8.7-45.32,17.75-67.77,27.15-23.08,9.67-46.01,19.7-68.77,30.11s-46.36,21.68-69.25,33.11c-23.33,11.65-46.45,23.71-69.35,36.18-23.51,12.8-46.79,26.04-69.8,39.71s-46.44,28.18-69.23,42.93c-11.24,7.27-22.4,14.65-33.5,22.14l2.75,1.58v-124.67c0-1.66.18-3.43,0-5.09,0-.07,0-.15,0-.23l-.9,1.58c3.93-3.02,7.88-6.01,11.85-8.98,4.19-3.12,8.41-6.22,12.65-9.28,4.42-3.19,8.86-6.34,13.33-9.46,4.69-3.27,9.41-6.51,14.16-9.71s9.88-6.6,14.85-9.84,10.44-6.74,15.7-10.05,10.91-6.8,16.41-10.13,11.49-6.9,17.28-10.28,11.97-6.92,18-10.31,12.57-7,18.9-10.42,13.06-6.99,19.63-10.4,13.67-7.03,20.55-10.46,14.16-6.98,21.29-10.39,14.8-6.99,22.24-10.39,15.3-6.91,22.99-10.27,15.82-6.83,23.77-10.14,16.46-6.77,24.73-10.06,17.05-6.68,25.61-9.91,17.73-6.6,26.63-9.79,18.24-6.44,27.4-9.55,18.94-6.33,28.45-9.38c9.72-3.11,19.46-6.14,29.22-9.09s20.17-5.99,30.3-8.86c10.34-2.93,20.7-5.77,31.09-8.53s21.43-5.59,32.19-8.25,21.97-5.33,32.98-7.86,22.72-5.12,34.11-7.53c11.62-2.46,23.26-4.83,34.92-7.1,12-2.34,24.03-4.58,36.07-6.72s24.57-4.26,36.88-6.24,25.24-3.95,37.88-5.78c12.98-1.87,25.97-3.64,38.98-5.29s26.6-3.28,39.91-4.76c13.7-1.52,27.41-2.94,41.14-4.24,13.98-1.33,27.97-2.54,41.97-3.65,14.4-1.14,28.81-2.16,43.22-3.07s29.37-1.74,44.06-2.44,30.23-1.32,45.35-1.81,30.79-.87,46.19-1.13c15.83-.27,31.67-.41,47.5-.44s31.12.06,46.68.25c2.35.03,2.35-3.62,0-3.65Z"/>
        </g>
      </g>
    </g>
  </g>
</svg>