<?xml version="1.0" encoding="UTF-8"?>
<svg id="Layer_2" data-name="Layer 2" xmlns="http://www.w3.org/2000/svg" xmlns:xlink="http://www.w3.org/1999/xlink" viewBox="0 0 1920 586.45">
  <defs>
    <style>
      .cls-1 {
        fill: none;
      }

      .cls-2 {
        filter: url(#outer-glow-2);
      }

      .cls-3 {
        filter: url(#outer-glow-1);
      }

      .cls-4 {
        opacity: .52;
      }

      .cls-5 {
        fill: #41afb4;
      }

      .cls-6 {
        clip-path: url(#clippath);
      }

      .cls-7 {
        fill: #ed517f;
      }
    </style>
    <clipPath id="clippath">
      <polygon class="cls-1" points="1920 584.37 0 586.45 0 2.08 1920 0 1920 584.37"/>
    </clipPath>
    <filter id="outer-glow-1" x="-210.14" y="19.48" width="2364" height="605" filterUnits="userSpaceOnUse">
      <feOffset dx="0" dy="0"/>
      <feGaussianBlur result="blur" stdDeviation="6"/>
      <feFlood flood-color="#79d1ce" flood-opacity=".4"/>
      <feComposite in2="blur" operator="in"/>
      <feComposite in="SourceGraphic"/>
    </filter>
    <filter id="outer-glow-2" x="-213.14" y="16.48" width="2367" height="530" filterUnits="userSpaceOnUse">
      <feOffset dx="0" dy="0"/>
      <feGaussianBlur result="blur-2" stdDeviation="7"/>
      <feFlood flood-color="#ff8db9" flood-opacity=".5"/>
      <feComposite in2="blur-2" operator="in"/>
      <feComposite in="SourceGraphic"/>
    </filter>
  </defs>
  <g id="GRAPHICS_1" data-name="GRAPHICS 1">
    <g class="cls-6">
      <g>
        <g class="cls-3">
          <g class="cls-4">
            <path class="cls-5" d="M-190.27,41.34c.34.04.69.07,1.03.11l3.06.32,5.04.53,6.94.72c2.93.31,5.87.61,8.8.92,3.55.37,7.1.74,10.65,1.11l12.43,1.3c4.72.49,9.43.98,14.15,1.48,5.24.55,10.48,1.09,15.72,1.64,5.81.61,11.62,1.21,17.43,1.82,6.33.66,12.67,1.32,19,1.98,6.84.71,13.68,1.43,20.52,2.14,7.31.76,14.62,1.52,21.93,2.29,7.78.81,15.56,1.62,23.34,2.43,8.26.86,16.52,1.72,24.77,2.58,8.7.91,17.39,1.81,26.09,2.72,9.12.95,18.24,1.9,27.36,2.85,9.47.99,18.93,1.98,28.4,2.96,9.91,1.03,19.82,2.07,29.73,3.1s20.56,2.14,30.85,3.22,21.27,2.22,31.91,3.33,21.88,2.28,32.82,3.42,22.52,2.35,33.78,3.52c11.6,1.21,23.19,2.42,34.79,3.63s23.77,2.48,35.65,3.72,24.31,2.54,36.46,3.8l37,3.86c12.64,1.32,25.28,2.64,37.92,3.96,12.86,1.34,25.72,2.68,38.58,4.02,13.06,1.36,26.13,2.73,39.19,4.09s26.42,2.76,39.63,4.13c13.38,1.4,26.75,2.79,40.13,4.19,13.57,1.42,27.13,2.83,40.7,4.25,13.7,1.43,27.4,2.86,41.11,4.29,13.82,1.44,27.64,2.88,41.46,4.32s27.68,2.89,41.52,4.33c14,1.46,28.01,2.92,42.01,4.38,14.07,1.47,28.14,2.94,42.21,4.4l42.36,4.42c14.11,1.47,28.23,2.94,42.34,4.42s28.26,2.95,42.39,4.42,28.34,2.96,42.51,4.43c14.15,1.48,28.3,2.95,42.46,4.43s28.23,2.95,42.35,4.42c13.98,1.46,27.97,2.92,41.95,4.38s28,2.92,41.99,4.38c13.91,1.45,27.83,2.9,41.74,4.35s27.62,2.88,41.43,4.32,27.3,2.85,40.96,4.27c13.52,1.41,27.03,2.82,40.55,4.23,13.4,1.4,26.81,2.8,40.21,4.19,13.23,1.38,26.47,2.76,39.7,4.14,13.05,1.36,26.09,2.72,39.14,4.08s25.54,2.66,38.31,4c12.62,1.32,25.25,2.63,37.87,3.95s24.77,2.58,37.16,3.88c12.13,1.27,24.26,2.53,36.4,3.8,11.83,1.23,23.65,2.47,35.48,3.7s23.08,2.41,34.62,3.61l33.81,3.53,32.84,3.43c10.61,1.11,21.22,2.21,31.82,3.32l30.58,3.19c9.88,1.03,19.76,2.06,29.64,3.09s18.98,1.98,28.48,2.97,18.17,1.9,27.26,2.84,17.27,1.8,25.91,2.7c8.2.86,16.4,1.71,24.6,2.57,7.77.81,15.53,1.62,23.3,2.43,7.29.76,14.58,1.52,21.88,2.28,6.8.71,13.6,1.42,20.4,2.13,6.26.65,12.51,1.31,18.77,1.96,5.77.6,11.54,1.2,17.31,1.81,5.23.55,10.46,1.09,15.69,1.64l14.01,1.46,12.25,1.28c3.49.36,6.99.73,10.48,1.09l8.69.91,6.81.71,4.88.51,2.88.3c.29.03.59.06.88.09,1.92.2,1.9-2.8,0-3-.34-.04-.69-.07-1.03-.11l-3.06-.32-5.04-.53-6.94-.72c-2.93-.31-5.87-.61-8.8-.92-3.55-.37-7.1-.74-10.65-1.11-4.14-.43-8.28-.86-12.43-1.3l-14.15-1.48c-5.24-.55-10.48-1.09-15.72-1.64-5.81-.61-11.62-1.21-17.43-1.82-6.33-.66-12.67-1.32-19-1.98-6.84-.71-13.68-1.43-20.52-2.14-7.31-.76-14.62-1.52-21.93-2.29-7.78-.81-15.56-1.62-23.34-2.43-8.26-.86-16.52-1.72-24.77-2.58-8.7-.91-17.39-1.81-26.09-2.72s-18.24-1.9-27.36-2.85-18.93-1.98-28.4-2.96-19.82-2.07-29.73-3.1-20.56-2.14-30.85-3.22-21.27-2.22-31.91-3.33-21.88-2.28-32.82-3.42c-11.26-1.17-22.52-2.35-33.78-3.52-11.6-1.21-23.19-2.42-34.79-3.63-11.88-1.24-23.77-2.48-35.65-3.72s-24.31-2.54-36.46-3.8-24.67-2.57-37-3.86c-12.64-1.32-25.28-2.64-37.92-3.96s-25.72-2.68-38.58-4.02c-13.06-1.36-26.13-2.73-39.19-4.09s-26.42-2.76-39.63-4.13c-13.38-1.4-26.75-2.79-40.13-4.19-13.57-1.42-27.13-2.83-40.7-4.25-13.7-1.43-27.4-2.86-41.11-4.29-13.82-1.44-27.64-2.88-41.46-4.32-13.84-1.44-27.68-2.89-41.52-4.33s-28.01-2.92-42.01-4.38c-14.07-1.47-28.14-2.94-42.21-4.4s-28.24-2.95-42.36-4.42c-14.11-1.47-28.23-2.94-42.34-4.42s-28.26-2.95-42.39-4.42-28.34-2.96-42.51-4.43c-14.15-1.48-28.3-2.95-42.46-4.43-14.12-1.47-28.23-2.95-42.35-4.42-13.98-1.46-27.97-2.92-41.95-4.38s-28-2.92-41.99-4.38c-13.91-1.45-27.83-2.9-41.74-4.35s-27.62-2.88-41.43-4.32-27.3-2.85-40.96-4.27c-13.52-1.41-27.03-2.82-40.55-4.23s-26.81-2.8-40.21-4.19c-13.23-1.38-26.47-2.76-39.7-4.14s-26.09-2.72-39.14-4.08c-12.77-1.33-25.54-2.66-38.31-4-12.62-1.32-25.25-2.63-37.87-3.95-12.39-1.29-24.77-2.58-37.16-3.88s-24.26-2.53-36.4-3.8-23.65-2.47-35.48-3.7-23.08-2.41-34.62-3.61-22.54-2.35-33.81-3.53c-10.95-1.14-21.89-2.28-32.84-3.43s-21.22-2.21-31.82-3.32-20.39-2.13-30.58-3.19-19.76-2.06-29.64-3.09c-9.49-.99-18.98-1.98-28.48-2.97-9.09-.95-18.17-1.9-27.26-2.84s-17.27-1.8-25.91-2.7-16.4-1.71-24.6-2.57c-7.77-.81-15.53-1.62-23.3-2.43-7.29-.76-14.58-1.52-21.88-2.28-6.8-.71-13.6-1.42-20.4-2.13-6.26-.65-12.51-1.31-18.77-1.96-5.77-.6-11.54-1.2-17.31-1.81-5.23-.55-10.46-1.09-15.69-1.64l-14.01-1.46c-4.08-.43-8.17-.85-12.25-1.28-3.49-.36-6.99-.73-10.48-1.09l-8.69-.91-6.81-.71-4.88-.51-2.88-.3c-.29-.03-.59-.06-.88-.09-1.92-.2-1.9,2.8,0,3h0Z"/>
          </g>
          <g class="cls-4">
            <path class="cls-5" d="M-190.66,41.29c.34.06.68.12,1.03.18l3.04.53,5.01.87,6.93,1.21,8.8,1.53c3.54.62,7.07,1.23,10.61,1.85,4.13.72,8.25,1.44,12.38,2.16,4.7.82,9.4,1.64,14.09,2.46,5.25.92,10.51,1.83,15.76,2.75,5.79,1.01,11.58,2.02,17.37,3.03l18.94,3.3c6.82,1.19,13.63,2.38,20.45,3.56,7.3,1.27,14.61,2.55,21.91,3.82,7.77,1.36,15.55,2.71,23.32,4.07l24.68,4.3c8.64,1.51,17.28,3.01,25.92,4.52,9.08,1.58,18.17,3.17,27.25,4.75s18.98,3.31,28.46,4.96,19.69,3.43,29.53,5.15c10.24,1.79,20.49,3.57,30.73,5.36,10.6,1.85,21.19,3.69,31.79,5.54s21.86,3.81,32.8,5.72l33.75,5.88c11.55,2.01,23.11,4.03,34.66,6.04s23.68,4.13,35.52,6.19c12.11,2.11,24.22,4.22,36.32,6.33,12.36,2.15,24.72,4.31,37.08,6.46s25.19,4.39,37.78,6.59,25.63,4.47,38.44,6.7,26.03,4.54,39.04,6.8c13.2,2.3,26.4,4.6,39.6,6.9s26.73,4.66,40.1,6.99c13.52,2.36,27.03,4.71,40.55,7.07s27.3,4.76,40.95,7.14c13.77,2.4,27.54,4.8,41.3,7.2,13.83,2.41,27.66,4.82,41.48,7.23s27.9,4.86,41.85,7.29,28.04,4.89,42.06,7.33c14.03,2.44,28.05,4.89,42.08,7.33,14.1,2.46,28.2,4.92,42.3,7.37s28.23,4.92,42.35,7.38,28.23,4.92,42.35,7.38,28.2,4.91,42.3,7.37c14.06,2.45,28.13,4.9,42.19,7.35s28.03,4.88,42.04,7.33c13.95,2.43,27.89,4.86,41.84,7.29,13.86,2.42,27.72,4.83,41.58,7.25,13.76,2.4,27.52,4.8,41.28,7.19s27.28,4.75,40.92,7.13,27.01,4.71,40.52,7.06,26.71,4.65,40.06,6.98c13.18,2.3,26.37,4.6,39.55,6.89,13,2.27,26,4.53,38.99,6.8,12.8,2.23,25.59,4.46,38.39,6.69s25.15,4.38,37.73,6.58c12.3,2.14,24.61,4.29,36.91,6.43,12.09,2.11,24.17,4.21,36.26,6.32s23.63,4.12,35.45,6.18,22.99,4.01,34.49,6.01c11.23,1.96,22.45,3.91,33.68,5.87s21.81,3.8,32.72,5.7,21.14,3.68,31.71,5.53,20.43,3.56,30.65,5.34c9.84,1.72,19.69,3.43,29.53,5.15,9.46,1.65,18.91,3.3,28.37,4.94s18.1,3.16,27.16,4.73,17.26,3.01,25.89,4.51,16.38,2.86,24.58,4.28c7.74,1.35,15.47,2.7,23.21,4.05,7.26,1.27,14.53,2.53,21.79,3.8,6.78,1.18,13.55,2.36,20.33,3.54,6.27,1.09,12.54,2.19,18.81,3.28,5.75,1,11.49,2,17.24,3.01,5.21.91,10.42,1.82,15.62,2.72l13.96,2.43c4.07.71,8.14,1.42,12.2,2.13,3.49.61,6.98,1.22,10.47,1.83,2.88.5,5.77,1.01,8.65,1.51l6.76,1.18,4.87.85,2.89.5.88.15c1.89.33,2.7-2.56.8-2.89-.34-.06-.68-.12-1.03-.18l-3.04-.53-5.01-.87-6.93-1.21-8.8-1.53-10.61-1.85c-4.13-.72-8.25-1.44-12.38-2.16l-14.09-2.46c-5.25-.92-10.51-1.83-15.76-2.75-5.79-1.01-11.58-2.02-17.37-3.03-6.31-1.1-12.62-2.2-18.94-3.3l-20.45-3.56c-7.3-1.27-14.61-2.55-21.91-3.82l-23.32-4.07c-8.23-1.43-16.46-2.87-24.68-4.3-8.64-1.51-17.28-3.01-25.92-4.52-9.08-1.58-18.17-3.17-27.25-4.75-9.49-1.65-18.98-3.31-28.46-4.96s-19.69-3.43-29.53-5.15-20.49-3.57-30.73-5.36-21.19-3.69-31.79-5.54c-10.93-1.91-21.86-3.81-32.8-5.72s-22.5-3.92-33.75-5.88-23.11-4.03-34.66-6.04-23.68-4.13-35.52-6.19c-12.11-2.11-24.22-4.22-36.32-6.33s-24.72-4.31-37.08-6.46-25.19-4.39-37.78-6.59-25.63-4.47-38.44-6.7c-13.01-2.27-26.03-4.54-39.04-6.8-13.2-2.3-26.4-4.6-39.6-6.9-13.37-2.33-26.73-4.66-40.1-6.99-13.52-2.36-27.03-4.71-40.55-7.07-13.65-2.38-27.3-4.76-40.95-7.14-13.77-2.4-27.54-4.8-41.3-7.2-13.83-2.41-27.66-4.82-41.48-7.23-13.95-2.43-27.9-4.86-41.85-7.29s-28.04-4.89-42.06-7.33-28.05-4.89-42.08-7.33-28.2-4.92-42.3-7.37-28.23-4.92-42.35-7.38-28.23-4.92-42.35-7.38c-14.1-2.46-28.2-4.91-42.3-7.37-14.06-2.45-28.13-4.9-42.19-7.35-14.01-2.44-28.03-4.88-42.04-7.33-13.95-2.43-27.89-4.86-41.84-7.29-13.86-2.42-27.72-4.83-41.58-7.25s-27.52-4.8-41.28-7.19-27.28-4.75-40.92-7.13-27.01-4.71-40.52-7.06-26.71-4.65-40.06-6.98c-13.18-2.3-26.37-4.6-39.55-6.89s-26-4.53-38.99-6.8-25.59-4.46-38.39-6.69c-12.58-2.19-25.15-4.38-37.73-6.58s-24.61-4.29-36.91-6.43-24.17-4.21-36.26-6.32c-11.82-2.06-23.63-4.12-35.45-6.18s-22.99-4.01-34.49-6.01c-11.23-1.96-22.45-3.91-33.68-5.87-10.91-1.9-21.81-3.8-32.72-5.7-10.57-1.84-21.14-3.68-31.71-5.53s-20.43-3.56-30.65-5.34c-9.84-1.72-19.69-3.43-29.53-5.15s-18.91-3.3-28.37-4.94-18.1-3.16-27.16-4.73c-8.63-1.5-17.26-3.01-25.89-4.51s-16.38-2.86-24.58-4.28c-7.74-1.35-15.47-2.7-23.21-4.05-7.26-1.27-14.53-2.53-21.79-3.8-6.78-1.18-13.55-2.36-20.33-3.54-6.27-1.09-12.54-2.19-18.81-3.28-5.75-1-11.49-2-17.24-3.01-5.21-.91-10.42-1.82-15.62-2.72-4.65-.81-9.3-1.62-13.96-2.43l-12.2-2.13-10.47-1.83-8.65-1.51c-2.25-.39-4.51-.79-6.76-1.18l-4.87-.85-2.89-.5-.88-.15c-1.89-.33-2.7,2.56-.8,2.89h0Z"/>
          </g>
          <g class="cls-4">
            <path class="cls-5" d="M-190.66,41.29c.34.08.69.17,1.03.25l3.07.75,5.04,1.22,6.96,1.69c2.94.71,5.89,1.43,8.83,2.14l10.65,2.59,12.46,3.02,14.19,3.44,15.82,3.84c5.81,1.41,11.62,2.82,17.44,4.23,6.33,1.54,12.67,3.08,19,4.61,6.84,1.66,13.68,3.32,20.52,4.98,7.35,1.78,14.7,3.57,22.05,5.35,7.82,1.9,15.65,3.8,23.47,5.7,8.26,2.01,16.52,4.01,24.77,6.02,8.7,2.11,17.39,4.22,26.09,6.33s18.24,4.43,27.35,6.64c9.52,2.31,19.04,4.62,28.57,6.94,9.91,2.41,19.82,4.81,29.73,7.22,10.34,2.51,20.68,5.02,31.02,7.53,10.64,2.58,21.27,5.16,31.91,7.75,10.97,2.66,21.95,5.33,32.92,7.99,11.29,2.74,22.59,5.48,33.88,8.23,11.6,2.82,23.19,5.63,34.79,8.45s23.76,5.77,35.65,8.65c12.19,2.96,24.37,5.92,36.56,8.88,12.44,3.02,24.88,6.04,37.32,9.06,12.64,3.07,25.28,6.14,37.92,9.21,12.86,3.12,25.72,6.24,38.58,9.37s26.12,6.34,39.18,9.51,26.49,6.43,39.74,9.65c13.45,3.27,26.91,6.53,40.36,9.8,13.61,3.3,27.21,6.61,40.82,9.91s27.4,6.65,41.1,9.98,27.64,6.71,41.46,10.07c13.92,3.38,27.84,6.76,41.76,10.14s28.01,6.8,42.01,10.2c14.11,3.43,28.22,6.85,42.33,10.28,14.16,3.44,28.32,6.88,42.48,10.31,14.15,3.44,28.31,6.87,42.46,10.31s28.34,6.88,42.51,10.32,28.34,6.88,42.51,10.32c14.15,3.44,28.3,6.87,42.45,10.31,14.12,3.43,28.23,6.86,42.35,10.28,14.15,3.43,28.29,6.87,42.44,10.3s27.99,6.8,41.99,10.2c13.91,3.38,27.82,6.76,41.73,10.13,13.81,3.35,27.62,6.71,41.43,10.06s27.38,6.65,41.07,9.97c13.56,3.29,27.11,6.58,40.67,9.87s26.88,6.53,40.32,9.79,26.54,6.44,39.81,9.67c13.05,3.17,26.09,6.34,39.14,9.5s25.69,6.24,38.53,9.35c12.62,3.06,25.25,6.13,37.87,9.19,12.39,3.01,24.77,6.01,37.16,9.02s24.33,5.91,36.5,8.86c11.89,2.89,23.79,5.78,35.68,8.66s23.14,5.62,34.72,8.43c11.27,2.74,22.54,5.47,33.8,8.21,10.95,2.66,21.89,5.32,32.84,7.97,10.61,2.58,21.22,5.15,31.82,7.73,10.28,2.5,20.56,4.99,30.85,7.49,9.91,2.41,19.82,4.81,29.72,7.22s18.98,4.61,28.47,6.91,18.17,4.41,27.25,6.62c8.66,2.1,17.32,4.21,25.99,6.31s16.44,3.99,24.67,5.99c7.77,1.89,15.53,3.77,23.3,5.66,7.33,1.78,14.67,3.56,22,5.34,6.8,1.65,13.6,3.3,20.4,4.95l18.88,4.58c5.77,1.4,11.54,2.8,17.31,4.2,5.23,1.27,10.46,2.54,15.69,3.81l14.01,3.4,12.32,2.99c3.51.85,7.03,1.71,10.54,2.56l8.68,2.11c2.27.55,4.54,1.1,6.81,1.65l4.88,1.18,2.9.7c.29.07.59.14.88.21,1.88.46,2.68-2.44.8-2.89-.34-.08-.69-.17-1.03-.25l-3.07-.75-5.04-1.22-6.96-1.69-8.83-2.14-10.65-2.59c-4.15-1.01-8.31-2.02-12.46-3.02-4.73-1.15-9.46-2.3-14.19-3.44-5.27-1.28-10.54-2.56-15.82-3.84-5.81-1.41-11.62-2.82-17.44-4.23-6.33-1.54-12.67-3.08-19-4.61-6.84-1.66-13.68-3.32-20.52-4.98-7.35-1.78-14.7-3.57-22.05-5.35-7.82-1.9-15.65-3.8-23.47-5.7-8.26-2.01-16.52-4.01-24.77-6.02-8.7-2.11-17.39-4.22-26.09-6.33s-18.24-4.43-27.35-6.64-19.04-4.62-28.57-6.94c-9.91-2.41-19.82-4.81-29.73-7.22-10.34-2.51-20.68-5.02-31.02-7.53s-21.27-5.16-31.91-7.75c-10.97-2.66-21.95-5.33-32.92-7.99-11.29-2.74-22.59-5.48-33.88-8.23-11.6-2.82-23.19-5.63-34.79-8.45-11.88-2.88-23.76-5.77-35.65-8.65-12.19-2.96-24.37-5.92-36.56-8.88s-24.88-6.04-37.32-9.06c-12.64-3.07-25.28-6.14-37.92-9.21-12.86-3.12-25.72-6.24-38.58-9.37-13.06-3.17-26.12-6.34-39.18-9.51-13.25-3.22-26.49-6.43-39.74-9.65s-26.91-6.53-40.36-9.8c-13.61-3.3-27.21-6.61-40.82-9.91-13.7-3.33-27.4-6.65-41.1-9.98-13.82-3.36-27.64-6.71-41.46-10.07s-27.84-6.76-41.76-10.14c-14-3.4-28.01-6.8-42.01-10.2s-28.22-6.85-42.33-10.28c-14.16-3.44-28.32-6.88-42.48-10.31-14.15-3.44-28.31-6.87-42.46-10.31-14.17-3.44-28.34-6.88-42.51-10.32-14.17-3.44-28.34-6.88-42.51-10.32-14.15-3.44-28.3-6.87-42.45-10.31-14.12-3.43-28.23-6.86-42.35-10.28-14.15-3.43-28.29-6.87-42.44-10.3s-27.99-6.8-41.99-10.2c-13.91-3.38-27.82-6.76-41.73-10.13-13.81-3.35-27.62-6.71-41.43-10.06-13.69-3.32-27.38-6.65-41.07-9.97-13.56-3.29-27.11-6.58-40.67-9.87s-26.88-6.53-40.32-9.79c-13.27-3.22-26.54-6.44-39.81-9.67-13.05-3.17-26.09-6.34-39.14-9.5s-25.69-6.24-38.53-9.35c-12.62-3.06-25.25-6.13-37.87-9.19-12.39-3.01-24.77-6.01-37.16-9.02s-24.33-5.91-36.5-8.86c-11.89-2.89-23.79-5.78-35.68-8.66s-23.14-5.62-34.72-8.43-22.54-5.47-33.8-8.21c-10.95-2.66-21.89-5.32-32.84-7.97s-21.22-5.15-31.82-7.73c-10.28-2.5-20.56-4.99-30.85-7.49-9.91-2.41-19.82-4.81-29.72-7.22-9.49-2.3-18.98-4.61-28.47-6.91-9.08-2.21-18.17-4.41-27.25-6.62s-17.32-4.21-25.99-6.31c-8.22-2-16.44-3.99-24.67-5.99-7.77-1.89-15.53-3.77-23.3-5.66-7.33-1.78-14.67-3.56-22-5.34-6.8-1.65-13.6-3.3-20.4-4.95-6.29-1.53-12.59-3.06-18.88-4.58-5.77-1.4-11.54-2.8-17.31-4.2-5.23-1.27-10.46-2.54-15.69-3.81-4.67-1.13-9.34-2.27-14.01-3.4-4.11-1-8.21-1.99-12.32-2.99-3.51-.85-7.03-1.71-10.54-2.56l-8.68-2.11-6.81-1.65-4.88-1.18-2.9-.7c-.29-.07-.59-.14-.88-.21-1.88-.46-2.68,2.44-.8,2.89h0Z"/>
          </g>
        </g>
        <g class="cls-2">
          <g class="cls-4">
            <path class="cls-7" d="M-190.27,41.34c.35.02.69.05,1.04.07l3.05.21,5.02.35,6.93.48,8.86.62c3.54.25,7.08.49,10.62.74,4.13.29,8.26.57,12.39.86l14.15.98c5.27.37,10.55.73,15.82,1.1,5.8.4,11.59.81,17.39,1.21,6.32.44,12.63.88,18.95,1.32,6.84.48,13.68.95,20.52,1.43,7.33.51,14.66,1.02,21.99,1.53,7.78.54,15.56,1.08,23.34,1.62l24.7,1.72c8.72.61,17.45,1.21,26.17,1.82s18.19,1.26,27.28,1.9,18.99,1.32,28.49,1.98,19.76,1.37,29.65,2.06l30.94,2.15c10.61.74,21.21,1.48,31.82,2.21s21.88,1.52,32.83,2.28c11.29.79,22.59,1.57,33.88,2.36s23.2,1.61,34.79,2.42c11.85.82,23.7,1.65,35.55,2.47,12.12.84,24.24,1.69,36.35,2.53l37.22,2.59c12.64.88,25.29,1.76,37.93,2.64,12.82.89,25.65,1.78,38.47,2.68s26.05,1.81,39.08,2.72,26.58,1.85,39.86,2.77c13.38.93,26.76,1.86,40.13,2.79,13.53.94,27.06,1.88,40.59,2.82,13.66.95,27.33,1.9,40.99,2.85,13.86.96,27.72,1.93,41.58,2.89s27.76,1.93,41.64,2.9c13.96.97,27.93,1.94,41.89,2.91s28.14,1.96,42.22,2.94c14.12.98,28.24,1.96,42.37,2.95l42.34,2.94,42.39,2.95c14.17.99,28.34,1.97,42.51,2.96,14.15.98,28.31,1.97,42.46,2.95s28.15,1.96,42.23,2.94c14.03.98,28.05,1.95,42.08,2.93,14,.97,28,1.95,42,2.92l41.74,2.9,41.31,2.87c13.65.95,27.31,1.9,40.96,2.85s27.19,1.89,40.79,2.84c13.36.93,26.73,1.86,40.09,2.79s26.39,1.84,39.59,2.75,26.02,1.81,39.03,2.71,25.77,1.79,38.65,2.69,25.17,1.75,37.76,2.63,24.7,1.72,37.05,2.58,24.27,1.69,36.4,2.53c11.86.83,23.72,1.65,35.59,2.48s23.08,1.61,34.62,2.41c11.24.78,22.47,1.56,33.71,2.34s21.9,1.52,32.84,2.28,21.22,1.48,31.83,2.21,20.45,1.42,30.67,2.13c9.85.69,19.71,1.37,29.56,2.06,9.52.66,19.04,1.32,28.56,1.99s18.12,1.26,27.18,1.89,17.28,1.2,25.91,1.8,16.4,1.14,24.6,1.71,15.58,1.08,23.37,1.63c7.27.51,14.54,1.01,21.81,1.52,6.78.47,13.56.94,20.35,1.42l18.88,1.31,17.31,1.2,15.64,1.09,13.97.97c4.1.28,8.19.57,12.29.85l10.51.73,8.66.6,6.79.47,4.89.34,2.89.2c.29.02.58.04.87.06,1.93.13,1.92-2.87,0-3-.35-.02-.69-.05-1.04-.07l-3.05-.21-5.02-.35-6.93-.48-8.86-.62c-3.54-.25-7.08-.49-10.62-.74-4.13-.29-8.26-.57-12.39-.86l-14.15-.98c-5.27-.37-10.55-.73-15.82-1.1-5.8-.4-11.59-.81-17.39-1.21-6.32-.44-12.63-.88-18.95-1.32-6.84-.48-13.68-.95-20.52-1.43-7.33-.51-14.66-1.02-21.99-1.53-7.78-.54-15.56-1.08-23.34-1.62l-24.7-1.72c-8.72-.61-17.45-1.21-26.17-1.82s-18.19-1.26-27.28-1.9l-28.49-1.98c-9.88-.69-19.76-1.37-29.65-2.06s-20.63-1.43-30.94-2.15c-10.61-.74-21.21-1.48-31.82-2.21l-32.83-2.28c-11.29-.79-22.59-1.57-33.88-2.36-11.6-.81-23.2-1.61-34.79-2.42-11.85-.82-23.7-1.65-35.55-2.47s-24.24-1.69-36.35-2.53c-12.41-.86-24.81-1.73-37.22-2.59-12.64-.88-25.29-1.76-37.93-2.64s-25.65-1.78-38.47-2.68c-13.03-.91-26.05-1.81-39.08-2.72s-26.58-1.85-39.86-2.77c-13.38-.93-26.76-1.86-40.13-2.79s-27.06-1.88-40.59-2.82c-13.66-.95-27.33-1.9-40.99-2.85-13.86-.96-27.72-1.93-41.58-2.89-13.88-.97-27.76-1.93-41.64-2.9-13.96-.97-27.93-1.94-41.89-2.91s-28.14-1.96-42.22-2.94-28.24-1.96-42.37-2.95c-14.11-.98-28.23-1.96-42.34-2.94-14.13-.98-28.26-1.97-42.39-2.95-14.17-.99-28.34-1.97-42.51-2.96-14.15-.98-28.31-1.97-42.46-2.95s-28.15-1.96-42.23-2.94c-14.03-.98-28.05-1.95-42.08-2.93-14-.97-28-1.95-42-2.92s-27.83-1.94-41.74-2.9l-41.31-2.87c-13.65-.95-27.31-1.9-40.96-2.85-13.6-.95-27.19-1.89-40.79-2.84-13.36-.93-26.73-1.86-40.09-2.79-13.2-.92-26.39-1.84-39.59-2.75s-26.02-1.81-39.03-2.71c-12.88-.9-25.77-1.79-38.65-2.69s-25.17-1.75-37.76-2.63-24.7-1.72-37.05-2.58-24.27-1.69-36.4-2.53c-11.86-.83-23.72-1.65-35.59-2.48-11.54-.8-23.08-1.61-34.62-2.41-11.24-.78-22.47-1.56-33.71-2.34-10.95-.76-21.9-1.52-32.84-2.28s-21.22-1.48-31.83-2.21c-10.22-.71-20.45-1.42-30.67-2.13-9.85-.69-19.71-1.37-29.56-2.06-9.52-.66-19.04-1.32-28.56-1.99s-18.12-1.26-27.18-1.89-17.28-1.2-25.91-1.8l-24.6-1.71-23.37-1.63c-7.27-.51-14.54-1.01-21.81-1.52-6.78-.47-13.56-.94-20.35-1.42-6.29-.44-12.59-.88-18.88-1.31l-17.31-1.2-15.64-1.09-13.97-.97c-4.1-.28-8.19-.57-12.29-.85l-10.51-.73-8.66-.6-6.79-.47-4.89-.34-2.89-.2c-.29-.02-.58-.04-.87-.06-1.93-.13-1.92,2.87,0,3h0Z"/>
          </g>
          <g class="cls-4">
            <path class="cls-7" d="M-190.66,41.29c.34.07.69.14,1.03.22l3.07.64,5.01,1.04,6.97,1.45,8.82,1.84,10.64,2.22c4.15.86,8.3,1.73,12.44,2.59,4.71.98,9.42,1.96,14.13,2.94,5.27,1.1,10.53,2.19,15.8,3.29l17.46,3.64c6.31,1.31,12.62,2.63,18.92,3.94,6.85,1.43,13.7,2.86,20.55,4.28l22.03,4.59c7.77,1.62,15.54,3.24,23.31,4.86,8.27,1.72,16.54,3.45,24.81,5.17l26.06,5.43c9.11,1.9,18.21,3.8,27.32,5.69s19.08,3.98,28.61,5.96,19.74,4.11,29.61,6.17c10.3,2.15,20.59,4.29,30.89,6.44s21.31,4.44,31.96,6.66,21.85,4.55,32.78,6.83c11.31,2.36,22.62,4.71,33.93,7.07s23.23,4.84,34.85,7.26,23.67,4.93,35.5,7.4c12.17,2.54,24.34,5.07,36.52,7.61s24.78,5.16,37.17,7.75,25.25,5.26,37.87,7.89c12.88,2.68,25.76,5.37,38.64,8.05,13.01,2.71,26.02,5.42,39.02,8.13,13.27,2.77,26.54,5.53,39.8,8.3,13.44,2.8,26.87,5.6,40.31,8.4s27.02,5.63,40.53,8.45,27.45,5.72,41.17,8.58,27.68,5.77,41.52,8.65c13.86,2.89,27.72,5.78,41.59,8.67,14.03,2.92,28.05,5.85,42.08,8.77,14.05,2.93,28.1,5.86,42.16,8.79,14.1,2.94,28.2,5.88,42.31,8.82s28.35,5.91,42.53,8.86,28.22,5.88,42.33,8.82c14.19,2.96,28.38,5.92,42.57,8.87,14.17,2.95,28.35,5.91,42.52,8.86s28.12,5.86,42.17,8.79,28.18,5.87,42.26,8.81c13.98,2.91,27.96,5.83,41.94,8.74,13.89,2.9,27.79,5.79,41.68,8.69s27.66,5.77,41.5,8.65c13.67,2.85,27.35,5.7,41.02,8.55,13.54,2.82,27.08,5.64,40.61,8.46s26.85,5.6,40.27,8.39c13.18,2.75,26.36,5.49,39.53,8.24,13.07,2.72,26.14,5.45,39.2,8.17s25.73,5.36,38.59,8.04,25.14,5.24,37.71,7.86c12.41,2.59,24.81,5.17,37.22,7.76,12.12,2.53,24.23,5.05,36.35,7.58,11.85,2.47,23.69,4.94,35.54,7.41s23.18,4.83,34.77,7.25c11.22,2.34,22.44,4.68,33.66,7.02l32.89,6.86c10.62,2.21,21.25,4.43,31.87,6.64s20.42,4.26,30.63,6.38,19.79,4.13,29.69,6.19c9.51,1.98,19.01,3.96,28.52,5.94s18.09,3.77,27.14,5.66,17.35,3.62,26.03,5.42c8.21,1.71,16.42,3.42,24.63,5.13,7.76,1.62,15.51,3.23,23.27,4.85,7.3,1.52,14.61,3.04,21.91,4.57,6.77,1.41,13.55,2.82,20.32,4.23,6.3,1.31,12.61,2.63,18.91,3.94,5.78,1.2,11.56,2.41,17.34,3.61,5.21,1.09,10.41,2.17,15.62,3.26,4.68.97,9.36,1.95,14.03,2.92l12.3,2.56,10.47,2.18,8.7,1.81,6.8,1.42,4.87,1.02,2.9.61c.29.06.58.12.87.18,1.88.39,2.69-2.5.8-2.89-.34-.07-.69-.14-1.03-.22l-3.07-.64-5.01-1.04-6.97-1.45c-2.94-.61-5.88-1.23-8.82-1.84-3.55-.74-7.09-1.48-10.64-2.22-4.15-.86-8.3-1.73-12.44-2.59-4.71-.98-9.42-1.96-14.13-2.94-5.27-1.1-10.53-2.19-15.8-3.29-5.82-1.21-11.64-2.43-17.46-3.64-6.31-1.31-12.62-2.63-18.92-3.94-6.85-1.43-13.7-2.86-20.55-4.28l-22.03-4.59c-7.77-1.62-15.54-3.24-23.31-4.86-8.27-1.72-16.54-3.45-24.81-5.17-8.69-1.81-17.37-3.62-26.06-5.43-9.11-1.9-18.21-3.8-27.32-5.69s-19.08-3.98-28.61-5.96-19.74-4.11-29.61-6.17-20.59-4.29-30.89-6.44-21.31-4.44-31.96-6.66l-32.78-6.83c-11.31-2.36-22.62-4.71-33.93-7.07s-23.23-4.84-34.85-7.26-23.67-4.93-35.5-7.4c-12.17-2.54-24.34-5.07-36.52-7.61-12.39-2.58-24.78-5.16-37.17-7.75-12.62-2.63-25.25-5.26-37.87-7.89s-25.76-5.37-38.64-8.05c-13.01-2.71-26.02-5.42-39.02-8.13s-26.54-5.53-39.8-8.3c-13.44-2.8-26.87-5.6-40.31-8.4-13.51-2.82-27.02-5.63-40.53-8.45s-27.45-5.72-41.17-8.58-27.68-5.77-41.52-8.65c-13.86-2.89-27.72-5.78-41.59-8.67-14.03-2.92-28.05-5.85-42.08-8.77-14.05-2.93-28.1-5.86-42.16-8.79-14.1-2.94-28.2-5.88-42.31-8.82-14.18-2.95-28.35-5.91-42.53-8.86s-28.22-5.88-42.33-8.82c-14.19-2.96-28.38-5.92-42.57-8.87-14.17-2.95-28.35-5.91-42.52-8.86-14.06-2.93-28.12-5.86-42.17-8.79-14.09-2.94-28.18-5.87-42.26-8.81s-27.96-5.83-41.94-8.74c-13.89-2.9-27.79-5.79-41.68-8.69s-27.66-5.77-41.5-8.65c-13.67-2.85-27.35-5.7-41.02-8.55-13.54-2.82-27.08-5.64-40.61-8.46-13.42-2.8-26.85-5.6-40.27-8.39s-26.36-5.49-39.53-8.24c-13.07-2.72-26.14-5.45-39.2-8.17-12.86-2.68-25.73-5.36-38.59-8.04s-25.14-5.24-37.71-7.86-24.81-5.17-37.22-7.76c-12.12-2.53-24.23-5.05-36.35-7.58s-23.69-4.94-35.54-7.41-23.18-4.83-34.77-7.25c-11.22-2.34-22.44-4.68-33.66-7.02-10.96-2.29-21.93-4.57-32.89-6.86-10.62-2.21-21.25-4.43-31.87-6.64-10.21-2.13-20.42-4.26-30.63-6.38s-19.79-4.13-29.69-6.19c-9.51-1.98-19.01-3.96-28.52-5.94s-18.09-3.77-27.14-5.66c-8.68-1.81-17.35-3.62-26.03-5.42-8.21-1.71-16.42-3.42-24.63-5.13-7.76-1.62-15.51-3.23-23.27-4.85-7.3-1.52-14.61-3.04-21.91-4.57-6.77-1.41-13.55-2.82-20.32-4.23-6.3-1.31-12.61-2.63-18.91-3.94-5.78-1.2-11.56-2.41-17.34-3.61l-15.62-3.26c-4.68-.97-9.36-1.95-14.03-2.92-4.1-.85-8.2-1.71-12.3-2.56-3.49-.73-6.98-1.45-10.47-2.18l-8.7-1.81-6.8-1.42-4.87-1.02-2.9-.61c-.29-.06-.58-.12-.87-.18-1.88-.39-2.69,2.5-.8,2.89h0Z"/>
          </g>
          <g class="cls-4">
            <path class="cls-7" d="M-190.66,41.29c.34.05.69.1,1.03.14l3.05.42,5.04.7,6.93.96c2.95.41,5.9.82,8.84,1.23,3.54.49,7.07.98,10.61,1.48l12.45,1.73c4.7.65,9.39,1.31,14.09,1.96,5.28.73,10.56,1.47,15.84,2.2,5.79.8,11.58,1.61,17.36,2.41l19.04,2.65c6.81.95,13.63,1.89,20.44,2.84,7.34,1.02,14.69,2.04,22.03,3.06,7.77,1.08,15.54,2.16,23.31,3.24l24.82,3.45c8.66,1.2,17.32,2.41,25.98,3.61l27.4,3.81c9.48,1.32,18.97,2.64,28.45,3.96l29.78,4.14c10.24,1.42,20.48,2.85,30.72,4.27s21.25,2.95,31.87,4.43c10.96,1.52,21.92,3.05,32.88,4.57,11.28,1.57,22.56,3.14,33.84,4.71,11.58,1.61,23.17,3.22,34.75,4.83,11.87,1.65,23.74,3.3,35.61,4.95s24.28,3.38,36.41,5.06c12.39,1.72,24.78,3.45,37.17,5.17s25.25,3.51,37.88,5.27l38.53,5.36c13.05,1.81,26.09,3.63,39.14,5.44,13.19,1.83,26.39,3.67,39.58,5.5,13.44,1.87,26.88,3.74,40.32,5.61,13.51,1.88,27.02,3.76,40.53,5.64,13.72,1.91,27.45,3.82,41.17,5.73l41.29,5.74c13.94,1.94,27.89,3.88,41.83,5.82,13.95,1.94,27.89,3.88,41.84,5.82,14.09,1.96,28.19,3.92,42.28,5.88,14.06,1.96,28.13,3.91,42.19,5.87l42.53,5.91c14.11,1.96,28.22,3.92,42.34,5.89s28.39,3.95,42.58,5.92c14.09,1.96,28.19,3.92,42.28,5.88s28.28,3.93,42.42,5.9,28.02,3.9,42.02,5.84c14.02,1.95,28.04,3.9,42.06,5.85,13.86,1.93,27.71,3.85,41.57,5.78l41.5,5.77c13.64,1.9,27.27,3.79,40.91,5.69,13.58,1.89,27.16,3.78,40.74,5.66,13.35,1.86,26.7,3.71,40.04,5.57,13.26,1.84,26.51,3.69,39.77,5.53s25.99,3.61,38.98,5.42,25.73,3.58,38.6,5.37c12.57,1.75,25.14,3.5,37.71,5.24s24.81,3.45,37.22,5.18,24.16,3.36,36.25,5.04c11.85,1.65,23.69,3.29,35.54,4.94,11.56,1.61,23.12,3.21,34.68,4.82,11.26,1.57,22.51,3.13,33.77,4.7,10.93,1.52,21.87,3.04,32.8,4.56s21.19,2.95,31.79,4.42c10.24,1.42,20.48,2.85,30.72,4.27s19.74,2.74,29.61,4.12c9.48,1.32,18.96,2.64,28.44,3.95s18.15,2.52,27.22,3.79,17.3,2.41,25.96,3.61c8.19,1.14,16.38,2.28,24.57,3.42s15.56,2.16,23.34,3.25c7.26,1.01,14.53,2.02,21.79,3.03l20.44,2.84c6.27.87,12.54,1.74,18.81,2.62,5.78.8,11.56,1.61,17.34,2.41,5.21.72,10.41,1.45,15.62,2.17l14.04,1.95,12.24,1.7,10.53,1.46,8.65,1.2,6.82.95,4.86.68,2.91.4c.29.04.58.08.87.12,1.89.26,2.7-2.63.8-2.89-.34-.05-.69-.1-1.03-.14l-3.05-.42-5.04-.7-6.93-.96-8.84-1.23-10.61-1.48-12.45-1.73c-4.7-.65-9.39-1.31-14.09-1.96-5.28-.73-10.56-1.47-15.84-2.2-5.79-.8-11.58-1.61-17.36-2.41-6.35-.88-12.69-1.76-19.04-2.65-6.81-.95-13.63-1.89-20.44-2.84-7.34-1.02-14.69-2.04-22.03-3.06-7.77-1.08-15.54-2.16-23.31-3.24l-24.82-3.45c-8.66-1.2-17.32-2.41-25.98-3.61-9.13-1.27-18.27-2.54-27.4-3.81s-18.97-2.64-28.45-3.96l-29.78-4.14c-10.24-1.42-20.48-2.85-30.72-4.27-10.62-1.48-21.25-2.95-31.87-4.43-10.96-1.52-21.92-3.05-32.88-4.57s-22.56-3.14-33.84-4.71c-11.58-1.61-23.17-3.22-34.75-4.83s-23.74-3.3-35.61-4.95-24.28-3.38-36.41-5.06c-12.39-1.72-24.78-3.45-37.17-5.17s-25.25-3.51-37.88-5.27-25.69-3.57-38.53-5.36c-13.05-1.81-26.09-3.63-39.14-5.44-13.19-1.83-26.39-3.67-39.58-5.5l-40.32-5.61c-13.51-1.88-27.02-3.76-40.53-5.64-13.72-1.91-27.45-3.82-41.17-5.73s-27.52-3.83-41.29-5.74-27.89-3.88-41.83-5.82c-13.95-1.94-27.89-3.88-41.84-5.82-14.09-1.96-28.19-3.92-42.28-5.88-14.06-1.96-28.13-3.91-42.19-5.87-14.18-1.97-28.36-3.94-42.53-5.91s-28.22-3.92-42.34-5.89c-14.19-1.97-28.39-3.95-42.58-5.92-14.09-1.96-28.19-3.92-42.28-5.88s-28.28-3.93-42.42-5.9-28.02-3.9-42.02-5.84-28.04-3.9-42.06-5.85-27.71-3.85-41.57-5.78-27.67-3.85-41.5-5.77-27.27-3.79-40.91-5.69c-13.58-1.89-27.16-3.78-40.74-5.66-13.35-1.86-26.7-3.71-40.04-5.57-13.26-1.84-26.51-3.69-39.77-5.53s-25.99-3.61-38.98-5.42c-12.87-1.79-25.73-3.58-38.6-5.37s-25.14-3.5-37.71-5.24c-12.41-1.73-24.81-3.45-37.22-5.18s-24.16-3.36-36.25-5.04c-11.85-1.65-23.69-3.29-35.54-4.94s-23.12-3.21-34.68-4.82-22.51-3.13-33.77-4.7-21.87-3.04-32.8-4.56-21.19-2.95-31.79-4.42c-10.24-1.42-20.48-2.85-30.72-4.27s-19.74-2.74-29.61-4.12c-9.48-1.32-18.96-2.64-28.44-3.95-9.07-1.26-18.15-2.52-27.22-3.79s-17.3-2.41-25.96-3.61c-8.19-1.14-16.38-2.28-24.57-3.42s-15.56-2.16-23.34-3.25c-7.26-1.01-14.53-2.02-21.79-3.03-6.81-.95-13.63-1.9-20.44-2.84l-18.81-2.62c-5.78-.8-11.56-1.61-17.34-2.41l-15.62-2.17c-4.68-.65-9.36-1.3-14.04-1.95l-12.24-1.7-10.53-1.46-8.65-1.2-6.82-.95-4.86-.68-2.91-.4c-.29-.04-.58-.08-.87-.12-1.89-.26-2.7,2.63-.8,2.89h0Z"/>
          </g>
        </g>
      </g>
    </g>
  </g>
</svg>