<?xml version="1.0" encoding="UTF-8"?>
<svg id="Layer_2" xmlns="http://www.w3.org/2000/svg" version="1.1" xmlns:xlink="http://www.w3.org/1999/xlink" viewBox="0 0 1184.77 588">
  <!-- Generator: Adobe Illustrator 29.7.1, SVG Export Plug-In . SVG Version: 2.1.1 Build 8)  -->
  <defs>
    <style>
      .st0 {
        fill: #41afb4;
      }

      .st1 {
        fill: none;
      }

      .st2 {
        fill: #ed517f;
      }

      .st3 {
        clip-path: url(#clippath);
      }

      .st4 {
        opacity: .52;
      }
    </style>
    <clipPath id="clippath">
      <rect class="st1" width="1184.77" height="588"/>
    </clipPath>
  </defs>
  <g id="Graphics_1">
    <g class="st3">
      <g>
        <g>
          <g class="st4">
            <path class="st0" d="M-101.4,560.35c.2-.06.4-.13.61-.19l1.81-.58,2.97-.95,4.13-1.32,5.22-1.66c2.1-.67,4.2-1.34,6.29-2.01l7.38-2.35,8.36-2.67c3.11-.99,6.23-1.99,9.34-2.98,3.45-1.1,6.9-2.2,10.35-3.3,3.74-1.19,7.49-2.39,11.23-3.58,4.04-1.29,8.08-2.58,12.13-3.87,4.35-1.39,8.7-2.78,13.06-4.16l13.83-4.41c4.88-1.56,9.76-3.11,14.64-4.67,5.16-1.65,10.33-3.29,15.49-4.94s10.78-3.44,16.16-5.16c5.65-1.8,11.31-3.61,16.96-5.41s11.71-3.74,17.57-5.6c6.08-1.94,12.15-3.88,18.23-5.81,6.31-2.01,12.63-4.03,18.94-6.04,6.48-2.07,12.97-4.14,19.45-6.21s13.35-4.26,20.02-6.39c6.89-2.2,13.77-4.39,20.66-6.59s14.04-4.48,21.07-6.72l21.65-6.91c7.33-2.34,14.66-4.68,21.99-7.02s14.94-4.77,22.41-7.15,15.27-4.87,22.91-7.31,15.44-4.92,23.16-7.39,15.66-4.99,23.49-7.49,15.93-5.08,23.9-7.62c8.02-2.56,16.04-5.12,24.05-7.67s16.19-5.17,24.29-7.75c8.1-2.58,16.41-5.23,24.62-7.85s16.45-5.25,24.68-7.87c8.28-2.64,16.55-5.28,24.83-7.92,8.35-2.67,16.71-5.33,25.06-8,8.34-2.66,16.69-5.32,25.03-7.99s16.81-5.36,25.21-8.04c8.37-2.67,16.75-5.34,25.12-8.01s16.75-5.34,25.12-8.01,16.81-5.36,25.21-8.04,16.69-5.32,25.03-7.98,16.63-5.3,24.94-7.95,16.62-5.3,24.93-7.95,16.44-5.25,24.67-7.87,16.4-5.23,24.6-7.85c8.09-2.58,16.18-5.16,24.27-7.74s16.02-5.11,24.03-7.67c7.96-2.54,15.92-5.08,23.88-7.62,7.82-2.49,15.64-4.99,23.46-7.48,7.71-2.46,15.42-4.92,23.13-7.38s15.25-4.87,22.88-7.3,14.92-4.76,22.38-7.14c7.32-2.34,14.64-4.67,21.96-7.01s14.41-4.6,21.61-6.89c7.01-2.24,14.02-4.47,21.03-6.71s13.74-4.38,20.62-6.58,13.32-4.25,19.98-6.37,12.94-4.13,19.41-6.19,12.6-4.02,18.9-6.03,12.12-3.87,18.18-5.8,11.68-3.73,17.52-5.59,11.27-3.6,16.91-5.39,10.74-3.43,16.11-5.14,10.24-3.27,15.36-4.9,9.77-3.12,14.65-4.67c4.59-1.46,9.18-2.93,13.77-4.39,4.33-1.38,8.66-2.76,12.99-4.14,4.02-1.28,8.04-2.56,12.06-3.85,3.72-1.19,7.44-2.37,11.16-3.56,3.43-1.09,6.85-2.19,10.28-3.28,3.09-.99,6.18-1.97,9.27-2.96l8.28-2.64,7.3-2.33c2.07-.66,4.14-1.32,6.21-1.98l5.14-1.64,4.04-1.29,2.89-.92,1.72-.55c.17-.06.35-.11.52-.17,2.75-.88,1.57-5.22-1.2-4.34-.2.06-.4.13-.61.19l-1.81.58-2.97.95-4.13,1.32-5.22,1.66c-2.1.67-4.2,1.34-6.29,2.01-2.46.78-4.92,1.57-7.38,2.35l-8.36,2.67c-3.11.99-6.23,1.99-9.34,2.98l-10.35,3.3c-3.74,1.19-7.49,2.39-11.23,3.58-4.04,1.29-8.08,2.58-12.13,3.87-4.35,1.39-8.7,2.78-13.06,4.16l-13.83,4.41-14.64,4.67c-5.16,1.65-10.33,3.29-15.49,4.94s-10.78,3.44-16.16,5.16c-5.65,1.8-11.31,3.61-16.96,5.41l-17.57,5.6-18.23,5.81c-6.31,2.01-12.63,4.03-18.94,6.04s-12.97,4.14-19.45,6.21-13.35,4.26-20.02,6.39c-6.89,2.2-13.77,4.39-20.66,6.59s-14.04,4.48-21.07,6.72c-7.22,2.3-14.43,4.6-21.65,6.91s-14.66,4.68-21.99,7.02-14.94,4.77-22.41,7.15-15.27,4.87-22.91,7.31c-7.72,2.46-15.44,4.92-23.16,7.39s-15.66,4.99-23.49,7.49c-7.97,2.54-15.93,5.08-23.9,7.62l-24.05,7.67c-8.1,2.58-16.19,5.17-24.29,7.75s-16.41,5.23-24.62,7.85c-8.23,2.62-16.45,5.25-24.68,7.87s-16.55,5.28-24.83,7.92-16.71,5.33-25.06,8c-8.34,2.66-16.69,5.32-25.03,7.99s-16.81,5.36-25.21,8.04c-8.37,2.67-16.75,5.34-25.12,8.01s-16.75,5.34-25.12,8.01-16.81,5.36-25.21,8.04c-8.34,2.66-16.69,5.32-25.03,7.98l-24.94,7.95c-8.31,2.65-16.62,5.3-24.93,7.95s-16.44,5.25-24.67,7.87c-8.2,2.62-16.4,5.23-24.6,7.85s-16.18,5.16-24.27,7.74-16.02,5.11-24.03,7.67-15.92,5.08-23.88,7.62c-7.82,2.49-15.64,4.99-23.46,7.48-7.71,2.46-15.42,4.92-23.13,7.38-7.63,2.43-15.25,4.87-22.88,7.3s-14.92,4.76-22.38,7.14c-7.32,2.34-14.64,4.67-21.96,7.01s-14.41,4.6-21.61,6.89-14.02,4.47-21.03,6.71c-6.87,2.19-13.74,4.38-20.62,6.58s-13.32,4.25-19.98,6.37c-6.47,2.06-12.94,4.13-19.41,6.19s-12.6,4.02-18.9,6.03-12.12,3.87-18.18,5.8-11.68,3.73-17.52,5.59-11.27,3.6-16.91,5.39-10.74,3.43-16.11,5.14-10.24,3.27-15.36,4.9l-14.65,4.67c-4.59,1.46-9.18,2.93-13.77,4.39-4.33,1.38-8.66,2.76-12.99,4.14-4.02,1.28-8.04,2.56-12.06,3.85-3.72,1.19-7.44,2.37-11.16,3.56-3.43,1.09-6.85,2.19-10.28,3.28-3.09.99-6.18,1.97-9.27,2.96l-8.28,2.64-7.3,2.33c-2.07.66-4.14,1.32-6.21,1.98-1.71.55-3.42,1.09-5.14,1.64l-4.04,1.29-2.89.92-1.72.55c-.17.06-.35.11-.52.17-2.75.88-1.57,5.22,1.2,4.34h0Z"/>
          </g>
          <g class="st4">
            <path class="st0" d="M-101.4,560.35c.2-.04.4-.07.61-.11l1.8-.33,2.96-.54,4.12-.76,5.21-.95,6.28-1.15,7.33-1.34c2.78-.51,5.56-1.02,8.34-1.53l9.33-1.71c3.43-.63,6.85-1.26,10.28-1.88,3.75-.69,7.51-1.38,11.26-2.06l12.11-2.22c4.32-.79,8.65-1.58,12.97-2.38,4.6-.84,9.2-1.69,13.81-2.53,4.87-.89,9.74-1.78,14.61-2.68,5.13-.94,10.26-1.88,15.39-2.82s10.76-1.97,16.13-2.96,11.23-2.06,16.85-3.09,11.75-2.15,17.62-3.23,12.13-2.22,18.2-3.33,12.55-2.3,18.82-3.45c6.47-1.19,12.95-2.37,19.42-3.56s13.32-2.44,19.98-3.66c6.84-1.25,13.68-2.51,20.52-3.76s14.02-2.57,21.03-3.85,14.41-2.64,21.61-3.96,14.64-2.68,21.95-4.02,14.91-2.73,22.37-4.1,15.17-2.78,22.76-4.17l23.12-4.23c7.81-1.43,15.63-2.86,23.44-4.29s15.83-2.9,23.74-4.35,16.08-2.95,24.13-4.42c8.08-1.48,16.17-2.96,24.25-4.44l24.46-4.48c8.21-1.5,16.42-3.01,24.63-4.51s16.52-3.03,24.78-4.54,16.6-3.04,24.9-4.56,16.66-3.05,24.99-4.58,16.78-3.07,25.17-4.61,16.72-3.06,25.08-4.59,16.72-3.06,25.08-4.59,16.7-3.06,25.04-4.59,16.66-3.05,24.98-4.58c8.3-1.52,16.6-3.04,24.89-4.56,8.26-1.51,16.52-3.03,24.77-4.54s16.41-3.01,24.62-4.51,16.37-3,24.56-4.5c8.08-1.48,16.15-2.96,24.23-4.44s15.99-2.93,23.99-4.39c7.91-1.45,15.81-2.9,23.72-4.35,7.81-1.43,15.61-2.86,23.42-4.29s15.39-2.82,23.09-4.23c7.58-1.39,15.15-2.78,22.73-4.16s14.97-2.74,22.45-4.11c7.48-1.37,14.61-2.68,21.92-4.02s14.31-2.62,21.47-3.93c7-1.28,13.99-2.56,20.99-3.85s13.66-2.5,20.48-3.75,13.3-2.44,19.94-3.65,12.92-2.37,19.38-3.55c6.29-1.15,12.58-2.3,18.87-3.46,6.05-1.11,12.1-2.22,18.15-3.32s11.66-2.14,17.49-3.2,11.2-2.05,16.8-3.08c5.36-.98,10.72-1.96,16.08-2.95s10.22-1.87,15.33-2.81,9.7-1.78,14.55-2.67,9.21-1.69,13.81-2.53c4.3-.79,8.6-1.58,12.91-2.36,4.01-.74,8.03-1.47,12.04-2.21,3.71-.68,7.43-1.36,11.14-2.04l10.21-1.87c3.09-.57,6.17-1.13,9.26-1.7,2.76-.5,5.51-1.01,8.27-1.51l7.25-1.33,6.23-1.14,5.12-.94,4.02-.74,2.88-.53,1.71-.31c.17-.03.35-.06.52-.1,1.2-.22,1.87-1.67,1.57-2.77-.35-1.26-1.57-1.79-2.77-1.57-.2.04-.4.07-.61.11l-1.8.33-2.96.54-4.12.76c-1.74.32-3.47.64-5.21.95l-6.28,1.15-7.33,1.34-8.34,1.53c-3.11.57-6.22,1.14-9.33,1.71-3.43.63-6.85,1.26-10.28,1.88l-11.26,2.06c-4.04.74-8.07,1.48-12.11,2.22-4.32.79-8.65,1.58-12.97,2.38-4.6.84-9.2,1.69-13.81,2.53-4.87.89-9.74,1.78-14.61,2.68l-15.39,2.82c-5.13.94-10.76,1.97-16.13,2.96-5.62,1.03-11.23,2.06-16.85,3.09-5.87,1.08-11.75,2.15-17.62,3.23s-12.13,2.22-18.2,3.33-12.55,2.3-18.82,3.45c-6.47,1.19-12.95,2.37-19.42,3.56-6.66,1.22-13.32,2.44-19.98,3.66-6.84,1.25-13.68,2.51-20.52,3.76s-14.02,2.57-21.03,3.85c-7.2,1.32-14.41,2.64-21.61,3.96-7.32,1.34-14.64,2.68-21.95,4.02s-14.91,2.73-22.37,4.1c-7.59,1.39-15.17,2.78-22.76,4.17l-23.12,4.23c-7.81,1.43-15.63,2.86-23.44,4.29s-15.83,2.9-23.74,4.35-16.08,2.95-24.13,4.42c-8.08,1.48-16.17,2.96-24.25,4.44-8.15,1.49-16.3,2.99-24.46,4.48s-16.42,3.01-24.63,4.51-16.52,3.03-24.78,4.54-16.6,3.04-24.9,4.56-16.66,3.05-24.99,4.58-16.78,3.07-25.17,4.61-16.72,3.06-25.08,4.59-16.72,3.06-25.08,4.59c-8.35,1.53-16.7,3.06-25.04,4.59s-16.66,3.05-24.98,4.58c-8.3,1.52-16.6,3.04-24.89,4.56-8.26,1.51-16.52,3.03-24.77,4.54s-16.41,3.01-24.62,4.51c-8.19,1.5-16.37,3-24.56,4.5l-24.23,4.44c-8,1.46-15.99,2.93-23.99,4.39-7.91,1.45-15.81,2.9-23.72,4.35s-15.61,2.86-23.42,4.29c-7.7,1.41-15.39,2.82-23.09,4.23-7.58,1.39-15.15,2.78-22.73,4.16s-14.97,2.74-22.45,4.11-14.61,2.68-21.92,4.02-14.31,2.62-21.47,3.93-13.99,2.56-20.99,3.85l-20.48,3.75c-6.65,1.22-13.3,2.44-19.94,3.65s-12.92,2.37-19.38,3.55l-18.87,3.46c-6.05,1.11-12.1,2.22-18.15,3.32s-11.66,2.14-17.49,3.2-11.2,2.05-16.8,3.08c-5.36.98-10.72,1.96-16.08,2.95s-10.22,1.87-15.33,2.81c-4.85.89-9.7,1.78-14.55,2.67s-9.21,1.69-13.81,2.53c-4.3.79-8.6,1.58-12.91,2.36-4.01.74-8.03,1.47-12.04,2.21-3.71.68-7.43,1.36-11.14,2.04l-10.21,1.87c-3.09.57-6.17,1.13-9.26,1.7-2.76.5-5.51,1.01-8.27,1.51-2.42.44-4.83.89-7.25,1.33l-6.23,1.14-5.12.94-4.02.74-2.88.53-1.71.31c-.17.03-.35.06-.52.1-1.2.22-1.87,1.67-1.57,2.77.35,1.26,1.57,1.79,2.77,1.57h0Z"/>
          </g>
          <g class="st4">
            <path class="st0" d="M-102,560.43c.2,0,.41-.02.61-.03l1.81-.08,2.98-.14,4.12-.19,5.23-.24,6.32-.29,7.37-.34c2.8-.13,5.59-.26,8.39-.39,3.13-.14,6.25-.29,9.38-.43,3.45-.16,6.89-.32,10.34-.48l11.27-.52,12.17-.56c4.37-.2,8.74-.4,13.11-.61,4.63-.21,9.26-.43,13.89-.64,4.9-.23,9.8-.45,14.7-.68,5.16-.24,10.32-.48,15.48-.72l16.23-.75c5.65-.26,11.3-.52,16.95-.78,5.88-.27,11.76-.54,17.64-.82,6.1-.28,12.2-.56,18.3-.85s12.62-.58,18.93-.87c6.51-.3,13.02-.6,19.53-.9s13.4-.62,20.1-.93,13.76-.64,20.64-.95,14.1-.65,21.15-.98,14.42-.67,21.63-1,14.72-.68,22.08-1.02c7.5-.35,15-.69,22.5-1.04s15.26-.71,22.89-1.06c7.75-.36,15.5-.72,23.25-1.07,7.86-.36,15.72-.73,23.57-1.09s15.92-.74,23.87-1.1l24.14-1.12c8.13-.38,16.26-.75,24.38-1.13l24.59-1.14c8.26-.38,16.51-.76,24.77-1.14,8.31-.38,16.61-.77,24.92-1.15s16.69-.77,25.04-1.16c8.42-.39,16.84-.78,25.25-1.17s16.79-.78,25.19-1.16c8.41-.39,16.81-.78,25.22-1.17s16.81-.78,25.22-1.17,16.79-.78,25.18-1.16,16.75-.77,25.12-1.16,16.69-.77,25.03-1.16,16.61-.77,24.91-1.15,16.51-.76,24.76-1.14,16.39-.76,24.58-1.14,16.24-.75,24.37-1.13l24.12-1.12c7.95-.37,15.9-.74,23.85-1.1,7.85-.36,15.7-.73,23.55-1.09,7.74-.36,15.48-.72,23.22-1.07s15.24-.7,22.86-1.06,14.98-.69,22.47-1.04c7.49-.35,14.7-.68,22.04-1.02s14.39-.67,21.59-1c7.04-.33,14.07-.65,21.11-.98l20.6-.95c6.69-.31,13.37-.62,20.06-.93s12.99-.6,19.48-.9,12.59-.58,18.88-.87c6.08-.28,12.17-.56,18.25-.84s11.72-.54,17.59-.81,11.32-.52,16.98-.78l16.17-.75,15.42-.71c4.88-.23,9.76-.45,14.63-.68,4.61-.21,9.21-.43,13.82-.64l12.98-.6c4.03-.19,8.07-.37,12.1-.56l11.2-.52,10.27-.47c3.1-.14,6.2-.29,9.31-.43,2.77-.13,5.54-.26,8.31-.38l7.29-.34c2.08-.1,4.16-.19,6.24-.29l5.15-.24,4.04-.19,2.9-.13,1.72-.08c.17,0,.35-.02.52-.02,2.88-.13,2.9-4.63,0-4.5-.2,0-.41.02-.61.03l-1.81.08-2.98.14-4.12.19-5.23.24-6.32.29-7.37.34-8.39.39c-3.13.14-6.25.29-9.38.43-3.45.16-6.89.32-10.34.48-3.76.17-7.51.35-11.27.52-4.06.19-8.11.38-12.17.56-4.37.2-8.74.4-13.11.61l-13.89.64c-4.9.23-9.8.45-14.7.68-5.16.24-10.32.48-15.48.72s-10.82.5-16.23.75-11.3.52-16.95.78c-5.88.27-11.76.54-17.64.82-6.1.28-12.2.56-18.3.85s-12.62.58-18.93.87c-6.51.3-13.02.6-19.53.9s-13.4.62-20.1.93-13.76.64-20.64.95-14.1.65-21.15.98-14.42.67-21.63,1-14.72.68-22.08,1.02-15,.69-22.5,1.04-15.26.71-22.89,1.06c-7.75.36-15.5.72-23.25,1.07-7.86.36-15.72.73-23.57,1.09s-15.92.74-23.87,1.1c-8.05.37-16.1.74-24.14,1.12s-16.26.75-24.38,1.13-16.39.76-24.59,1.14-16.51.76-24.77,1.14l-24.92,1.15c-8.35.39-16.69.77-25.04,1.16s-16.84.78-25.25,1.17-16.79.78-25.19,1.16-16.81.78-25.22,1.17-16.81.78-25.22,1.17-16.79.78-25.18,1.16-16.75.77-25.12,1.16-16.69.77-25.03,1.16-16.61.77-24.91,1.15-16.51.76-24.76,1.14-16.39.76-24.58,1.14-16.24.75-24.37,1.13c-8.04.37-16.08.74-24.12,1.12s-15.9.74-23.85,1.1c-7.85.36-15.7.73-23.55,1.09s-15.48.72-23.22,1.07c-7.62.35-15.24.7-22.86,1.06-7.49.35-14.98.69-22.47,1.04s-14.7.68-22.04,1.02-14.39.67-21.59,1-14.07.65-21.11.98-13.73.63-20.6.95-13.37.62-20.06.93-12.99.6-19.48.9l-18.88.87c-6.08.28-12.17.56-18.25.84s-11.72.54-17.59.81c-5.66.26-11.32.52-16.98.78s-10.78.5-16.17.75c-5.14.24-10.28.48-15.42.71s-9.76.45-14.63.68c-4.61.21-9.21.43-13.82.64-4.33.2-8.65.4-12.98.6l-12.1.56c-3.73.17-7.47.35-11.2.52-3.42.16-6.85.32-10.27.47-3.1.14-6.2.29-9.31.43-2.77.13-5.54.26-8.31.38l-7.29.34c-2.08.1-4.16.19-6.24.29l-5.15.24-4.04.19-2.9.13-1.72.08c-.17,0-.35.02-.52.02-2.88.13-2.9,4.63,0,4.5h0Z"/>
          </g>
        </g>
        <g>
          <g class="st4">
            <path class="st2" d="M-101.4,560.35c.2-.08.41-.16.61-.24l1.81-.7,2.98-1.15,4.12-1.59,5.23-2.02,6.31-2.44c2.45-.95,4.91-1.9,7.36-2.85l8.38-3.24c3.11-1.2,6.21-2.41,9.32-3.61,3.44-1.33,6.88-2.66,10.32-4,3.75-1.45,7.5-2.9,11.25-4.36,4.05-1.57,8.1-3.14,12.15-4.7,4.34-1.68,8.68-3.36,13.02-5.04,4.62-1.79,9.24-3.58,13.86-5.37,4.89-1.89,9.78-3.79,14.67-5.68l15.45-5.98c5.4-2.09,10.8-4.18,16.2-6.27,5.64-2.18,11.28-4.37,16.92-6.55l17.61-6.82,18.27-7.07c6.3-2.44,12.6-4.88,18.9-7.32l19.4-7.51c6.69-2.59,13.37-5.18,20.06-7.77s13.73-5.32,20.6-7.98c7.04-2.72,14.07-5.45,21.11-8.17s14.39-5.57,21.59-8.36c7.35-2.84,14.69-5.69,22.04-8.53s14.97-5.8,22.46-8.69c7.62-2.95,15.23-5.9,22.85-8.85s15.47-5.99,23.21-8.98,15.69-6.07,23.53-9.11c7.94-3.08,15.89-6.15,23.83-9.23s16.07-6.22,24.1-9.33c8.11-3.14,16.23-6.28,24.34-9.42,8.11-3.14,16.37-6.34,24.55-9.5l24.73-9.57,24.88-9.63c8.29-3.21,16.59-6.42,24.88-9.63,8.36-3.24,16.72-6.47,25.09-9.71s16.76-6.49,25.15-9.73,16.78-6.5,25.17-9.75c8.39-3.25,16.78-6.5,25.17-9.75s16.76-6.49,25.14-9.73c8.36-3.24,16.72-6.47,25.08-9.71,8.33-3.22,16.66-6.45,24.99-9.67s16.58-6.42,24.87-9.63c8.24-3.19,16.48-6.38,24.72-9.57s16.36-6.33,24.54-9.5,16.22-6.28,24.32-9.42c8.03-3.11,16.06-6.22,24.08-9.32s15.8-6.12,23.7-9.18,15.67-6.07,23.51-9.1,15.45-5.98,23.18-8.97,15.21-5.89,22.82-8.83c7.48-2.89,14.95-5.79,22.43-8.68,7.34-2.84,14.67-5.68,22.01-8.52,7.18-2.78,14.37-5.56,21.55-8.34,7.02-2.72,14.05-5.44,21.07-8.16s13.71-5.31,20.56-7.96,13.35-5.17,20.02-7.75,12.97-5.02,19.45-7.53,12.56-4.86,18.85-7.3,12.14-4.7,18.22-7.05,11.7-4.53,17.55-6.8,11.24-4.35,16.86-6.53,10.71-4.15,16.07-6.22,10.26-3.97,15.39-5.96,9.74-3.77,14.61-5.66c4.6-1.78,9.2-3.56,13.8-5.34,4.32-1.67,8.64-3.34,12.96-5.02,4.03-1.56,8.06-3.12,12.09-4.68,3.73-1.44,7.46-2.89,11.18-4.33,3.42-1.32,6.83-2.65,10.25-3.97,3.1-1.2,6.19-2.4,9.29-3.6l8.3-3.21,7.28-2.82,6.22-2.41,5.14-1.99,4.01-1.55,2.89-1.12,1.72-.67c.17-.07.35-.14.52-.2,1.13-.44,1.92-1.51,1.57-2.77-.3-1.08-1.63-2.01-2.77-1.57-.2.08-.41.16-.61.24l-1.81.7-2.98,1.15-4.12,1.59-5.23,2.02-6.31,2.44c-2.45.95-4.91,1.9-7.36,2.85-2.79,1.08-5.58,2.16-8.38,3.24-3.11,1.2-6.21,2.41-9.32,3.61l-10.32,4-11.25,4.36c-4.05,1.57-8.1,3.14-12.15,4.7-4.34,1.68-8.68,3.36-13.02,5.04l-13.86,5.37c-4.89,1.89-9.78,3.79-14.67,5.68l-15.45,5.98-16.2,6.27c-5.64,2.18-11.28,4.37-16.92,6.55s-11.74,4.54-17.61,6.82-12.18,4.71-18.27,7.07l-18.9,7.32c-6.47,2.5-12.94,5.01-19.4,7.51s-13.37,5.18-20.06,7.77c-6.69,2.59-13.73,5.32-20.6,7.98-7.04,2.72-14.07,5.45-21.11,8.17s-14.39,5.57-21.59,8.36c-7.35,2.84-14.69,5.69-22.04,8.53s-14.97,5.8-22.46,8.69-15.23,5.9-22.85,8.85c-7.74,2.99-15.47,5.99-23.21,8.98s-15.69,6.07-23.53,9.11-15.89,6.15-23.83,9.23-16.07,6.22-24.1,9.33-16.23,6.28-24.34,9.42-16.37,6.34-24.55,9.5-16.49,6.38-24.73,9.57c-8.29,3.21-16.59,6.42-24.88,9.63s-16.59,6.42-24.88,9.63-16.72,6.47-25.09,9.71c-8.38,3.24-16.76,6.49-25.15,9.73-8.39,3.25-16.78,6.5-25.17,9.75s-16.78,6.5-25.17,9.75-16.76,6.49-25.14,9.73-16.72,6.47-25.08,9.71c-8.33,3.22-16.66,6.45-24.99,9.67s-16.58,6.42-24.87,9.63-16.48,6.38-24.72,9.57-16.36,6.33-24.54,9.5-16.22,6.28-24.32,9.42-16.06,6.22-24.08,9.32-15.8,6.12-23.7,9.18-15.67,6.07-23.51,9.1c-7.73,2.99-15.45,5.98-23.18,8.97s-15.21,5.89-22.82,8.83-14.95,5.79-22.43,8.68-14.67,5.68-22.01,8.52c-7.18,2.78-14.37,5.56-21.55,8.34-7.02,2.72-14.05,5.44-21.07,8.16s-13.71,5.31-20.56,7.96-13.35,5.17-20.02,7.75c-6.48,2.51-12.97,5.02-19.45,7.53s-12.56,4.86-18.85,7.3-12.14,4.7-18.22,7.05c-5.85,2.27-11.7,4.53-17.55,6.8-5.62,2.18-11.24,4.35-16.86,6.53s-10.71,4.15-16.07,6.22c-5.13,1.99-10.26,3.97-15.39,5.96s-9.74,3.77-14.61,5.66c-4.6,1.78-9.2,3.56-13.8,5.34-4.32,1.67-8.64,3.34-12.96,5.02-4.03,1.56-8.06,3.12-12.09,4.68-3.73,1.44-7.46,2.89-11.18,4.33l-10.25,3.97c-3.1,1.2-6.19,2.4-9.29,3.6-2.77,1.07-5.53,2.14-8.3,3.21l-7.28,2.82-6.22,2.41-5.14,1.99-4.01,1.55-2.89,1.12-1.72.67c-.17.07-.35.14-.52.2-1.13.44-1.92,1.51-1.57,2.77.3,1.08,1.63,2.01,2.77,1.57h0Z"/>
          </g>
          <g class="st4">
            <path class="st2" d="M-102,560.43l.61-.07,1.81-.21,2.98-.34,4.1-.47,5.23-.6,6.31-.72,7.36-.84c2.8-.32,5.59-.64,8.39-.96,3.13-.36,6.25-.72,9.38-1.07l10.28-1.18c3.75-.43,7.51-.86,11.26-1.29,4.06-.46,8.11-.93,12.17-1.39,4.35-.5,8.69-.99,13.04-1.49,4.63-.53,9.25-1.06,13.88-1.59,4.9-.56,9.79-1.12,14.69-1.68,5.16-.59,10.31-1.18,15.47-1.77l16.14-1.85c5.65-.65,11.29-1.29,16.94-1.94s11.75-1.34,17.63-2.02,12.19-1.39,18.29-2.09c6.31-.72,12.61-1.44,18.92-2.16s13.01-1.49,19.52-2.23c6.66-.76,13.33-1.52,19.99-2.29,6.88-.79,13.75-1.57,20.63-2.36l21.14-2.42c7.21-.82,14.41-1.65,21.62-2.47s14.71-1.68,22.07-2.52c7.5-.86,14.99-1.71,22.49-2.57,7.59-.87,15.17-1.74,22.76-2.6l23.23-2.66c7.85-.9,15.71-1.8,23.56-2.7,7.95-.91,15.91-1.82,23.86-2.73l24.13-2.76,24.37-2.79c8.19-.94,16.39-1.87,24.58-2.81s16.43-1.88,24.64-2.82c8.3-.95,16.61-1.9,24.91-2.85s16.69-1.91,25.03-2.86,16.74-1.92,25.12-2.87c8.39-.96,16.78-1.92,25.18-2.88s16.8-1.92,25.2-2.88,16.72-1.91,25.08-2.87,16.78-1.92,25.17-2.88,16.74-1.92,25.11-2.87c8.34-.95,16.68-1.91,25.02-2.86s16.6-1.9,24.9-2.85c8.25-.94,16.5-1.89,24.75-2.83s16.38-1.87,24.57-2.81c8.08-.92,16.16-1.85,24.23-2.77s16.08-1.84,24.11-2.76,15.89-1.82,23.84-2.73,15.69-1.8,23.54-2.69,15.47-1.77,23.21-2.65,15.23-1.74,22.85-2.61,14.9-1.7,22.34-2.56,14.69-1.68,22.03-2.52c7.19-.82,14.39-1.65,21.58-2.47s14.07-1.61,21.1-2.41,13.72-1.57,20.59-2.36,13.36-1.53,20.04-2.29,12.98-1.49,19.47-2.23l18.78-2.15c6.08-.7,12.16-1.39,18.24-2.09s11.72-1.34,17.58-2.01c5.63-.64,11.26-1.29,16.88-1.93s10.77-1.23,16.16-1.85c5.14-.59,10.27-1.18,15.41-1.76,4.85-.56,9.7-1.11,14.56-1.67s9.21-1.05,13.82-1.58c4.32-.49,8.65-.99,12.97-1.48l12.1-1.38c3.73-.43,7.46-.85,11.2-1.28l10.26-1.17,9.26-1.06c2.77-.32,5.54-.63,8.31-.95l7.29-.83c2.08-.24,4.16-.48,6.23-.71l5.15-.59,4.04-.46,2.89-.33,1.71-.2c.17-.02.35-.04.52-.06,1.21-.14,2.25-.94,2.25-2.25,0-1.11-1.03-2.39-2.25-2.25-.2.02-.41.05-.61.07l-1.81.21-2.98.34-4.1.47-5.23.6-6.31.72-7.36.84-8.39.96-9.38,1.07-10.28,1.18-11.26,1.29c-4.06.46-8.11.93-12.17,1.39-4.35.5-8.69.99-13.04,1.49-4.63.53-9.25,1.06-13.88,1.59-4.9.56-9.79,1.12-14.69,1.68-5.16.59-10.31,1.18-15.47,1.77s-10.76,1.23-16.14,1.85c-5.65.65-11.29,1.29-16.94,1.94l-17.63,2.02c-6.1.7-12.19,1.39-18.29,2.09-6.31.72-12.61,1.44-18.92,2.16s-13.01,1.49-19.52,2.23c-6.66.76-13.33,1.52-19.99,2.29-6.88.79-13.75,1.57-20.63,2.36l-21.14,2.42c-7.21.82-14.41,1.65-21.62,2.47-7.36.84-14.71,1.68-22.07,2.52-7.5.86-14.99,1.71-22.49,2.57s-15.17,1.74-22.76,2.6l-23.23,2.66c-7.85.9-15.71,1.8-23.56,2.7-7.95.91-15.91,1.82-23.86,2.73-8.04.92-16.09,1.84-24.13,2.76-8.12.93-16.25,1.86-24.37,2.79s-16.39,1.87-24.58,2.81-16.43,1.88-24.64,2.82c-8.3.95-16.61,1.9-24.91,2.85s-16.69,1.91-25.03,2.86-16.74,1.92-25.12,2.87c-8.39.96-16.78,1.92-25.18,2.88s-16.8,1.92-25.2,2.88-16.72,1.91-25.08,2.87-16.78,1.92-25.17,2.88-16.74,1.92-25.11,2.87-16.68,1.91-25.02,2.86-16.6,1.9-24.9,2.85c-8.25.94-16.5,1.89-24.75,2.83s-16.38,1.87-24.57,2.81c-8.08.92-16.16,1.85-24.23,2.77s-16.08,1.84-24.11,2.76c-7.95.91-15.89,1.82-23.84,2.73s-15.69,1.8-23.54,2.69-15.47,1.77-23.21,2.65-15.23,1.74-22.85,2.61-14.9,1.7-22.34,2.56c-7.34.84-14.69,1.68-22.03,2.52-7.19.82-14.39,1.65-21.58,2.47s-14.07,1.61-21.1,2.41-13.72,1.57-20.59,2.36-13.36,1.53-20.04,2.29-12.98,1.49-19.47,2.23c-6.26.72-12.52,1.43-18.78,2.15-6.08.7-12.16,1.39-18.24,2.09s-11.72,1.34-17.58,2.01-11.26,1.29-16.88,1.93-10.77,1.23-16.16,1.85-10.27,1.18-15.41,1.76l-14.56,1.67c-4.61.53-9.21,1.05-13.82,1.58-4.32.49-8.65.99-12.97,1.48-4.03.46-8.07.92-12.1,1.38-3.73.43-7.46.85-11.2,1.28l-10.26,1.17c-3.09.35-6.17.71-9.26,1.06l-8.31.95-7.29.83-6.23.71-5.15.59-4.04.46-2.89.33-1.71.2-.52.06c-1.21.14-2.25.94-2.25,2.25,0,1.11,1.03,2.39,2.25,2.25h0Z"/>
          </g>
          <g class="st4">
            <path class="st2" d="M-101.4,560.35c.2-.05.41-.1.61-.15l1.8-.45,2.98-.75,4.1-1.03,5.23-1.31c2.11-.53,4.21-1.06,6.32-1.58l7.33-1.84,8.39-2.1,9.33-2.34c3.45-.86,6.89-1.73,10.34-2.59,3.76-.94,7.51-1.88,11.27-2.83,4.04-1.01,8.08-2.03,12.11-3.04,4.35-1.09,8.69-2.18,13.04-3.27,4.6-1.15,9.21-2.31,13.81-3.46,4.9-1.23,9.79-2.46,14.69-3.68,5.16-1.29,10.32-2.59,15.47-3.88,5.38-1.35,10.76-2.7,16.15-4.05,5.65-1.42,11.3-2.83,16.94-4.25,5.88-1.47,11.76-2.95,17.63-4.42s12.14-3.04,18.21-4.57c6.31-1.58,12.62-3.16,18.92-4.75l19.43-4.87c6.7-1.68,13.4-3.36,20.09-5.04s13.76-3.45,20.63-5.18,14.03-3.52,21.04-5.28,14.42-3.62,21.62-5.42,14.64-3.67,21.97-5.51,15-3.76,22.49-5.64,15.26-3.83,22.88-5.74,15.42-3.87,23.13-5.8c7.86-1.97,15.71-3.94,23.57-5.91s15.84-3.97,23.76-5.96,16.09-4.04,24.14-6.05c8.13-2.04,16.25-4.08,24.38-6.12s16.31-4.09,24.47-6.14,16.51-4.14,24.77-6.21c8.27-2.07,16.53-4.15,24.8-6.22s16.69-4.19,25.04-6.28,16.75-4.2,25.13-6.3,16.71-4.19,25.06-6.29,16.81-4.22,25.21-6.32,16.73-4.2,25.09-6.29c8.39-2.11,16.79-4.21,25.18-6.32,8.37-2.1,16.75-4.2,25.12-6.3s16.61-4.17,24.91-6.25,16.6-4.16,24.91-6.25,16.42-4.12,24.64-6.18,16.38-4.11,24.57-6.16,16.24-4.07,24.36-6.11,16-4.01,24.01-6.02c7.95-1.99,15.9-3.99,23.85-5.98,7.81-1.96,15.62-3.92,23.44-5.88s15.48-3.88,23.22-5.82c7.62-1.91,15.24-3.82,22.85-5.73s14.9-3.74,22.35-5.61,14.69-3.69,22.04-5.53c7.2-1.8,14.39-3.61,21.59-5.41s14-3.51,21-5.27c6.86-1.72,13.73-3.44,20.59-5.17s13.3-3.34,19.96-5.01c6.49-1.63,12.99-3.26,19.48-4.89s12.58-3.16,18.88-4.73,12.1-3.04,18.16-4.55,11.72-2.94,17.58-4.41,11.21-2.81,16.81-4.22,10.78-2.7,16.17-4.06,10.28-2.58,15.41-3.87c4.85-1.22,9.71-2.43,14.56-3.65s9.21-2.31,13.82-3.47c4.3-1.08,8.61-2.16,12.91-3.24,4.03-1.01,8.07-2.02,12.1-3.04,3.73-.94,7.47-1.87,11.2-2.81,3.41-.85,6.81-1.71,10.22-2.56,3.1-.78,6.2-1.56,9.31-2.33l8.27-2.07,7.29-1.83,6.23-1.56,5.13-1.29,4.04-1.01,2.88-.72,1.72-.43c.17-.04.35-.09.52-.13,2.81-.7,1.62-5.05-1.2-4.34-.2.05-.41.1-.61.15l-1.8.45-2.98.75-4.1,1.03-5.23,1.31-6.32,1.58-7.33,1.84c-2.8.7-5.59,1.4-8.39,2.1l-9.33,2.34c-3.45.86-6.89,1.73-10.34,2.59-3.76.94-7.51,1.88-11.27,2.83-4.04,1.01-8.08,2.03-12.11,3.04-4.35,1.09-8.69,2.18-13.04,3.27-4.6,1.15-9.21,2.31-13.81,3.46-4.9,1.23-9.79,2.46-14.69,3.68-5.16,1.29-10.32,2.59-15.47,3.88l-16.15,4.05c-5.65,1.42-11.3,2.83-16.94,4.25-5.88,1.47-11.76,2.95-17.63,4.42s-12.14,3.04-18.21,4.57-12.62,3.16-18.92,4.75-12.95,3.25-19.43,4.87c-6.7,1.68-13.4,3.36-20.09,5.04s-13.76,3.45-20.63,5.18-14.03,3.52-21.04,5.28-14.42,3.62-21.62,5.42-14.64,3.67-21.97,5.51-15,3.76-22.49,5.64-15.26,3.83-22.88,5.74-15.42,3.87-23.13,5.8c-7.86,1.97-15.71,3.94-23.57,5.91s-15.84,3.97-23.76,5.96-16.09,4.04-24.14,6.05-16.25,4.08-24.38,6.12-16.31,4.09-24.47,6.14-16.51,4.14-24.77,6.21c-8.27,2.07-16.53,4.15-24.8,6.22s-16.69,4.19-25.04,6.28c-8.38,2.1-16.75,4.2-25.13,6.3s-16.71,4.19-25.06,6.29-16.81,4.22-25.21,6.32-16.73,4.2-25.09,6.29c-8.39,2.11-16.79,4.21-25.18,6.32-8.37,2.1-16.75,4.2-25.12,6.3-8.3,2.08-16.61,4.17-24.91,6.25s-16.6,4.16-24.91,6.25c-8.21,2.06-16.42,4.12-24.64,6.18-8.19,2.05-16.38,4.11-24.57,6.16s-16.24,4.07-24.36,6.11c-8,2.01-16,4.01-24.01,6.02-7.95,1.99-15.9,3.99-23.85,5.98-7.81,1.96-15.62,3.92-23.44,5.88s-15.48,3.88-23.22,5.82c-7.62,1.91-15.24,3.82-22.85,5.73-7.45,1.87-14.9,3.74-22.35,5.61-7.35,1.84-14.69,3.69-22.04,5.53s-14.39,3.61-21.59,5.41-14,3.51-21,5.27c-6.86,1.72-13.73,3.44-20.59,5.17s-13.3,3.34-19.96,5.01c-6.49,1.63-12.99,3.26-19.48,4.89-6.29,1.58-12.58,3.16-18.88,4.73s-12.1,3.04-18.16,4.55-11.72,2.94-17.58,4.41-11.21,2.81-16.81,4.22-10.78,2.7-16.17,4.06c-5.14,1.29-10.28,2.58-15.41,3.87-4.85,1.22-9.71,2.43-14.56,3.65s-9.21,2.31-13.82,3.47c-4.3,1.08-8.61,2.16-12.91,3.24-4.03,1.01-8.07,2.02-12.1,3.04-3.73.94-7.47,1.87-11.2,2.81l-10.22,2.56-9.31,2.33-8.27,2.07-7.29,1.83c-2.08.52-4.16,1.04-6.23,1.56l-5.13,1.29-4.04,1.01-2.88.72-1.72.43c-.17.04-.35.09-.52.13-2.81.7-1.62,5.05,1.2,4.34h0Z"/>
          </g>
        </g>
      </g>
    </g>
  </g>
</svg>