<?xml version="1.0" encoding="UTF-8"?>
<svg id="Layer_2" xmlns="http://www.w3.org/2000/svg" version="1.1" viewBox="0 0 598.43 745.54">
  <!-- Generator: Adobe Illustrator 29.7.1, SVG Export Plug-In . SVG Version: 2.1.1 Build 8)  -->
  <defs>
    <style>
      .st0 {
        fill: #c6496e;
      }

      .st1 {
        fill: #48cbc6;
      }

      .st2 {
        fill: #282935;
      }

      .st3 {
        fill: #d34b73;
      }

      .st4 {
        fill: #49ccc6;
      }

      .st5 {
        fill: #fff;
      }

      .st6 {
        fill: #ebc5b7;
      }

      .st7 {
        opacity: .4;
      }

      .st8 {
        fill: none;
      }

      .st9 {
        fill: #f2d9cf;
      }

      .st10 {
        fill: #ea507c;
      }

      .st11 {
        fill: #ec517c;
      }

      .st12 {
        fill: #eb517c;
      }

      .st13 {
        fill: #e44f79;
      }

      .st14 {
        fill: #b04467;
      }

      .st15 {
        fill: #49cdc7;
      }

      .st16 {
        fill: #ed517f;
      }

      .st17 {
        fill: #eec7b9;
      }

      .st18 {
        fill: #2c2d38;
      }

      .st19 {
        fill: #eb5a3c;
      }

      .st20 {
        fill: #f5c41e;
      }

      .st21 {
        fill: #f0d7cd;
      }

      .st22 {
        fill: #db4d76;
      }

      .st23 {
        fill: #edc6b8;
      }

      .st24 {
        fill: #eed6cc;
      }

      .st25 {
        fill: #f1d8ce;
      }

      .st26 {
        fill: #ed517d;
      }

      .st27 {
        fill: #2b2c3a;
      }
    </style>
  </defs>
  <g id="Type_1">
    <g>
      <g>
        <g>
          <g>
            <g>
              <path class="st26" d="M596.01,463.04c-7.53-6.84-15.06-13.69-22.58-20.53-6.08-5.53-12.53-10.64-18.86-15.87l-9.54-7.89c5.39-8.16,10.78-16.33,16.17-24.49.44-.67.88-1.33,1.32-2,.05-.07.09-.14.14-.22.99-.83,1.82-2.09,2.66-3.05,4.22-4.79,8.44-9.58,12.65-14.37,3.15-3.57,6.81-8.21,9.96-11.78,1.21-1.37-6.22-9.43-8-10-10.31-3.31-14.19.43-24.5-2.88-8.29-2.66-16.56-5.38-24.84-8.07-4.09-1.33-8.17-2.66-12.26-4,2.48-9.62,4.96-19.25,7.44-28.87.24-.92.47-1.83.71-2.75.06-.24.41-1.02.32-1.26h0l.07-.15c.33-.78.66-1.56.99-2.34,2.47-5.83,4.94-11.66,7.41-17.49,1.93-4.56,3.86-9.12,5.79-13.67.67-1.57-6.14-10.56-8.15-10.51-10.37.27-14.67,7.44-25.04,7.71-8.32.22-16.61-.23-24.92-.52-4.25-.15-8.49-.3-12.74-.45-1.25-9.4-2.51-18.79-3.76-28.19-.14-1.06-.36-2.14-.43-3.21-.08-1.25.02-2.54.03-3.79.05-6.24.1-12.47.15-18.71.04-4.7.08-9.4.11-14.1.01-1.39-6.95-10.36-8.41-9.74-9.95,4.19-14.52,15.82-24.46,20.01-8.11,3.42-16.33,6.59-24.5,9.84-4.01,1.59-8.01,3.19-12.02,4.78-3.69-8.84-7.39-17.68-11.08-26.51-3.21-7.68-6.2-15.45-9.24-23.2-1.82-4.63-3.64-9.27-5.45-13.9-.03-.06-.06-.12-.09-.19-.12-.33-.3-.64-.53-.87-.39-.39-.83-.59-1.28-.66-.33-.06-.68-.06-1.05.04-.33.09-.64.28-.91.52-.05.03-.1.06-.15.1-7.96,6.19-15.91,12.38-23.87,18.57-6.48,5.04-12.7,10.42-19.01,15.68-2.96,2.47-5.93,4.94-8.89,7.41-6.5-6.96-13.01-13.93-19.51-20.89-5.71-6.11-11.51-12.12-17.29-18.17-3.29-3.45-6.59-6.9-9.88-10.35-1.13-1.18-2.92-.75-3.76.49-6.06,8.84-12.12,17.69-18.18,26.53-.72,1.06-1.61,2.1-2.1,3.29-.49,1.18-.97,2.37-1.45,3.56-2.43,5.97-4.86,11.94-7.29,17.91-1.49,3.66-2.97,7.31-4.46,10.97-8.75-4.61-17.5-9.22-26.25-13.82-7.66-4.03-14.99-8.64-22.42-13.09-4.36-2.61-8.72-5.22-13.09-7.83-1.69-1.01-3.42.34-3.61,2.07-1.13,10.59-2.26,21.18-3.38,31.77-.13,1.2-.49,2.62-.43,3.85-.02.12-.04.24-.06.36-.15.83-.3,1.66-.45,2.5-1.12,6.24-2.24,12.48-3.36,18.72-.74,4.12-1.48,8.24-2.22,12.36-9.89-1.71-19.78-3.42-29.66-5.13-8.77-1.52-17.54-2.95-26.32-4.41-4.96-.83-9.92-1.65-14.88-2.48-1.72-.29-3.5,1.05-2.95,2.95,3.01,10.39,6.03,20.79,9.04,31.18.72,2.48,1.39,4.77,1.74,7.31.84,6.13,1.68,12.27,2.52,18.4.58,4.28,1.17,8.55,1.75,12.83-9.47,2.69-18.94,5.37-28.41,8.06-2.4.68-4.64,1.32-7.1,1.66-6.04.85-12.08,1.7-18.11,2.54-4.89.69-9.78,1.37-14.66,2.06-1.52.21-2.2,2.35-1.43,3.52l17.19,26.34c4.67,7.16,8.49,14.85,12.6,22.34,1.95,3.57,3.91,7.13,5.86,10.7-8.41,4.62-16.82,9.23-25.23,13.85-2.13,1.17-4.21,2.23-6.14,3.7-4.69,3.55-9.37,7.11-14.06,10.66-3.89,2.95-10.14-.86-14.03,2.09-1.19.91.67,9.34,1.88,10.52,7.36,7.2,14.72,14.4,22.08,21.6.94.92,1.84,1.94,2.9,2.73.9.67,1.82,1.32,2.73,1.99,4.99,3.63,9.98,7.25,14.97,10.88,3.06,2.22,6.11,4.44,9.17,6.66-6.2,7.02-12.39,14.05-18.59,21.07-1.75,1.98-3.48,3.83-4.87,6.08-3.06,4.92-6.12,9.85-9.17,14.77-2.58,4.15-7.52-.45-10.1,3.7-.62,1,2.06,11.51,3.23,12.02,9.38,4.06,18.76,8.13,28.14,12.19,2.35,1.02,4.62,1.85,7.07,2.6,5.88,1.78,11.77,3.57,17.65,5.35,3.73,1.13,7.46,2.26,11.19,3.4-2.94,9.24-5.88,18.48-8.82,27.72-2.57,8.08.53,23.62-7.93,24.18-5.36.36-12.3-1.1-4.67,14.12.69,1.37.81,3.08,2.31,3.03,10.46-.31,20.92-.62,31.38-.93,8.57-.25,17.14-.17,25.71-.2,4.13-.02,8.25-.03,12.38-.05.42,9.73.83,19.46,1.25,29.19.36,8.47,1.88,22.78-1.91,30.36-1,2,2,6,3.02,9.87.37,1.38,1.52,2.88,3.03,2.31,9.88-3.72,19.76-7.44,29.64-11.16,8.09-3.05,16.08-6.39,24.1-9.62,3.8-1.53,7.61-3.07,11.41-4.6,2.86,9.23,5.73,18.47,8.59,27.71.79,2.55,1.49,4.96,2.71,7.33,2.73,5.31,5.45,10.63,8.18,15.94,2.28,4.45,4.56,8.89,6.85,13.34.56,1.09,2.26,1.57,3.28.86,8.5-5.92,17-11.85,25.51-17.77,1.07-.75,2.16-1.47,3.21-2.24.96-.7,1.75-1.64,2.58-2.47l12.9-12.91,8.43-8.44c6.36,7.42,12.71,14.85,19.07,22.27,5.64,6.59,11.72,12.79,17.64,19.13,3.34,3.58,6.68,7.15,10.02,10.73,1.07,1.15,2.99.8,3.76-.49,5.36-8.88,10.72-17.75,16.09-26.63,4.3-7.11,8.28-14.4,12.34-21.65,2.03-3.63,4.06-7.25,6.09-10.88,8.16,4.21,16.31,8.43,24.47,12.64,7.25,3.75,14.9,6.69,22.4,9.9,4.24,1.82,8.48,3.63,12.73,5.45,1.77.76,3.39-.14,3.61-2.07,1.19-10.35,2.37-20.69,3.56-31.04.09-.79.18-1.57.27-2.36,0-.06.02-.11.03-.16,0,.03-.01.04-.03.07.01-.03.02-.07.03-.1.04-.18.08-.33.11-.39.32-1.11.42-2.37.64-3.46,1.23-6.22,2.46-12.44,3.7-18.65.77-3.9,1.55-7.81,2.32-11.71,9.81,2.04,19.62,4.07,29.44,6.11,8.85,1.84,17.88,2.7,26.83,3.88l15.18,2c1.69.22,2.55-1.7,2.31-3.03-1.88-10.67-3.76-21.34-5.64-32-1.53-8.67-4.1-17.13-6.32-25.65l-3.13-11.96c9.36-1.01,18.72-2.03,28.08-3.04,2.69-.29,5.42-.35,7.98-1.26,5.44-1.94,10.88-3.87,16.32-5.81,4.7-1.67,9.4-3.34,14.1-5.02,1.58-.56,2.08-2.04,1.43-3.52-4.13-9.46-8.26-18.92-12.38-28.38-.39-.89-.71-1.9-1.2-2.73-.68-1.14-1.62-2.18-2.41-3.24-3.74-5.03-7.48-10.06-11.22-15.1-2.35-3.17-4.71-6.34-7.06-9.5,8.29-4.95,16.58-9.89,24.87-14.84,7.29-4.35,14.39-9.02,21.53-13.61,4.19-2.69,8.38-5.38,12.58-8.07,1.24-.79,1.67-2.68.49-3.76l.06-.03Z"/>
              <path class="st27" d="M597.25,461.8c-6.56-5.96-13.11-11.92-19.67-17.88s-13.03-11.34-19.72-16.83c-3.87-3.18-7.73-6.38-11.59-9.58l.27,2.12c3.29-4.98,6.58-9.96,9.87-14.94,1.64-2.49,3.29-4.98,4.93-7.47.76-1.16,1.53-2.32,2.29-3.47.68-1.03,1.63-1.94,2.42-2.9,3.67-4.51,7.7-8.77,11.54-13.13,3.49-3.96,6.81-8.06,10.24-12.08,1.07-1.26,2.35-2.28,1.85-4.08-.34-1.23-1.13-2.34-1.89-3.35-1.76-2.35-3.84-4.84-6.31-6.49-1.51-1.01-3.63-1.32-5.38-1.62-2.15-.37-4.31-.51-6.48-.48-4.38.06-8.54.2-12.81-1.05-6.29-1.84-12.5-4.03-18.73-6.06-6.43-2.1-12.86-4.19-19.29-6.29l1.22,2.15c1.51-5.85,3.02-11.71,4.53-17.56.74-2.89,1.49-5.77,2.23-8.66.37-1.42.73-2.83,1.1-4.25.23-.88.74-1.95.68-2.87-.1-1.53-1.83-2.29-2.99-1.24h0c.92.71,1.83,1.42,2.75,2.12,3.73-8.79,7.45-17.58,11.17-26.37.97-2.28,1.93-4.56,2.9-6.84.45-1.07.6-1.89.19-3-.85-2.32-2.47-4.39-4.01-6.28-1.25-1.53-2.95-3.74-4.99-4.23-1.55-.37-3.58.13-5.1.45-1.66.36-3.26.93-4.83,1.59-2.97,1.26-5.75,2.98-8.77,4.13-3.83,1.46-7.68,1.51-11.74,1.51-10.97,0-21.96-.64-32.92-1.03l1.75,1.75c-.84-6.26-1.67-12.53-2.51-18.79-.42-3.13-.83-6.26-1.25-9.4-.19-1.39-.44-2.75-.45-4.15-.01-1.6.06-3.21.08-4.82.05-6.15.1-12.29.15-18.44.02-3,.05-5.99.07-8.99.01-1.86.29-3.64-.61-5.32-1.41-2.65-3.51-5.16-5.62-7.29-.85-.86-1.85-1.87-3.04-2.22-1.64-.47-3.66,1.03-4.96,1.87-7.38,4.74-11.65,13.16-19.37,17.39-2.74,1.51-5.8,2.54-8.7,3.72-3.17,1.28-6.36,2.54-9.54,3.8-6.59,2.6-13.17,5.22-19.75,7.84l2.15,1.22c-7.36-17.6-14.63-35.2-21.6-52.95l-2.73-6.95c-.71-1.8-1.21-4.31-2.67-5.66s-3.69-1.35-5.28-.19c-1.81,1.32-3.55,2.75-5.32,4.12-7.53,5.86-15.14,11.63-22.58,17.61-8.21,6.61-16.21,13.49-24.31,20.24h2.47c-13.33-14.28-26.71-28.5-40.2-42.63-1.7-1.78-3.41-3.57-5.11-5.35-1.43-1.49-2.78-3.02-5.05-2.54-2.04.43-2.99,2.2-4.08,3.79-1.4,2.04-2.8,4.08-4.19,6.12-2.75,4.01-5.5,8.03-8.25,12.04-1.4,2.04-2.79,4.09-4.19,6.12-.59.85-1.23,1.67-1.78,2.55-.64,1.04-1.05,2.21-1.51,3.34-4.15,10.22-8.31,20.44-12.47,30.66l2.57-1.05c-8.89-4.68-17.8-9.34-26.68-14.05-8.66-4.6-16.97-9.85-25.38-14.88-2.11-1.26-4.22-2.53-6.33-3.79-1.78-1.07-3.85-2.89-6.06-2.54-1.94.31-3.27,1.98-3.53,3.87-.34,2.46-.53,4.96-.8,7.43-.54,5.05-1.08,10.09-1.61,15.14-.26,2.48-.53,4.96-.79,7.45-.24,2.24-.43,4.55-.83,6.76-1.94,10.85-3.89,21.69-5.84,32.54l2.15-1.22c-19.93-3.45-39.87-6.86-59.82-10.19-2.4-.4-4.8-.8-7.2-1.2-2.05-.34-4.53-1.21-6.54-.38-1.81.75-2.83,2.56-2.48,4.49.45,2.45,1.4,4.91,2.09,7.31,1.41,4.88,2.83,9.75,4.24,14.63s3.05,9.66,4.11,14.58c1.15,5.36,1.59,10.94,2.33,16.37.78,5.73,1.57,11.46,2.35,17.19l1.22-2.15c-9.54,2.71-19.09,5.42-28.63,8.12-4.61,1.3-9.24,1.93-13.97,2.6s-9.79,1.37-14.68,2.06c-2.44.34-4.89.69-7.33,1.03-1.96.28-4.37.15-5.73,1.82-1.1,1.35-1.25,3.28-.41,4.79,1.2,2.16,2.74,4.2,4.09,6.27,5.38,8.24,11.03,16.36,16.05,24.82,5.47,9.24,10.35,18.87,15.51,28.29l.63-2.39c-5,2.75-10.01,5.49-15.01,8.24s-9.85,5.1-14.51,8.04c-2.29,1.44-4.39,3.19-6.54,4.83-2.28,1.73-4.56,3.46-6.84,5.18-1.71,1.3-3.19,2.77-5.43,2.87-2,.09-3.98-.3-5.97-.3-1.84,0-4.13.36-5.52,1.71-.87.85-.93,2.18-.89,3.32.12,2.84.73,6.19,2.09,8.72.35.66.86,1.14,1.39,1.65,1.07,1.05,2.14,2.09,3.21,3.14,2.02,1.97,4.04,3.95,6.06,5.92,4.09,4,8.21,7.97,12.27,12,4.3,4.28,9.59,7.57,14.49,11.13,5.16,3.75,10.31,7.49,15.47,11.24l-.35-2.75c-3.91,4.44-7.83,8.87-11.74,13.31-3.6,4.08-7.5,8.04-10.76,12.41-1.72,2.3-3.13,4.84-4.64,7.28s-3.06,4.92-4.59,7.39c-.49.8-.99,2.06-1.82,2.59-.62.39-1.37.36-2.07.34-1.71-.05-3.41-.26-5.01.49-1.38.65-2.65,1.98-2.7,3.56-.04,1.17.24,2.4.48,3.54.56,2.71,1.21,5.7,2.53,8.15.88,1.63,2.75,2.03,4.36,2.72,2.65,1.15,5.3,2.29,7.94,3.44,5.37,2.33,10.74,4.65,16.11,6.98,5.97,2.59,12.2,4.32,18.42,6.21,6.22,1.89,12.55,3.81,18.83,5.71l-1.22-2.15c-2.09,6.58-4.18,13.16-6.28,19.73-.94,2.96-2.04,5.91-2.81,8.92-.48,1.91-.7,3.88-.86,5.84-.34,3.88-.28,7.88-1.26,11.67-.35,1.36-.86,2.77-1.87,3.65-.77.67-1.88.81-3.1.85-2.18.08-4.7,0-6.56,1.3-2.67,1.87-2.32,5.38-1.52,8.15.75,2.61,2.03,4.97,3.11,7.44.43,1,.68,2.09,1.5,2.86,1.17,1.1,2.76.84,4.22.8,6.97-.21,13.95-.41,20.92-.62,15.52-.46,31.03-.44,46.56-.5l-1.75-1.75c.45,10.48.79,20.98,1.36,31.45.42,7.75,1.32,15.98-.54,23.61-.2.81-.43,1.62-.72,2.41-.25.69-.66,1.34-.85,2.05-.48,1.86.5,3.85,1.23,5.51.43.98.9,1.94,1.29,2.93s.62,2.15,1.12,3.15c1.03,2.06,3.02,2.92,5.17,2.15,10.23-3.69,20.39-7.63,30.55-11.51,11.46-4.36,22.77-9.12,34.14-13.7l-2.15-1.22c2.89,9.31,5.78,18.62,8.66,27.93.68,2.19,1.36,4.38,2.31,6.48s2.15,4.25,3.23,6.36c2.27,4.43,4.55,8.86,6.82,13.29,1.14,2.22,2.28,4.45,3.42,6.67.91,1.77,1.68,4.37,3.47,5.45,1.64.98,3.37.66,4.87-.38,2.02-1.41,4.05-2.82,6.07-4.23,3.98-2.77,7.96-5.55,11.94-8.32,2.02-1.41,4.05-2.82,6.07-4.23,1.77-1.23,3.71-2.37,5.29-3.84,3.81-3.57,7.39-7.43,11.09-11.13,3.97-3.98,7.94-7.95,11.92-11.93h-2.47c6.36,7.42,12.71,14.85,19.07,22.27,6.18,7.2,12.83,13.98,19.31,20.92,1.67,1.79,3.34,3.58,5.01,5.36.78.83,1.56,1.67,2.34,2.5s1.47,1.69,2.56,2.06c1.66.56,3.55-.02,4.63-1.39,1.41-1.78,2.46-3.98,3.64-5.93,5.06-8.37,10.2-16.69,15.14-25.12,5.51-9.42,10.73-19.01,16.06-28.54l-2.39.63c12.75,6.59,25.35,13.51,38.6,19.07,6.63,2.78,13.25,5.6,19.86,8.43,1.32.56,2.59,1.2,4.06.91,1.39-.28,2.48-1.25,2.99-2.56s.5-2.96.66-4.39c.23-1.97.45-3.94.68-5.91.47-4.11.94-8.21,1.41-12.32s.74-7.98,1.36-11.91c.35-2.2-2.61-3.09-3.37-.93l-.03.07,3.37.93c.72-2.44,1-5.05,1.49-7.54.58-2.95,1.17-5.9,1.75-8.85,1.18-5.98,2.37-11.95,3.55-17.93l-2.15,1.22c9.97,2.07,19.93,4.18,29.91,6.21s19.84,2.93,29.76,4.23l7.35.97,3.67.48c1.08.14,2.08.31,3.09-.22,1.49-.78,2.3-2.5,2.23-4.15-.11-2.43-.84-4.97-1.26-7.37-1.76-10.01-3.25-20.13-5.39-30.07-1.18-5.48-2.69-10.89-4.15-16.3s-2.92-11.06-4.37-16.6l-1.69,2.22c9.66-1.05,19.31-2.21,28.98-3.13,2.16-.21,4.36-.34,6.47-.9,2.34-.63,4.62-1.59,6.9-2.4,4.59-1.63,9.19-3.27,13.78-4.9,2.27-.81,4.54-1.62,6.82-2.42,1.86-.66,4.44-1.09,5.86-2.56s1.32-3.28.62-4.96c-.93-2.23-1.93-4.42-2.9-6.64-1.96-4.5-3.93-9-5.89-13.5-1-2.29-2-4.58-3-6.87-.89-2.03-1.6-3.99-2.96-5.75-6.65-8.62-13.04-17.46-19.53-26.19l-.63,2.39c8.99-5.36,18.02-10.67,26.97-16.1,8.76-5.32,17.31-10.98,25.93-16.51,1.19-.76,2.38-1.52,3.56-2.29,1.1-.7,2.43-1.35,3.35-2.29,1.6-1.65,1.56-4.2,0-5.84s-4.02.84-2.47,2.47c.32.34.16.71-.13,1.02-.77.81-2.19,1.41-3.14,2.02-1.96,1.25-3.91,2.51-5.87,3.76-3.94,2.53-7.87,5.06-11.8,7.59-7.97,5.12-16.1,9.97-24.23,14.83-4.65,2.77-9.29,5.54-13.94,8.32-.75.44-1.2,1.63-.63,2.39,5.5,7.41,11.01,14.81,16.51,22.22,1.3,1.75,2.77,3.43,3.95,5.25,1.09,1.7,1.73,3.78,2.54,5.63,1.86,4.27,3.73,8.54,5.59,12.81.93,2.14,1.86,4.27,2.8,6.41s1.98,4.2,2.77,6.36c.16.43.27.76-.07,1.11-.29.3-.97.39-1.37.54-.63.22-1.25.45-1.88.67-2.19.78-4.39,1.56-6.58,2.34-4.29,1.52-8.57,3.05-12.86,4.57s-8.3,3.33-12.75,3.76c-10.27,1-20.52,2.19-30.78,3.3-1.12.12-2,1.02-1.69,2.22,2.42,9.25,5.02,18.47,7.32,27.75s3.71,18.87,5.38,28.32c.42,2.38.84,4.76,1.26,7.14.2,1.15.4,2.3.61,3.45.16.93.62,2.15.5,3.09-.03.2-.11.51-.27.65-.17.15.13.04-.33.03-1.2-.02-2.48-.33-3.67-.48l-7.1-.93c-9.47-1.25-19.01-2.16-28.4-3.93-10.64-2.01-21.21-4.38-31.81-6.58-.87-.18-1.96.25-2.15,1.22-1.18,5.98-2.37,11.95-3.55,17.93-.57,2.87-1.14,5.74-1.71,8.61-.51,2.57-.8,5.27-1.54,7.78-.64,2.19,2.63,3.03,3.37.93l.03-.07-3.37-.93c-1.06,6.68-1.56,13.51-2.33,20.23-.4,3.45-.79,6.9-1.19,10.35-.09.82-.19,1.64-.28,2.46-.05.38-.02,1.18-.37,1.45-.72.55-2.79-.79-3.44-1.07-12.2-5.22-24.54-10.11-36.34-16.21-6.84-3.54-13.69-7.07-20.53-10.61-.83-.43-1.91-.23-2.39.63-4.54,8.1-9.02,16.24-13.62,24.3-4.59,8.05-9.47,15.93-14.26,23.86-1.19,1.97-2.38,3.94-3.57,5.92-.55.92-1.11,1.83-1.66,2.75-.39.64-.97,2.21-1.67,2.55-.57.28-.89-.26-1.25-.63-.83-.89-1.67-1.79-2.5-2.68-1.56-1.67-3.12-3.34-4.68-5.01-6.21-6.64-12.57-13.15-18.56-19.99-6.91-7.9-13.66-15.94-20.49-23.91-.61-.72-1.85-.63-2.47,0-6.59,6.59-13.17,13.19-19.76,19.78-1.4,1.4-2.71,3-4.33,4.15-1.76,1.25-3.55,2.46-5.32,3.69-3.85,2.68-7.69,5.36-11.54,8.04-1.89,1.32-3.78,2.63-5.67,3.95-.88.61-1.75,1.22-2.63,1.83-.47.33-.94.66-1.42.99s-1.09.98-1.62,1.13c-.34.09-.58.11-.86-.18-.3-.32-.51-.99-.71-1.39-.3-.59-.61-1.19-.91-1.78-1.06-2.08-2.13-4.15-3.19-6.23-2.12-4.14-4.25-8.28-6.37-12.41s-4.38-8.06-5.77-12.44c-3.14-9.88-6.14-19.8-9.22-29.7-.26-.83-1.25-1.59-2.15-1.22-9.71,3.91-19.38,7.91-29.12,11.75-9.64,3.8-19.39,7.36-29.09,11.01-1.24.47-2.47.93-3.71,1.4-.54.2-1.08.41-1.62.61-.33.13-1.48.76-1.83.67-.57-.15-.77-1.49-.9-1.93-.34-1.06-.79-2.09-1.24-3.1-.38-.87-.8-1.72-1.15-2.6-.22-.57-.64-1.4-.55-2.03s.56-1.31.79-1.91c.31-.83.57-1.69.78-2.55,1.81-7.43,1.19-15.36.76-22.92-.62-11.02-.98-22.05-1.45-33.07-.04-.94-.77-1.75-1.75-1.75-13.36.05-26.73-.09-40.08.31-6.81.2-13.62.4-20.42.61-1.66.05-3.32.1-4.98.15-.75.02-1.49.04-2.24.07-.41.01-.83,0-1.25.04-.71.07-.56-.06-.31.14-.29-.24-.41-.93-.55-1.27-.26-.65-.57-1.26-.87-1.89-.62-1.27-1.2-2.56-1.68-3.88-.57-1.54-1.13-3.19-1.02-4.83,0-.15.2-.74.21-.77.15-.3.21-.31.48-.47.09-.05.19-.1.28-.15.24-.12-.4.14,0,0,.22-.07.44-.14.66-.19.23-.06.47-.1.71-.13-.4.06.3-.03.44-.04,1.08-.09,2.17-.07,3.26-.15,8.28-.54,8.23-10.82,8.65-17,.14-2.02.26-4.05.62-6.04.52-2.92,1.63-5.74,2.53-8.55,2.29-7.2,4.58-14.41,6.87-21.61.29-.92-.34-1.89-1.22-2.15-5.32-1.61-10.64-3.23-15.96-4.84-5.33-1.62-10.77-3.06-16.02-4.94s-10.24-4.3-15.32-6.5-10.29-4.46-15.43-6.69c-.23-.1-1.31-.77-.72-.25.28.25.07.13-.04-.11-.26-.54-.31-.62-.54-1.24-.49-1.34-.87-2.71-1.22-4.09-.29-1.15-.66-2.79-.77-3.67-.04-.28.06-.93-.07-1.17.13.25-.37.55-.03.31.31-.22.46-.5.82-.66,1.26-.53,2.91-.03,4.23-.09,1.86-.09,3.47-.78,4.59-2.29,1.63-2.19,2.95-4.69,4.39-7.01s2.97-4.78,4.46-7.17c3.1-4.99,7.41-9.22,11.29-13.62,4.18-4.74,8.37-9.49,12.55-14.23.8-.91.59-2.06-.35-2.75-8.7-6.32-17.42-12.6-26.09-18.95-2-1.47-3.68-3.39-5.46-5.12-2.02-1.97-4.04-3.95-6.06-5.92-3.86-3.77-7.72-7.55-11.58-11.32-.47-.46-.95-.93-1.42-1.39-.24-.23-.47-.47-.71-.7.05.04-.37-.44-.18-.17-.07-.1-.3-.62-.44-1.03-.49-1.38-.82-2.81-1.07-4.25-.1-.56-.17-1.13-.21-1.7-.02-.29-.02-.57-.02-.86,0-.18-.03-.51.06-.52.1-.01-.69.51,0,.23.36-.15.67-.31,1.05-.41.81-.21,1.65-.2,2.47-.17,1.87.07,3.75.4,5.63.26,2.21-.16,3.77-.98,5.5-2.29,4.3-3.26,8.56-6.56,12.89-9.77,2.19-1.63,4.62-2.87,7.01-4.18,2.76-1.51,5.51-3.02,8.27-4.54,5.37-2.94,10.73-5.89,16.1-8.83.84-.46,1.07-1.58.63-2.39-4.38-8-8.64-16.07-13.08-24.04s-9.84-15.84-14.93-23.64c-1.32-2.02-2.64-4.04-3.96-6.06-.64-.98-1.27-1.95-1.91-2.93-.32-.49-.64-.98-.96-1.46-.24-.37-.74-.89-.86-1.32-.05-.17-.03-.32,0-.5.02-.12.29-.42.15-.33.29-.19.91-.15,1.25-.2.65-.09,1.3-.18,1.96-.27,2.36-.33,4.73-.66,7.09-.99,4.73-.66,9.46-1.33,14.19-1.99s9.06-1.07,13.45-2.25c10.24-2.75,20.42-5.78,30.62-8.68,1-.28,1.35-1.21,1.22-2.15-1.3-9.52-2.6-19.04-3.9-28.57-.64-4.67-1.84-9.06-3.15-13.58s-2.69-9.27-4.03-13.91c-.67-2.32-1.34-4.64-2.02-6.96-.32-1.12-.65-2.24-.97-3.36-.19-.64-.37-1.28-.56-1.92-.12-.4-.55-1.25-.46-1.66.11-.47.54-.55.98-.55,1.13,0,2.35.39,3.46.57,2.32.39,4.64.77,6.96,1.16,9.4,1.57,18.81,3.1,28.2,4.71,10.7,1.83,21.4,3.7,32.1,5.55.86.15,1.97-.22,2.15-1.22,1.66-9.24,3.31-18.48,4.97-27.72.78-4.33,1.4-8.63,1.87-13.01.51-4.8,1.02-9.6,1.53-14.4.26-2.48.53-4.96.79-7.45.25-2.34.29-4.83.76-7.14.08-.4.23-.99.75-.98.42,0,1.18.66,1.52.87.56.34,1.13.67,1.69,1.01,2.04,1.22,4.08,2.44,6.12,3.66,8,4.79,15.91,9.77,24.1,14.24,9.45,5.15,19.05,10.06,28.58,15.07,1.09.57,2.14.02,2.57-1.05,3.51-8.63,7.02-17.26,10.53-25.89.85-2.1,1.63-4.25,2.57-6.31.88-1.91,2.37-3.62,3.55-5.35,2.66-3.88,5.31-7.76,7.97-11.63,2.66-3.87,5.22-7.62,7.83-11.43.31-.46.7-1.43,1.34-1.52.72-.1,1.43,1.13,1.88,1.59,1.59,1.66,3.18,3.33,4.77,4.99,6.4,6.7,12.84,13.37,19.18,20.12,7.14,7.6,14.24,15.24,21.36,22.87.69.74,1.77.59,2.47,0,6.8-5.67,13.56-11.39,20.38-17.03s14.12-11.19,21.22-16.71c1.83-1.42,3.65-2.84,5.48-4.26.85-.66,1.7-1.32,2.54-1.98.68-.53,1.55-1.53,2.37-1.81.65-.22.85.39,1.05.88.44,1.07.85,2.16,1.27,3.24l2.55,6.49c3.29,8.38,6.51,16.78,9.94,25.1,3.91,9.46,7.89,18.88,11.84,28.32.33.8,1.19,1.61,2.15,1.22,11.12-4.42,22.3-8.73,33.36-13.3,2.26-.93,4.57-1.79,6.64-3.1,1.77-1.12,3.4-2.46,4.93-3.9,3.13-2.95,5.82-6.33,8.93-9.3,1.47-1.41,3.02-2.71,4.76-3.77.39-.24.79-.47,1.2-.68.26-.14.52-.26.78-.39s.68-.08.27-.18c-.04,0-.73.1-.42,0-.09.03-.33-.24-.11-.04.08.07.6.4.4.25,2.17,1.66,3.98,4.13,5.48,6.39.31.47.6.95.87,1.44.24.45.03-.1.1.21.03.16-.02.18.01-.03-.04-.32-.05-.22-.03.32v.73c-.02,3-.05,5.99-.07,8.99-.05,5.89-.09,11.78-.14,17.67-.03,3.25-.36,6.64.05,9.87s.92,6.65,1.36,9.97c.9,6.76,1.8,13.52,2.7,20.27.13.97.7,1.71,1.75,1.75,9.23.33,18.46.76,27.69.97,4.34.09,8.85.37,13.16-.3,3.2-.49,6.18-1.77,9.06-3.21s5.43-2.82,8.41-3.59c.75-.19,1.51-.35,2.27-.45.43-.06.87-.1,1.31-.12.2-.01.41,0,.6-.03.56-.07-.26-.14.03-.03s-.26-.15.05.03c.08.05.41.26.36.23.25.18.74.65,1.06.96,1.65,1.64,3.11,3.54,4.3,5.55.23.39.46.79.65,1.21.02.05.03.06.12.29.02.07.04.14.06.21.12.35-.06.05.02-.05-.16.22.16-.38,0-.08-.26.5-.45,1.07-.68,1.6-.48,1.14-.97,2.28-1.45,3.42-3.98,9.4-7.96,18.8-11.95,28.19-.75,1.76,1.18,3.54,2.75,2.12h0c-1-.42-1.99-.83-2.99-1.24.03.4-.57,1.98-.74,2.63-.35,1.35-.7,2.7-1.04,4.04-.74,2.89-1.49,5.77-2.23,8.66-1.47,5.69-2.94,11.39-4.4,17.08-.24.95.31,1.86,1.22,2.15,10.8,3.52,21.6,7.06,32.41,10.56,4.78,1.55,9.39,3.03,14.47,3.07,3.92.03,7.77-.35,11.64.49.57.12,1.14.27,1.71.42.38.1.75.25,1.13.34.68.15-.15-.11.04,0,.51.29.56.34.94.66,1.09.94,2.11,1.98,3.06,3.05.9,1.01,1.78,2.07,2.49,3.23.14.22.27.45.39.69.11.22-.02,0,.13.32-.01-.02.07.25.06.25-.12.03.05-.65.06-.64-.09-.14.26-.22-.12.04-.26.17-.46.53-.67.77-3.32,3.86-6.5,7.84-9.87,11.66-3.68,4.18-7.35,8.35-11.03,12.53-1.86,2.11-3.63,4.21-5.18,6.56-1.78,2.7-3.56,5.4-5.35,8.09-3.56,5.4-7.13,10.79-10.69,16.19-.39.59-.29,1.65.27,2.12,6.78,5.61,13.61,11.15,20.36,16.79,6.69,5.59,13.06,11.53,19.51,17.39,3.7,3.37,7.41,6.73,11.11,10.1,1.66,1.51,4.15-.96,2.47-2.47l.09-.04Z"/>
            </g>
            <g>
              <path class="st16" d="M437.46,675.82c.15-.41.16-.51.12-.42-.04.13-.07.26-.11.39v.03h-.01Z"/>
              <path class="st27" d="M439.14,676.29c.03-.09.07-.18.1-.28.01-.05.03-.09.04-.14.03-.16.06-.33.07-.49.02-.26-.1-.67-.24-.89l-.27-.35c-.1-.11-.23-.2-.35-.27l-.42-.18h0l-.47-.06c-.16,0-.31.02-.47.06-.44.12-.83.42-1.05.81-.09.15-.15.32-.2.48-.02.06-.03.13-.05.19s-.04.12-.05.19c-.07.23-.08.47-.03.7.01.23.08.45.21.65.11.2.26.37.45.49.17.15.37.26.6.31l.47.06c.32,0,.61-.08.88-.24l.35-.27c.22-.22.37-.48.45-.77.01-.07.04-.14.06-.21s.04-.14.06-.22l-.18.42s0-.02.01-.03l-.27.35h0l-.35.27h0l-.42.18h0l-.47.06h0c-.16-.02-.31-.04-.47-.06h0l-.42-.18h0c-.12-.09-.24-.18-.35-.27h0c-.09-.12-.18-.24-.27-.35h0l-.18-.42h0l-.06-.47h0s.06-.46.06-.46c0,0-.02.09-.04.14-.03.1-.07.2-.1.3-.07.23-.08.47-.03.7.01.23.08.45.21.65.11.2.26.37.45.49.17.15.37.26.6.31l.47.06c.32,0,.61-.08.88-.24l.35-.27c.22-.22.37-.48.45-.77v.02Z"/>
            </g>
          </g>
          <g>
            <g>
              <line class="st8" x1="362.94" y1="151.84" x2="370.94" y2="159.84"/>
              <path class="st27" d="M361.53,153.26c2.33,2.33,4.67,4.67,7,7l1,1c.74.74,2.1.8,2.83,0s.79-2.04,0-2.83c-2.33-2.33-4.67-4.67-7-7l-1-1c-.74-.74-2.1-.8-2.83,0s-.79,2.04,0,2.83h0Z"/>
            </g>
            <g>
              <line class="st8" x1="588.94" y1="454.84" x2="595.94" y2="462.84"/>
              <path class="st27" d="M587.53,456.26c2.04,2.34,4.09,4.67,6.13,7.01.29.33.58.66.87.99.69.79,2.13.76,2.83,0,.77-.84.74-1.99,0-2.83-2.04-2.34-4.09-4.67-6.13-7.01-.29-.33-.58-.66-.87-.99-.69-.79-2.13-.76-2.83,0-.77.84-.74,1.99,0,2.83h0Z"/>
            </g>
            <g>
              <line class="st8" x1="562.94" y1="554.84" x2="570.94" y2="562.84"/>
              <path class="st27" d="M561.53,556.26l7,7,1,1c.74.74,2.1.8,2.83,0s.79-2.04,0-2.83l-7-7-1-1c-.74-.74-2.1-.8-2.83,0s-.79,2.04,0,2.83h0Z"/>
            </g>
            <g>
              <line class="st8" x1="510.11" y1="641.95" x2="515.77" y2="651.74"/>
              <path class="st27" d="M508.38,642.96c1.65,2.86,3.3,5.71,4.95,8.57.24.41.47.82.71,1.23.52.91,1.83,1.3,2.74.72s1.28-1.77.72-2.74c-1.65-2.86-3.3-5.71-4.95-8.57-.24-.41-.47-.82-.71-1.23-.52-.91-1.83-1.3-2.74-.72s-1.28,1.77-.72,2.74h0Z"/>
            </g>
            <g>
              <line class="st8" x1="426.11" y1="699.95" x2="431.77" y2="709.74"/>
              <path class="st27" d="M424.38,700.96c1.65,2.86,3.3,5.71,4.95,8.57.24.41.47.82.71,1.23.52.91,1.83,1.3,2.74.72s1.28-1.77.72-2.74c-1.65-2.86-3.3-5.71-4.95-8.57-.24-.41-.47-.82-.71-1.23-.52-.91-1.83-1.3-2.74-.72s-1.28,1.77-.72,2.74h0Z"/>
            </g>
            <g>
              <line class="st8" x1="328.11" y1="731.95" x2="333.77" y2="741.74"/>
              <path class="st27" d="M326.38,732.96c1.65,2.86,3.3,5.71,4.95,8.57.24.41.47.82.71,1.23.52.91,1.83,1.3,2.74.72s1.28-1.77.72-2.74c-1.65-2.86-3.3-5.71-4.95-8.57-.24-.41-.47-.82-.71-1.23-.52-.91-1.83-1.3-2.74-.72s-1.28,1.77-.72,2.74h0Z"/>
            </g>
            <g>
              <line class="st8" x1="227.11" y1="723.95" x2="229.94" y2="734.84"/>
              <path class="st27" d="M225.18,724.48c.83,3.19,1.65,6.37,2.48,9.56.12.45.23.9.35,1.34.26,1.01,1.44,1.73,2.46,1.4s1.68-1.37,1.4-2.46c-.83-3.19-1.65-6.37-2.48-9.56-.12-.45-.23-.9-.35-1.34-.26-1.01-1.44-1.73-2.46-1.4s-1.68,1.37-1.4,2.46h0Z"/>
            </g>
            <g>
              <line class="st8" x1="13.4" y1="519.6" x2="17.56" y2="531.09"/>
              <path class="st27" d="M11.48,520.13c1.21,3.35,2.42,6.69,3.63,10.04.17.48.35.96.52,1.45.36.98,1.38,1.75,2.46,1.4.96-.31,1.78-1.41,1.4-2.46-1.21-3.35-2.42-6.69-3.63-10.04-.17-.48-.35-.96-.52-1.45-.36-.98-1.38-1.75-2.46-1.4-.96.31-1.78,1.41-1.4,2.46h0Z"/>
            </g>
            <g>
              <line class="st8" x1="2.02" y1="419.48" x2="6.18" y2="430.97"/>
              <path class="st27" d="M.1,420.02c1.21,3.35,2.42,6.69,3.63,10.04.17.48.35.96.52,1.45.36.98,1.38,1.75,2.46,1.4.96-.31,1.78-1.41,1.4-2.46-1.21-3.35-2.42-6.69-3.63-10.04-.17-.48-.35-.96-.52-1.45-.36-.98-1.38-1.75-2.46-1.4-.96.31-1.78,1.41-1.4,2.46h0Z"/>
            </g>
            <g>
              <line class="st8" x1="28.18" y1="330.97" x2="24.02" y2="319.48"/>
              <path class="st27" d="M30.11,330.43c-1.21-3.35-2.42-6.69-3.63-10.04-.17-.48-.35-.96-.52-1.45-.36-.98-1.38-1.75-2.46-1.4-.96.31-1.78,1.41-1.4,2.46,1.21,3.35,2.42,6.69,3.63,10.04.17.48.35.96.52,1.45.36.98,1.38,1.75,2.46,1.4.96-.31,1.78-1.41,1.4-2.46h0Z"/>
            </g>
          </g>
        </g>
        <g>
          <polygon class="st19" points="363.16 150.8 375.62 182.53 389.96 216.85 424.53 203.1 458.25 188.89 457.96 225.5 462.45 259.2 496.33 260.4 533.31 259.44 518.82 293.65 509.76 328.77 544.2 340 580.02 351.51 555.11 379.8 536.15 408.51 562.6 430.38 588.61 454.03 559.06 472.98 527.35 491.91 549.49 521.7 563.05 552.78 531.1 564.14 494.19 568.14 503.55 603.94 509.98 640.46 473.22 635.62 436.65 628.03 429.41 664.59 425.51 698.68 393.91 685.16 363.74 669.57 347.15 699.2 328.11 730.71 302.99 703.81 279.82 676.75 254.58 702.02 225.85 722.05 209.88 690.93 198.97 655.76 164.94 669.48 131.66 682.01 130.75 646.45 129.19 610.18 92.89 610.31 57.43 611.37 68.55 577.69 79.55 543.12 44.8 532.58 13.68 519.09 31.62 490.21 55.49 463.14 26.31 441.93 1.81 417.97 29.11 397.27 60.95 379.8 43.52 347.99 24.12 318.26 59.35 313.31 94.4 303.36 89.47 267.28 79.02 231.26 115.86 237.39 152.45 243.73 159 207.2 162.81 171.42 193.69 189.9 226.99 207.44 241.29 172.29 261.33 143.05 285.72 168.59 309.48 194.04 336.24 171.74 363.16 150.8"/>
          <path class="st27" d="M361.48,151.26c3.79,9.67,7.59,19.34,11.38,29.01,3.16,8.06,6.62,16,9.96,23.99,1.82,4.35,3.64,8.71,5.46,13.06.33.8,1.19,1.61,2.15,1.22,10.03-3.99,20.06-7.98,30.09-11.97,8.12-3.23,16.15-6.7,24.2-10.09,4.67-1.97,9.33-3.93,14-5.9l-2.22-1.69c-.08,10.36-.17,20.72-.25,31.08-.02,2.49-.13,4.91.2,7.37.77,5.79,1.54,11.57,2.31,17.36.65,4.84,1.29,9.68,1.94,14.52.13.97.7,1.71,1.75,1.75,10.26.36,20.53.73,30.79,1.09,8.62.3,17.3-.26,25.92-.48,4.72-.12,9.44-.24,14.16-.37l-1.51-2.63c-4.21,9.94-8.42,19.88-12.64,29.82-1.03,2.42-2.01,4.69-2.66,7.23-1.55,6.01-3.1,12.01-4.65,18.02-1.26,4.89-2.52,9.78-3.78,14.67-.24.95.31,1.86,1.22,2.15,10.24,3.34,20.48,6.68,30.72,10.02,8.42,2.75,16.86,5.44,25.29,8.15,4.75,1.53,9.5,3.05,14.25,4.58l-.77-2.92c-6.99,7.94-13.99,15.89-20.98,23.83-1.77,2.01-3.61,3.92-5.08,6.15l-9.7,14.68c-2.8,4.23-5.59,8.46-8.39,12.7-.39.59-.29,1.65.27,2.12,7.83,6.47,15.65,12.94,23.48,19.41,6.4,5.29,12.41,11.04,18.55,16.62,3.48,3.16,6.95,6.32,10.43,9.48l.35-2.75c-8.83,5.67-17.67,11.33-26.5,17-7.31,4.69-14.86,9-22.31,13.45-4.15,2.48-8.3,4.95-12.45,7.43-.75.44-1.2,1.63-.63,2.39,6.22,8.37,12.44,16.74,18.66,25.1,1.5,2.02,3.13,3.88,4.14,6.18,2.31,5.29,4.62,10.58,6.93,15.87,1.99,4.57,3.99,9.14,5.98,13.71l1.05-2.57c-9.68,3.44-19.36,6.89-29.04,10.33l-2.28.81c-.14.05-.4.09-.52.18-.27.22.5-.02.3-.02-1.34,0-2.76.3-4.09.44-6.25.68-12.49,1.35-18.74,2.03-4.68.51-9.35,1.01-14.03,1.52-1.12.12-2,1.02-1.69,2.22,2.74,10.46,5.47,20.91,8.21,31.37,2.23,8.53,3.43,17.31,4.95,25.99.88,4.99,1.76,9.97,2.63,14.96l1.69-2.22c-10.8-1.42-21.59-2.84-32.39-4.26-1.44-.19-2.88-.4-4.32-.57.85.1.11,0-.25-.08l-2.39-.5c-6.25-1.3-12.49-2.59-18.74-3.89-4.92-1.02-9.84-2.04-14.77-3.06-.87-.18-1.96.25-2.15,1.22-2.04,10.28-4.07,20.56-6.11,30.84-.51,2.59-1.08,5.16-1.38,7.78-.67,5.81-1.33,11.62-2,17.42-.58,5.02-1.15,10.04-1.73,15.06l2.63-1.51c-9.18-3.93-18.36-7.85-27.53-11.78-7.47-3.2-14.58-7.17-21.8-10.9-4.14-2.14-8.29-4.28-12.43-6.42-.83-.43-1.91-.23-2.39.63-5.03,8.97-10.05,17.95-15.08,26.92-4.21,7.51-8.82,14.8-13.27,22.17-2.43,4.01-4.85,8.03-7.28,12.04l2.75-.35c-7.24-7.75-14.48-15.51-21.73-23.26-5.84-6.25-11.28-12.84-16.84-19.34-3.24-3.79-6.48-7.57-9.73-11.36-.61-.72-1.85-.63-2.47,0-7.3,7.31-14.6,14.62-21.9,21.93-1.03,1.03-2.41,2.06-3.24,3.25-.18.25.05-.06.25-.17-.12.07-.23.16-.35.24-.59.4-1.16.81-1.75,1.22-4.93,3.44-9.87,6.87-14.8,10.31-3.94,2.75-7.88,5.49-11.83,8.24l2.39.63c-4.77-9.29-9.54-18.59-14.3-27.88l-1.21-2.36c-.11-.21-.21-.42-.32-.62-.23-.4.07-.17.05.17.02-.27-.22-.72-.3-.97l-.78-2.5-5.59-18.02c-1.41-4.56-2.83-9.12-4.24-13.68-.26-.83-1.25-1.59-2.15-1.22-9.81,3.96-19.62,7.91-29.43,11.87-7.91,3.19-15.93,6.12-23.92,9.13-4.66,1.75-9.31,3.51-13.97,5.26l2.22,1.69c-.27-10.5-.54-21-.8-31.51-.22-8.56-.66-17.11-1.03-25.67-.21-4.89-.42-9.77-.63-14.66-.04-.94-.77-1.75-1.75-1.75-10.48.04-20.97.08-31.45.12-8.48.03-16.96.38-25.45.63-4.96.15-9.91.29-14.87.44l1.69,2.22c3.28-9.94,6.56-19.87,9.85-29.81,2.69-8.13,5.23-16.31,7.83-24.47,1.48-4.66,2.96-9.32,4.44-13.97.29-.92-.34-1.89-1.22-2.15-9.83-2.98-19.66-5.96-29.5-8.95-1.64-.5-3.27-1.05-4.92-1.49-.77-.21.4.22-.09,0-.53-.23-1.06-.46-1.59-.69-5.32-2.31-10.64-4.61-15.96-6.92-4.46-1.93-8.93-3.87-13.39-5.8l.63,2.39c5.37-8.65,10.74-17.3,16.12-25.95l1.35-2.17c.12-.19.25-.38.36-.57.16-.29.28-.19-.15.15.89-.72,1.63-1.85,2.39-2.7,4.06-4.6,8.11-9.2,12.17-13.8,3.11-3.52,6.21-7.04,9.32-10.56.8-.91.59-2.06-.35-2.75-8.32-6.05-16.64-12.09-24.96-18.14-1.34-.97-2.66-1.96-4.01-2.91-.55-.39.4.43-.05-.07-.4-.45-.88-.86-1.31-1.28l-12.53-12.25c-3.49-3.41-6.98-6.83-10.47-10.24l-.35,2.75c8.2-6.22,16.41-12.44,24.61-18.66.89-.67,1.75-1.43,2.69-2.04s2.07-1.14,3.09-1.69c5.44-2.98,10.88-5.97,16.31-8.95,4.15-2.28,8.29-4.55,12.44-6.83.84-.46,1.07-1.58.63-2.39-5.06-9.24-10.12-18.47-15.19-27.71-4.07-7.42-8.95-14.37-13.57-21.46-2.69-4.13-5.38-8.25-8.08-12.38l-1.05,2.57c10.4-1.46,20.81-2.92,31.21-4.38,2.46-.35,4.65-.74,7.03-1.42,5.99-1.7,11.99-3.4,17.98-5.1,4.69-1.33,9.38-2.66,14.07-3.99,1-.28,1.35-1.21,1.22-2.15-1.46-10.71-2.93-21.42-4.39-32.14-.18-1.3-.27-2.65-.54-3.94-.23-1.1-.64-2.2-.95-3.28-1.77-6.1-3.54-12.21-5.31-18.31-1.4-4.82-2.79-9.63-4.19-14.45l-2.15,2.15c10.73,1.79,21.46,3.58,32.19,5.36,8.76,1.46,17.5,3,26.25,4.51,5,.86,9.99,1.73,14.99,2.59.86.15,1.97-.22,2.15-1.22,1.89-10.56,3.79-21.11,5.68-31.67,1.55-8.62,2.22-17.36,3.14-26.06.53-5.01,1.07-10.03,1.6-15.04l-2.63,1.51c9.23,5.52,18.46,11.05,27.69,16.57,7.57,4.53,15.54,8.41,23.35,12.52,4.38,2.31,8.76,4.61,13.14,6.92,1.09.57,2.14.02,2.57-1.05,4.05-9.94,8.09-19.89,12.14-29.83.68-1.66,1.36-3.32,2.03-4.99.29-.72-.28.28.06-.06.41-.42.72-1.04,1.05-1.53,3.42-5,6.85-10,10.27-15,2.87-4.19,5.74-8.38,8.61-12.57l-2.75.35c7.09,7.42,14.18,14.85,21.26,22.27,5.74,6.01,11.38,12.11,17.04,18.18,3.28,3.51,6.56,7.03,9.84,10.54.69.74,1.77.59,2.47,0,7.77-6.47,15.54-12.95,23.3-19.42,6.25-5.21,12.75-10.11,19.17-15.1,3.74-2.91,7.47-5.81,11.21-8.72.75-.58.6-1.86,0-2.47-.73-.74-1.73-.58-2.47,0-7.96,6.19-15.91,12.38-23.87,18.57-6.48,5.04-12.7,10.42-19.01,15.68-3.6,3-7.2,6-10.8,9h2.47c-7-7.49-13.99-14.99-20.99-22.48-5.71-6.11-11.51-12.12-17.29-18.17-3.29-3.45-6.59-6.9-9.88-10.35-.83-.86-2.13-.55-2.75.35-6.06,8.84-12.12,17.69-18.18,26.53-.69,1.01-1.55,2.01-2.03,3.13s-.97,2.37-1.45,3.56c-2.43,5.97-4.86,11.94-7.29,17.91-1.85,4.56-3.71,9.12-5.56,13.67l2.57-1.05c-9.56-5.03-19.11-10.06-28.67-15.1-7.66-4.03-14.99-8.64-22.42-13.09-4.36-2.61-8.72-5.22-13.09-7.83-1.24-.74-2.5.25-2.63,1.51-1.13,10.59-2.26,21.18-3.38,31.77-.13,1.24-.55,2.75-.43,4,0-.12.12-.67.03-.28-.05.22-.08.44-.12.65l-.45,2.5c-1.12,6.24-2.24,12.48-3.36,18.72-.87,4.83-1.73,9.65-2.6,14.48l2.15-1.22c-10.74-1.86-21.49-3.72-32.23-5.58-8.76-1.52-17.54-2.95-26.32-4.41-4.96-.83-9.92-1.65-14.88-2.48-1.26-.21-2.56.76-2.15,2.15,3.01,10.39,6.03,20.79,9.04,31.18.72,2.48,1.39,4.77,1.74,7.31l2.52,18.4c.69,5.07,1.39,10.14,2.08,15.21l1.22-2.15c-10.14,2.88-20.27,5.75-30.41,8.63-2.4.68-4.64,1.32-7.1,1.66-6.04.85-12.08,1.7-18.11,2.54-4.89.69-9.78,1.37-14.66,2.06-1.11.16-1.61,1.71-1.05,2.57l17.19,26.34c4.67,7.16,8.49,14.85,12.6,22.34,2.35,4.29,4.7,8.57,7.05,12.86l.63-2.39c-9.09,4.99-18.18,9.98-27.27,14.97-2.13,1.17-4.21,2.23-6.14,3.7-4.69,3.55-9.37,7.11-14.06,10.66-3.89,2.95-7.78,5.9-11.67,8.85-.87.66-1.24,1.88-.35,2.75,7.36,7.2,14.72,14.4,22.08,21.6.9.88,1.76,1.87,2.77,2.63.89.68,1.82,1.32,2.73,1.99,4.99,3.63,9.98,7.25,14.97,10.88,3.83,2.78,7.66,5.56,11.49,8.35l-.35-2.75c-6.81,7.72-13.61,15.43-20.42,23.15-1.71,1.94-3.41,3.75-4.77,5.95-3.06,4.92-6.12,9.85-9.17,14.77-2.58,4.15-5.15,8.29-7.73,12.44-.46.73-.23,2.02.63,2.39,9.38,4.06,18.76,8.13,28.14,12.19,2.31,1,4.51,1.8,6.92,2.53l17.65,5.35c4.53,1.37,9.05,2.75,13.58,4.12l-1.22-2.15c-3.17,9.98-6.35,19.97-9.52,29.95-2.57,8.08-5.27,16.13-7.93,24.18-1.56,4.71-3.11,9.42-4.67,14.12-.35,1.06.59,2.25,1.69,2.22,10.46-.31,20.92-.62,31.38-.93,8.57-.25,17.14-.17,25.71-.2,4.89-.02,9.78-.04,14.67-.05l-1.75-1.75c.45,10.53.9,21.07,1.35,31.6.36,8.47.51,16.95.73,25.43.13,4.93.25,9.87.38,14.8.03,1.05,1.11,2.1,2.22,1.69,9.88-3.72,19.76-7.44,29.64-11.16,8.09-3.05,16.08-6.39,24.1-9.62,4.52-1.82,9.05-3.65,13.57-5.47l-2.15-1.22c3.13,10.08,6.26,20.17,9.38,30.25.78,2.5,1.45,4.86,2.65,7.18,2.73,5.31,5.45,10.63,8.18,15.94,2.28,4.45,4.56,8.89,6.85,13.34.41.79,1.65,1.15,2.39.63,8.5-5.92,17-11.85,25.51-17.77,1.07-.75,2.17-1.46,3.21-2.24.9-.67,1.66-1.58,2.45-2.37,4.3-4.3,8.6-8.61,12.9-12.91,3.42-3.42,6.84-6.85,10.26-10.27h-2.47c6.88,8.03,13.76,16.07,20.64,24.1,5.64,6.59,11.72,12.79,17.64,19.13,3.34,3.58,6.68,7.15,10.02,10.73.78.84,2.18.58,2.75-.35,5.36-8.88,10.72-17.75,16.09-26.63,4.3-7.11,8.28-14.4,12.34-21.65,2.4-4.29,4.8-8.57,7.2-12.86l-2.39.63c8.88,4.59,17.76,9.17,26.64,13.76,7.25,3.75,14.9,6.69,22.4,9.9,4.24,1.82,8.48,3.63,12.73,5.45,1.29.55,2.47-.11,2.63-1.51,1.19-10.35,2.37-20.69,3.56-31.04l.27-2.36c.02-.19.05-.38.06-.56.04-.4-.12.43-.04.3.18-.3.18-.9.24-1.23l.54-2.73c1.23-6.22,2.46-12.44,3.7-18.65.92-4.64,1.84-9.27,2.76-13.91l-2.15,1.22c10.65,2.21,21.3,4.42,31.95,6.63,8.79,1.82,17.76,2.69,26.66,3.86,5.06.67,10.12,1.33,15.18,2,1.23.16,1.86-1.24,1.69-2.22-1.88-10.67-3.76-21.34-5.64-32-1.53-8.67-4.1-17.13-6.32-25.65-1.28-4.89-2.56-9.78-3.84-14.66l-1.69,2.22c10.37-1.12,20.73-2.25,31.1-3.37,2.64-.29,5.3-.35,7.81-1.24l16.32-5.81c4.7-1.67,9.4-3.34,14.1-5.02,1.16-.41,1.52-1.49,1.05-2.57-4.13-9.46-8.26-18.92-12.38-28.38-.39-.89-.71-1.89-1.2-2.73-.68-1.14-1.62-2.18-2.41-3.24-3.74-5.03-7.48-10.06-11.22-15.1-2.83-3.81-5.66-7.61-8.49-11.42l-.63,2.39c9.05-5.4,18.1-10.8,27.16-16.2,7.29-4.35,14.39-9.02,21.53-13.61,4.19-2.69,8.38-5.38,12.58-8.07.9-.58,1.22-1.96.35-2.75-7.53-6.84-15.06-13.69-22.58-20.53-6.08-5.53-12.53-10.64-18.86-15.87-3.67-3.04-7.35-6.07-11.02-9.11l.27,2.12c5.76-8.72,11.52-17.45,17.28-26.17l1.32-2c.1-.15.22-.3.3-.45.16-.34-.36.33-.17.22.33-.2.65-.74.9-1.03l1.88-2.13c4.22-4.79,8.44-9.58,12.65-14.37,3.14-3.57,6.29-7.14,9.43-10.72.88-1,.53-2.51-.77-2.92-10.31-3.31-20.61-6.63-30.92-9.94-8.29-2.66-16.56-5.38-24.84-8.07-4.83-1.58-9.67-3.15-14.5-4.73l1.22,2.15c2.67-10.36,5.34-20.72,8.01-31.09l.71-2.75c.06-.22.42-1.03.32-1.26,0-.01-.26.61-.12.27.08-.19.16-.38.24-.57l.99-2.34,7.41-17.49c1.93-4.56,3.86-9.12,5.79-13.67.49-1.15-.05-2.67-1.51-2.63-10.37.27-20.74.54-31.11.81-8.32.22-16.61-.23-24.92-.52-4.94-.17-9.88-.35-14.83-.52l1.75,1.75c-1.36-10.17-2.71-20.34-4.07-30.51-.14-1.06-.36-2.14-.43-3.21-.08-1.25.02-2.54.03-3.79.05-6.24.1-12.47.15-18.71.04-4.7.08-9.4.11-14.1,0-1.02-1.15-2.14-2.22-1.69-9.95,4.19-19.89,8.38-29.84,12.57-8.11,3.42-16.33,6.59-24.5,9.84-4.65,1.85-9.3,3.7-13.95,5.55l2.15,1.22c-4.03-9.65-8.07-19.3-12.1-28.95-3.21-7.68-6.2-15.45-9.24-23.2-1.82-4.63-3.64-9.27-5.45-13.9-.81-2.07-4.2-1.17-3.37.93h0Z"/>
        </g>
      </g>
      <g>
        <g class="st7">
          <path class="st9" d="M347.32,484.48l-61.26,7.86-36.5,3.87c-.08-1.62-.23-2.87-.94-4.13l-9.08-16.14c-9.09-16.15-18.09-32.16-26.57-48.61-3.54-6.87-7.52-13.49-11.97-19.71,53.14-4.66,107.48-4.55,160.27-10.93l39.34-4.75c5.5-.67,10.61-1.88,15.97-3.05,2.73-.6,5.27-1.53,7.92-2.41,1.47,6.6,4.96,11.71,8.83,17.03,9.99,13.76,17.53,25.35,24.98,40.72,2.76,5.7,5.69,11.08,9.03,16.44.68,1.09,1.64,1.9,2.67,2.63l.28.2c.06.04.4.19.33.2l-.65.11-12.12,1.84c-5.56.84-10.89,1.61-16.44,2.62l-31.63,5.74-26.36,4.64-36.1,5.84h0Z"/>
          <path class="st25" d="M176.62,469.59l-13.41,3.08c-2.2.51-4.2,1.33-6.44,1.68l-6.95-.71,21.97-39.05,7.83-12.76c-1.08,7.19-1.74,13.88-1.79,20.93l-.19,12.65-.06,13.4c0,.31-.65.73-.95.8v-.02Z"/>
          <path class="st25" d="M204.38,465.02c-3.98.36-7.62.76-11.57,1.39l.22-19.22.23-18.15c.05-4.01.03-7.74.35-11.79l3.58,9.05,5.88,14.5,10.51,23.41-9.21.82h.01Z"/>
          <path class="st21" d="M234.48,495.18l-10.32-22.7-23.57-50.21c-1.66-3.53-3.56-6.63-6.02-9.6l.34-3.35c4.68,7.19,8.97,14.55,12.91,22.25,8.29,16.21,17.21,31.93,26.09,47.83l9.55,17.08-8.98-1.3h0Z"/>
          <path class="st21" d="M185.34,487.99l-3.19-.38c.27-5.41.31-10.59.3-16.09l-.03-25.22c0-6.37.29-12.45,1.02-18.73.65-5.58,2.62-13.47,6.38-17.76l1.4-.2c-.34,4.57-1.65,3.51-2.23,6.03s-1.15,4.98-1.31,7.58l-.64,10.71-1.12,30.9-.58,23.15h0Z"/>
          <path class="st21" d="M177.31,482.49l-.08,4.38-33.58-4.53,3.85-5.13c1.31.43,2.6.83,3.94,1.04l16.35,2.64,9.52,1.6h0Z"/>
          <path class="st24" d="M216.98,492.63l-5.54-.7-19.04-2.82.05-3.73,34.1,6.9c1.13.23,1.9.99,1.96,2.07l-11.53-1.71h0Z"/>
          <path class="st25" d="M209.71,482.79l-17.15-3.39.07-6.71c3.21-.59,6.46-1.02,9.82-1.3l13.9-1.19,7.98,15.97-14.62-3.37h0Z"/>
          <polygon class="st25" points="177.41 476.93 177.42 475.53 173.84 476.35 177.41 476.93"/>
        </g>
        <path class="st2" d="M411.55,0l2.86.36c.49.27.91.58.68,1.16.6.61.82,1.24.66,1.89.83-.2,1.44.3,1.92.94.55-.46.81.1,1.01.67.56,8.22,1.06,16.44,1.49,24.68-.11,36.19.38,72.22,1.46,108.11l-.09,55.38,1.9,28.13,1.99,48.93c1.19,18.55,2.29,37.12,3.29,55.69.34,18.5.69,36.92,2.29,55.42.06,1.86-.28,3.71-.72,5.48l2.36,3.98c6.45,9.16,12.97,18.27,19.56,27.31,8.54,13.43,15.52,27.54,21.9,41.63.23,1.05.27,2.14.12,3.26.87.8,1.01,1.4.96,2.62-.08,1.85-2.27,2.97-3.93,3.51-2.24.73-4.62,1.19-6.95,1.61-30.82,5.46-61.49,10.89-91.99,16.31l-12.95,2.15c-37.9,5.59-74.82,9.87-112.31,13.71-2,.22-4.27.76-6.28.35-9.11-1.86-18.4-2.7-27.62-3.82-7.9-.95-15.79-2.08-23.65-3.33-15.71-2.49-31.34-5.45-46.96-8.47-2.05-.62-5.11-1.6-5.45-3.99v-.89c.09-.7.45-1.25,1.16-1.03,1.22-4.13,3.18-8.1,5.17-11.94,8.9-15.96,18.08-31.74,27.54-47.35,2.67-3.95,5.37-7.93,8.49-11.54-.57-1.02-.87-2.17-.88-3.45-.2-11.78-.5-23.55-.89-35.31.12-39-.04-77.6-.42-116.39-.39-22.1-1.31-44.2-2.78-66.3-.72-18.57-1.12-37.22-1.2-55.92-.46-18.53-1.36-37.08-2.71-55.63l-3.12-47.89c.24-3.47-.48-6.71-1.38-10.07-.46-2.35-.44-3.82,1.7-5.31.22-.42.46-.81.71-1.18l9.33-5.77c3.8-1.69,8.03-2.56,12.15-2.99l50.82-1.32c15.71-.98,31.42-1.65,47.13-2,39.62-.58,79.24-1,118.84-1.27l2.35-.17h2.43v.05ZM178.74,16.93l-.11-3.47-6.45,4.35c-.18.12-.55.27-.69.35-.1.06.03.43.07.59,2.33-.76,4.54-1.3,7.18-1.81h0ZM409.64,260.35l-.36,8.64c-.17,4.1-.71,8.08-1.34,12.14-1.01,6.49-6.98,19-10.52,24.87-5.49,9.23-11.87,16.36-19.9,23.48.28,7.87.13,15.61-.94,23.38-.56,4.02-2.9,9.85-8,9.1-2.33-.45-4.38-1.67-6.03-3.48-3.93-4.34-7.34-9.03-10.54-14.08-18.75,7.41-53.41,17.45-72.73,21.34l-22.52,4.53c-10.29,2.07-20.44,3.48-30.88,4.78l-30.11,3.77.35,20.07c.02,1.02-.33,2-.56,3.01-.04.3.1.73.32.87l1.34.84c1.25-.31,2.57-1.1,3.94-1.27,6.66-.83,13.08-1.61,19.84-2.03l32.11-1.98c24.95-1.54,49.85-2.15,74.77-4.49l39.84-3.75,32.7-4.03,14.14-1.62c2.93-.34,5.76-.42,8.74-.45.26,0,.74-.1.72-.37-1.19-13.86-1.95-27.52-2.14-41.44-.18-13.15-.64-26.19-1.61-39.35-1.57-21.34-2.64-42.55-3.26-63.91-.33-11.24-1-22.27-1.85-33.47-.6-7.87-.92-15.4-.84-23.28l.26-24.11.03-16.86-.69-28.79-.77-44.68-.34-25.01.23-10.21-.29-16.94c-4.68,1.05-8.91,2.38-13.62,2.46l-46.22.84-27.89.21-21.47.22-14.03.2c2.39,1.75,4.71,2.96,7.18,4.4l12.96,7.58c3.95,2.31,7.5,4.93,11.13,7.82.99-1.72,1.9-3.33,3.28-4.65,1.99-1.91,5.1-2.01,7.36-.28,5.29,4.06,8.28,14.86,9.9,21.19l2.43,9.46c.36,1.41,1.46,2,2.97,1.9,9.58-.65,22.77-1.2,32.07.8,1.7.37,3.35,1.07,4.65,2.21,3.01,2.63.9,7.05-1.65,9.45-3.33,3.13-6.76,5.94-10.67,8.32l-9.78,5.95c-1.45.88-2.78,1.73-4.15,2.74-1.81,1.34-.62,4.26.14,6.25l6.72,17.38c1.76,4.55,3.2,8.98,4.2,13.72.37,1.74.28,3.46-.23,5.1-1.54,4.92-8.1,2.05-11.03.19-5.17-3.3-9.99-6.78-14.73-10.7l-11.39-9.42c-.21-.17-.67-.38-.88-.33-.17.04-.47.33-.59.53-4.08,6.65-8.53,12.88-13.55,19.02l11.44,8.77c6.97,5.34,13.31,11.21,19.84,17.12l21.01,20.36c6.94,6.72,13.41,13.69,19.54,21.15,4.5,5.48,8.48,11.09,12.04,17.2,2.4,4.13,4.27,8.21,5.93,12.71,2.93,7.97,4.34,16.27,3.97,24.87v.04ZM308.65,34.44l-15.39-9.53c-2.26-1.4-4.37-2.81-6.4-4.48-.73-.6-1.29-1.22-2.37-.68,5.54,3.87,10.55,7.92,16.53,11.34,5.98,3.42,12.73,7.44,17.88,12.02.23.21.65-.17.58-.28-.96-1.62-8.62-7.02-10.83-8.39ZM291.72,35.01c.68-1.78,1.65-3.18,3.01-4.65l-14.17-10.69-5.71.11-1.75,3.61c3.37,2.59,6.49,4.78,10.04,6.78,0,0,8.58,4.84,8.58,4.84ZM283.4,34.31c.04.07.3.36.43.44,9.73,5.53,17.05,10.58,24.31,19.32,2.2,2.65,3.77,5.41,4.99,8.68-.29-3-1.73-5.68-3.62-8.12-6.79-8.75-16.14-15.32-26.11-20.32l-4.28-2.8c-4.76-2.97-9.03-6.51-12.82-10.65-.37-.4-.46-.87-1.14-.79.34.74.79,1.46,1.44,2.07,5.08,4.78,10.64,9.07,16.8,12.16h0ZM272.16,19.85l-2.94.12,2.22,2s.72-2.12.72-2.12ZM270.36,211.11c-.68-.3-2.29-.51-2.78.19l-7.16,10.14c-2.73,3.87-5.46,7.54-8.59,11.07-1.23,1.39-2.7,2.28-4.41,2.92-2.03.76-4.19.24-5.48-1.59-.87-1.23-1.45-2.74-1.66-4.29-.33-2.45-.54-4.77-.57-7.28l-.34-25.43c-.02-1.79-.19-4.67-2.24-4.96l-13.32-1.9c-3.36-.48-6.57-1.38-9.33-3.23s-3.38-5.39-1.44-8.11,4.53-4.61,7.5-6.21c3.82-1.97,7.61-3.67,11.54-5.45,2.89-1.31,5.63-2.46,8.68-3.6-.84-4.85-.79-9.56-.34-14.39.48-5.26,1.68-15.04,5.07-19.33l-9.85-10.13-9.82-10.12c-7.67-7.9-14.21-16.52-19.32-26.28-2.59-4.93-4.93-9.73-7.01-14.89-.59-1.45-1.47-2.81-1.45-4.47.09-5.8,7.84-16.98,11.4-21.72,1.65-2.2,3.68-3.72,5.95-5.13,3.17-1.97,6.5-2.88,10.25-2.28,6.35,1.01,12.3,3.08,18.06,5.94,3.02,1.49,5.81,2.99,8.96,4.22l32.17,12.49c7.94,3.08,17.76,6.34,24.74,8.81.45.16.58-.19.57-.29-.57-3.15-1.94-5.9-3.93-8.46-4.9-6.31-10.81-11.61-17.64-15.78l-9.78-5.97c-4.45-2.71-14.9-10.43-16.56-15.46l-8.3.45c-10.38.56-20.53,1.23-30.94,1.44l-28.25.67-11.04.34c.76,5.96,1.28,11.56,1.72,17.51l2.75,37.18,1.92,29.51,1.08,40.25c.43,15.9.66,31.68,1.67,47.58,1.14,18.11,1.98,36.08,2.11,54.2l.21,29.48.25,31.43-.15,21.75,26.49-1.91,45.02-2.93,15.68-1.4c1.86-6.99,8.38-18.64,12.59-24.26l11.38-15.18c.92-1.22,1.72-2.28,2.37-3.78l-9.53-4.84c-4.23-2.14-8.12-4.66-11.91-7.48-1.78-1.33-3.13-3.05-3.98-5.04-1.68-3.93,2.72-6.77,6.16-7.48,5.51-1.14,10.99-1.9,16.69-1.59l24.32,1.31,6.15-13.03c3.05-6.47,7.25-12.12,11.62-17.75,2.37-2.79,5.9-6.45,9.98-6.41l-13.21-12.2c-5.91-5.46-12.14-10.29-18.71-14.95l-27.52-19.56-5.84,6.65c-.99,1.12-1.82,2.18-2.67,3.48,2.31,10.16,5.37,17.71,6.89,28.11.31,2.09.08,4.42-1,6.18-1.59,2.6-4.81,3.19-7.57,2.25-8.4-2.86-11.57-6.07-18.29-8.99v-.02ZM184.45,334.72v5.53c.03,5.82.06,11.64.1,17.46.06,11.57.22,23.13.48,34.69.1,4.36.19,8.72.29,13.09,1.61-.97,3.29-1.44,5.25-1.05-.34-1.71-.63-2.64-.68-4.84-.19-7.95-.42-15.91-.55-23.86s-.22-16.57-.31-24.86c-.04-3.6-.08-7.21-.13-10.81v-5.79l.16-13.57v-19.46l-.44-54.41c-.14-17.33-1.02-34.5-2.09-51.78-.85-13.68-1.36-27.18-1.51-40.85-.18-16.11-.04-32.24-1.04-48.39l-5.13-83.01-6.94-.66c1.34,9.11,2.21,18.17,2.89,27.45l3.44,46.9c.85,11.59,1.44,22.95,1.66,34.54l.44,22.63c.31,15.97.66,31.79,1.66,47.79,1.19,19.03,1.99,38.01,2.13,57.06l.43,58.24-.1,17.97h-.01ZM317.08,48.82c.47-.54,1.19-1.34.98-2.04-4.7-4.44-9.92-7.98-15.4-11.37l-6.65-4.13c-1.91,2.65-1.12,2.77-2.53,4.79,7.65,4.69,14.29,10.47,19.55,17.32l4.05-4.58h0ZM238.19,41.42l10.25,4.78c-.86-1.18-2.93-1.56-4.16-2.13l-6.08-2.84c-3.72-1.74-15.89-6.15-19.62-3.1,2.2-.37,4.19-.65,6.39-.31,4.56.72,8.84,2.02,13.22,3.6ZM363.33,136.42c.01-.92,0-1.67-.21-2.5-1.07-4.4-2.43-8.52-4.07-12.76l-6.48-16.75c-1.63-4.21-2.63-8.71,1.38-11.94,1.45-1.17,2.99-2.12,4.6-3.11l9.61-5.87c2.19-1.34,10.8-7.46,11.59-10.01-3.96-1.91-14.32-2.15-18.67-2.04l-9.3.22c-2.24.05-4.4.36-6.62.17-2.95-.24-5.24-2.33-6.05-5.11-2.68-9.18-3.06-15.21-7.29-24.14-.58-1.23-2.73-4.84-4.05-4.74s-3.24,4.26-3.74,5.7c-2.79,8.06-4.62,16.19-6.12,24.6l-1.72,9.6c-.26,1.48-1.49,2.3-2.89,2.62l-20.48,4.72c-5.01,1.15-9.67,2.76-14.43,4.91,3.05,1.86,6.15,2.6,9.44,3.44,6.65,1.69,13.23,2.63,20.09,2.47,1.2-.03,2.41.67,2.97,1.37.76.95,1.11,2.25.82,3.46l-2.36,9.84c-1.91,7.96-3.26,15.86-3.98,24.02-.22,2.46-.25,4.76.07,7.33,3.63-3.23,6.39-6.57,9.21-10.18,3.7-4.73,7.04-9.48,10.21-14.56,1.58-2.54,3.97-4.84,7.12-3.24,1.18.6,2.21,1.38,3.26,2.24l12.15,9.99c2.88,2.37,12.39,9.5,15.93,10.25h.01ZM233.99,47.16c.14-1.33.27-2.47.78-3.89-3.91-1.4-12.04-4.17-15.91-2.41,1.67,6.76,4.75,12.49,8.2,18.09,1.72-.04,3.17.09,4.71.22.55-4.62,1.71-7.2,2.22-12h0ZM256.67,96.8c9.92,9.29,20.48,17.82,31.61,25.79,4.31,3.09,8.25,6.43,12.63,9.23-5.66-4.82-11.52-8.74-17.33-13.1s-11.64-8.88-17.21-13.76l-9.5-8.34-10.52-9.31c-3.96-3.5-7.68-7.01-11.14-11.04-7.54-8.79-16.54-23.03-18.83-34.39-.31-.04-.75.34-.69.62.96,4.22,2.27,8.06,4.26,11.95,4.1,8,9,15.43,14.88,22.24,3.5,4.06,7.22,7.6,11.26,11.08l10.58,9.04h0ZM205.83,63.9l8.88-11.67c.14-.19.67-.52.76-.67-.98-2.75-1.65-5.51-2.2-8.42-.54.23-1.67.56-1.97.96-3.77,5.06-7.4,10.67-9.77,16.49l2.72,5.7,1.58-2.4h0ZM242.39,61.07l8.9,3.1,3.23-11.91c-3.5-1.4-7.11-3.1-10.72-4.86l-6.67-3.24c-.78.69-.28,3.44-.5,5.37-.35,3.01-1.03,6.96-1.84,9.99,2.35.42,5.03.67,7.6,1.56h0ZM261.17,51.5c-1.93-1.05-3.77-1.83-5.79-2.27,1.93,1.05,3.77,1.83,5.79,2.27ZM274.34,63.34c.36-.92.88-1.76,1.42-2.73l-19.5-7.66c-.16,4.21-.99,8.1-2.21,12.24,5.81,2.13,11.47,4.34,16.78,7.04l3.52-8.89h-.01ZM315.39,57.6l1-4.5c-.87.9-1.37,1.4-2.23,2.12l1.22,2.37h.01ZM216.93,85.27l3.61-3.81,5.44-5.62c.68-.7,1.21-1.33,2.15-1.78-4.51-6.23-8.35-12.59-11.48-19.51l-7.64,9.62c-1.13,1.42-2.32,2.73-4.15,3.32l6.83,12.61,4.07,6.67c.34-.44.71-.99,1.18-1.49h-.01ZM298.05,78.85l2.87-8.99-22.93-8.37-4.75,12c5.19,2.72,10.24,5.34,15.73,7.57,0,0,9.08-2.21,9.08-2.21ZM244.67,65.77c.36.24,5.7,2.41,5.8,1.86-2-.87-3.94-1.36-5.81-2.04-2.02-.74-4.06-1.54-6.28-1.94-3.01-.55-5.85-.86-8.92-1.14.12.32.38.75.58.88,3.6-.81,10.91,1.44,14.63,2.38h0ZM221.57,99.84c-5.24-6.68-9.68-13.21-13.48-20.58-2.72-5.3-5.22-10.5-7.23-15.91.22,2.45.73,4.64,1.74,6.68,4.68,9.41,11.82,22.45,18.96,29.82h0ZM287.01,98.31c-3.96-.96-7.55-1.97-10.97-3.98-1.54-.91-2.86-2.38-2.97-4.26s1.19-3.42,2.77-4.18l3.2-1.53-13.32-6.73c-5.54-2.8-26.73-10.63-33.52-10.97,5.48,7.78,11.8,13.74,18.89,19.88l15.94,13.96c7.15,6.21,14.5,11.9,22.11,17.54l12.24,9.08c.85-5.79,1.8-11.12,3.1-16.59l2.32-9.77c-6.93.22-13.2-.83-19.8-2.43v-.02ZM313.21,75.43l-.11-1.48-9.96-3.29-2.16,7.5,12.23-2.74h0ZM236.76,101.35l1.65-1.79,1.81-1.96,2.54-2.77c.84-.91,1.65-1.74,2.48-2.84-5.78-5.18-11.01-10.06-15.72-16.09-.25.5-.51.98-.83,1.31l-10.41,10.38c-.31.31-1.1.68-1.12,1.16,3.42,4.98,7.14,9.45,11.33,13.73l3.79,3.87,1.92-2.17,2.58-2.83h-.02ZM252.77,121.79l1.73-1.93,2.67-2.84c1.02-1.22,2.14-2.28,3.33-3.34,1.52-1.36,2.89-2.79,4.44-4.33l-5.25-4.67-12.14-10.71-4.67,4.79-6.19,6.39-2.75,2.91,5.94,6.1,10.25,10.42c1.01-.97,1.75-1.79,2.64-2.77v-.02ZM223.22,101.72c-.41-.79-.87-1.3-1.6-1.8.38.83.85,1.34,1.6,1.8ZM225.78,104.49c-.79-1.16-1.56-2-2.61-2.77.74,1.17,1.6,2.1,2.61,2.77ZM229.79,108.67c1.56,1.8,3.18,3.61,5.13,5.16-1.6-1.92-3.33-3.55-5.14-5.35-1.2-1.19-2.17-2.63-3.74-3.57,0,0,3.75,3.76,3.75,3.76ZM283.45,134.54l2.37-2.18,2.17-2.03c.65-.6,1.17-1.08,1.97-1.76l-6.87-5.02c-5.47-4-10.68-8.12-16-12.41l-11.78,11.91-3.26,3.35,20.56,18.49c1.65-1.73,3.27-3.38,5.01-4.99l3.12-2.87,2.71-2.49h0ZM241.26,120.41c-1.94-2.21-3.74-4.2-5.87-5.99,1.88,2.17,3.84,4.16,5.87,5.99ZM311.12,158.45l3.92-4.15,3.69-3.83-8.32-6.34c-1.47,1.37-2.82,2.62-4.67,3.02-1.34.29-2.78.14-3.65-.9-1.16-1.39-1.51-3.18-1.62-5l-.08-4.8-8.25-6.2-15,13.56-2.89,2.47,11.42,9.02c3.84-.65,7.53-1.22,11.45-1.26,2.31-.02,4.45.91,6.24,2.23,2.64,2.98,1.7,6.24.4,9.82,1.13-1.06,2.08-2.08,3.11-3.17l4.25-4.48h0ZM290.45,215.27c.36.13,1.31.16,1.45-.16.45-1.1.46-2.27.27-3.39-.91-5.25-2.13-10.26-3.65-15.38-1.12-3.75-2.1-7.36-2.98-11.15s1.59-6.09,3.99-8.86l5.33-6.15c1.41-1.63,5.87-7.86,5.04-10.02-.86-.93-2.21-1.12-3.44-1.08-8.16.27-14.4,2.67-21.62,2.44-2.4-.08-4.4-1.25-5.62-3.22l-5.25-8.45-6.97-11.4c-.79-1.3-6.23-7.42-7.57-6.17-2.76,2.57-4.12,12.21-4.6,16.06-.65,5.29-.86,10.45-.2,15.73.16,1.27-.07,2.22-1.23,2.95-2.73,1.71-5.56,3.11-8.54,4.45-4.25,1.9-8.37,3.71-12.44,5.93-2.16,1.18-4.06,2.58-5.34,4.76,2.85,2.31,9.64,3,13.28,3.5l7.6,1.06c2.97.41,5.27,2.56,6.02,5.43.41,1.55.59,3.04.61,4.69l.34,25.62c.04,2.72.26,5.13.84,7.88.92-.21,1.55-.65,2.14-1.31,3.05-3.4,5.68-6.93,8.3-10.69s4.8-7.31,7.68-10.7c2.06-2.42,5.89-2.41,8.6-1.28,6.19,2.58,9.91,6.15,17.95,8.93v-.02ZM382.79,205.86c-5.16-6.51-10.96-12.54-17.03-18.4l-22.74-21.95c-7.76-7.49-20.77-17.97-29.78-24.33,3.55,3.36,7.55,5.82,11.31,8.91,6.53,5.37,13.04,10.62,19.13,16.54l26.46,25.75c4.42,4.3,8.34,8.88,12.48,13.48M305.29,169.42l30.58,21.91c.62-1.49,1.66-2.68,2.74-3.93l7.57-8.82,2.11-2.33c-8.78-8.55-17.85-16.41-27.25-24.09l-2.67,2.8-2.43,2.66-2.44,2.66-2.77,3-2.95,3.22c-.87.95-1.83,1.77-2.49,2.92h0ZM275.85,156.52l-3.92-3.12c.71,1.71,1.93,3.72,3.92,3.12ZM361.57,213.68l4.6-4.48,5.07-4.86,2.67-2.42-10.01-10.39-13.86-13.62-5.62,6.89-5.74,7.11c-.25.04-.85.94-.61,1.12,5.22,4.18,10.19,8.28,15.06,12.81l8.44,7.84h0ZM384.85,240.16c.38-.34.82-.84,1.19-1.12l9.7-7.33c-5.45-10.46-12.12-18.96-19.88-27.63l-5.26,5.14-6.77,6.65c4.28,4.33,8.13,8.72,12.05,13.27,3.14,3.65,6.07,7.15,8.97,11.03h0ZM358.13,215.18l-2.1-1.99c.55.76,1.18,1.43,2.1,1.99ZM363.93,220.9l-5.47-5.47,5.47,5.47ZM331.34,306.66c2.13-1.59,4.8-.94,6.18,1.16,1.56,2.38,2.79,4.8,4.19,7.35l12.08,21.95c1.98,3.6,11.42,18.59,15.48,19.36,1.04-1.49,1.48-3,1.71-4.8,1.13-8.83,1.11-17.54.59-26.47l-1.44-24.8c-.12-2.07-.18-4.01-.03-6,.25-3.31,2.72-5.59,6.04-5.73,6.24-.26,12.34-.47,18.54-1.12,2.15-.22,4.18-.81,5.75-2.45-3.59-3.16-7.6-5.19-11.91-6.88l-20.65-8.09c-3.84-1.5-6.2-4.84-6.6-8.92-.34-3.43-.42-6.7-.46-10.2-.08-6.53-.43-12.88-1.39-19.32-.3-1.99-.85-3.76-1.87-5.56-3.61,1.34-12.01,13.82-13.88,17.03l-9.61,16.51c-.75,1.29-2.12,3.07-3.78,2.98l-19.9-1.09c-6.1-.33-11.93-.18-17.92.96-1.32.25-2.41.48-3.74,1.12,1.31,2.43,9.62,7.32,12.01,8.55l10.37,5.35c2.24,1.16,3.48,3.42,2.9,5.96-.36,1.55-1.15,3.08-2.15,4.39l-7.18,9.42c-6.86,9-12.52,17.35-16.54,28-.45,1.21-.54,2.39-.36,3.69,1.72.08,3.17-.11,4.73-.68,7.9-2.9,15.29-6.57,22.54-10.89,5.66-3.37,10.96-6.85,16.29-10.81v.03ZM389.7,272.3c2.75,1.07,5.05,2.17,7.8,3.42-2.15-5.08-4.26-9.76-6.82-14.41-2.27-4.11-11.22-17.39-14.28-20.93l-11.98-13.87c.41,2.33.9,4.18,1.16,6.32.73,6.01,1.13,11.89,1.18,17.96.03,3.27.15,6.36.39,9.58.15,2.05,1.28,3.63,3.24,4.4l19.31,7.52h0ZM404.09,264.51c.48-.33.65-.53.69-1.06.29-3.5.07-6.8-1.06-10.11l-2.33-8.09c-1.17-4.04-2.98-7.82-4.67-11.51l-7.28,6.25c-.96.83-1.85,1.67-2.81,2.68,3.23,4.9,6.2,9.67,8.81,14.9,1.64,3.29,2.9,6.42,4.39,9.92l4.26-2.99h0ZM402.06,278.4l-5.9-13.32c-1.48-3.35-2.99-6.55-5.29-9.52l4.83,10.05,4.85,11.97c.2.48,1.02.98,1.51.82ZM402.94,275.32c1.1-2.72,1.49-5.16,1.56-7.9l-3.77,2.42,2.21,5.49h0ZM395.58,301.03c1.51-2.78,2.96-5.4,3.98-8.32l-4.14,5.41c.59,1.72-.47,2.26.15,2.91h.01ZM376.36,308.04c4.4-2.73,8.43-5.54,12.33-8.78,1.98-1.64,3.73-3.34,5.3-5.56l-17.33.85c-.38.02-.86.33-.86.74.03,4.29.24,8.3.56,12.75ZM386.3,314.82c1.47-1.82,2.87-3.65,4.19-5.55.1-2.03,1.25-4.4,1.33-6.74-4.44,4.69-9.32,8.27-15.1,11.31l.52,9.34,5.12-4.56c1.38-1.23,2.76-2.35,3.94-3.8h0ZM337.51,318.52l-3.86-6.98-14.15,9.61,18.02-2.63h-.01ZM307.73,327.94l20.33-2.56c4.02-.62,7.74-1.27,11.72-2.22.22-.05-.19-.89-.43-.83l-12.98,2.08-16.08,2.05c-.94.36-1.98.67-2.58,1.48h.02ZM339.51,340.62c.44-2.06.54-4,.64-6.05l.19-3.63c.07-1.24.17-2.46.12-3.71-4.04.85-7.8,1.64-11.92,2.18l-15.68,2.03-.14,10.06c-.04,2.46-.8,4.7-1.26,7.35l28.05-8.24h0ZM307.44,327.97c0-.08-.06-.14-.14-.14s-.14.06-.14.14.06.14.14.14.14-.06.14-.14ZM223.98,335.14l42.08-2.73,16.44-1.47c.2-.14-.05-1.07-.31-1.13l-14.32,1.24-46.01,2.86-26.49,1.8c-.12.48-.13.95-.02,1.44l28.62-2.01h.01ZM343.62,339.26l4.47-1.53-4.2-7.52-.21,3.02c-.14,2-.09,3.84-.06,6.03ZM270.18,359.11c13.16-2.75,25.71-5.95,38.48-9.46-.29-.62-.56-1.31-.52-1.82l.22-2.93.22-2.88c.05-.78.1-1.55.2-2.3l1.01-7.92-15.7,1.78c-2.36.9-4.68.73-7.13.98l-15.26,1.51-.1,10.75-.18,2.72-.5,4.59-.2,2.28c-.07.86-.54,1.79-.53,2.69h-.01ZM225.43,366.6l21.57-3.15,20.1-3.71c0-1.24-.64-2.53-.49-3.74l1.3-11.07.75-8.64-41.68,2.64-.11,7.43-.24,4.84-.22,4.87-.18,4.32-.17,2.71c-.07,1.15-.38,2.29-.61,3.51h-.02ZM222.24,356.32l.23-4.1.23-3.98.22-3.77.68-5.39-28.35,1.93.26,29.39,26.5-3.36c.11-.91.1-1.69-.07-2.53-.15-1.44,0-2.86.09-4.32l.21-3.87h0ZM327.94,348.4c-16.12,4.47-32.1,9.48-48.65,12.81l-23.07,4.64-29.9,4.64c-10.28,1.6-20.53,2.11-30.87,4.2,14.03-1.3,27.72-3.22,41.59-5.18,26.41-3.73,60.94-11.62,86.36-19.51l4.54-1.41c1.91-.59,3-.68,5.06-1.57-.21-.07-.81-.13-1.04-.05l-4.02,1.43h0ZM347.32,484.48l36.1-5.84,26.36-4.64,31.63-5.74c5.56-1.01,10.89-1.78,16.44-2.62l12.12-1.84.65-.11c.07-.01-.27-.16-.33-.2l-.28-.2c-1.03-.73-1.99-1.54-2.67-2.63-3.34-5.36-6.26-10.74-9.03-16.44-7.45-15.37-15-26.97-24.98-40.72-3.86-5.32-7.36-10.43-8.83-17.03-2.65.88-5.18,1.81-7.92,2.41-5.36,1.17-10.47,2.38-15.97,3.05l-39.34,4.75c-52.79,6.38-107.13,6.27-160.27,10.93,4.44,6.23,8.43,12.84,11.97,19.71,8.48,16.45,17.48,32.46,26.57,48.61l9.08,16.14c.71,1.26.86,2.51.94,4.13l36.5-3.87,61.26-7.86h0ZM234.48,495.18l8.98,1.3-9.55-17.08c-8.89-15.9-17.8-31.62-26.09-47.83-3.94-7.7-8.23-15.06-12.91-22.25l-.34,3.35c2.46,2.97,4.36,6.06,6.02,9.6l23.57,50.21,10.32,22.7h0ZM185.34,487.99l.58-23.15,1.12-30.9.64-10.71c.16-2.59.72-5.04,1.31-7.58s1.89-1.46,2.23-6.03l-1.4.2c-3.76,4.29-5.73,12.18-6.38,17.76-.73,6.27-1.03,12.36-1.02,18.73l.03,25.22c0,5.49-.03,10.68-.3,16.09l3.19.38h0ZM204.38,465.02l9.21-.82-10.51-23.41-5.88-14.5-3.58-9.05c-.32,4.06-.3,7.79-.35,11.79l-.23,18.15-.22,19.22c3.95-.62,7.59-1.03,11.57-1.39h-.01ZM176.62,469.59c.31-.07.95-.48.95-.8l.06-13.4.19-12.65c.05-7.05.72-13.74,1.79-20.93l-7.83,12.76-21.97,39.05,6.95.71c2.25-.35,4.24-1.18,6.44-1.68l13.41-3.08v.02ZM209.71,482.79l14.62,3.37-7.98-15.97-13.9,1.19c-3.36.29-6.6.71-9.82,1.3l-.07,6.71,17.15,3.39h0ZM177.36,476.86v-1.41l-3.58.82,3.58.59ZM177.31,482.49l-9.52-1.6-16.35-2.64c-1.34-.22-2.62-.61-3.94-1.04l-3.85,5.13,33.58,4.53.08-4.38h0ZM216.98,492.63l11.53,1.71c-.06-1.08-.83-1.84-1.96-2.07l-34.1-6.9-.05,3.73,19.04,2.82,5.54.7h0Z"/>
        <path class="st15" d="M409.64,260.35c.36-8.6-1.04-16.91-3.97-24.87-1.65-4.5-3.53-8.58-5.93-12.71-3.55-6.11-7.53-11.73-12.04-17.2-6.13-7.46-12.61-14.43-19.54-21.15l-21.01-20.36c-6.53-5.9-12.87-11.77-19.84-17.12l-11.44-8.77c5.02-6.14,9.48-12.37,13.55-19.02.12-.2.42-.49.59-.53.21-.05.67.16.88.33l11.39,9.42c4.74,3.92,9.56,7.4,14.73,10.7,2.92,1.87,9.48,4.73,11.03-.19.52-1.64.6-3.37.23-5.1-1-4.74-2.44-9.18-4.2-13.72l-6.72-17.38c-.77-1.99-1.95-4.91-.14-6.25,1.37-1.01,2.7-1.86,4.15-2.74l9.78-5.95c3.91-2.38,7.34-5.19,10.67-8.32,2.55-2.39,4.66-6.81,1.65-9.45-1.3-1.14-2.95-1.84-4.65-2.21-9.3-2-22.49-1.45-32.07-.8-1.51.1-2.61-.49-2.97-1.9l-2.43-9.46c-1.62-6.32-4.61-17.13-9.9-21.19-2.26-1.73-5.37-1.63-7.36.28-1.37,1.32-2.29,2.93-3.28,4.65-3.63-2.88-7.18-5.51-11.13-7.82l-12.96-7.58c-2.47-1.45-4.79-2.66-7.18-4.4l14.03-.2,21.47-.22,27.89-.21,46.22-.84c4.71-.09,8.94-1.41,13.62-2.46l.29,16.94-.23,10.21.34,25.01.77,44.68.69,28.79-.03,16.86-.26,24.11c-.08,7.87.24,15.4.84,23.28.85,11.2,1.52,22.23,1.85,33.47.62,21.36,1.68,42.57,3.26,63.91.97,13.16,1.44,26.2,1.61,39.35.19,13.92.95,27.58,2.14,41.44.02.27-.46.37-.72.37-2.98.03-5.81.12-8.74.45l-14.14,1.62-32.7,4.03-39.84,3.75c-24.92,2.35-49.81,2.95-74.77,4.49l-32.11,1.98c-6.76.42-13.18,1.2-19.84,2.03-1.37.17-2.69.96-3.94,1.27l-1.34-.84c-.22-.14-.36-.58-.32-.87.23-1.01.58-1.99.56-3.01l-.35-20.07,30.11-3.77c10.43-1.31,20.59-2.71,30.88-4.78l22.52-4.53c19.32-3.89,53.98-13.93,72.73-21.34,3.2,5.04,6.61,9.74,10.54,14.08,1.65,1.82,3.7,3.03,6.03,3.48,5.1.75,7.45-5.08,8-9.1,1.08-7.78,1.23-15.51.94-23.38,8.03-7.12,14.41-14.26,19.9-23.48,3.54-5.86,9.51-18.38,10.52-24.87.63-4.05,1.17-8.03,1.34-12.14l.36-8.64v-.04Z"/>
        <path class="st15" d="M270.43,211.16c6.72,2.92,9.89,6.13,18.29,8.99,2.76.94,5.98.35,7.57-2.25,1.08-1.77,1.3-4.09,1-6.18-1.52-10.41-4.59-17.96-6.89-28.11.85-1.3,1.68-2.36,2.67-3.48l5.84-6.65,27.52,19.56c6.57,4.67,12.8,9.5,18.71,14.95l13.21,12.2c-4.08-.05-7.61,3.62-9.98,6.41-4.37,5.62-8.57,11.28-11.62,17.75l-6.15,13.03-24.32-1.31c-5.7-.31-11.19.45-16.69,1.59-3.44.71-7.83,3.55-6.16,7.48.85,1.99,2.19,3.72,3.98,5.04,3.79,2.82,7.68,5.33,11.91,7.48l9.53,4.84c-.64,1.5-1.45,2.55-2.37,3.78l-11.38,15.18c-4.21,5.62-10.73,17.27-12.59,24.26l-15.68,1.4-45.02,2.93-26.49,1.91.15-21.75-.25-31.43-.21-29.48c-.13-18.11-.97-36.08-2.11-54.2-1-15.9-1.24-31.68-1.67-47.58l-1.08-40.25-1.92-29.51-2.75-37.18c-.44-5.95-.95-11.54-1.72-17.51l11.04-.34,28.25-.67c10.41-.21,20.56-.88,30.94-1.44l8.3-.45c1.66,5.03,12.11,12.75,16.56,15.46l9.78,5.97c6.83,4.17,12.74,9.47,17.64,15.78,1.99,2.56,3.35,5.31,3.93,8.46.02.1-.11.45-.57.29-6.98-2.47-16.8-5.73-24.74-8.81l-32.17-12.49c-3.15-1.22-5.95-2.72-8.96-4.22-5.76-2.85-11.71-4.92-18.06-5.94-3.76-.6-7.08.31-10.25,2.28-2.27,1.41-4.3,2.94-5.95,5.13-3.56,4.74-11.31,15.92-11.4,21.72-.03,1.66.86,3.02,1.45,4.47,2.09,5.16,4.43,9.95,7.01,14.89,5.12,9.76,11.66,18.38,19.32,26.28l9.82,10.12,9.85,10.13c-3.39,4.3-4.59,14.07-5.07,19.33-.45,4.84-.5,9.54.34,14.39-3.05,1.14-5.78,2.29-8.68,3.6-3.93,1.78-7.72,3.48-11.54,5.45-2.97,1.6-5.56,3.49-7.5,6.21s-1.41,6.21,1.44,8.11,5.97,2.75,9.33,3.23l13.32,1.9c2.05.29,2.22,3.17,2.24,4.96l.34,25.43c.03,2.51.24,4.83.57,7.28.21,1.55.79,3.06,1.66,4.29,1.29,1.83,3.45,2.36,5.48,1.59,1.71-.64,3.18-1.54,4.41-2.92,3.13-3.53,5.86-7.2,8.59-11.07l7.16-10.14c.49-.7,2.1-.49,2.78-.19v.02Z"/>
        <path class="st20" d="M331.34,306.66c-5.33,3.96-10.63,7.44-16.29,10.81-7.25,4.32-14.64,7.98-22.54,10.89-1.56.57-3.01.76-4.73.68-.18-1.3-.09-2.49.36-3.69,4.02-10.65,9.68-19,16.54-28l7.18-9.42c1-1.31,1.8-2.84,2.15-4.39.58-2.54-.65-4.81-2.9-5.96l-10.37-5.35c-2.4-1.24-10.71-6.13-12.01-8.55,1.33-.64,2.42-.87,3.74-1.12,5.99-1.13,11.82-1.29,17.92-.96l19.9,1.09c1.65.09,3.03-1.7,3.78-2.98l9.61-16.51c1.87-3.21,10.26-15.69,13.88-17.03,1.02,1.8,1.58,3.57,1.87,5.56.96,6.44,1.31,12.78,1.39,19.32.04,3.5.12,6.77.46,10.2.4,4.08,2.76,7.42,6.6,8.92l20.65,8.09c4.32,1.69,8.32,3.72,11.91,6.88-1.57,1.64-3.59,2.22-5.75,2.45-6.2.65-12.3.86-18.54,1.12-3.32.14-5.78,2.42-6.04,5.73-.15,1.99-.09,3.93.03,6l1.44,24.8c.52,8.93.54,17.64-.59,26.47-.23,1.79-.67,3.31-1.71,4.8-4.07-.78-13.5-15.77-15.48-19.36l-12.08-21.95c-1.4-2.54-2.63-4.97-4.19-7.35-1.38-2.1-4.05-2.75-6.18-1.16v-.03Z"/>
        <path class="st20" d="M363.33,136.42c-3.54-.75-13.05-7.88-15.93-10.25l-12.15-9.99c-1.05-.86-2.08-1.64-3.26-2.24-3.15-1.6-5.54.7-7.12,3.24-3.16,5.08-6.51,9.83-10.21,14.56-2.82,3.61-5.58,6.95-9.21,10.18-.32-2.57-.28-4.86-.07-7.33.72-8.17,2.07-16.06,3.98-24.02l2.36-9.84c.29-1.2-.06-2.5-.82-3.46-.56-.7-1.77-1.39-2.97-1.37-6.87.16-13.44-.77-20.09-2.47-3.29-.84-6.39-1.58-9.44-3.44,4.76-2.15,9.42-3.75,14.43-4.91l20.48-4.72c1.4-.32,2.62-1.14,2.89-2.62l1.72-9.6c1.51-8.42,3.33-16.54,6.12-24.6.5-1.44,2.49-5.61,3.74-5.7,1.32-.1,3.46,3.51,4.05,4.74,4.23,8.92,4.61,14.96,7.29,24.14.81,2.79,3.1,4.87,6.05,5.11,2.21.18,4.38-.12,6.62-.17l9.3-.22c4.34-.1,14.71.13,18.67,2.04-.8,2.54-9.41,8.67-11.59,10.01l-9.61,5.87c-1.61.98-3.15,1.94-4.6,3.11-4.02,3.22-3.01,7.73-1.38,11.94l6.48,16.75c1.64,4.23,2.99,8.36,4.07,12.76.2.83.23,1.58.21,2.5h-.01Z"/>
        <path class="st4" d="M287.01,98.31c6.59,1.61,12.86,2.65,19.8,2.43l-2.32,9.77c-1.3,5.48-2.25,10.8-3.1,16.59l-12.24-9.08c-7.6-5.64-14.95-11.33-22.11-17.54l-15.94-13.96c-7.09-6.14-13.41-12.11-18.89-19.88,6.79.34,27.98,8.17,33.52,10.97l13.32,6.73-3.2,1.53c-1.59.76-2.88,2.37-2.77,4.18s1.42,3.35,2.97,4.26c3.42,2.01,7,3.02,10.97,3.98v.02Z"/>
        <path class="st6" d="M413.81,4.81c-.09.03-.19.08-.28.1l-6.65,1.28c-1.69.33-3.29.51-5.13.54l-54.17.87-72.11,1.33-17.09.78-27.88,1.23-27.87.65-12.63.31-7.77-.48.65,4.94,8.71-.28,28.91-.67,28.82-1.22,23.26-1,40.27-.44,48.22-.22,22.59-.22,12.17-.21c3.83-.07,7.51-.37,11.27-1.05l5.58-1.01c.28-1.63.62-3.43,1.54-4.84-.14-.12-.27-.26-.4-.39h-.01Z"/>
        <path class="st11" d="M225.43,366.6c.23-1.22.54-2.36.61-3.51l.17-2.71.18-4.32.22-4.87.24-4.84.11-7.43,41.68-2.64-.75,8.64-1.3,11.07c-.14,1.22.5,2.5.49,3.74l-20.1,3.71-21.57,3.15h.02Z"/>
        <path class="st11" d="M305.29,169.42c.66-1.15,1.62-1.97,2.49-2.92l2.95-3.22,2.77-3,2.44-2.66,2.43-2.66,2.67-2.8c9.4,7.69,18.47,15.54,27.25,24.09l-2.11,2.33-7.57,8.82c-1.07,1.25-2.11,2.45-2.74,3.93l-30.58-21.91h0Z"/>
        <path class="st11" d="M222.24,356.32l-.21,3.87c-.08,1.46-.24,2.88-.09,4.32.17.84.18,1.62.07,2.53l-26.5,3.36-.26-29.39,28.35-1.93-.68,5.39-.22,3.77-.23,3.98-.23,4.1h0Z"/>
        <path class="st11" d="M270.18,359.11c-.01-.9.46-1.83.53-2.69l.2-2.28.5-4.59.18-2.72.1-10.75,15.26-1.51c2.45-.24,4.77-.07,7.13-.98l15.7-1.78-1.01,7.92c-.1.75-.14,1.52-.2,2.3l-.22,2.88-.22,2.93c-.04.51.24,1.2.52,1.82-12.76,3.51-25.31,6.72-38.48,9.46h.01Z"/>
        <path class="st11" d="M283.45,134.54l-2.71,2.49-3.12,2.87c-1.75,1.61-3.36,3.26-5.01,4.99l-20.56-18.49,3.26-3.35,11.78-11.91c5.32,4.29,10.53,8.42,16,12.41l6.87,5.02c-.8.68-1.33,1.16-1.97,1.76l-2.17,2.03-2.37,2.18Z"/>
        <path class="st4" d="M389.7,272.3l-19.31-7.52c-1.96-.76-3.08-2.34-3.24-4.4-.24-3.22-.37-6.3-.39-9.58-.05-6.07-.45-11.95-1.18-17.96-.26-2.14-.75-4-1.16-6.32l11.98,13.87c3.06,3.54,12.01,16.81,14.28,20.93,2.56,4.64,4.68,9.32,6.82,14.41-2.75-1.25-5.05-2.35-7.8-3.42h0Z"/>
        <path class="st12" d="M361.57,213.68l-8.44-7.84c-4.88-4.53-9.84-8.63-15.06-12.81-.23-.19.36-1.08.61-1.12l5.74-7.11,5.62-6.89,13.86,13.62,10.01,10.39-2.67,2.42-5.07,4.86-4.6,4.48h0Z"/>
        <path class="st12" d="M384.85,240.16c-2.9-3.87-5.83-7.37-8.97-11.03-3.92-4.56-7.76-8.94-12.05-13.27l6.77-6.65,5.26-5.14c7.77,8.67,14.43,17.17,19.88,27.63l-9.7,7.33c-.37.28-.81.78-1.19,1.12h0Z"/>
        <path class="st11" d="M252.77,121.79c-.88.98-1.63,1.8-2.64,2.77l-10.25-10.42-5.94-6.1,2.75-2.91,6.19-6.39,4.67-4.79,12.14,10.71,5.25,4.67c-1.55,1.54-2.92,2.97-4.44,4.33-1.19,1.07-2.31,2.12-3.33,3.34l-2.67,2.84-1.73,1.93v.02Z"/>
        <path class="st11" d="M236.76,101.35l-2.58,2.83-1.92,2.17-3.79-3.87c-4.19-4.28-7.91-8.75-11.33-13.73.02-.48.81-.85,1.12-1.16l10.41-10.38c.32-.32.58-.81.83-1.31,4.71,6.03,9.94,10.9,15.72,16.09-.83,1.1-1.64,1.93-2.48,2.84l-2.54,2.77-1.81,1.96-1.65,1.79h.02Z"/>
        <path class="st12" d="M339.51,340.62l-28.05,8.24c.45-2.65,1.22-4.88,1.26-7.35l.14-10.06,15.68-2.03c4.12-.53,7.87-1.32,11.92-2.18.05,1.25-.05,2.47-.12,3.71l-.19,3.63c-.11,2.04-.2,3.98-.64,6.05h0Z"/>
        <path class="st12" d="M216.93,85.27c-.47.5-.85,1.05-1.18,1.49l-4.07-6.67-6.83-12.61c1.84-.59,3.03-1.9,4.15-3.32l7.64-9.62c3.13,6.92,6.97,13.28,11.48,19.51-.93.45-1.47,1.08-2.15,1.78l-5.44,5.62-3.61,3.81h.01Z"/>
        <path class="st12" d="M298.05,78.85l-9.08,2.21c-5.49-2.23-10.54-4.85-15.73-7.57l4.75-12,22.93,8.37-2.87,8.99Z"/>
        <path class="st12" d="M404.09,264.51l-4.26,2.99c-1.5-3.49-2.76-6.63-4.39-9.92-2.61-5.23-5.58-10-8.81-14.9.96-1.01,1.85-1.86,2.81-2.68l7.28-6.25c1.69,3.68,3.5,7.46,4.67,11.51l2.33,8.09c1.13,3.3,1.35,6.61,1.06,10.11-.04.53-.21.72-.69,1.06h0Z"/>
        <path class="st12" d="M242.39,61.07c-2.57-.89-5.26-1.14-7.6-1.56.81-3.03,1.49-6.98,1.84-9.99.22-1.92-.27-4.68.5-5.37l6.67,3.24c3.62,1.76,7.22,3.46,10.72,4.86l-3.23,11.91-8.9-3.1h0Z"/>
        <path class="st12" d="M274.34,63.34l-3.52,8.89c-5.31-2.7-10.97-4.92-16.78-7.04,1.21-4.13,2.05-8.03,2.21-12.24l19.5,7.66c-.54.97-1.05,1.82-1.42,2.73h.01Z"/>
        <path class="st12" d="M233.99,47.16c-.51,4.8-1.67,7.39-2.22,12-1.54-.13-2.99-.26-4.71-.22-3.45-5.59-6.52-11.33-8.2-18.09,3.87-1.76,12,1.01,15.91,2.41-.51,1.42-.64,2.56-.78,3.89h0Z"/>
        <path class="st10" d="M317.08,48.82l-4.05,4.58c-5.26-6.85-11.9-12.64-19.55-17.32,1.41-2.03.62-2.14,2.53-4.79l6.65,4.13c5.47,3.4,10.7,6.94,15.4,11.37.21.7-.51,1.51-.98,2.04h0Z"/>
        <path class="st10" d="M291.72,35.01l-8.58-4.84c-3.55-2-6.67-4.19-10.04-6.78l1.75-3.61,5.71-.11,14.17,10.69c-1.36,1.46-2.33,2.86-3.01,4.65Z"/>
        <path class="st1" d="M376.36,308.04c-.31-4.45-.53-8.46-.56-12.75,0-.41.48-.72.86-.74l17.33-.85c-1.57,2.23-3.32,3.92-5.3,5.56-3.9,3.24-7.94,6.05-12.33,8.78Z"/>
        <path class="st12" d="M205.83,63.9l-1.58,2.4-2.72-5.7c2.38-5.82,6.01-11.43,9.77-16.49.3-.41,1.43-.73,1.97-.96.55,2.9,1.22,5.67,2.2,8.42-.09.14-.62.48-.76.67l-8.88,11.67h0Z"/>
        <path class="st13" d="M223.98,335.14l-28.62,2.01c-.12-.49-.11-.96.02-1.44l26.49-1.8,46.01-2.86,14.32-1.24c.26.06.52.99.31,1.13l-16.44,1.47-42.08,2.73h-.01Z"/>
        <path class="st10" d="M386.3,314.82c-1.17,1.45-2.56,2.57-3.94,3.8l-5.12,4.56-.52-9.34c5.78-3.04,10.66-6.62,15.1-11.31-.08,2.34-1.23,4.71-1.33,6.74-1.32,1.91-2.72,3.74-4.19,5.55h0Z"/>
        <path class="st3" d="M327.94,348.4c.19.04.19.1,0,.19l-4.54,1.41c-25.42,7.88-59.95,15.77-86.36,19.51-13.87,1.96-27.57,3.88-41.59,5.18,10.34-2.09,20.59-2.6,30.87-4.2l29.9-4.64,23.07-4.64c16.55-3.33,32.52-8.34,48.65-12.81h0Z"/>
        <polygon class="st1" points="337.51 318.52 319.5 321.15 333.65 311.54 337.51 318.52"/>
        <polygon class="st10" points="313.21 75.43 300.98 78.17 303.14 70.67 313.1 73.95 313.21 75.43"/>
        <path class="st22" d="M256.88,96.61c.27.33.14.44-.21.19l-10.58-9.04c-4.03-3.48-7.76-7.02-11.26-11.08-5.88-6.81-10.78-14.24-14.88-22.24-1.99-3.88-3.29-7.72-4.26-11.95-.06-.28.38-.66.69-.62,2.29,11.36,11.29,25.6,18.83,34.39,3.46,4.04,7.18,7.54,11.14,11.04l10.52,9.31h0Z"/>
        <path class="st12" d="M382.79,205.86c-.03.11.87,1.52.79,1.42-4.14-4.6-9.02-10.59-13.44-14.9l-26.46-25.75c-6.08-5.92-12.59-11.16-19.13-16.54-3.76-3.09-7.77-5.56-11.31-8.91,9.01,6.36,22.03,16.85,29.78,24.33l22.74,21.95c6.07,5.86,11.87,11.89,17.03,18.4h0Z"/>
        <path class="st13" d="M308.65,34.44c2.21,1.37,9.88,6.78,10.83,8.39.07.11-.35.48-.58.28-5.15-4.58-11.76-8.52-17.88-12.02s-10.99-7.47-16.53-11.34c1.08-.54,1.64.08,2.37.68,2.03,1.67,4.14,3.09,6.4,4.48,0,0,15.39,9.53,15.39,9.53Z"/>
        <path class="st13" d="M307.73,327.94c.6-.81,1.63-1.12,2.58-1.48l16.08-2.05,12.98-2.08c.23-.06.65.78.43.83-3.98.95-7.7,1.6-11.72,2.22l-20.33,2.56h-.02Z"/>
        <path class="st0" d="M256.67,96.8l.21-.19,9.5,8.34c5.56,4.88,11.28,9.3,17.21,13.76s11.67,8.28,17.33,13.1c-4.38-2.8-8.32-6.14-12.63-9.23-11.13-7.97-21.69-16.49-31.61-25.79h0Z"/>
        <path class="st22" d="M283.4,34.31c9.97,5,19.32,11.57,26.11,20.32,1.89,2.44,3.34,5.12,3.62,8.12-1.22-3.27-2.8-6.04-4.99-8.68-7.26-8.74-14.58-13.78-24.31-19.32-.14-.08-.39-.36-.43-.44h0Z"/>
        <path class="st3" d="M221.57,99.84c-7.14-7.37-14.28-20.41-18.96-29.82-1.01-2.04-1.52-4.23-1.74-6.68,2,5.41,4.5,10.61,7.23,15.91,3.79,7.38,8.23,13.9,13.48,20.58h0Z"/>
        <path class="st10" d="M343.62,339.26c-.03-2.19-.08-4.03.06-6.03l.21-3.02,4.2,7.52-4.47,1.53Z"/>
        <path class="st23" d="M189.88,399.6l-.5-20.36c.02-1.41-.04-4.03-.08-5.68v-.06h0c-.02-.79-.04-1.35-.04-1.42,0-.45,0-.89-.02-1.34,0-.89-.02-1.78-.03-2.67-.02-1.78-.04-3.57-.06-5.35-.02-1.96-.04-3.92-.07-5.88-.07-5.56-.11-11.16-.13-16.77-.02-10.96.09-21.92.09-32.89v-5.93l-.44-54.41c-.14-17.33-1.02-34.5-2.09-51.78-.85-13.68-1.36-27.18-1.51-40.85-.18-16.11-.04-32.24-1.04-48.39l-5.13-83.01-6.94-.66c1.33,9.11,2.21,18.17,2.89,27.45l3.44,46.9c.85,11.59,1.44,22.95,1.66,34.54l.44,22.63c.31,15.97.66,31.79,1.66,47.79,1.19,19.03,1.99,38.01,2.13,57.06l.43,58.24c-.04,6.77-.05,13.54-.04,20.31,0,8.45,0,16.91.05,25.37,0,1.79.02,3.57.03,5.36,0,1.03,0,2.05-.05,3.07-.05.93.06,6.78.19,8.9l.58,25.73c1.61-.97,3.29-1.44,5.25-1.05-.34-1.71-.63-2.64-.68-4.84h0Z"/>
        <path class="st10" d="M402.94,275.32l-2.21-5.49,3.77-2.42c-.07,2.74-.46,5.18-1.56,7.9h0Z"/>
        <path class="st6" d="M178.74,16.93c-2.64.5-4.84,1.05-7.18,1.81-.04-.16-.18-.53-.07-.59.14-.08.5-.22.69-.35l6.45-4.35.11,3.47h0Z"/>
        <path class="st3" d="M283.4,34.31c-6.16-3.09-11.72-7.38-16.8-12.16-.65-.62-1.1-1.33-1.44-2.07.69-.09.78.38,1.14.79,3.79,4.14,8.06,7.68,12.82,10.65l4.28,2.8h0Z"/>
        <path class="st22" d="M238.21,41.22c.13.06.12.12-.02.19-4.37-1.58-8.66-2.88-13.22-3.6-2.2-.35-4.19-.06-6.39.31,3.73-3.05,15.9,1.36,19.62,3.1h.01Z"/>
        <path class="st3" d="M244.66,65.6v.18c-3.71-.94-11.02-3.19-14.62-2.38-.2-.13-.46-.55-.58-.88,3.08.28,5.91.59,8.92,1.14,2.22.41,4.26,1.21,6.28,1.94Z"/>
        <path class="st12" d="M382.62,205.86h.17c4.29,4.64,14.5,20,17.74,25.33l-17.92-25.33h.01Z"/>
        <path class="st13" d="M395.58,301.03c-.62-.65.44-1.19-.15-2.91l4.14-5.41c-1.03,2.93-2.47,5.55-3.98,8.32h-.01Z"/>
        <path class="st12" d="M238.19,41.42l.02-.19,6.08,2.84c1.23.57,3.59,1.11,4.45,2.29l-10.54-4.94h-.01Z"/>
        <path class="st13" d="M315.39,57.6l-1.22-2.37c.86-.72,1.36-1.22,2.23-2.12l-1,4.5h-.01Z"/>
        <path class="st1" d="M275.85,156.52c-1.99.6-3.21-1.41-3.92-3.12l3.92,3.12Z"/>
        <polygon class="st13" points="272.16 19.85 271.44 21.97 269.22 19.97 272.16 19.85"/>
        <path class="st14" d="M229.79,108.67v-.19c1.8,1.8,3.53,3.43,5.13,5.35-1.95-1.55-3.57-3.35-5.13-5.16Z"/>
        <path class="st14" d="M241.26,120.41c-2.03-1.83-3.99-3.82-5.87-5.99,2.12,1.79,3.93,3.78,5.87,5.99Z"/>
        <path class="st12" d="M244.67,65.77v-.18c1.86.68,3.8,1.16,5.8,2.04-.1.55-5.44-1.62-5.8-1.86Z"/>
        <path class="st14" d="M327.94,348.58v-.19l4.02-1.43c.24-.08.83-.02,1.04.05-2.06.89-3.15.98-5.06,1.57Z"/>
        <path class="st12" d="M261.17,51.5c-2.03-.44-3.86-1.22-5.79-2.27,2.03.44,3.86,1.22,5.79,2.27Z"/>
        <path class="st3" d="M229.78,108.48v.19l-3.74-3.76c1.57.94,2.55,2.38,3.74,3.57Z"/>
        <path class="st14" d="M363.93,220.9l-5.47-5.47,5.47,5.47Z"/>
        <path class="st3" d="M225.78,104.49c-1.01-.67-1.87-1.59-2.61-2.77,1.04.76,1.81,1.61,2.61,2.77Z"/>
        <path class="st3" d="M223.22,101.72c-.74-.46-1.22-.97-1.6-1.8.73.49,1.18,1.01,1.6,1.8Z"/>
        <path class="st14" d="M358.13,215.18c-.92-.56-1.54-1.23-2.1-1.99l2.1,1.99Z"/>
        <circle class="st13" cx="307.3" cy="327.97" r=".14"/>
        <path class="st12" d="M311.12,158.45l-4.25,4.48c-1.03,1.09-1.98,2.1-3.11,3.17,1.31-3.58,2.24-6.85-.4-9.82-1.79-1.32-3.92-2.26-6.24-2.23-3.92.04-7.61.61-11.45,1.26l-11.42-9.02,2.89-2.47,15-13.56,8.25,6.2.08,4.8c.11,1.81.46,3.6,1.62,5,.87,1.04,2.31,1.19,3.65.9,1.85-.41,3.2-1.65,4.67-3.02l8.32,6.34-3.69,3.83-3.92,4.15h0Z"/>
        <path class="st17" d="M286.57,487.15c.11,1.46-1.77,2.15-3.11,2.39l-5.21.93-7.9.95-11.06,1.16c-2.18.23-4.19.31-6.4.24-1.33-1.36-2.38-2.68-3.31-4.32l-11.29-20.06-7.08-12.67c-3.73-6.68-7.2-13.29-10.54-20.19l-10.52-21.78c-.53-1.09-1.73-4.22-.3-4.64.45-.13,1.05.21,1.37.62,2.14,2.74,3.91,5.39,5.54,8.48l13.08,24.76,16.46,29.29,7.8,14.33c.38.7.57,1.56.82,2.37l22.06-3.46c1.87-.29,3.67-.14,5.56-.26,1.45-.09,3.93.24,4.05,1.86h-.02Z"/>
        <path class="st18" d="M345.06,471.7c-7.68.98-14.92,1.48-22.42,1.91-.73.04-1.51.26-2.07-.05l44.31-6.61,58.79-8.25c8.13-1.14,16.12-1.61,24.2-2.54l9.74-1.12c1.63-.19,3.29-.06,4.86,0-4.76,2.62-9.66,3.09-14.95,3.73l-22.92,2.76-41.38,5.31-38.16,4.86h0Z"/>
        <path class="st17" d="M161.56,467.52c-.68,1.23-2.34,1.85-3.39,1.08-.7-.51-.81-1.95-.42-2.75,1.56-3.21,2.97-6.31,4.75-9.44l10.9-19.15c.86-1.52,2.23-4.28,3.8-3.68,1.85.72-.91,6.41-1.62,7.88-2.62,5.39-5.43,10.49-8.32,15.73l-5.7,10.33h0Z"/>
        <path class="st12" d="M249.66,128.17c.34,0,.68,0,1.01,0-4.3-3.82-8.57-7.67-12.74-11.61-5.47-5.17-10.65-10.65-15.46-16.44-3.76-4.53-7.29-9.26-10.51-14.19-2.22-3.4-4.3-6.9-6.16-10.51-.97-1.87-1.9-3.82-2.68-5.74-.1-.24-.2-.49-.29-.74-.15-.42-.82-.24-.67.18.37,1.04.83,2.06,1.29,3.07,1.3,2.84,2.77,5.59,4.33,8.29,2.5,4.31,5.27,8.47,8.22,12.49,3.93,5.35,8.2,10.45,12.72,15.31,5.53,5.95,11.51,11.42,17.54,16.85,1.13,1.02,2.27,2.02,3.4,3.04h0Z"/>
        <path class="st12" d="M273.06,149.02c-2.73-2.33-5.44-4.69-8.16-7.05.41.64.8,1.29,1.16,1.94,4.64,4.01,9.31,7.99,14,11.94.39.33.79.65,1.18.98.24-.06.48-.1.73-.12h.2c-3.05-2.55-6.09-5.11-9.12-7.69h0Z"/>
        <path class="st20" d="M290.45,215.27c-8.04-2.77-11.76-6.35-17.95-8.93-2.71-1.13-6.54-1.14-8.6,1.28-2.89,3.39-5.14,7.06-7.68,10.7s-5.25,7.28-8.3,10.69c-.59.66-1.22,1.1-2.14,1.31-.58-2.75-.8-5.16-.84-7.88l-.34-25.62c-.02-1.65-.21-3.14-.61-4.69-.75-2.87-3.05-5.02-6.02-5.43l-7.6-1.06c-3.64-.51-10.43-1.19-13.28-3.5,1.28-2.18,3.18-3.58,5.34-4.76,4.07-2.22,8.19-4.03,12.44-5.93,2.99-1.34,5.82-2.74,8.54-4.45,1.16-.73,1.39-1.68,1.23-2.95-.66-5.28-.46-10.44.2-15.73.48-3.86,1.84-13.5,4.6-16.06,1.34-1.25,6.78,4.87,7.57,6.17l6.97,11.4,5.25,8.45c1.23,1.98,3.23,3.15,5.62,3.22,7.21.23,13.46-2.16,21.62-2.44,1.23-.04,2.58.15,3.44,1.08.83,2.16-3.63,8.39-5.04,10.02l-5.33,6.15c-2.39,2.76-4.84,5.2-3.99,8.86s1.87,7.4,2.98,11.15c1.52,5.11,2.74,10.12,3.65,15.38.19,1.12.18,2.29-.27,3.39-.13.33-1.08.29-1.45.16v.02Z"/>
        <path class="st12" d="M302.97,67.25c-15.42-5.86-39.11-14.17-53.94-20.74-1.17-.54-2.29-1.18-3.46-1.69l.03-.06c1.21.44,2.39.97,3.57,1.44,14.68,5.69,39.12,15.14,53.81,21.05h-.01Z"/>
        <path class="st12" d="M396.16,265.08c-1-2.25-2.1-4.46-3.34-6.58s-2.43-4.27-3.64-6.42c-2.47-4.38-5.15-8.65-8.03-12.76-.68-.97-1.37-1.93-2.07-2.88-6.71-9.09-15.31-16.49-23.49-24.17-16.66-15.02-35.06-28.3-53.75-40.66,18.32,12.64,36.94,25.9,53.44,41,8.21,7.65,16.81,14.98,23.55,24.03,3.37,4.49,6.43,9.21,9.29,14.05,2.61,4.41,4.67,9.05,6.96,13.62l.63,1.31,4.85,11.97c.2.48,1.02.98,1.51.82l-5.9-13.32h-.01Z"/>
      </g>
    </g>
  </g>
  <g>
    <path class="st5" d="M136.55,582.61c-2.09,0-4.16-.29-6.21-.86-2.05-.58-3.93-1.49-5.63-2.75-1.71-1.26-3.13-2.88-4.26-4.86-1.13-1.98-1.8-4.36-2.02-7.14h7.68c.34,2.18,1.06,3.88,2.14,5.12,1.09,1.24,2.39,2.1,3.9,2.59,1.51.49,3.02.74,4.51.74,1.66,0,3.15-.26,4.45-.77,1.3-.51,2.32-1.25,3.07-2.21.75-.96,1.12-2.08,1.12-3.36s-.36-2.51-1.09-3.55c-.73-1.04-2.28-1.78-4.67-2.21l-7.62-1.41c-3.67-.68-6.54-2.14-8.61-4.38-2.07-2.24-3.1-4.9-3.1-7.97,0-2.82.7-5.21,2.11-7.17,1.41-1.96,3.31-3.48,5.7-4.54,2.39-1.07,5.01-1.6,7.87-1.6s5.67.51,8.06,1.54c2.39,1.02,4.33,2.59,5.82,4.7,1.49,2.11,2.39,4.83,2.69,8.16h-7.81c-.26-1.92-.82-3.4-1.7-4.45-.88-1.04-1.92-1.78-3.14-2.21-1.22-.43-2.46-.64-3.74-.64-1.2,0-2.43.19-3.71.58-1.28.38-2.35,1.01-3.2,1.89-.85.88-1.28,2.06-1.28,3.55,0,1.28.48,2.42,1.44,3.42.96,1,2.51,1.7,4.64,2.08l7.04,1.28c3.75.68,6.71,2.02,8.86,4,2.15,1.98,3.23,4.88,3.23,8.67,0,2.26-.48,4.24-1.44,5.92s-2.23,3.11-3.81,4.29c-1.58,1.17-3.35,2.06-5.31,2.66-1.96.6-3.97.9-6.02.9Z"/>
    <path class="st5" d="M168.74,582.61c-3.63,0-6.5-1.25-8.61-3.74-2.11-2.5-3.17-6.13-3.17-10.91v-17.86h8.32v17.09c0,2.73.52,4.81,1.57,6.24,1.04,1.43,2.57,2.14,4.58,2.14,2.26,0,4.01-.8,5.25-2.4,1.24-1.6,1.86-3.83,1.86-6.69v-16.38h8.32v31.74h-8.32v-4.67c-.94,1.66-2.22,2.99-3.84,3.97-1.62.98-3.61,1.47-5.95,1.47Z"/>
    <path class="st5" d="M192.1,595.92v-45.82h8.32v4.54c1.02-1.41,2.38-2.64,4.06-3.71,1.69-1.07,3.85-1.6,6.5-1.6,2.99,0,5.65.73,8,2.18,2.35,1.45,4.2,3.44,5.57,5.95,1.36,2.52,2.05,5.38,2.05,8.58s-.68,6-2.05,8.51c-1.37,2.52-3.22,4.49-5.57,5.92-2.35,1.43-5.01,2.14-8,2.14-2.39,0-4.47-.45-6.24-1.34-1.77-.9-3.21-2.13-4.32-3.71v18.37h-8.32ZM209.13,575.38c1.75,0,3.31-.41,4.67-1.22,1.37-.81,2.43-1.92,3.2-3.33s1.15-3.01,1.15-4.8-.38-3.47-1.15-4.9c-.77-1.43-1.83-2.55-3.2-3.36-1.37-.81-2.92-1.22-4.67-1.22s-3.3.41-4.64,1.22c-1.34.81-2.39,1.92-3.14,3.33-.75,1.41-1.12,3.03-1.12,4.86s.37,3.46,1.12,4.86c.75,1.41,1.79,2.52,3.14,3.33,1.34.81,2.89,1.22,4.64,1.22Z"/>
    <path class="st5" d="M245.93,582.61c-3.24,0-6.1-.69-8.58-2.08-2.48-1.39-4.42-3.31-5.82-5.76s-2.11-5.3-2.11-8.54.69-6.21,2.08-8.77c1.39-2.56,3.32-4.55,5.79-5.98,2.47-1.43,5.35-2.14,8.64-2.14s5.93.68,8.32,2.05c2.39,1.37,4.26,3.22,5.6,5.57,1.34,2.35,2.02,5.01,2.02,8v1.41c0,.51-.04,1.05-.13,1.6h-26.3v-5.12h18.05c-.13-2.05-.9-3.69-2.3-4.93-1.41-1.24-3.14-1.86-5.18-1.86-1.54,0-2.94.34-4.22,1.02-1.28.68-2.29,1.7-3.04,3.04-.75,1.34-1.12,3.06-1.12,5.15v1.79c0,1.79.36,3.35,1.09,4.67.73,1.32,1.71,2.34,2.94,3.04,1.24.7,2.65,1.06,4.22,1.06s2.99-.36,4.1-1.09c1.11-.73,1.96-1.69,2.56-2.88h8.45c-.6,2.01-1.59,3.83-2.98,5.47-1.39,1.64-3.1,2.93-5.15,3.87-2.05.94-4.35,1.41-6.91,1.41Z"/>
    <path class="st5" d="M266.21,581.84v-31.74h8.32v4.86c.81-1.62,1.86-2.89,3.14-3.81,1.28-.92,2.75-1.38,4.42-1.38h4.03v7.42h-4.86c-1.54,0-2.81.41-3.81,1.22-1,.81-1.74,2.03-2.21,3.65-.47,1.62-.7,3.63-.7,6.02v13.76h-8.32Z"/>
    <path class="st5" d="M290.6,581.84v-46.08h8.32v46.08h-8.32Z"/>
    <path class="st5" d="M315.04,582.61c-2.39,0-4.45-.43-6.18-1.28-1.73-.85-3.04-2-3.94-3.46-.9-1.45-1.34-3.05-1.34-4.8,0-3.33,1.19-5.9,3.58-7.71s5.53-2.72,9.41-2.72c1.83,0,3.41.13,4.74.38,1.32.26,2.41.53,3.26.83v-1.54c0-2.22-.63-3.84-1.89-4.86-1.26-1.02-2.89-1.54-4.9-1.54-1.41,0-2.67.29-3.78.86-1.11.58-1.81,1.59-2.11,3.04h-7.87c.26-2.26,1.02-4.17,2.3-5.73,1.28-1.56,2.91-2.74,4.9-3.55,1.98-.81,4.17-1.22,6.56-1.22,4.74,0,8.44,1.13,11.1,3.39,2.67,2.26,4,5.46,4,9.6v7.17c0,1.62.1,2.82.29,3.58.19.77.5,1.26.93,1.47.43.21,1,.32,1.73.32h.26v6.98h-1.79c-2.26,0-4.14-.3-5.63-.9-1.49-.6-2.58-1.77-3.26-3.52-1.07,1.49-2.47,2.73-4.22,3.71-1.75.98-3.8,1.47-6.14,1.47ZM316.9,576.27c1.37,0,2.53-.31,3.49-.93.96-.62,1.76-1.47,2.4-2.56.64-1.09,1.09-2.27,1.34-3.55-.9-.26-1.93-.5-3.1-.74-1.17-.23-2.36-.35-3.55-.35-1.66,0-3,.37-4,1.12-1,.75-1.5,1.78-1.5,3.1,0,1.15.44,2.09,1.31,2.82.87.73,2.08,1.09,3.62,1.09Z"/>
    <path class="st5" d="M351.52,581.84c-2.13,0-3.94-.25-5.41-.74-1.47-.49-2.57-1.45-3.3-2.88-.73-1.43-1.09-3.49-1.09-6.18v-14.98h-5.44v-6.98h5.44v-8.51h8.32v8.51h8v6.98h-8v13.95c0,1.07.11,1.87.32,2.4.21.53.62.89,1.22,1.06.6.17,1.41.26,2.43.26h3.84v7.1h-6.34Z"/>
    <path class="st5" d="M361.32,581.84v-31.74h8.32v31.74h-8.32ZM361.51,544.85v-8.06h8.06v8.06h-8.06Z"/>
    <path class="st5" d="M384.93,581.84l-11.71-31.74h8.77l8,23.87,7.94-23.87h8.7l-11.65,31.74h-10.05Z"/>
    <path class="st5" d="M423.2,582.61c-3.24,0-6.1-.69-8.58-2.08-2.47-1.39-4.42-3.31-5.82-5.76s-2.11-5.3-2.11-8.54.69-6.21,2.08-8.77,3.32-4.55,5.79-5.98c2.47-1.43,5.35-2.14,8.64-2.14s5.93.68,8.32,2.05c2.39,1.37,4.26,3.22,5.6,5.57s2.02,5.01,2.02,8v1.41c0,.51-.04,1.05-.13,1.6h-26.3v-5.12h18.05c-.13-2.05-.9-3.69-2.3-4.93s-3.14-1.86-5.18-1.86c-1.54,0-2.94.34-4.22,1.02s-2.29,1.7-3.04,3.04c-.75,1.34-1.12,3.06-1.12,5.15v1.79c0,1.79.36,3.35,1.09,4.67s1.71,2.34,2.94,3.04c1.24.7,2.64,1.06,4.22,1.06s2.99-.36,4.1-1.09c1.11-.73,1.96-1.69,2.56-2.88h8.45c-.6,2.01-1.59,3.83-2.98,5.47-1.39,1.64-3.1,2.93-5.15,3.87-2.05.94-4.35,1.41-6.91,1.41Z"/>
    <path class="st5" d="M454.88,582.61c-4.18,0-7.63-.98-10.34-2.94-2.71-1.96-4.24-4.59-4.58-7.87h8.51c.3,1.32,1.06,2.39,2.27,3.2,1.22.81,2.7,1.22,4.45,1.22s3.23-.34,4.19-1.02,1.44-1.51,1.44-2.5c0-.81-.34-1.45-1.02-1.92-.68-.47-1.9-.81-3.65-1.02-.64-.08-1.47-.21-2.5-.38-1.02-.17-1.86-.32-2.5-.45-1.75-.34-3.35-.9-4.8-1.66s-2.61-1.79-3.49-3.07c-.88-1.28-1.31-2.88-1.31-4.8,0-2.82,1.06-5.19,3.17-7.14,2.11-1.94,5.19-2.91,9.25-2.91s7.27.9,9.66,2.69c2.39,1.79,3.73,4.31,4.03,7.55h-8.06c-.13-1.28-.74-2.24-1.82-2.88-1.09-.64-2.34-.96-3.74-.96-1.66,0-2.94.31-3.84.93-.9.62-1.34,1.38-1.34,2.27,0,1.54,1.41,2.56,4.22,3.07.43.04.97.12,1.63.22.66.11,1.35.21,2.08.32.72.11,1.3.2,1.73.29,1.24.17,2.45.45,3.65.83,1.19.38,2.27.91,3.23,1.57.96.66,1.73,1.55,2.3,2.66.58,1.11.86,2.48.86,4.1,0,2.09-.53,3.94-1.6,5.54-1.07,1.6-2.61,2.85-4.64,3.74-2.03.9-4.51,1.34-7.46,1.34Z"/>
    <path class="st5" d="M473.12,581.84v-9.73h10.37v9.73h-10.37ZM474.72,568.21l-.9-31.17h8.96l-.96,31.17h-7.1Z"/>
  </g>
</svg>