<?xml version="1.0" encoding="UTF-8"?>
<svg id="Layer_2" xmlns="http://www.w3.org/2000/svg" version="1.1" viewBox="0 0 799.36 470.24">
  <!-- Generator: Adobe Illustrator 29.7.1, SVG Export Plug-In . SVG Version: 2.1.1 Build 8)  -->
  <defs>
    <style>
      .st0 {
        fill: #eb507c;
      }

      .st1 {
        fill: #292935;
      }

      .st2 {
        fill: #fff;
      }

      .st3 {
        fill: #15817c;
      }

      .st4 {
        fill: #ea507c;
      }

      .st5 {
        fill: #e54f7a;
      }

      .st6 {
        fill: #e24f79;
      }
    </style>
  </defs>
  <g id="Type_1">
    <g>
      <path class="st1" d="M799.36,436.45v1.41c-.97,1.91-2.46,3.26-4.41,4.56-9.72,6.48-20.23,10.87-31.68,13.78s-21.92,5.25-33.28,6.04l-4.78.34-6.05.3c-3.53.17-6.79.25-10.31,0l-7.96-.55-5.65-.41-6.6-.53c-17.75-1.43-34.88-4.57-52.49-7.59l-40.38-6.92c-4.58-.78-8.96-1.08-13.56-1.47l-4.7-.4-5.63-.45-6.57-.46-7.48-.49-8.17-.41c-13.02-.66-25.96-.53-38.95.03l-9.66.42-7.53.42-7.47.51c-24.48,1.66-48.72,4.44-72.48,10.87l-35.78,9.69c-11.47,3.11-27.37,5.77-39.04,4.96l-7.04-.49-6.05-.48c-11.54-.91-22.46-3.01-33.79-5.5l-44.23-9.7c-10.22-2.24-19.99-4.68-30.36-5.71l-14.08-1.4-5.17-.4-7.02-.47-8.01-.43c-7.18-.39-14.26-.35-21.33.06l-8.52.49c-13.25.76-26.12,2.67-38.9,6.54-9.68,2.93-18.64,7.12-26.57,13.26-1.46,1.13-2.74,2.93-4.91,1.8-8.75-4.56-16.82-12.74-23.65-19.99-6.32-6.71-12.67-13.08-19.4-19.41-7.24-6.82-14.89-12.34-23.31-17.5-1.26-.77-2.97-2.27-3.73-3.36-.04-1.97,1.26-3.92,1.32-5.73.14-4.52.39-8.98-.04-13.45-.79-8.17-3.06-15.8-5.32-23.58l-3.61-12.42c-3.94-13.57-5.71-22.51-4.78-36.59.84-12.58,7.96-31.04,14.81-41.43l17.3-26.25c4.91-7.44,9.15-14.78,12.8-22.86,3.84-8.48,5.21-17.1,5.28-26.3.02-2.53.31-5.05.03-7.61-2.53-23.58-14.84-40.7-25.84-60.58l-6.05-10.94C7.61,99.78-.65,75.31,14.39,55l14.65-19.77c1.43.31,2.2-.11,3.42-.62,3.12-1.28,6.64-1.79,10.08-2.11l15.76-1.49,7.4-.52,7.53-.43c7.25-.41,14.34-.41,21.62-.02l8.44.45,7,.48,5.64.44,6.03.51,23.34,2.44,34.86,3.98,14.09,1.36,5.15.37,7.77.42,16.82.44c4.6.12,9.12.17,13.69,0l10.53-.39,7.51-.47,5.63-.43c11.82-.9,34.27-4.54,45.66-7.71l43.64-12.18c15.45-4.31,30.74-7.58,46.68-9.17,2.46-.25,4.65-.25,7.07-.4l5.21-.31c3.5-.21,7.06-.2,10.52.05l7.55.53c15.68,1.09,30.77,3.98,46.07,7.74l24.55,6.04c17.82,4.38,51.14,10.78,68.91,11.62,5,.24,9.94.3,14.98.02l6.6-.37c11.52-.65,22.74-2.91,33.86-5.93,6.3-1.71,11.97-3.84,18.18-5.81l50.09-15.91c7.26-2.31,14.04-4.4,20.75-7.87,4.22.64,12.7,7.64,16.41,10.7l22.88,18.83c6.54,5.38,13.53,9.69,19.58,15.64l12.98,12.78c.24.95.6,2.16.76,3.04l2.43,13.94c.85,4.88.54,9.61.05,14.55-1.81,18.31-8.02,37.54-14.91,54.54l-9.6,23.69c-3.96,9.77-6.98,22.9-6.23,33.33,1.1,15.22,5.07,23.16,12.17,36.3l5.45,10.08,7.89,15.56c4.71,9.28,4.73,21.93,4.04,32.27-.41,6.23-2.11,12.06-3.94,17.97l-8.09,26.18c-4.94,16-8.49,33.35-7.3,50.02.31,4.34,1.27,8.42,2.35,12.63,2.45,9.53,7.61,17.84,14.98,24.4,3.26,2.9,7.14,4.93,11.17,6.6,1.98.82,3.49,1.74,4.62,3.4v.02Z"/>
      <path class="st3" d="M70.79,382.91c-17.59,2.04-35.91,6.5-51.38,16.7.41-14.29-2.26-24.21-6.34-37.7-2.24-7.41-4.26-14.51-6.06-22.07-2.62-11.01-2.93-22.07-.27-33.13,4.69-19.51,14.56-33.6,25.61-49.86,8.68-12.79,19.37-29.28,21.8-44.71,2.62-16.71,1.26-31.01-5.49-46.62-9.18-21.25-21.81-38.21-31.27-58.72-4.16-9.02-6.8-18.57-6.48-28.54.25-7.9,3.05-14.81,7.44-21.04l12.06-17.11c31.5-4.77,60.51-5.71,92.11-2.2l50.59,5.61c42.8,4.74,94.02,5.63,135.63-5.99l37.87-10.58c24.76-6.91,47.26-12.08,73.27-11.04,13.25.53,26.12,1.92,39,4.97l28.87,6.84c23.28,5.51,46.27,10.39,70.02,13.33,7.03.87,13.63.67,20.66.7,8.86.03,17.22-.86,25.93-2.28,11.44-1.87,21.99-4.83,33.06-8.38l57-18.27c5.49-1.76,10.43-3.5,15.91-5.63,7.06,23.37-4.77,56.73-13.62,78.53l-8.56,21.07c-7.54,18.56-9.56,38.72-2.2,57.65,2.52,6.49,5.71,12.24,8.91,18.37l11.43,21.87c6.74,12.89,5.79,31.8,1.55,45.55l-9.39,30.47c-3.99,12.96-6.63,25.89-7.36,39.44-.43,7.87.35,15.14,2.12,22.69,3.44,14.63,13.41,30.26,27.76,36.1l.23.88c-8.85,5.53-18.04,9.33-28.17,11.87-13.49,3.39-33.27,7.04-47.12,6.7-21.2-.53-41.84-2.83-62.73-6.5l-41.46-7.29c-12.69-2.23-24.95-3.55-37.89-4.54-52.95-4.04-106.06-.66-158,10.55-12.41,2.68-24.13,6.32-36.28,9.69-11.29,3.13-22.37,5.37-34.18,5.35-16.03-.02-31.47-2.07-47.08-5.48l-43.86-9.58c-10.84-2.37-21.15-4.74-32.13-6.29-13.86-1.95-27.39-2.77-41.38-3.28s-26.7.37-40.14,1.93v-.03Z"/>
      <path class="st0" d="M790.44,438.06c-10.04,6.69-21.61,10.74-33.69,13.5l-33.56-35.06-19.57-21.78c9.3-3.35,17.24-7.15,25.09-12.99l10.54,14.55c7.86,11.34,17.7,20.68,29.19,28.32l11.1,6.83c3.28,2.52,6.5,4.48,10.9,6.63Z"/>
      <polygon class="st0" points="465.09 440.8 451.7 417.22 432.28 384.87 472.62 384.23 500.74 437.77 465.09 440.8"/>
      <polygon class="st0" points="554.26 392.59 579.84 439.21 537.7 436.94 510.05 386.48 528.52 388.24 554.26 392.59"/>
      <polygon class="st0" points="460.48 441.27 429.97 446.1 409.88 411.77 395.66 388.03 428.93 385.09 460.48 441.27"/>
      <path class="st0" d="M377.15,459.14c-8.78,2.64-16.75,4.04-25.3,4.72-15.3-18.92-29.69-37.65-43.88-57.21l26.22-7.39,22.75,33.07,20.2,26.8h0Z"/>
      <path class="st0" d="M402.48,452.16l-35.77-49.75c-2.17-3.02-3.71-5.85-5.56-9.15l29.96-4.65,34.09,58.33-22.72,5.23h0Z"/>
      <path class="st0" d="M151.75,440.04c-8.57,1.24-16.84,1.76-25.78,3.68l-54.07-55.08c10.96-1.65,21.1-1.93,32-2.12l10.42,11.77,37.44,41.75h0Z"/>
      <path class="st0" d="M81.01,461.55l-8.03-8.47-22.58-22.85-14.35-12.91c-5.33-4.19-10.85-7.77-16.75-10.69,7.42-5.44,15.33-9.28,24.06-12.16l55.84,57.54c-5.02,2.64-9.79,5.11-14.04,8.59-1.27,1.04-2.54,1.53-4.16.95h.01Z"/>
      <path class="st0" d="M312.15,461.49l-38.8-7.83-4.28-3.96-37.96-42.97c14.52,2.46,27.56,4.22,41.36,4.64l10.3,13.58,29.38,36.53h0Z"/>
      <path class="st0" d="M750.3,452.84c-10.26,2.19-19.96,3.66-30.41,3.98l-39.83-56.2,18.99-4.37,16.66,19.31,34.59,37.28Z"/>
      <path class="st0" d="M753.99,173.63l-47.67-29.03-19.13-10.74c.78-7.05,2.17-13.92,4.71-20.68l68.99,42.25-6.89,18.19h-.01Z"/>
      <path class="st0" d="M715.47,457.02l-32.48-2.18-32.38-50.74c8.36-.34,16.33-1.06,24.72-2.75l40.14,55.67h0Z"/>
      <path class="st0" d="M223.22,442.89l-27.2-2.5c-1.57-.04-2.8-.65-4.02-1.77l-46.66-49.3c2.69.02,5.28.2,7.99.75l32.78,6.69,37.11,46.12h0Z"/>
      <path class="st0" d="M763.42,352.87l-3.07,18.52-44.68-37.79-18.57-14.84c.72-7.88,1.65-15.25,3.53-22.97l20.19,17.5,25.64,24.1,16.97,15.48h-.01Z"/>
      <polygon class="st0" points="770.5 131.48 738.45 111 701.45 89.04 708.97 69.31 741.75 92.11 776 114.44 770.5 131.48"/>
      <path class="st0" d="M768.66,136l-6.21,15.68c-22.76-14.74-45.73-28.41-69.67-41.4l7.58-18.69,41.49,26.74,26.82,17.67h-.01Z"/>
      <polygon class="st0" points="532.64 436.86 506.06 437.54 476.72 384.34 505.45 385.88 532.64 436.86"/>
      <path class="st0" d="M185.93,439.69l-26,.06c-1.23-.34-2.66-1.83-3.73-2.86l-46.09-50.19,29.02,1.72,46.8,51.27h0Z"/>
      <path class="st0" d="M320.72,462.75c-1.14-.78-2.48-2.13-3.37-3.16-13.41-15.66-26.11-31.48-39-48.17,8.61-.64,16.72-1.74,24.97-3.56,13.17,19.49,26.74,37.56,41.92,56.17-8.25.59-16.04-.44-24.52-1.27h0Z"/>
      <path class="st0" d="M779.6,282.11l-51.92-28.9-12.74-6.48c1.61-6.55,2.18-12.91,2.22-20.49l54.16,29.94c4.82,8.45,8.52,16.36,8.28,25.93Z"/>
      <polygon class="st0" points="644.68 449.21 613.35 443.7 609.5 436.66 587.15 398.44 616.53 402.37 630.76 426.31 644.68 449.21"/>
      <path class="st0" d="M119.87,444.82l-15.62,4.97-56.78-56.5c6.8-2.05,13.27-3.21,20.09-4.24l32.32,34.8,20,20.97h0Z"/>
      <path class="st4" d="M777.92,303.66l-47.16-26.37-21.6-11.19,4.9-15.85,43.14,24.3,22.56,12.49c.31,5.4-.2,10.74-1.85,16.62h0Z"/>
      <polygon class="st4" points="263.85 451.36 233.16 444.92 229.13 441.33 193.48 398.43 224.73 405.19 249.07 434.63 263.85 451.36"/>
      <path class="st4" d="M771.16,326.44l-40.29-28.79c-8.55-6.13-16.8-11.62-26.25-16.75l3.77-12.26,39.68,22.97,28.87,16.2-5.78,18.62h0Z"/>
      <polygon class="st4" points="383.8 434.35 397.95 453.35 382.2 457.78 338.76 398.25 357.16 393.96 361.43 401.15 383.8 434.35"/>
      <path class="st4" d="M750.02,194.56l-30.86-19.32-29.22-16.95c-2.02-6.31-3-12.72-2.84-19.9l13.9,8.22,51.61,31.91-2.59,16.04Z"/>
      <path class="st4" d="M780.18,94.52l-43.85-29.17-21.79-15.12,3.18-17.61,26.32,21.64,37.18,28.07c.06,4.21-.19,7.85-1.04,12.2h0Z"/>
      <path class="st4" d="M767.22,248.76l-50.38-26.69c-.44-6.7-1.87-13.03-4.82-18.96l-7.04-14.16,23.8,17.02,26.03,17.65,12.41,25.15h0Z"/>
      <path class="st4" d="M764.78,347.69l-35.2-32.31c-9.05-8.51-18.09-16.25-28.09-23.55l2.46-8.21,27.67,19.34,38.1,27.99-4.95,16.74h.01Z"/>
      <polygon class="st4" points="607.26 442.5 585.02 439.66 559.57 393.65 582.37 397.65 607.26 442.5"/>
      <path class="st4" d="M779.21,99.78c-.27,3.53-1.05,6.89-2.19,10.2l-66.97-43.67,3.84-13.36,21.07,16.52,44.26,30.32h-.01Z"/>
      <path class="st4" d="M752.47,216.78l-35.74-23.57-14.51-9.01-10.39-20.7c6.41,3.33,12.25,6.85,18.44,10.78l39.83,25.32c.3,5.99,1.13,11.04,2.37,17.19h0Z"/>
      <path class="st4" d="M761.25,398.64c-7.58-5.52-14.7-11.03-21.73-17.23l-29.89-26.38-9.29-9.15c-2.13-7.35-3.74-14.6-3.19-22.83l29.55,25.16,33.27,28.62c-.49,7.4-.01,14.03,1.28,21.81h0Z"/>
      <path class="st4" d="M778.07,59.35l2.97,16.61-32.02-23.32-30.94-23.39c.27-6.88-.22-13.32-1.35-20.65l27.87,23.46,16.55,13.05,16.92,14.24h0Z"/>
      <circle class="st0" cx="231.07" cy="406.67" r=".23"/>
      <path class="st5" d="M767.86,417.24c-7.4-5.17-13.79-11.31-19.6-18.25l-12.33-15.67,26.99,22.01,4.94,11.9h0Z"/>
      <path class="st6" d="M726.2,374.32c-8.64-1.51-18.96-12.48-22.55-20.91l22.55,20.91Z"/>
      <path class="st0" d="M677.49,454.15l-24.8-3.54c-.77-.11-1.76-1.33-2.19-1.87l-28.57-45.93,23.65,1.5,10.47,16.99,21.44,32.85Z"/>
    </g>
  </g>
  <g>
    <path class="st2" d="M112.52,129.44l14.24-38.5h3.91l14.19,38.5h-4.07l-13.03-35.97h1.87l-13.04,35.97h-4.07ZM119.12,119.21l1.16-3.19h16.83l1.15,3.19h-19.14Z"/>
    <path class="st2" d="M156.91,129.44c-1.39,0-2.58-.18-3.55-.55-.97-.37-1.71-1.04-2.2-2.01-.5-.97-.74-2.36-.74-4.15v-17.27h-4.73v-3.3h4.73v-6.33h3.85v6.33h8.14v3.3h-8.14v16.56c0,1.32.1,2.27.3,2.86.2.59.6.94,1.21,1.07.6.13,1.53.19,2.78.19h3.35v3.3h-5Z"/>
    <path class="st2" d="M176.71,129.44c-1.39,0-2.58-.18-3.55-.55-.97-.37-1.71-1.04-2.2-2.01-.5-.97-.74-2.36-.74-4.15v-17.27h-4.73v-3.3h4.73v-6.33h3.85v6.33h8.14v3.3h-8.14v16.56c0,1.32.1,2.27.3,2.86.2.59.6.94,1.21,1.07.6.13,1.53.19,2.78.19h3.35v3.3h-5Z"/>
    <path class="st2" d="M198.32,130.1c-2.57,0-4.84-.6-6.82-1.79s-3.54-2.86-4.67-5c-1.14-2.15-1.71-4.67-1.71-7.56s.56-5.41,1.68-7.54c1.12-2.13,2.69-3.78,4.7-4.95,2.02-1.17,4.33-1.76,6.93-1.76s4.9.6,6.77,1.79c1.87,1.19,3.3,2.74,4.29,4.65.99,1.91,1.48,3.96,1.48,6.16v1.16c0,.4-.02.86-.06,1.38h-22.82v-3.3h19.14c-.11-2.68-1.01-4.77-2.69-6.27-1.69-1.5-3.78-2.26-6.27-2.26-1.65,0-3.19.37-4.62,1.1-1.43.73-2.58,1.81-3.46,3.22-.88,1.41-1.32,3.16-1.32,5.25v1.48c0,2.46.46,4.5,1.38,6.13.92,1.63,2.1,2.84,3.55,3.63,1.45.79,2.96,1.18,4.54,1.18,2.05,0,3.78-.48,5.17-1.43,1.39-.95,2.38-2.27,2.97-3.96h3.74c-.44,1.65-1.19,3.13-2.25,4.45-1.06,1.32-2.4,2.36-4.02,3.11-1.61.75-3.48,1.13-5.61,1.13Z"/>
    <path class="st2" d="M217.57,129.44v-27.28h3.85v4.73c.92-1.69,2.2-3.01,3.85-3.96,1.65-.95,3.48-1.43,5.5-1.43,3.15,0,5.7.95,7.65,2.86,1.94,1.91,2.92,4.9,2.92,8.96v16.12h-3.85v-15.67c0-3.01-.63-5.24-1.9-6.71-1.27-1.47-3.09-2.2-5.47-2.2s-4.56.9-6.21,2.69c-1.65,1.8-2.48,4.38-2.48,7.76v14.13h-3.85Z"/>
    <path class="st2" d="M260.58,130.1c-2.75,0-5.13-.62-7.15-1.87-2.02-1.25-3.58-2.95-4.7-5.12-1.12-2.16-1.68-4.62-1.68-7.37s.56-5.2,1.68-7.34c1.12-2.15,2.69-3.83,4.73-5.06,2.03-1.23,4.43-1.84,7.18-1.84,2.31,0,4.36.49,6.16,1.46,1.8.97,3.15,2.32,4.07,4.04v-17.16h3.85v39.6h-3.85v-4.73c-.88,1.36-2.16,2.59-3.85,3.71-1.69,1.12-3.83,1.68-6.44,1.68ZM260.8,126.74c1.94,0,3.65-.46,5.12-1.38,1.47-.92,2.62-2.19,3.46-3.82.84-1.63,1.27-3.55,1.27-5.75s-.42-4.12-1.27-5.77c-.84-1.65-2-2.92-3.46-3.82-1.47-.9-3.17-1.35-5.12-1.35s-3.6.45-5.09,1.35c-1.48.9-2.65,2.17-3.49,3.82-.84,1.65-1.27,3.58-1.27,5.77s.42,4.12,1.27,5.75c.84,1.63,2.01,2.91,3.49,3.82,1.48.92,3.18,1.38,5.09,1.38Z"/>
    <path class="st2" d="M307.06,129.44c-1.39,0-2.58-.18-3.55-.55-.97-.37-1.71-1.04-2.2-2.01-.5-.97-.74-2.36-.74-4.15v-17.27h-4.73v-3.3h4.73v-6.33h3.85v6.33h8.14v3.3h-8.14v16.56c0,1.32.1,2.27.3,2.86.2.59.6.94,1.21,1.07.6.13,1.53.19,2.78.19h3.35v3.3h-5Z"/>
    <path class="st2" d="M318.17,129.44v-39.6h3.85v17.16c.95-1.72,2.28-3.07,3.99-4.04,1.71-.97,3.55-1.46,5.53-1.46,3.08,0,5.58.95,7.51,2.86,1.93,1.91,2.89,4.9,2.89,8.96v16.12h-3.79v-15.67c0-3.01-.6-5.24-1.81-6.71-1.21-1.47-3.01-2.2-5.39-2.2s-4.6.9-6.33,2.69c-1.72,1.8-2.58,4.38-2.58,7.76v14.13h-3.85Z"/>
    <path class="st2" d="M361.06,130.1c-2.57,0-4.84-.6-6.82-1.79s-3.54-2.86-4.67-5c-1.14-2.15-1.71-4.67-1.71-7.56s.56-5.41,1.68-7.54c1.12-2.13,2.69-3.78,4.7-4.95,2.02-1.17,4.33-1.76,6.93-1.76s4.9.6,6.77,1.79c1.87,1.19,3.3,2.74,4.29,4.65.99,1.91,1.48,3.96,1.48,6.16v1.16c0,.4-.02.86-.06,1.38h-22.82v-3.3h19.14c-.11-2.68-1.01-4.77-2.69-6.27-1.69-1.5-3.78-2.26-6.27-2.26-1.65,0-3.19.37-4.62,1.1-1.43.73-2.58,1.81-3.46,3.22-.88,1.41-1.32,3.16-1.32,5.25v1.48c0,2.46.46,4.5,1.38,6.13.92,1.63,2.1,2.84,3.55,3.63,1.45.79,2.96,1.18,4.54,1.18,2.05,0,3.78-.48,5.17-1.43,1.39-.95,2.38-2.27,2.97-3.96h3.74c-.44,1.65-1.19,3.13-2.25,4.45-1.06,1.32-2.4,2.36-4.02,3.11-1.61.75-3.48,1.13-5.61,1.13Z"/>
    <path class="st2" d="M396.87,141.54v-39.38h3.85v4.73c.88-1.39,2.17-2.64,3.88-3.74s3.84-1.65,6.41-1.65c2.75,0,5.13.62,7.15,1.87,2.02,1.25,3.58,2.95,4.7,5.11,1.12,2.16,1.68,4.62,1.68,7.37s-.56,5.2-1.68,7.34c-1.12,2.15-2.69,3.83-4.7,5.06s-4.42,1.84-7.21,1.84c-2.31,0-4.35-.49-6.13-1.46-1.78-.97-3.14-2.32-4.1-4.04v16.94h-3.85ZM410.78,126.74c1.94,0,3.65-.46,5.12-1.38,1.47-.92,2.62-2.19,3.46-3.82.84-1.63,1.27-3.55,1.27-5.75s-.42-4.12-1.27-5.77-2-2.92-3.46-3.82c-1.47-.9-3.17-1.35-5.12-1.35s-3.6.45-5.09,1.35c-1.49.9-2.65,2.17-3.49,3.82s-1.26,3.58-1.26,5.77.42,4.12,1.26,5.75c.84,1.63,2.01,2.91,3.49,3.82,1.48.92,3.18,1.38,5.09,1.38Z"/>
    <path class="st2" d="M430.31,129.44v-27.28h3.85v4.34c.59-1.43,1.41-2.54,2.47-3.33,1.06-.79,2.38-1.18,3.96-1.18h4.4v3.69h-4.79c-1.1,0-2.11.32-3.03.96-.92.64-1.65,1.71-2.2,3.19-.55,1.48-.83,3.49-.83,6.02v13.58h-3.85Z"/>
    <path class="st2" d="M459.9,130.1c-2.57,0-4.84-.6-6.82-1.79-1.98-1.19-3.54-2.86-4.67-5s-1.71-4.67-1.71-7.56.56-5.41,1.68-7.54c1.12-2.13,2.69-3.78,4.7-4.95,2.02-1.17,4.33-1.76,6.93-1.76s4.89.6,6.76,1.79c1.87,1.19,3.3,2.74,4.29,4.65.99,1.91,1.49,3.96,1.49,6.16v1.16c0,.4-.02.86-.06,1.38h-22.82v-3.3h19.14c-.11-2.68-1.01-4.77-2.7-6.27-1.69-1.5-3.78-2.26-6.27-2.26-1.65,0-3.19.37-4.62,1.1-1.43.73-2.58,1.81-3.46,3.22-.88,1.41-1.32,3.16-1.32,5.25v1.48c0,2.46.46,4.5,1.38,6.13.92,1.63,2.1,2.84,3.55,3.63,1.45.79,2.96,1.18,4.54,1.18,2.05,0,3.78-.48,5.17-1.43,1.39-.95,2.38-2.27,2.97-3.96h3.74c-.44,1.65-1.19,3.13-2.25,4.45-1.06,1.32-2.4,2.36-4.01,3.11-1.61.75-3.48,1.13-5.61,1.13Z"/>
    <path class="st2" d="M479.31,129.44v-27.28h3.85v3.96c.88-1.47,2.05-2.6,3.52-3.41,1.47-.81,3.1-1.21,4.89-1.21,2.16,0,4.04.45,5.64,1.35,1.59.9,2.8,2.28,3.6,4.15.92-1.72,2.22-3.07,3.91-4.04,1.69-.97,3.48-1.46,5.39-1.46,3.15,0,5.72.95,7.7,2.86,1.98,1.91,2.97,4.9,2.97,8.96v16.12h-3.85v-15.67c0-3.01-.61-5.24-1.82-6.71-1.21-1.47-2.92-2.2-5.12-2.2s-4.18.9-5.72,2.69c-1.54,1.8-2.31,4.38-2.31,7.76v14.13h-3.85v-15.67c0-3.01-.6-5.24-1.81-6.71-1.21-1.47-2.92-2.2-5.12-2.2s-4.18.9-5.72,2.69c-1.54,1.8-2.31,4.38-2.31,7.76v14.13h-3.85Z"/>
    <path class="st2" d="M527.88,96.6v-5.67h5.5v5.67h-5.5ZM528.76,129.44v-27.28h3.85v27.28h-3.85Z"/>
    <path class="st2" d="M551.64,130.1c-2.57,0-4.84-.6-6.82-1.79-1.98-1.19-3.54-2.86-4.68-5s-1.7-4.67-1.7-7.56.56-5.41,1.68-7.54c1.12-2.13,2.69-3.78,4.7-4.95,2.02-1.17,4.33-1.76,6.93-1.76s4.89.6,6.76,1.79c1.87,1.19,3.3,2.74,4.29,4.65.99,1.91,1.49,3.96,1.49,6.16v1.16c0,.4-.02.86-.05,1.38h-22.83v-3.3h19.14c-.11-2.68-1.01-4.77-2.7-6.27-1.69-1.5-3.78-2.26-6.27-2.26-1.65,0-3.19.37-4.62,1.1-1.43.73-2.58,1.81-3.46,3.22-.88,1.41-1.32,3.16-1.32,5.25v1.48c0,2.46.46,4.5,1.38,6.13.92,1.63,2.1,2.84,3.55,3.63,1.45.79,2.96,1.18,4.54,1.18,2.05,0,3.78-.48,5.17-1.43,1.39-.95,2.38-2.27,2.97-3.96h3.74c-.44,1.65-1.19,3.13-2.25,4.45-1.06,1.32-2.4,2.36-4.01,3.11-1.61.75-3.48,1.13-5.61,1.13Z"/>
    <path class="st2" d="M570.89,129.44v-27.28h3.85v4.34c.59-1.43,1.41-2.54,2.48-3.33,1.06-.79,2.38-1.18,3.96-1.18h4.4v3.69h-4.79c-1.1,0-2.11.32-3.03.96-.92.64-1.65,1.71-2.2,3.19s-.83,3.49-.83,6.02v13.58h-3.85Z"/>
    <path class="st2" d="M600.48,130.1c-2.57,0-4.84-.6-6.82-1.79-1.98-1.19-3.54-2.86-4.68-5s-1.7-4.67-1.7-7.56.56-5.41,1.68-7.54c1.12-2.13,2.69-3.78,4.7-4.95,2.02-1.17,4.33-1.76,6.93-1.76s4.89.6,6.76,1.79c1.87,1.19,3.3,2.74,4.29,4.65.99,1.91,1.49,3.96,1.49,6.16v1.16c0,.4-.02.86-.05,1.38h-22.83v-3.3h19.14c-.11-2.68-1.01-4.77-2.7-6.27-1.69-1.5-3.78-2.26-6.27-2.26-1.65,0-3.19.37-4.62,1.1-1.43.73-2.58,1.81-3.46,3.22-.88,1.41-1.32,3.16-1.32,5.25v1.48c0,2.46.46,4.5,1.38,6.13.92,1.63,2.1,2.84,3.55,3.63,1.45.79,2.96,1.18,4.54,1.18,2.05,0,3.78-.48,5.17-1.43,1.39-.95,2.38-2.27,2.97-3.96h3.74c-.44,1.65-1.19,3.13-2.25,4.45-1.06,1.32-2.4,2.36-4.01,3.11-1.61.75-3.48,1.13-5.61,1.13Z"/>
    <path class="st2" d="M107.16,196.1c-2.27,0-4.16-.39-5.66-1.16-1.5-.77-2.62-1.79-3.36-3.05-.73-1.27-1.1-2.59-1.1-3.99,0-3.01,1.09-5.3,3.27-6.88,2.18-1.58,5.05-2.36,8.61-2.36,1.5,0,2.92.12,4.23.36,1.32.24,2.4.5,3.25.8v-1.15c0-2.57-.65-4.52-1.95-5.86-1.3-1.34-3.07-2.01-5.31-2.01-1.91,0-3.55.39-4.92,1.18-1.38.79-2.23,2.12-2.56,3.99h-4.01c.22-1.98.9-3.59,2.03-4.84,1.14-1.25,2.54-2.16,4.21-2.75,1.67-.59,3.42-.88,5.25-.88,3.78,0,6.57,1.04,8.39,3.11,1.81,2.07,2.72,4.76,2.72,8.06v9.19c0,1.32.08,2.27.25,2.86.17.59.46.94.88,1.07.42.13,1,.19,1.73.19h.44v3.46h-.82c-1.69,0-3.07-.31-4.15-.94-1.08-.62-1.77-1.89-2.06-3.79-.81,1.5-1.95,2.78-3.44,3.82-1.48,1.05-3.46,1.57-5.91,1.57ZM107.55,192.8c1.83,0,3.41-.48,4.73-1.43,1.32-.95,2.34-2.18,3.05-3.69.72-1.5,1.07-3.08,1.07-4.73-.88-.26-1.97-.5-3.27-.72-1.3-.22-2.61-.33-3.93-.33-3.01,0-5.13.57-6.38,1.7-1.25,1.14-1.87,2.53-1.87,4.18,0,1.43.57,2.62,1.71,3.58,1.14.95,2.77,1.43,4.9,1.43Z"/>
    <path class="st2" d="M129.33,195.44v-27.28h3.85v4.73c.92-1.69,2.2-3.01,3.85-3.96,1.65-.95,3.48-1.43,5.5-1.43,3.15,0,5.7.95,7.65,2.86,1.94,1.91,2.92,4.9,2.92,8.96v16.12h-3.85v-15.67c0-3.01-.63-5.24-1.9-6.71-1.27-1.47-3.09-2.2-5.47-2.2s-4.56.9-6.21,2.69c-1.65,1.8-2.48,4.38-2.48,7.76v14.13h-3.85Z"/>
    <path class="st2" d="M172.33,196.1c-2.75,0-5.13-.62-7.15-1.87-2.02-1.25-3.58-2.95-4.7-5.12-1.12-2.16-1.68-4.62-1.68-7.37s.56-5.2,1.68-7.34c1.12-2.15,2.69-3.83,4.73-5.06,2.03-1.23,4.43-1.84,7.18-1.84,2.31,0,4.36.49,6.16,1.46,1.8.97,3.15,2.32,4.07,4.04v-17.16h3.85v39.6h-3.85v-4.73c-.88,1.36-2.16,2.59-3.85,3.71-1.69,1.12-3.83,1.68-6.44,1.68ZM172.55,192.74c1.94,0,3.65-.46,5.12-1.38,1.47-.92,2.62-2.19,3.46-3.82.84-1.63,1.27-3.55,1.27-5.75s-.42-4.12-1.27-5.77c-.84-1.65-2-2.92-3.46-3.82-1.47-.9-3.17-1.35-5.12-1.35s-3.6.45-5.09,1.35c-1.48.9-2.65,2.17-3.49,3.82-.84,1.65-1.27,3.58-1.27,5.77s.42,4.12,1.27,5.75c.84,1.63,2.01,2.91,3.49,3.82,1.48.92,3.18,1.38,5.09,1.38Z"/>
    <path class="st2" d="M210.39,195.44v-39.6h3.85v17.16c.95-1.72,2.28-3.07,3.99-4.04,1.71-.97,3.55-1.46,5.53-1.46,3.08,0,5.58.95,7.51,2.86,1.93,1.91,2.89,4.9,2.89,8.96v16.12h-3.79v-15.67c0-3.01-.6-5.24-1.81-6.71-1.21-1.47-3.01-2.2-5.39-2.2s-4.6.9-6.33,2.69c-1.72,1.8-2.58,4.38-2.58,7.76v14.13h-3.85Z"/>
    <path class="st2" d="M250.27,196.1c-2.27,0-4.16-.39-5.66-1.16-1.5-.77-2.62-1.79-3.36-3.05-.73-1.27-1.1-2.59-1.1-3.99,0-3.01,1.09-5.3,3.27-6.88,2.18-1.58,5.05-2.36,8.61-2.36,1.5,0,2.92.12,4.23.36,1.32.24,2.4.5,3.25.8v-1.15c0-2.57-.65-4.52-1.95-5.86-1.3-1.34-3.07-2.01-5.31-2.01-1.91,0-3.55.39-4.92,1.18-1.38.79-2.23,2.12-2.56,3.99h-4.01c.22-1.98.9-3.59,2.03-4.84,1.14-1.25,2.54-2.16,4.21-2.75,1.67-.59,3.42-.88,5.25-.88,3.78,0,6.57,1.04,8.39,3.11,1.81,2.07,2.72,4.76,2.72,8.06v9.19c0,1.32.08,2.27.25,2.86.17.59.46.94.88,1.07.42.13,1,.19,1.73.19h.44v3.46h-.82c-1.69,0-3.07-.31-4.15-.94-1.08-.62-1.77-1.89-2.06-3.79-.81,1.5-1.95,2.78-3.44,3.82-1.48,1.05-3.46,1.57-5.91,1.57ZM250.65,192.8c1.83,0,3.41-.48,4.73-1.43,1.32-.95,2.34-2.18,3.05-3.69.72-1.5,1.07-3.08,1.07-4.73-.88-.26-1.97-.5-3.27-.72-1.3-.22-2.61-.33-3.93-.33-3.01,0-5.13.57-6.38,1.7-1.25,1.14-1.87,2.53-1.87,4.18,0,1.43.57,2.62,1.71,3.58,1.14.95,2.77,1.43,4.9,1.43Z"/>
    <path class="st2" d="M276.94,195.44l-10.45-27.28h4.02l8.63,23.54,8.64-23.54h3.96l-10.45,27.28h-4.34Z"/>
    <path class="st2" d="M307.41,196.1c-2.57,0-4.84-.6-6.82-1.79s-3.54-2.86-4.67-5c-1.14-2.15-1.71-4.67-1.71-7.56s.56-5.41,1.68-7.54c1.12-2.13,2.69-3.78,4.7-4.95,2.02-1.17,4.33-1.76,6.93-1.76s4.9.6,6.77,1.79c1.87,1.19,3.3,2.74,4.29,4.65.99,1.91,1.48,3.96,1.48,6.16v1.16c0,.4-.02.86-.06,1.38h-22.82v-3.3h19.14c-.11-2.68-1.01-4.77-2.69-6.27-1.69-1.5-3.78-2.26-6.27-2.26-1.65,0-3.19.37-4.62,1.1-1.43.73-2.58,1.81-3.46,3.22-.88,1.41-1.32,3.16-1.32,5.25v1.48c0,2.46.46,4.5,1.38,6.13.92,1.63,2.1,2.84,3.55,3.63,1.45.79,2.96,1.18,4.54,1.18,2.05,0,3.78-.48,5.17-1.43,1.39-.95,2.38-2.27,2.97-3.96h3.74c-.44,1.65-1.19,3.13-2.25,4.45-1.06,1.32-2.4,2.36-4.02,3.11-1.61.75-3.48,1.13-5.61,1.13Z"/>
    <path class="st2" d="M351.91,196.1c-2.27,0-4.16-.39-5.66-1.16-1.5-.77-2.62-1.79-3.36-3.05-.73-1.27-1.1-2.59-1.1-3.99,0-3.01,1.09-5.3,3.27-6.88,2.18-1.58,5.05-2.36,8.61-2.36,1.5,0,2.92.12,4.23.36,1.32.24,2.4.5,3.25.8v-1.15c0-2.57-.65-4.52-1.95-5.86-1.3-1.34-3.07-2.01-5.31-2.01-1.91,0-3.55.39-4.92,1.18-1.38.79-2.23,2.12-2.56,3.99h-4.01c.22-1.98.9-3.59,2.03-4.84,1.14-1.25,2.54-2.16,4.21-2.75,1.67-.59,3.42-.88,5.25-.88,3.78,0,6.57,1.04,8.39,3.11,1.81,2.07,2.72,4.76,2.72,8.06v9.19c0,1.32.08,2.27.25,2.86.17.59.46.94.88,1.07.42.13,1,.19,1.73.19h.44v3.46h-.82c-1.69,0-3.07-.31-4.15-.94-1.08-.62-1.77-1.89-2.06-3.79-.81,1.5-1.95,2.78-3.44,3.82-1.48,1.05-3.46,1.57-5.91,1.57ZM352.29,192.8c1.83,0,3.41-.48,4.73-1.43,1.32-.95,2.34-2.18,3.05-3.69.72-1.5,1.07-3.08,1.07-4.73-.88-.26-1.97-.5-3.27-.72-1.3-.22-2.61-.33-3.93-.33-3.01,0-5.13.57-6.38,1.7-1.25,1.14-1.87,2.53-1.87,4.18,0,1.43.57,2.62,1.71,3.58,1.14.95,2.77,1.43,4.9,1.43Z"/>
    <path class="st2" d="M404.71,196.1c-2.31,0-4.35-.49-6.13-1.46-1.78-.97-3.14-2.32-4.1-4.04v4.84h-3.85v-39.6h3.85v17.05c.88-1.39,2.17-2.64,3.88-3.74s3.84-1.65,6.41-1.65c2.75,0,5.13.62,7.15,1.87,2.02,1.25,3.58,2.95,4.7,5.11,1.12,2.16,1.68,4.62,1.68,7.37s-.56,5.2-1.68,7.34c-1.12,2.15-2.69,3.83-4.7,5.06-2.02,1.23-4.42,1.84-7.21,1.84ZM404.54,192.74c1.94,0,3.65-.46,5.12-1.38,1.47-.92,2.62-2.19,3.46-3.82.84-1.63,1.26-3.55,1.26-5.75s-.42-4.12-1.26-5.77c-.84-1.65-2-2.92-3.46-3.82-1.47-.9-3.17-1.35-5.12-1.35s-3.6.45-5.09,1.35c-1.48.9-2.65,2.17-3.49,3.82-.84,1.65-1.26,3.58-1.26,5.77s.42,4.12,1.26,5.75c.84,1.63,2.01,2.91,3.49,3.82,1.48.92,3.18,1.38,5.09,1.38Z"/>
    <path class="st2" d="M424.17,195.44v-39.6h3.85v39.6h-3.85Z"/>
    <path class="st2" d="M444.08,196.1c-2.27,0-4.16-.39-5.67-1.16-1.5-.77-2.62-1.79-3.36-3.05-.73-1.27-1.1-2.59-1.1-3.99,0-3.01,1.09-5.3,3.27-6.88,2.18-1.58,5.05-2.36,8.61-2.36,1.5,0,2.92.12,4.24.36,1.32.24,2.4.5,3.25.8v-1.15c0-2.57-.65-4.52-1.95-5.86-1.3-1.34-3.07-2.01-5.31-2.01-1.91,0-3.55.39-4.92,1.18-1.38.79-2.23,2.12-2.56,3.99h-4.01c.22-1.98.9-3.59,2.03-4.84,1.14-1.25,2.54-2.16,4.21-2.75,1.67-.59,3.42-.88,5.25-.88,3.78,0,6.57,1.04,8.39,3.11,1.82,2.07,2.72,4.76,2.72,8.06v9.19c0,1.32.08,2.27.25,2.86.17.59.46.94.88,1.07.42.13,1,.19,1.73.19h.44v3.46h-.82c-1.69,0-3.07-.31-4.15-.94-1.08-.62-1.77-1.89-2.06-3.79-.81,1.5-1.95,2.78-3.44,3.82-1.48,1.05-3.46,1.57-5.91,1.57ZM444.47,192.8c1.83,0,3.41-.48,4.73-1.43,1.32-.95,2.34-2.18,3.05-3.69.72-1.5,1.07-3.08,1.07-4.73-.88-.26-1.97-.5-3.27-.72-1.3-.22-2.61-.33-3.93-.33-3.01,0-5.13.57-6.38,1.7-1.25,1.14-1.87,2.53-1.87,4.18,0,1.43.57,2.62,1.71,3.58,1.14.95,2.77,1.43,4.89,1.43Z"/>
    <path class="st2" d="M476.48,196.1c-3.19,0-5.88-.74-8.08-2.23-2.2-1.49-3.5-3.79-3.91-6.9h4.01c.29,1.8,1.15,3.21,2.56,4.24,1.41,1.03,3.25,1.54,5.53,1.54,2.05,0,3.65-.46,4.79-1.38,1.14-.92,1.71-2.09,1.71-3.52,0-1.06-.33-1.86-.99-2.39-.66-.53-1.91-.98-3.74-1.35-.77-.18-1.53-.34-2.28-.47-.75-.13-1.51-.27-2.28-.41-1.14-.22-2.31-.6-3.52-1.16-1.21-.55-2.23-1.35-3.05-2.39-.83-1.05-1.24-2.41-1.24-4.1,0-2.31.89-4.23,2.67-5.77s4.13-2.31,7.07-2.31,5.14.64,7.07,1.92c1.93,1.28,3.03,3.41,3.33,6.38h-3.91c-.15-1.8-.83-3.07-2.04-3.82-1.21-.75-2.73-1.13-4.56-1.13-1.65,0-3.04.39-4.15,1.18-1.12.79-1.68,1.82-1.68,3.11,0,2.35,1.61,3.83,4.84,4.46.48.07.94.16,1.4.25.46.09.92.18,1.38.27.46.09.91.17,1.35.25.77.11,1.61.29,2.53.55.92.26,1.81.64,2.67,1.15.86.51,1.57,1.2,2.12,2.06.55.86.82,1.99.82,3.38,0,1.65-.43,3.12-1.29,4.4-.86,1.28-2.07,2.3-3.63,3.05-1.56.75-3.38,1.13-5.47,1.13Z"/>
    <path class="st2" d="M500.73,195.44c-1.39,0-2.58-.18-3.55-.55-.97-.37-1.71-1.04-2.2-2.01-.5-.97-.74-2.36-.74-4.15v-17.27h-4.73v-3.3h4.73v-6.33h3.85v6.33h8.14v3.3h-8.14v16.56c0,1.32.1,2.27.3,2.86.2.59.6.94,1.21,1.07.6.13,1.53.19,2.78.19h3.36v3.3h-5Z"/>
    <path class="st2" d="M536.21,195.44l-7.97-27.28h3.91l6.54,23.59h-.99l7.42-23.59h4.4l7.42,23.59h-.99l6.54-23.59h3.91l-7.97,27.28h-3.91l-7.7-24.81h.99l-7.7,24.81h-3.91Z"/>
    <path class="st2" d="M571.68,162.6v-5.67h5.5v5.67h-5.5ZM572.56,195.44v-27.28h3.85v27.28h-3.85Z"/>
    <path class="st2" d="M592.25,195.44c-1.39,0-2.58-.18-3.55-.55-.97-.37-1.71-1.04-2.2-2.01-.5-.97-.74-2.36-.74-4.15v-17.27h-4.73v-3.3h4.73v-6.33h3.85v6.33h8.14v3.3h-8.14v16.56c0,1.32.1,2.27.3,2.86.2.59.61.94,1.21,1.07.61.13,1.53.19,2.78.19h3.36v3.3h-5Z"/>
    <path class="st2" d="M603.36,195.44v-39.6h3.85v17.16c.95-1.72,2.28-3.07,3.99-4.04,1.71-.97,3.55-1.46,5.53-1.46,3.08,0,5.58.95,7.51,2.86,1.92,1.91,2.89,4.9,2.89,8.96v16.12h-3.79v-15.67c0-3.01-.61-5.24-1.82-6.71-1.21-1.47-3.01-2.2-5.39-2.2s-4.6.9-6.33,2.69c-1.72,1.8-2.58,4.38-2.58,7.76v14.13h-3.85Z"/>
    <path class="st2" d="M139.09,273.54v-39.38h3.85v4.73c.88-1.39,2.17-2.64,3.88-3.74s3.84-1.65,6.41-1.65c2.75,0,5.13.62,7.15,1.87,2.02,1.25,3.58,2.95,4.7,5.11,1.12,2.16,1.68,4.62,1.68,7.37s-.56,5.2-1.68,7.34c-1.12,2.14-2.69,3.83-4.7,5.06-2.02,1.23-4.42,1.84-7.21,1.84-2.31,0-4.35-.49-6.13-1.46-1.78-.97-3.14-2.32-4.1-4.04v16.94h-3.85ZM153,258.74c1.94,0,3.65-.46,5.12-1.38,1.47-.92,2.62-2.19,3.46-3.82.84-1.63,1.27-3.55,1.27-5.75s-.42-4.12-1.27-5.78c-.84-1.65-2-2.92-3.46-3.82-1.47-.9-3.17-1.35-5.12-1.35s-3.6.45-5.09,1.35c-1.48.9-2.65,2.17-3.49,3.82-.84,1.65-1.26,3.58-1.26,5.78s.42,4.12,1.26,5.75c.84,1.63,2.01,2.91,3.49,3.82s3.18,1.38,5.09,1.38Z"/>
    <path class="st2" d="M172.53,261.44v-27.28h3.85v4.34c.59-1.43,1.41-2.54,2.48-3.33,1.06-.79,2.38-1.18,3.96-1.18h4.4v3.68h-4.79c-1.1,0-2.11.32-3.02.96-.92.64-1.65,1.71-2.2,3.19-.55,1.49-.83,3.49-.83,6.02v13.58h-3.85Z"/>
    <path class="st2" d="M192.77,228.6v-5.67h5.5v5.67h-5.5ZM193.65,261.44v-27.28h3.85v27.28h-3.85Z"/>
    <path class="st2" d="M203.82,261.44v-3.19l15.56-20.9h-15.29v-3.19h19.58v3.19l-15.56,20.9h15.84v3.19h-20.13Z"/>
    <path class="st2" d="M241.83,262.1c-2.57,0-4.84-.6-6.82-1.79-1.98-1.19-3.54-2.86-4.67-5-1.14-2.15-1.71-4.67-1.71-7.56s.56-5.41,1.68-7.54c1.12-2.13,2.69-3.78,4.7-4.95,2.02-1.17,4.33-1.76,6.93-1.76s4.9.6,6.77,1.79c1.87,1.19,3.3,2.74,4.29,4.65.99,1.91,1.48,3.96,1.48,6.16v1.16c0,.4-.02.86-.06,1.38h-22.82v-3.3h19.14c-.11-2.68-1.01-4.77-2.69-6.27-1.69-1.5-3.78-2.25-6.27-2.25-1.65,0-3.19.37-4.62,1.1-1.43.73-2.58,1.81-3.46,3.22-.88,1.41-1.32,3.16-1.32,5.25v1.48c0,2.46.46,4.5,1.38,6.13.92,1.63,2.1,2.84,3.55,3.63,1.45.79,2.96,1.18,4.54,1.18,2.05,0,3.78-.48,5.17-1.43,1.39-.95,2.38-2.27,2.97-3.96h3.74c-.44,1.65-1.19,3.13-2.25,4.45-1.06,1.32-2.4,2.36-4.02,3.11-1.61.75-3.48,1.13-5.61,1.13Z"/>
    <path class="st2" d="M269.66,262.1c-3.19,0-5.88-.74-8.08-2.23-2.2-1.49-3.5-3.79-3.9-6.9h4.01c.29,1.8,1.15,3.21,2.56,4.24,1.41,1.03,3.25,1.54,5.53,1.54,2.05,0,3.65-.46,4.79-1.38,1.14-.92,1.71-2.09,1.71-3.52,0-1.06-.33-1.86-.99-2.39-.66-.53-1.91-.98-3.74-1.35-.77-.18-1.53-.34-2.28-.47-.75-.13-1.51-.27-2.28-.41-1.14-.22-2.31-.6-3.52-1.16-1.21-.55-2.23-1.35-3.05-2.39-.82-1.05-1.24-2.41-1.24-4.1,0-2.31.89-4.24,2.67-5.77,1.78-1.54,4.13-2.31,7.07-2.31s5.14.64,7.07,1.92c1.93,1.28,3.03,3.41,3.33,6.38h-3.9c-.15-1.8-.83-3.07-2.04-3.82-1.21-.75-2.73-1.13-4.56-1.13-1.65,0-3.03.39-4.15,1.18-1.12.79-1.68,1.82-1.68,3.11,0,2.35,1.61,3.83,4.84,4.46.48.07.94.16,1.4.25.46.09.92.18,1.38.27.46.09.91.17,1.35.25.77.11,1.61.29,2.53.55.92.26,1.81.64,2.67,1.15.86.51,1.57,1.2,2.12,2.06.55.86.82,1.99.82,3.38,0,1.65-.43,3.12-1.29,4.4-.86,1.28-2.07,2.3-3.63,3.05-1.56.75-3.38,1.13-5.47,1.13Z"/>
    <path class="st2" d="M311.9,262.1c-2.27,0-4.16-.38-5.66-1.16-1.5-.77-2.62-1.79-3.36-3.05-.73-1.27-1.1-2.59-1.1-3.99,0-3.01,1.09-5.3,3.27-6.88,2.18-1.58,5.05-2.36,8.61-2.36,1.5,0,2.92.12,4.23.36,1.32.24,2.4.5,3.25.8v-1.15c0-2.57-.65-4.52-1.95-5.86-1.3-1.34-3.07-2.01-5.31-2.01-1.91,0-3.55.39-4.92,1.18-1.38.79-2.23,2.12-2.56,3.99h-4.01c.22-1.98.9-3.59,2.03-4.84,1.14-1.25,2.54-2.16,4.21-2.75,1.67-.59,3.42-.88,5.25-.88,3.78,0,6.57,1.04,8.39,3.11s2.72,4.76,2.72,8.06v9.18c0,1.32.08,2.27.25,2.86.17.59.46.94.88,1.07.42.13,1,.19,1.73.19h.44v3.46h-.82c-1.69,0-3.07-.31-4.15-.93-1.08-.62-1.77-1.89-2.06-3.79-.81,1.5-1.95,2.78-3.44,3.82-1.48,1.04-3.46,1.57-5.91,1.57ZM312.28,258.8c1.83,0,3.41-.48,4.73-1.43s2.34-2.18,3.05-3.69c.72-1.5,1.07-3.08,1.07-4.73-.88-.26-1.97-.5-3.27-.72-1.3-.22-2.61-.33-3.93-.33-3.01,0-5.13.57-6.38,1.7-1.25,1.14-1.87,2.53-1.87,4.18,0,1.43.57,2.62,1.71,3.58,1.14.95,2.77,1.43,4.9,1.43Z"/>
    <path class="st2" d="M334.06,261.44v-27.28h3.85v4.73c.92-1.69,2.2-3.01,3.85-3.96,1.65-.95,3.48-1.43,5.5-1.43,3.15,0,5.7.95,7.65,2.86,1.94,1.91,2.92,4.9,2.92,8.96v16.12h-3.85v-15.67c0-3.01-.63-5.24-1.9-6.71-1.27-1.47-3.09-2.2-5.47-2.2s-4.56.9-6.21,2.7c-1.65,1.8-2.48,4.38-2.48,7.75v14.13h-3.85Z"/>
    <path class="st2" d="M377.07,262.1c-2.75,0-5.13-.62-7.15-1.87-2.02-1.25-3.58-2.95-4.7-5.12-1.12-2.16-1.68-4.62-1.68-7.37s.56-5.2,1.68-7.34c1.12-2.15,2.69-3.83,4.73-5.06,2.03-1.23,4.43-1.84,7.18-1.84,2.31,0,4.36.49,6.16,1.46,1.8.97,3.15,2.32,4.07,4.04v-17.16h3.85v39.6h-3.85v-4.73c-.88,1.36-2.16,2.59-3.85,3.71-1.69,1.12-3.83,1.68-6.44,1.68ZM377.29,258.74c1.94,0,3.65-.46,5.12-1.38,1.47-.92,2.62-2.19,3.46-3.82.84-1.63,1.27-3.55,1.27-5.75s-.42-4.12-1.27-5.78c-.84-1.65-2-2.92-3.46-3.82-1.47-.9-3.17-1.35-5.12-1.35s-3.6.45-5.09,1.35c-1.48.9-2.65,2.17-3.49,3.82-.84,1.65-1.27,3.58-1.27,5.78s.42,4.12,1.27,5.75c.84,1.63,2.01,2.91,3.49,3.82s3.18,1.38,5.09,1.38Z"/>
    <path class="st2" d="M423.71,262.1c-2.27,0-4.16-.38-5.67-1.16-1.5-.77-2.62-1.79-3.36-3.05-.73-1.27-1.1-2.59-1.1-3.99,0-3.01,1.09-5.3,3.27-6.88,2.18-1.58,5.05-2.36,8.61-2.36,1.5,0,2.92.12,4.24.36s2.4.5,3.25.8v-1.15c0-2.57-.65-4.52-1.95-5.86s-3.07-2.01-5.31-2.01c-1.91,0-3.55.39-4.92,1.18-1.38.79-2.23,2.12-2.56,3.99h-4.01c.22-1.98.9-3.59,2.03-4.84,1.14-1.25,2.54-2.16,4.21-2.75,1.67-.59,3.42-.88,5.25-.88,3.78,0,6.57,1.04,8.39,3.11,1.82,2.07,2.72,4.76,2.72,8.06v9.18c0,1.32.08,2.27.25,2.86.17.59.46.94.88,1.07.42.13,1,.19,1.73.19h.44v3.46h-.82c-1.69,0-3.07-.31-4.15-.93-1.08-.62-1.77-1.89-2.06-3.79-.81,1.5-1.95,2.78-3.44,3.82-1.48,1.04-3.46,1.57-5.91,1.57ZM424.09,258.8c1.83,0,3.41-.48,4.73-1.43,1.32-.95,2.34-2.18,3.05-3.69.72-1.5,1.07-3.08,1.07-4.73-.88-.26-1.97-.5-3.27-.72-1.3-.22-2.61-.33-3.93-.33-3.01,0-5.13.57-6.38,1.7-1.25,1.14-1.87,2.53-1.87,4.18,0,1.43.57,2.62,1.71,3.58,1.14.95,2.77,1.43,4.89,1.43Z"/>
    <path class="st2" d="M475.46,274.2c-2.42,0-4.59-.42-6.52-1.26-1.92-.84-3.52-2.03-4.79-3.55-1.26-1.52-2.1-3.33-2.5-5.42h3.79c.62,2.02,1.83,3.67,3.63,4.95,1.8,1.28,3.92,1.92,6.38,1.92,1.91,0,3.62-.41,5.14-1.24s2.72-2.06,3.6-3.71c.88-1.65,1.32-3.67,1.32-6.05v-4.12c-.59,1.06-1.38,2.08-2.39,3.05-1.01.97-2.23,1.77-3.66,2.39-1.43.62-3.08.93-4.95.93-2.53,0-4.84-.62-6.93-1.87-2.09-1.25-3.75-2.95-4.98-5.12-1.23-2.16-1.84-4.62-1.84-7.37s.61-5.2,1.84-7.34c1.23-2.15,2.89-3.83,4.98-5.06,2.09-1.23,4.42-1.84,6.99-1.84s4.75.58,6.66,1.73c1.91,1.15,3.34,2.54,4.29,4.15v-5.22h3.85v25.68c0,2.93-.59,5.47-1.76,7.62-1.17,2.15-2.8,3.8-4.9,4.98-2.09,1.17-4.51,1.76-7.26,1.76ZM475.02,258.74c1.94,0,3.69-.46,5.25-1.38s2.79-2.21,3.69-3.88c.9-1.67,1.35-3.58,1.35-5.75s-.45-4.12-1.35-5.75c-.9-1.63-2.13-2.9-3.69-3.79-1.56-.9-3.31-1.35-5.25-1.35s-3.69.45-5.25,1.35c-1.56.9-2.79,2.16-3.68,3.79-.9,1.63-1.35,3.55-1.35,5.75s.45,4.08,1.35,5.75c.9,1.67,2.13,2.96,3.68,3.88s3.31,1.38,5.25,1.38Z"/>
    <path class="st2" d="M496.86,261.44v-27.28h3.85v4.34c.59-1.43,1.41-2.54,2.47-3.33,1.06-.79,2.38-1.18,3.96-1.18h4.4v3.68h-4.79c-1.1,0-2.11.32-3.03.96-.92.64-1.65,1.71-2.2,3.19-.55,1.49-.83,3.49-.83,6.02v13.58h-3.85Z"/>
    <path class="st2" d="M526.45,262.1c-2.57,0-4.84-.6-6.82-1.79-1.98-1.19-3.54-2.86-4.67-5-1.14-2.15-1.71-4.67-1.71-7.56s.56-5.41,1.68-7.54c1.12-2.13,2.69-3.78,4.7-4.95,2.02-1.17,4.33-1.76,6.93-1.76s4.89.6,6.76,1.79c1.87,1.19,3.3,2.74,4.29,4.65.99,1.91,1.49,3.96,1.49,6.16v1.16c0,.4-.02.86-.05,1.38h-22.83v-3.3h19.14c-.11-2.68-1.01-4.77-2.7-6.27-1.69-1.5-3.78-2.25-6.27-2.25-1.65,0-3.19.37-4.62,1.1-1.43.73-2.58,1.81-3.46,3.22-.88,1.41-1.32,3.16-1.32,5.25v1.48c0,2.46.46,4.5,1.38,6.13.92,1.63,2.1,2.84,3.55,3.63,1.45.79,2.96,1.18,4.54,1.18,2.05,0,3.78-.48,5.17-1.43s2.38-2.27,2.97-3.96h3.74c-.44,1.65-1.19,3.13-2.25,4.45-1.06,1.32-2.4,2.36-4.01,3.11-1.61.75-3.48,1.13-5.61,1.13Z"/>
    <path class="st2" d="M553.51,262.1c-2.27,0-4.16-.38-5.67-1.16-1.5-.77-2.62-1.79-3.36-3.05-.73-1.27-1.1-2.59-1.1-3.99,0-3.01,1.09-5.3,3.27-6.88,2.18-1.58,5.05-2.36,8.61-2.36,1.5,0,2.92.12,4.24.36,1.32.24,2.4.5,3.24.8v-1.15c0-2.57-.65-4.52-1.95-5.86-1.3-1.34-3.07-2.01-5.31-2.01-1.91,0-3.55.39-4.92,1.18-1.38.79-2.23,2.12-2.56,3.99h-4.02c.22-1.98.9-3.59,2.04-4.84,1.14-1.25,2.54-2.16,4.21-2.75,1.67-.59,3.42-.88,5.25-.88,3.78,0,6.57,1.04,8.39,3.11s2.72,4.76,2.72,8.06v9.18c0,1.32.08,2.27.25,2.86.17.59.46.94.88,1.07.42.13,1,.19,1.73.19h.44v3.46h-.83c-1.69,0-3.07-.31-4.15-.93-1.08-.62-1.77-1.89-2.06-3.79-.81,1.5-1.95,2.78-3.44,3.82s-3.46,1.57-5.91,1.57ZM553.89,258.8c1.83,0,3.41-.48,4.73-1.43,1.32-.95,2.34-2.18,3.05-3.69.71-1.5,1.07-3.08,1.07-4.73-.88-.26-1.97-.5-3.27-.72-1.3-.22-2.61-.33-3.93-.33-3.01,0-5.13.57-6.38,1.7-1.25,1.14-1.87,2.53-1.87,4.18,0,1.43.57,2.62,1.7,3.58s2.77,1.43,4.9,1.43Z"/>
    <path class="st2" d="M582.93,261.44c-1.39,0-2.58-.18-3.55-.55-.97-.37-1.71-1.04-2.2-2.01-.5-.97-.74-2.36-.74-4.15v-17.27h-4.73v-3.3h4.73v-6.33h3.85v6.33h8.14v3.3h-8.14v16.55c0,1.32.1,2.27.3,2.86.2.59.61.94,1.21,1.07.61.13,1.53.19,2.78.19h3.36v3.3h-5Z"/>
    <path class="st2" d="M294.16,328.1c-2.53,0-4.81-.6-6.85-1.79-2.04-1.19-3.65-2.86-4.84-5-1.19-2.15-1.79-4.65-1.79-7.51s.6-5.41,1.79-7.54c1.19-2.13,2.8-3.79,4.84-4.98,2.04-1.19,4.32-1.79,6.85-1.79,3.19,0,5.86.82,8,2.47s3.51,3.83,4.1,6.54h-3.85c-.4-1.83-1.37-3.25-2.89-4.23-1.52-.99-3.31-1.49-5.36-1.49-1.61,0-3.15.41-4.62,1.24-1.47.83-2.65,2.04-3.55,3.66-.9,1.61-1.35,3.65-1.35,6.11s.45,4.45,1.35,6.08c.9,1.63,2.08,2.86,3.55,3.69,1.47.82,3.01,1.24,4.62,1.24,2.05,0,3.84-.5,5.36-1.49,1.52-.99,2.48-2.4,2.89-4.23h3.85c-.55,2.64-1.91,4.8-4.07,6.49-2.16,1.69-4.84,2.53-8.03,2.53Z"/>
    <path class="st2" d="M312.64,327.44v-27.28h3.85v4.34c.59-1.43,1.41-2.54,2.48-3.33,1.06-.79,2.38-1.18,3.96-1.18h4.4v3.68h-4.79c-1.1,0-2.11.32-3.02.96-.92.64-1.65,1.71-2.2,3.19-.55,1.49-.83,3.49-.83,6.02v13.58h-3.85Z"/>
    <path class="st2" d="M342.83,328.1c-2.64,0-5.01-.59-7.1-1.76s-3.73-2.83-4.92-4.98c-1.19-2.15-1.79-4.67-1.79-7.56s.6-5.46,1.81-7.59c1.21-2.13,2.87-3.78,4.98-4.95,2.11-1.17,4.48-1.76,7.12-1.76s5.05.59,7.12,1.76c2.07,1.17,3.7,2.82,4.9,4.95,1.19,2.13,1.79,4.66,1.79,7.59s-.6,5.42-1.82,7.56c-1.21,2.14-2.86,3.8-4.95,4.98s-4.47,1.76-7.15,1.76ZM342.83,324.8c1.8,0,3.45-.41,4.95-1.24,1.5-.83,2.71-2.05,3.63-3.69.92-1.63,1.38-3.66,1.38-6.08s-.45-4.49-1.35-6.11c-.9-1.61-2.1-2.83-3.6-3.66-1.5-.83-3.14-1.24-4.9-1.24s-3.4.41-4.92,1.24c-1.52.83-2.74,2.04-3.66,3.66-.92,1.61-1.38,3.65-1.38,6.11s.46,4.45,1.38,6.08c.92,1.63,2.12,2.86,3.6,3.69,1.48.82,3.11,1.24,4.87,1.24Z"/>
    <path class="st2" d="M368.02,327.44l-7.98-27.28h3.9l6.54,23.59h-.99l7.42-23.59h4.4l7.42,23.59h-.99l6.55-23.59h3.9l-7.98,27.28h-3.9l-7.7-24.8h.99l-7.7,24.8h-3.9Z"/>
    <path class="st2" d="M414.61,328.1c-2.75,0-5.13-.62-7.15-1.87s-3.58-2.95-4.7-5.12c-1.12-2.16-1.68-4.62-1.68-7.37s.56-5.2,1.68-7.34c1.12-2.15,2.7-3.83,4.73-5.06,2.03-1.23,4.43-1.84,7.18-1.84,2.31,0,4.36.49,6.16,1.46,1.8.97,3.15,2.32,4.07,4.04v-17.16h3.85v39.6h-3.85v-4.73c-.88,1.36-2.16,2.59-3.85,3.71s-3.83,1.68-6.43,1.68ZM414.83,324.74c1.94,0,3.65-.46,5.12-1.38,1.47-.92,2.62-2.19,3.46-3.82.84-1.63,1.27-3.55,1.27-5.75s-.42-4.12-1.27-5.78c-.84-1.65-2-2.92-3.46-3.82-1.47-.9-3.17-1.35-5.12-1.35s-3.6.45-5.09,1.35c-1.49.9-2.65,2.17-3.49,3.82-.84,1.65-1.26,3.58-1.26,5.78s.42,4.12,1.26,5.75c.84,1.63,2.01,2.91,3.49,3.82,1.48.92,3.18,1.38,5.09,1.38Z"/>
    <path class="st2" d="M436.99,327.44v-5.67h5.61v5.67h-5.61ZM438.15,317.81l-.44-28.88h4.18l-.5,28.88h-3.25Z"/>
  </g>
</svg>