<?xml version="1.0" encoding="UTF-8"?>
<svg id="Layer_2" xmlns="http://www.w3.org/2000/svg" version="1.1" viewBox="0 0 784.13 464.24">
  <!-- Generator: Adobe Illustrator 29.7.1, SVG Export Plug-In . SVG Version: 2.1.1 Build 8)  -->
  <defs>
    <style>
      .st0 {
        fill: #e34a1b;
      }

      .st1 {
        fill: #fff;
      }

      .st2 {
        fill: #db481c;
      }

      .st3 {
        fill: #ef4c19;
      }

      .st4 {
        fill: #ec517c;
      }

      .st5 {
        fill: #f04c19;
      }

      .st6 {
        fill: #ee4c1a;
      }

      .st7 {
        fill: #ec4b1a;
      }

      .st8 {
        fill: #f14c19;
      }

      .st9 {
        fill: #f24c19;
      }

      .st10 {
        fill: #2b2934;
      }
    </style>
  </defs>
  <g id="Type_1">
    <g>
      <path class="st10" d="M439.07,0c19.47,2.23,39.53,10.43,54.81,23.67l9.37,8.11c7.21,6.24,18.85,20.25,24.31,28.94,7.44-16.18,21.73-23.39,39.41-22.77,11.03.4,20.9,5.11,28.75,12.94,2.59,2.59,4.83,5.16,7.75,7.58,12.5,10.37,25.04,20.09,38.53,29.14l16,10.73,1.04,2.2c14.59,1.61,27.71,7.97,38.31,18.02,1.9,1.8,3.73,4.08,5.69,5.58l15.44,11.83,23.98,20.13,5.98,5.31,5.95,5.39,7.2,6.66c2.87,2.65,5.56,5.34,8.21,8.21l6.18,6.67c4.68,5.05,7.44,10.71,8.02,17.73.63,7.56-.86,15.18-4.16,22.1-1.34,2.81-2.51,5.58-4.12,8.3-7.45,12.59-16.22,24.12-25.98,34.98-6.93,7.71-18.36,17.04-27.57,21.75-2.9,1.49-6.7,1.32-9.86,2.08,1.49,2.38,4.69,3.9,6.37,6.21,7.65,10.46,12.9,25.11,11.43,38.32-1.68,15.14-8.76,28.85-18.64,40.19-8.91,10.24-21.22,17-34.21,20.79-15.06,4.39-37.69,7.45-53.11,6.52l-8.76-.53c-14.7-.89-28.92-3.95-42.89-8.97-.44-.08-1.19.55-.77.82.91,7.6.17,14.78-1.98,22.06s-6.71,13.57-12.09,19.18c-6.75,7.03-14.69,12.27-23.62,16.41-12.59,5.84-26.17,7.79-39.97,7.9-1.83.01-3.44.08-5.21,0l-8.1-.38c-11.67-.55-22.76-3.19-33.79-7.2-7.98-2.9-15.99-5.15-23.27-9.69-11.74-7.32-27.88-19.95-38.01-29.81l-.73.03c-10.29,20.92-39.12,31.43-60.88,33.5-1.99.19-4.42.42-6.18.34l-8.83-.41c-12.01-.55-28.27-7.94-38.8-13.93-2.91-1.65-5.21-3.95-7.61-6.26l-14.11-13.59-10.26-9.75-5.94-5.4-18.34-16.35-3,3.69c-4.91,6.04-10.37,10.47-17.38,14.14-23.41,12.26-55.47,13.87-77.64-1.68-1.54-1.08-2.86-2.7-4.3-3.94l-21.43-18.57-4.06-3.67-5.41-4.93-11.76-11.25c-2.29-2.19-5.39-3.41-7.8-5.67-9.79-9.17-14.71-21.97-15.35-35.35-.24-5.13-.46-10.08-.06-15.24l.52-6.63.21-2.63c.05-.68-1.7-1.19-2.2-1.66-1.84-1.72-3.45-3.37-5.16-5.24-11.15-12.25-21.95-24.46-31.88-37.78-1.41-1.89-3.2-4.26-3.83-6.21-1.25-3.84-2.21-7.33-3-11.18-.24-1.14.19-2.94-.49-3.59v-10.78c.71-15.17,5.48-31.19,16.59-42.03,13.5-13.17,34.6-21.19,52.66-24.93-11.61-13.95-10.52-30.8-2.64-46.33,9.91-19.53,23.49-32.9,43.61-41.56,30.92-13.31,61.74-7.82,91.91,4.3.67,1.35.77,1.36.3.02,9.95-43.73,57.69-63.6,98.46-54,23.5,5.53,44.05,13.46,61.51,30.31C377.63,21.02,400.4,1.03,428.28,0h10.79Z"/>
      <path class="st4" d="M251.84,386.76c-12.69-.87-24.59-3.29-35.76-8.72-7.72-3.75-13.89-9.14-20.11-14.96-9.04-8.46-17.37-17.03-25.38-26.42-3.26-3.83-7.27-8.97-12.11-5.17s-9.28,6.64-14.52,9.57c-17.67,9.88-39.08,18.11-59.66,16.15-19.8-1.88-31.04-19.39-32.3-38.17-.76-11.36-.38-29.95,4.47-40.3,3.09-6.58,7.6-12.02,12.73-17.07,2.6-2.57,8.67-7.6,5.57-10.57-.74-.71-2.63-1.03-3.91-.6-18.22,6.21-39.89,15.32-55.17-.84-14.45-15.28-10.38-39.46-2.8-56.97,2.85-6.57,7.05-11.91,12.85-16.18,10.49-7.72,22.18-13.43,34.72-17.02,6.78-1.94,13.17-2.61,20.21-2.53,1.09,0,2.43-1.36,2.51-2.23.13-1.28-.68-2.73-1.91-3.45-9.41-5.57-14.39-16.09-13.6-27.11.55-7.78,3.3-14.8,7.31-21.46,5.6-9.29,12.01-17.9,20.92-24.41,11.3-8.25,24.46-13.81,38.34-15.99,13.09-2.06,26.08-.71,38.86,2.16,7.1,1.6,13.64,3.67,20.54,5.74,4.05,1.22,7.35,2.92,11.35,5.06,1.3-1.49,2.17-3.28,2.78-5.17,6.93-21.61,17.85-37.77,39.66-46.21,15.19-5.87,31.25-8.3,47.36-5,8.38,1.71,16.3,3.83,24.4,6.49,12.44,4.08,23.24,10.78,33.14,19.11l8.14,6.85c1.51,1.27,3.5,3.47,5.84,2.03.92-.56.53-2.69-.36-3.83,12.69-17.84,27.6-33.48,49.04-40.38,8.97-2.88,17.75-3.94,27.19-2.59,14.16,2.02,27.38,7.12,39.19,15.25,14.39,9.9,26.53,22.06,36.95,35.96,2.44,3.25,4.19,6.32,6.18,9.9.43.78,1.89,1.78,2.7,1.84s2.52-.78,2.92-1.48l5.09-8.81c8.83-15.29,29.3-18.71,44.3-12.39,14.06,5.93,25.89,23.99,30.93,38.04,4.47,12.47,1.06,21.88,4.14,24.86,1.02.98,3.06,1.24,4.56.88,7.16-1.72,13.82-3.73,21.22-4.42,13.24-1.25,26.43.38,38.28,6.33,8.44,4.24,15.01,10.54,21.35,17.29,6.36,6.78,10.01,14.72,11.73,23.77,1.99,10.5.83,20.27-2.94,30.21-6.92,18.24-17.91,34.14-32.81,46.8-5.13,4.36-10.08,8.37-16.34,10.94-10.18,4.18-13.97-.8-16.13,3.11-.57,1.04-.24,3.03.71,3.97l5.5,5.46c13.78,13.68,19.38,32.02,12.91,50.85-3.25,9.46-8.69,17.34-15.49,24.65-6.88,7.4-14.72,13.11-24.5,16.21-11.73,3.72-23.68,6.29-36.17,6.38-14.8.11-29.13-.79-43.68-2.98l-26.64-4c-1.46-.22-2.61.68-2.84,1.91-2.8,15.01-4.5,20.99-14.57,33.22-8.52,10.35-18.96,18.69-31.63,23.42-33.74,12.6-72.58,2.11-101.59-17.03-7.95-5.24-14.39-11.68-19.88-19.32-3.21-4.47-5.63-8.94-8.35-13.77-.44-.78-1.81-1.88-2.59-2.11-3.1-.95-10.59,6.49-13.76,9.3-9.53,8.44-20.05,15.1-31.85,20.03-11.89,4.96-24.05,6.81-37.23,5.91h0Z"/>
      <path class="st9" d="M677.86,394.06l-10.03-7.83-43.81-35.08c8.92-3.25,16.4-7.34,23.08-13.8,16.34,16.54,32.99,31.56,51.88,45.63-6.42,5.04-13.2,8.08-21.12,11.08h0Z"/>
      <path class="st8" d="M595.29,356.99l47,43.47c-11.69,1.38-22.24.66-33.36-.47l-53.69-43.74,20.89,1.18c6.28.35,12.14.49,19.16-.44Z"/>
      <path class="st9" d="M501.9,458.03l-15.86-17.4-26.06-29.25c7.79-2.07,14.79-4.85,21.88-9.27l24.94,28.59,20.71,21.76c-8.16,3.28-16.33,4.69-25.61,5.57h0Z"/>
      <path class="st8" d="M548.12,440.33c-4.86,4.25-10.49,7.66-16.64,10.64l-46.07-51.1c5.46-4.07,10.19-8.23,14.8-13.27l40.86,46.2,7.05,7.53h0Z"/>
      <path class="st8" d="M702.23,380.27l-20.26-16.89-32.01-28.82c4.27-4.58,7.96-9.1,11.66-14.52l26.08,23.26,27.38,20.81c-3.4,5.96-7.47,11.17-12.84,16.17h0Z"/>
      <path class="st8" d="M325.96,444.09c-8.37,1.3-16.51.75-24.8-.96-8.7-10.63-17.89-20.42-27.74-30.13l-21.24-20.25c8.76.13,17.37-.1,25.89-2.15l25.5,29.24,22.4,24.25h-.01Z"/>
      <path class="st8" d="M562.49,421.93c-2.06,5.8-6.12,10.69-10.66,15.04l-49.22-53.2c3.6-4.42,6.68-8.93,9.69-14.3,11.05,13.04,22.56,25.33,34.78,37.34l15.41,15.13h0Z"/>
      <path class="st8" d="M716.22,361.94l-13.39-11.23-39.57-33.71c3.39-5.91,5.23-11.57,6.93-18.21l30.33,27.56c7.19,6.51,14.3,12.21,22.31,18.1-1.31,6.28-3.6,12.05-6.61,17.49Z"/>
      <path class="st8" d="M364.37,430.68c-4.87,3.13-8.69,5.25-13.78,7.1l-30.99-33.54-20.38-21.53,15.07-8.97,32.19,36.56,17.89,20.39h0Z"/>
      <path class="st8" d="M672.57,395.31c-7.98,2.33-15.77,3.58-23.82,4.59l-48.44-43.25,20.07-4.35,37.01,31.48,15.17,11.52h.01Z"/>
      <path class="st8" d="M706.75,290.59l-24.08-20.78-25.1-21.33c6.12-1.82,11.15-4.85,16.27-8.43,16.64,15.27,33.63,29.34,52.19,42.8-5.49,4.72-12.05,6.48-19.28,7.74h0Z"/>
      <polygon class="st8" points="755.56 253.96 730.72 233.1 702.24 209.84 710.21 195.59 765.42 240.3 755.56 253.96"/>
      <path class="st8" d="M729.52,280.55l-53.39-42.3,12.88-11.71,52.22,43.81c-3.44,3.68-7.34,6.85-11.71,10.2h0Z"/>
      <path class="st8" d="M773.61,225.7c-1.77,4.14-3.71,7.78-6.23,11.18l-56.1-43.87c2.81-6.52,5.12-12.64,6.68-19.98l29.33,29.6,26.32,23.07h0Z"/>
      <path class="st8" d="M367.38,428.6l-14.45-18.68-35.78-38.34c4.11-3.06,7.96-6.16,11.23-10.27,6.73,8.3,13.59,16.15,20.9,24.08l28.88,31.3c-2.92,4.75-6.49,8.35-10.79,11.9h.01Z"/>
      <path class="st8" d="M777.29,204.26c.86,6.23.3,12.27-2.28,17.96l-56.54-53.01c.24-5.92-.21-11.19-1.02-17.52l30.84,27.88c9.49,8.58,18.72,16.57,29.01,24.69h-.01Z"/>
      <path class="st8" d="M601.56,398.88c-28.19-5.25-31.63-5.35-52.43-22.29l-23.74-19.34-8.83-7.13,32.22,5.23,30.72,25.72,22.07,17.82h-.01Z"/>
      <path class="st8" d="M158.38,406.33l-5.09-7.21c-3.59-5.09-7.23-9.71-11.62-14.22l-25-25.51,16.79-6.37,20.92,24.44,24.73,24.95c-6.95,2.25-13.55,3.36-20.73,3.92h0Z"/>
      <polygon class="st8" points="753.42 256.6 743.95 267.69 691 224.33 700.7 212.02 726.99 235.24 753.42 256.6"/>
      <path class="st8" d="M346.38,439.25c-5.03,2-9.73,3.14-14.71,4.23l-3.88-4.42-46.22-49.27,14.39-5.52,20.12,23.1,30.3,31.88h0Z"/>
      <path class="st8" d="M182.87,401.19l-22.14-23.42-23.76-26.42,14.61-8.01,23.46,28.86,20.17,22.53c-4.19,2.59-7.72,4.39-12.34,6.45h0Z"/>
      <path class="st8" d="M565.18,395.78c1.55,7.49.77,14.92-1.19,22.23l-50.44-51.17c1.32-3.54,2.31-6.7,3.17-10.53l27.05,23.48c6.76,5.87,13.88,10.52,21.4,15.98h.01Z"/>
      <path class="st5" d="M211.2,382.63l-13,10.07c-4.68-6.7-9.41-11.94-14.71-17.69-10.02-10.87-18.96-22.13-28.51-33.72l6.85-5.18c9.33,9.83,28.73,31.62,39,39.04l10.37,7.48h0Z"/>
      <path class="st5" d="M154.46,406.16c-6.53.41-12.44-.82-18.68-2.41l-6.71-7.85c-10.02-10.59-19.35-21.52-28.22-33.15l12.28-2.45,28.77,30.09,12.55,15.77h.01Z"/>
      <path class="st3" d="M723.44,340.9l-11.65-10.45-41.11-34.72c.41-4.88.25-9.28.07-13.99,17.13,17.22,33.71,31.03,52.34,45.62.99,4.57,1.04,8.72.35,13.54Z"/>
      <path class="st5" d="M452.61,452.08c-7.97-2.18-15.82-5-23.2-8.68l-7.24-9.27-21.51-25.05,19.34,4.24,32.61,38.75h0Z"/>
      <path class="st3" d="M714,306.49c3.59,3.86,5.4,9.06,6.94,14.1-18.01-13.87-34.7-28.07-51.25-42.81-1.32-5.85-3.58-10.32-6.12-15.83l30.97,26.69c6.73,5.8,13.28,11.21,19.46,17.85h0Z"/>
      <path class="st3" d="M122.47,393.62l7.83,7.72c-4.06-.64-7.49-2.9-11.16-5.08l-38.44-33.18,16.48.18c7.98,10.48,15.76,20.96,25.3,30.36h0Z"/>
      <path class="st7" d="M774.49,197.05l-58.22-49.91-3.51-9.65,40.35,35.69c7.14,7.79,15.94,13.8,21.39,23.88h-.01Z"/>
      <path class="st3" d="M637.33,100.72l-19.99-12.9c-1.38-5.18-3.24-9.35-5.27-14.73,12.33,9.7,24.41,18.4,37.12,26.79l-11.86.83h0Z"/>
      <path class="st3" d="M50.18,277.89l-2.65,8.8-21.28-23.25c5.2.73,9.33,1.28,14,1.22l9.92,13.23h.01Z"/>
      <path class="st6" d="M52.43,273.41l-7.48-9.11,17.74-4.63c-4.02,4.65-6.83,8.41-10.26,13.74Z"/>
      <polygon class="st7" points="632.14 101.34 618.93 104.69 618.4 92.07 632.14 101.34"/>
      <path class="st0" d="M364.72,395.82c1.89.49,15.74,14.72,16.12,16.1.12.42-.94,1.34-1.29,1.14l-14.84-17.23h.01Z"/>
      <path class="st2" d="M339.98,368.38l-7.98-8.78c-.33-.36-.99-1.54-.7-1.86.35-.38,1.29-1.4,1.15-1.25,2.29,4.79,6.12,7.22,7.53,11.9h0Z"/>
      <path class="st6" d="M416.09,434.38c-8.59-5.56-15.94-11.83-23.47-18.34l-16.47-16.84,15.55,6.57c8.55,9.08,16.8,18.22,24.39,28.61h0Z"/>
      <circle class="st3" cx="130.69" cy="401.65" r=".26"/>
      <circle class="st3" cx="224.15" cy="387.79" r=".26"/>
      <circle class="st3" cx="80.37" cy="362.64" r=".26"/>
      <path class="st8" d="M495.75,458.11c-10.84.57-21.44-.52-32.03-2.75-2.25-1.58-4.25-3.73-6.2-5.73l-32.06-35.76c10.76.79,20.73.53,31.09-1.76l22,26.33,17.21,19.67h0Z"/>
      <path class="st3" d="M294.87,441.05c-8.3-3.14-16.89-5.92-23.72-11.4-8.8-7.08-16.25-15.11-24.48-22.77-7.2-6.7-14.17-12.62-22.3-18.86,8.35,1.82,15.41,3.66,23.35,4.3l35.09,35.84c4.16,4.25,8.08,7.88,12.05,12.89h.01Z"/>
    </g>
  </g>
  <g>
    <path class="st1" d="M171.63,194.69c-2.31,0-4.47-.29-6.49-.88s-3.8-1.46-5.35-2.61c-1.55-1.15-2.79-2.61-3.72-4.38-.92-1.76-1.45-3.82-1.57-6.17h4.54c.17,2.31.81,4.22,1.92,5.73,1.11,1.51,2.59,2.64,4.44,3.37,1.85.74,3.93,1.1,6.24,1.1,2.02,0,3.9-.28,5.64-.85,1.74-.57,3.14-1.51,4.19-2.83,1.05-1.32,1.58-3.1,1.58-5.32,0-1.81-.53-3.39-1.58-4.76-1.05-1.36-2.88-2.28-5.48-2.74l-9.51-1.76c-2.94-.55-5.39-1.81-7.34-3.78-1.95-1.97-2.93-4.37-2.93-7.18,0-2.65.71-4.9,2.14-6.77,1.43-1.87,3.3-3.3,5.61-4.28,2.31-.99,4.79-1.48,7.43-1.48,2.81,0,5.32.49,7.53,1.48,2.21.99,4,2.42,5.39,4.28,1.39,1.87,2.21,4.17,2.46,6.9h-4.6c-.21-1.93-.78-3.55-1.7-4.85-.92-1.3-2.15-2.29-3.69-2.96-1.53-.67-3.35-1.01-5.45-1.01s-3.82.31-5.42.95c-1.6.63-2.87,1.55-3.81,2.77-.94,1.22-1.42,2.73-1.42,4.54,0,1.93.7,3.52,2.11,4.76,1.41,1.24,3.16,2.07,5.26,2.49l9.01,1.7c3.53.67,6.16,2.03,7.91,4.06,1.74,2.04,2.61,4.53,2.61,7.47,0,2.27-.44,4.22-1.32,5.86-.88,1.64-2.08,2.98-3.59,4.03-1.51,1.05-3.21,1.84-5.1,2.36-1.89.52-3.86.79-5.92.79Z"/>
    <path class="st1" d="M205.33,194.69c-3.32,0-6.06-1.09-8.22-3.28-2.16-2.18-3.24-5.61-3.24-10.27v-18.46h4.41v17.96c0,3.44.7,6.01,2.11,7.69,1.41,1.68,3.31,2.52,5.7,2.52,2.86,0,5.12-1.03,6.8-3.09,1.68-2.06,2.52-5.02,2.52-8.88v-16.19h4.41v31.25h-4.41v-5.29c-.92,1.93-2.27,3.42-4.03,4.47-1.76,1.05-3.78,1.57-6.05,1.57Z"/>
    <path class="st1" d="M243.83,194.69c-2.65,0-4.99-.56-7.02-1.67-2.04-1.11-3.6-2.66-4.69-4.63v5.54h-4.41v-45.36h4.41v19.53c1.01-1.6,2.49-3.02,4.44-4.28,1.95-1.26,4.4-1.89,7.34-1.89,3.15,0,5.88.71,8.19,2.14,2.31,1.43,4.1,3.38,5.39,5.86,1.28,2.48,1.92,5.29,1.92,8.44s-.64,5.95-1.92,8.41c-1.28,2.46-3.08,4.39-5.39,5.8-2.31,1.41-5.06,2.11-8.25,2.11ZM243.64,190.85c2.23,0,4.18-.52,5.86-1.58,1.68-1.05,3-2.51,3.97-4.38.97-1.87,1.45-4.06,1.45-6.58s-.48-4.73-1.45-6.61c-.97-1.89-2.29-3.35-3.97-4.38-1.68-1.03-3.63-1.54-5.86-1.54s-4.13.52-5.83,1.54c-1.7,1.03-3.03,2.49-4,4.38-.97,1.89-1.45,4.09-1.45,6.61s.48,4.72,1.45,6.58c.97,1.87,2.3,3.33,4,4.38,1.7,1.05,3.64,1.58,5.83,1.58Z"/>
    <path class="st1" d="M266.19,193.93v-31.25h4.41v4.54c1.01-1.68,2.35-2.98,4.03-3.91,1.68-.92,3.55-1.39,5.61-1.39,2.48,0,4.63.51,6.46,1.54,1.83,1.03,3.2,2.61,4.13,4.76,1.05-1.97,2.54-3.52,4.47-4.63,1.93-1.11,3.99-1.67,6.17-1.67,3.61,0,6.55,1.09,8.82,3.28,2.27,2.18,3.4,5.61,3.4,10.27v18.46h-4.41v-17.96c0-3.44-.69-6.01-2.08-7.69-1.39-1.68-3.34-2.52-5.86-2.52s-4.79,1.03-6.55,3.09c-1.76,2.06-2.65,5.02-2.65,8.88v16.19h-4.41v-17.96c0-3.44-.69-6.01-2.08-7.69-1.39-1.68-3.34-2.52-5.86-2.52s-4.79,1.03-6.55,3.09c-1.76,2.06-2.65,5.02-2.65,8.88v16.19h-4.41Z"/>
    <path class="st1" d="M321.82,156.32v-6.49h6.3v6.49h-6.3ZM322.83,193.93v-31.25h4.41v31.25h-4.41Z"/>
    <path class="st1" d="M345.38,193.93c-1.6,0-2.95-.21-4.06-.63-1.11-.42-1.95-1.19-2.52-2.3-.57-1.11-.85-2.7-.85-4.76v-19.78h-5.42v-3.78h5.42v-7.25h4.41v7.25h9.32v3.78h-9.32v18.96c0,1.51.12,2.6.35,3.28.23.67.69,1.08,1.39,1.23.69.15,1.75.22,3.18.22h3.84v3.78h-5.73Z"/>
    <path class="st1" d="M387.27,194.69c-2.6,0-4.77-.44-6.49-1.32-1.72-.88-3-2.05-3.84-3.5-.84-1.45-1.26-2.97-1.26-4.57,0-3.44,1.25-6.07,3.75-7.88,2.5-1.81,5.79-2.71,9.86-2.71,1.72,0,3.34.14,4.85.41,1.51.27,2.75.58,3.72.91v-1.32c0-2.94-.75-5.18-2.24-6.71-1.49-1.53-3.52-2.3-6.08-2.3-2.18,0-4.06.45-5.64,1.35-1.58.9-2.55,2.43-2.93,4.57h-4.6c.25-2.27,1.03-4.12,2.33-5.54,1.3-1.43,2.91-2.48,4.82-3.15,1.91-.67,3.92-1.01,6.02-1.01,4.33,0,7.53,1.19,9.61,3.56,2.08,2.37,3.12,5.45,3.12,9.23v10.52c0,1.51.09,2.6.28,3.28.19.67.52,1.08,1.01,1.23.48.15,1.14.22,1.98.22h.5v3.97h-.95c-1.93,0-3.52-.36-4.76-1.07-1.24-.71-2.03-2.16-2.36-4.35-.92,1.72-2.24,3.18-3.94,4.38-1.7,1.2-3.96,1.8-6.77,1.8ZM387.71,190.91c2.1,0,3.91-.55,5.42-1.64,1.51-1.09,2.68-2.5,3.5-4.22.82-1.72,1.23-3.53,1.23-5.42-1.01-.29-2.26-.57-3.75-.82-1.49-.25-2.99-.38-4.5-.38-3.44,0-5.88.65-7.31,1.95-1.43,1.3-2.14,2.9-2.14,4.79,0,1.64.65,3,1.95,4.09,1.3,1.09,3.17,1.64,5.61,1.64Z"/>
    <path class="st1" d="M432.57,193.93v-44.1h26.33v3.65h-21.92v16.51h18.9v3.65h-18.9v20.29h-4.41Z"/>
    <path class="st1" d="M465.52,193.93v-44.1h16.88c3.4,0,6.18.57,8.35,1.7,2.16,1.13,3.75,2.66,4.76,4.57,1.01,1.91,1.51,4.08,1.51,6.52,0,2.31-.5,4.43-1.51,6.36-1.01,1.93-2.58,3.47-4.72,4.6,2.18.97,3.74,2.39,4.66,4.28.92,1.89,1.47,4.16,1.64,6.8l.5,9.26h-4.35l-.44-8.57c-.13-2.35-.51-4.25-1.17-5.7-.65-1.45-1.73-2.51-3.24-3.18-1.51-.67-3.61-1.01-6.3-1.01h-12.16v18.46h-4.41ZM469.93,171.88h12.16c3.61,0,6.25-.87,7.91-2.61,1.66-1.74,2.49-3.96,2.49-6.65s-.81-4.98-2.43-6.61c-1.62-1.64-4.29-2.46-8.03-2.46h-12.1v18.33Z"/>
    <path class="st1" d="M505.15,193.93v-44.1h26.77v3.65h-22.37v16.44h20.48v3.65h-20.48v16.7h22.37v3.65h-26.77Z"/>
    <path class="st1" d="M539.1,193.93v-44.1h26.78v3.65h-22.37v16.44h20.48v3.65h-20.48v16.7h22.37v3.65h-26.78Z"/>
    <path class="st1" d="M218.03,270.29c-2.6,0-4.77-.44-6.49-1.32-1.72-.88-3-2.05-3.84-3.5-.84-1.45-1.26-2.97-1.26-4.57,0-3.44,1.25-6.07,3.75-7.88,2.5-1.81,5.79-2.71,9.86-2.71,1.72,0,3.34.14,4.85.41,1.51.27,2.75.58,3.72.91v-1.32c0-2.94-.75-5.18-2.24-6.71-1.49-1.53-3.52-2.3-6.08-2.3-2.18,0-4.06.45-5.64,1.35-1.58.9-2.55,2.43-2.93,4.57h-4.6c.25-2.27,1.03-4.12,2.33-5.54,1.3-1.43,2.91-2.48,4.82-3.15,1.91-.67,3.92-1.01,6.02-1.01,4.33,0,7.53,1.19,9.61,3.56,2.08,2.37,3.12,5.45,3.12,9.23v10.52c0,1.51.09,2.6.28,3.28.19.67.52,1.08,1.01,1.23.48.15,1.14.22,1.98.22h.5v3.97h-.94c-1.93,0-3.52-.36-4.76-1.07-1.24-.71-2.03-2.16-2.36-4.35-.92,1.72-2.24,3.18-3.94,4.38-1.7,1.2-3.96,1.79-6.77,1.79ZM218.47,266.51c2.1,0,3.91-.55,5.42-1.64,1.51-1.09,2.68-2.5,3.5-4.22.82-1.72,1.23-3.53,1.23-5.42-1.01-.29-2.26-.57-3.75-.82-1.49-.25-2.99-.38-4.5-.38-3.44,0-5.88.65-7.31,1.95-1.43,1.3-2.14,2.9-2.14,4.79,0,1.64.65,3,1.95,4.09,1.3,1.09,3.17,1.64,5.61,1.64Z"/>
    <path class="st1" d="M243.04,283.39v-45.11h4.41v5.42c1.01-1.6,2.49-3.02,4.44-4.28,1.95-1.26,4.4-1.89,7.34-1.89,3.15,0,5.88.71,8.19,2.14,2.31,1.43,4.1,3.38,5.39,5.86,1.28,2.48,1.92,5.29,1.92,8.44s-.64,5.95-1.92,8.41c-1.28,2.46-3.08,4.39-5.39,5.8-2.31,1.41-5.06,2.11-8.25,2.11-2.65,0-4.99-.56-7.02-1.67-2.04-1.11-3.6-2.66-4.69-4.63v19.4h-4.41ZM258.98,266.45c2.23,0,4.18-.52,5.86-1.58,1.68-1.05,3-2.51,3.97-4.38.97-1.87,1.45-4.06,1.45-6.58s-.48-4.72-1.45-6.61c-.97-1.89-2.29-3.35-3.97-4.38-1.68-1.03-3.63-1.54-5.86-1.54s-4.13.52-5.83,1.54c-1.7,1.03-3.03,2.49-4,4.38-.97,1.89-1.45,4.09-1.45,6.61s.48,4.72,1.45,6.58c.97,1.87,2.3,3.33,4,4.38,1.7,1.05,3.64,1.58,5.83,1.58Z"/>
    <path class="st1" d="M280.96,283.39v-45.11h4.41v5.42c1.01-1.6,2.49-3.02,4.44-4.28,1.95-1.26,4.4-1.89,7.34-1.89,3.15,0,5.88.71,8.19,2.14,2.31,1.43,4.1,3.38,5.39,5.86,1.28,2.48,1.92,5.29,1.92,8.44s-.64,5.95-1.92,8.41c-1.28,2.46-3.08,4.39-5.39,5.8-2.31,1.41-5.06,2.11-8.25,2.11-2.65,0-4.99-.56-7.02-1.67-2.04-1.11-3.6-2.66-4.69-4.63v19.4h-4.41ZM296.9,266.45c2.23,0,4.18-.52,5.86-1.58,1.68-1.05,3-2.51,3.97-4.38.97-1.87,1.45-4.06,1.45-6.58s-.48-4.72-1.45-6.61c-.97-1.89-2.29-3.35-3.97-4.38-1.68-1.03-3.63-1.54-5.86-1.54s-4.13.52-5.83,1.54c-1.7,1.03-3.03,2.49-4,4.38-.97,1.89-1.45,4.09-1.45,6.61s.48,4.72,1.45,6.58c.97,1.87,2.3,3.33,4,4.38,1.7,1.05,3.64,1.58,5.83,1.58Z"/>
    <path class="st1" d="M319.39,269.53v-45.36h4.41v45.36h-4.41Z"/>
    <path class="st1" d="M331.8,231.92v-6.49h6.3v6.49h-6.3ZM332.81,269.53v-31.25h4.41v31.25h-4.41Z"/>
    <path class="st1" d="M359.33,270.29c-2.9,0-5.51-.68-7.84-2.05s-4.18-3.28-5.54-5.73c-1.37-2.46-2.05-5.32-2.05-8.6s.68-6.19,2.05-8.63c1.36-2.44,3.21-4.34,5.54-5.7,2.33-1.36,4.95-2.05,7.84-2.05,3.65,0,6.71.95,9.17,2.83,2.46,1.89,4.02,4.39,4.69,7.5h-4.41c-.46-2.1-1.56-3.72-3.31-4.85-1.74-1.13-3.79-1.7-6.14-1.7-1.85,0-3.61.47-5.29,1.42-1.68.95-3.04,2.34-4.06,4.19-1.03,1.85-1.54,4.18-1.54,6.99s.51,5.09,1.54,6.96c1.03,1.87,2.38,3.28,4.06,4.22,1.68.95,3.44,1.42,5.29,1.42,2.35,0,4.4-.57,6.14-1.7,1.74-1.13,2.84-2.75,3.31-4.85h4.41c-.63,3.02-2.18,5.5-4.66,7.43-2.48,1.93-5.54,2.9-9.2,2.9Z"/>
    <path class="st1" d="M389.13,270.29c-2.6,0-4.77-.44-6.49-1.32-1.72-.88-3-2.05-3.84-3.5-.84-1.45-1.26-2.97-1.26-4.57,0-3.44,1.25-6.07,3.75-7.88,2.5-1.81,5.79-2.71,9.86-2.71,1.72,0,3.34.14,4.85.41,1.51.27,2.75.58,3.72.91v-1.32c0-2.94-.75-5.18-2.24-6.71-1.49-1.53-3.52-2.3-6.08-2.3-2.18,0-4.06.45-5.64,1.35-1.58.9-2.55,2.43-2.93,4.57h-4.6c.25-2.27,1.03-4.12,2.33-5.54,1.3-1.43,2.91-2.48,4.82-3.15,1.91-.67,3.92-1.01,6.02-1.01,4.33,0,7.53,1.19,9.61,3.56,2.08,2.37,3.12,5.45,3.12,9.23v10.52c0,1.51.09,2.6.28,3.28.19.67.52,1.08,1.01,1.23.48.15,1.14.22,1.98.22h.5v3.97h-.95c-1.93,0-3.52-.36-4.76-1.07-1.24-.71-2.03-2.16-2.36-4.35-.92,1.72-2.24,3.18-3.94,4.38-1.7,1.2-3.96,1.79-6.77,1.79ZM389.57,266.51c2.1,0,3.91-.55,5.42-1.64,1.51-1.09,2.68-2.5,3.5-4.22.82-1.72,1.23-3.53,1.23-5.42-1.01-.29-2.26-.57-3.75-.82-1.49-.25-2.99-.38-4.5-.38-3.44,0-5.88.65-7.31,1.95-1.43,1.3-2.14,2.9-2.14,4.79,0,1.64.65,3,1.95,4.09,1.3,1.09,3.17,1.64,5.61,1.64Z"/>
    <path class="st1" d="M422.84,269.53c-1.6,0-2.95-.21-4.06-.63-1.11-.42-1.95-1.19-2.52-2.3-.57-1.11-.85-2.7-.85-4.76v-19.78h-5.42v-3.78h5.42v-7.25h4.41v7.25h9.32v3.78h-9.32v18.96c0,1.51.12,2.6.35,3.28.23.67.69,1.08,1.39,1.23.69.15,1.75.22,3.18.22h3.84v3.78h-5.73Z"/>
    <path class="st1" d="M435,231.92v-6.49h6.3v6.49h-6.3ZM436,269.53v-31.25h4.41v31.25h-4.41Z"/>
    <path class="st1" d="M462.9,270.29c-3.02,0-5.73-.67-8.13-2.02-2.39-1.34-4.27-3.24-5.64-5.7-1.37-2.46-2.05-5.34-2.05-8.66s.69-6.26,2.08-8.69,3.29-4.33,5.7-5.67,5.13-2.02,8.16-2.02,5.79.67,8.16,2.02c2.37,1.34,4.24,3.23,5.61,5.67,1.36,2.44,2.05,5.33,2.05,8.69s-.69,6.21-2.08,8.66c-1.39,2.46-3.28,4.36-5.67,5.7-2.39,1.34-5.12,2.02-8.19,2.02ZM462.9,266.51c2.06,0,3.95-.47,5.67-1.42,1.72-.95,3.11-2.35,4.16-4.22,1.05-1.87,1.57-4.19,1.57-6.96s-.51-5.14-1.54-6.99c-1.03-1.85-2.41-3.24-4.13-4.19-1.72-.94-3.59-1.42-5.61-1.42s-3.9.47-5.64,1.42c-1.74.95-3.14,2.34-4.19,4.19-1.05,1.85-1.58,4.18-1.58,6.99s.52,5.09,1.58,6.96c1.05,1.87,2.43,3.28,4.13,4.22,1.7.95,3.56,1.42,5.58,1.42Z"/>
    <path class="st1" d="M485.46,269.53v-31.25h4.41v5.42c1.05-1.93,2.52-3.44,4.41-4.54,1.89-1.09,3.99-1.64,6.3-1.64,3.61,0,6.53,1.09,8.76,3.28,2.23,2.18,3.34,5.61,3.34,10.27v18.46h-4.41v-17.96c0-3.44-.72-6-2.17-7.69-1.45-1.68-3.54-2.52-6.27-2.52s-5.23,1.03-7.12,3.09c-1.89,2.06-2.83,5.02-2.83,8.88v16.19h-4.41Z"/>
  </g>
</svg>