<?xml version="1.0" encoding="UTF-8"?>
<svg id="Layer_2" data-name="Layer 2" xmlns="http://www.w3.org/2000/svg" xmlns:xlink="http://www.w3.org/1999/xlink" viewBox="0 0 1920 501.7">
  <defs>
    <style>
      .cls-1 {
        fill: none;
      }

      .cls-2 {
        fill: #2f7f7f;
      }

      .cls-3 {
        fill: #262834;
      }

      .cls-4 {
        fill: #3d6c91;
      }

      .cls-5 {
        clip-path: url(#clippath);
      }

      .cls-6 {
        fill: #0b6060;
      }
    </style>
    <clipPath id="clippath">
      <rect class="cls-1" width="1920" height="501.7"/>
    </clipPath>
  </defs>
  <g id="GRAPHICS_1" data-name="GRAPHICS 1">
    <g class="cls-5">
      <g>
        <g>
          <path class="cls-4" d="M615.47,146.57c239.71,52.73,463.03,145.48,714.17,166.11,194.22,15.96,393.62-11.95,592.35-56.63v-85.8c-183.72,38.8-367.64,61.52-547.14,46.77-251.15-20.64-474.47-113.39-714.17-166.11C447.66,4.06,199.77-6.1-9.62,85.84v77.58c199.24-72.23,427.21-60.37,625.09-16.85Z"/>
          <path class="cls-3" d="M615.21,147.54c20.61,4.54,41.16,9.38,61.64,14.45s40.77,10.35,61.08,15.81,40.49,11.04,60.69,16.73c20.17,5.68,40.32,11.44,60.47,17.22,20.14,5.77,40.27,11.56,60.42,17.28,20.15,5.72,40.33,11.39,60.54,16.91,20.16,5.51,40.36,10.89,60.6,16.05s40.94,10.22,61.5,14.93,41.06,9.11,61.69,13.17c20.83,4.1,41.73,7.83,62.71,11.13s42.26,6.21,63.48,8.59c21.64,2.44,43.33,4.34,65.06,5.7,22.01,1.38,44.05,2.21,66.1,2.53s44.29.15,66.42-.5c22.25-.65,44.49-1.76,66.7-3.29s44.49-3.49,66.68-5.83c22.42-2.36,44.79-5.1,67.12-8.18,22.37-3.08,44.7-6.5,66.98-10.22,22.48-3.75,44.91-7.81,67.3-12.12,22.49-4.33,44.93-8.93,67.32-13.75,10.86-2.34,21.72-4.73,32.56-7.17.43-.1.73-.54.73-.96v-82.26c0-1.11.1-2.28,0-3.39,0-.05,0-.1,0-.15,0-.68-.64-1.1-1.27-.96-17.16,3.62-34.34,7.11-51.55,10.45-17.15,3.32-34.33,6.5-51.54,9.5-17.14,2.99-34.31,5.81-51.5,8.44-17.19,2.63-34.42,5.08-51.67,7.31s-34.22,4.22-51.36,6.01-34.15,3.33-51.26,4.64c-17.03,1.3-34.08,2.37-51.14,3.16s-33.98,1.33-50.99,1.58-34.04.23-51.06-.11-33.76-.96-50.62-1.9c-16.72-.94-33.42-2.19-50.09-3.76-16.33-1.54-32.63-3.39-48.9-5.53-16.19-2.12-32.35-4.53-48.47-7.18s-31.86-5.49-47.73-8.57c-15.79-3.07-31.55-6.35-47.26-9.8s-31.28-7.07-46.87-10.84-31.06-7.67-46.55-11.69c-15.46-4.02-30.89-8.14-46.3-12.35s-30.77-8.49-46.13-12.82c-15.36-4.33-30.7-8.71-46.04-13.1-15.34-4.39-30.68-8.8-46.02-13.19-15.35-4.39-30.71-8.77-46.08-13.09-15.38-4.33-30.78-8.6-46.21-12.8-15.45-4.2-30.91-8.31-46.41-12.31s-31.1-7.9-46.69-11.64-31.15-7.32-46.78-10.72c-14.3-3.1-28.64-6.02-43.01-8.73-14.56-2.75-29.16-5.3-43.8-7.63-14.73-2.35-29.5-4.48-44.29-6.4-14.96-1.93-29.95-3.64-44.97-5.1-15.1-1.47-30.22-2.69-45.36-3.65-15.2-.97-30.41-1.67-45.63-2.09-15.25-.42-30.51-.57-45.76-.42-15.26.15-30.53.61-45.77,1.38-15.24.77-30.46,1.86-45.65,3.28-15.12,1.42-30.2,3.17-45.23,5.28-15.06,2.11-30.08,4.57-45.02,7.42s-29.76,6.06-44.51,9.67-29.36,7.62-43.87,12.04c-14.5,4.42-28.88,9.25-43.1,14.52-13.71,5.08-27.27,10.56-40.67,16.43-.31.14-.5.54-.5.86v77.58c0,.61.65,1.19,1.27.96,19.44-7.04,39.15-13.29,59.08-18.79,19.95-5.5,40.1-10.24,60.39-14.28s40.93-7.4,61.55-10.08c20.61-2.68,41.3-4.69,62.04-6.11,20.69-1.41,41.41-2.22,62.14-2.47,20.79-.26,41.59.04,62.37.85,20.63.8,41.25,2.11,61.82,3.88,20.51,1.77,40.98,3.99,61.39,6.65,20.25,2.63,40.44,5.7,60.57,9.15s39.46,7.17,59.09,11.3c4.71.99,9.41,2.01,14.12,3.04,1.25.28,1.79-1.65.53-1.93-19.57-4.3-39.22-8.25-58.93-11.82-20.04-3.63-40.16-6.88-60.33-9.71s-40.62-5.28-61.01-7.27c-20.6-2.01-41.24-3.55-61.91-4.61s-41.68-1.62-62.54-1.63c-20.88-.01-41.77.53-62.62,1.66-20.76,1.13-41.49,2.85-62.15,5.22-20.55,2.36-41.04,5.35-61.4,9.04s-40.76,8.1-60.88,13.25-40,11.04-59.64,17.72c-4.75,1.62-9.49,3.28-14.21,4.99l1.27.96v-77.58l-.5.86c13.96-6.12,28.1-11.8,42.41-17.05s28.63-10.01,43.15-14.39c14.52-4.38,29.17-8.34,43.91-11.91,14.76-3.57,29.61-6.75,44.54-9.55s29.97-5.23,45.04-7.31,30.35-3.8,45.58-5.18c15.2-1.38,30.42-2.42,45.66-3.14s30.51-1.13,45.77-1.24c15.25-.11,30.51.07,45.76.54s30.42,1.2,45.61,2.21c15.13,1,30.25,2.26,45.34,3.76,15,1.49,29.98,3.23,44.93,5.2,14.88,1.96,29.74,4.15,44.55,6.55,14.61,2.37,29.19,4.95,43.73,7.73,14.28,2.73,28.53,5.66,42.74,8.78,15.68,3.44,31.32,7.06,46.93,10.83s31.14,7.68,46.67,11.7,30.95,8.15,46.39,12.36c15.42,4.21,30.81,8.49,46.19,12.83,15.37,4.33,30.72,8.71,46.07,13.1s30.68,8.8,46.02,13.19c15.34,4.39,30.68,8.76,46.04,13.09s30.74,8.6,46.14,12.79,30.85,8.31,46.32,12.31,31.01,7.89,46.57,11.63c15.59,3.75,31.22,7.35,46.9,10.77,15.72,3.43,31.49,6.68,47.3,9.71,15.88,3.05,31.81,5.88,47.77,8.47s32.05,4.93,48.13,7.01c16.28,2.1,32.6,3.91,48.94,5.42,16.7,1.54,33.42,2.75,50.17,3.65,16.86.91,33.75,1.49,50.63,1.79,16.94.29,33.89.29,50.83,0,17.01-.29,34.01-.85,51-1.68,17.06-.83,34.11-1.92,51.14-3.25,17.11-1.34,34.2-2.92,51.27-4.72,17.15-1.81,34.27-3.85,51.37-6.08s34.18-4.68,51.23-7.3c17.2-2.65,34.37-5.48,51.51-8.49,17.13-3,34.23-6.17,51.3-9.49,16.64-3.24,33.25-6.61,49.84-10.12l-1.27-.96v82.26c0,1.03-.24,2.38,0,3.39.01.04,0,.1,0,.15l.73-.96c-22.39,5.03-44.83,9.86-67.31,14.45-22.39,4.57-44.83,8.89-67.31,12.94-22.29,4.01-44.63,7.74-67.02,11.15-22.33,3.4-44.71,6.48-67.14,9.2-22.3,2.7-44.64,5.05-67.01,6.98-22.24,1.93-44.52,3.45-66.81,4.53s-44.2,1.7-66.32,1.85c-22.01.15-44.03-.19-66.02-1.05-21.96-.86-43.9-2.24-65.79-4.19-21.52-1.91-42.98-4.36-64.38-7.29-21.04-2.88-42.01-6.23-62.91-9.97-20.75-3.71-41.43-7.82-62.04-12.25s-41.1-9.16-61.56-14.15c-20.4-4.97-40.73-10.19-61.02-15.59s-40.32-10.9-60.43-16.53c-20.1-5.63-40.17-11.35-60.23-17.1-20.14-5.77-40.27-11.56-60.42-17.3s-40.2-11.4-60.34-16.96c-20.25-5.58-40.54-11.04-60.87-16.3s-40.69-10.32-61.13-15.1c-9.95-2.33-19.92-4.6-29.9-6.8-1.25-.28-1.79,1.65-.53,1.93Z"/>
        </g>
        <g>
          <path class="cls-6" d="M533.1,354.05c201.91,43.82,392.04,116.29,602.39,137.04,164.21,16.2,335.4.25,504.7-21.54,93.84-12.08,187.91-26.06,281.81-42.32v-70.26c-81.24,13.53-162.56,25.41-243.72,35.85-169.31,21.79-340.5,37.74-504.7,21.54-210.35-20.75-400.48-93.23-602.39-137.04-184.53-40.05-393.21-53.71-580.81,14.7v64.03c177.44-53.76,370.58-39.35,542.71-2Z"/>
          <path class="cls-3" d="M532.83,355.01c21.73,4.72,43.38,9.77,64.97,15.08,21.51,5.28,42.97,10.81,64.38,16.47,21.38,5.65,42.71,11.44,64.04,17.26,21.24,5.8,42.47,11.63,63.72,17.39,21.26,5.76,42.54,11.45,63.86,16.97,21.44,5.55,42.92,10.92,64.47,16.01,21.62,5.11,43.32,9.94,65.09,14.38,21.9,4.47,43.89,8.56,65.95,12.15,22.13,3.61,44.34,6.73,66.61,9.27s45.46,4.56,68.25,5.96c23.09,1.41,46.21,2.24,69.34,2.58,23.3.34,46.61.17,69.91-.42,23.46-.6,46.9-1.62,70.33-3,23.48-1.38,46.93-3.12,70.36-5.14s47.19-4.35,70.74-6.88c23.52-2.53,47.02-5.27,70.49-8.16,23.59-2.9,47.15-5.95,70.71-9.1,23.55-3.15,47.08-6.42,70.59-9.82,23.63-3.41,47.25-6.95,70.85-10.62s47.08-7.46,70.59-11.39c11.4-1.91,22.79-3.84,34.18-5.81.43-.07.73-.56.73-.96v-70.26c0-.7-.64-1.07-1.27-.96-16.73,2.79-33.48,5.5-50.23,8.16-16.82,2.66-33.65,5.25-50.48,7.78-16.73,2.51-33.48,4.96-50.23,7.35-16.73,2.38-33.47,4.7-50.21,6.96-16.79,2.26-33.58,4.47-50.38,6.61-16.76,2.14-33.53,4.21-50.31,6.2-16.7,1.98-33.4,3.87-50.12,5.65s-33.4,3.45-50.12,4.99c-16.68,1.53-33.37,2.93-50.07,4.17-16.72,1.24-33.46,2.32-50.21,3.22-16.59.89-33.2,1.59-49.81,2.08-16.53.49-33.07.77-49.61.81-16.53.04-33.07-.15-49.59-.62-16.36-.46-32.71-1.18-49.04-2.19s-32.48-2.3-48.68-3.91c-16.05-1.6-32.08-3.5-48.06-5.69-15.86-2.17-31.68-4.62-47.47-7.31s-31.17-5.55-46.7-8.65c-15.46-3.08-30.87-6.36-46.25-9.81-15.33-3.43-30.62-7.03-45.89-10.75s-30.58-7.59-45.83-11.54c-15.16-3.92-30.3-7.93-45.42-12-15.11-4.06-30.22-8.17-45.31-12.29-15.17-4.14-30.34-8.3-45.52-12.44s-30.23-8.21-45.36-12.24c-15.15-4.04-30.32-8.01-45.51-11.89s-30.47-7.67-45.75-11.33c-15.4-3.68-30.83-7.23-46.3-10.6-14.41-3.14-28.87-6.1-43.36-8.87-14.62-2.79-29.28-5.37-43.97-7.74-14.77-2.38-29.58-4.54-44.42-6.47s-30.18-3.67-45.31-5.12c-15.13-1.45-30.28-2.63-45.46-3.53s-30.46-1.51-45.7-1.81c-15.35-.3-30.7-.29-46.04.06s-30.56,1.04-45.81,2.09c-15.26,1.05-30.49,2.47-45.68,4.27-15.13,1.8-30.22,3.98-45.24,6.57-15.17,2.62-30.26,5.65-45.26,9.13s-29.81,7.37-44.52,11.73-28.41,8.89-42.39,13.99c-.42.15-.73.5-.73.96v64.03c0,.64.64,1.15,1.27.96,17.3-5.23,34.78-9.84,52.41-13.84s35.15-7.35,52.87-10.16c17.85-2.83,35.79-5.09,53.78-6.82s35.73-2.91,53.64-3.63,35.81-.96,53.72-.77c17.95.19,35.9.83,53.82,1.86,17.78,1.03,35.54,2.45,53.27,4.23,17.75,1.78,35.47,3.92,53.14,6.4,17.38,2.43,34.71,5.19,51.99,8.23,17.14,3.02,34.23,6.32,51.26,9.89,4.09.86,8.18,1.73,12.27,2.62,1.25.27,1.79-1.66.53-1.93-17.02-3.69-34.1-7.13-51.22-10.29-17.28-3.19-34.62-6.09-52.01-8.67s-35.03-4.89-52.61-6.84c-17.76-1.96-35.55-3.57-53.38-4.8-17.9-1.23-35.83-2.07-53.76-2.47-18.05-.41-36.12-.39-54.17.11-17.99.5-35.97,1.46-53.91,2.94-17.88,1.48-35.72,3.47-53.49,6s-35.6,5.64-53.24,9.33c-17.67,3.7-35.22,8-52.6,12.92-4.3,1.22-8.58,2.48-12.86,3.77l1.27.96v-64.03l-.73.96c14.48-5.28,29.13-10.09,43.91-14.43s29.73-8.24,44.76-11.69c14.93-3.42,29.95-6.41,45.05-8.99s30.35-4.75,45.61-6.52c15.19-1.76,30.43-3.14,45.69-4.15,15.33-1.02,30.68-1.67,46.04-1.98,15.27-.31,30.55-.29,45.82.05,15.24.33,30.47.98,45.69,1.91,15.17.93,30.32,2.14,45.44,3.62,15.12,1.48,30.22,3.22,45.28,5.2s29.85,4.18,44.72,6.61c14.68,2.4,29.32,5.01,43.92,7.83,14.63,2.82,29.23,5.85,43.78,9.05,15.38,3.38,30.73,6.93,46.05,10.61,15.27,3.67,30.51,7.48,45.73,11.38s30.35,7.88,45.5,11.92,30.39,8.18,45.57,12.32,30.19,8.25,45.29,12.38c15.1,4.12,30.2,8.23,45.32,12.28s30.27,8.05,45.43,11.96,30.54,7.78,45.85,11.49c15.27,3.7,30.57,7.28,45.91,10.69s30.81,6.68,46.28,9.73,31.27,5.96,46.97,8.59c15.69,2.63,31.41,5.02,47.18,7.14,15.9,2.14,31.84,4,47.81,5.55,16.21,1.58,32.45,2.84,48.71,3.81s32.86,1.68,49.3,2.11c16.45.43,32.91.6,49.37.53,16.54-.07,33.08-.37,49.62-.88,16.61-.51,33.22-1.24,49.82-2.14,16.75-.91,33.49-2.02,50.22-3.27,16.7-1.26,33.39-2.67,50.07-4.22s33.42-3.24,50.12-5.03,33.59-3.72,50.36-5.72,33.38-4.06,50.06-6.2c16.65-2.13,33.3-4.32,49.94-6.57,16.75-2.26,33.48-4.59,50.21-6.97,16.84-2.4,33.66-4.87,50.48-7.4,16.76-2.52,33.5-5.11,50.24-7.76,16.18-2.56,32.35-5.19,48.51-7.88l-1.27-.96v70.26l.73-.96c-23.58,4.08-47.19,8.02-70.82,11.83-23.51,3.79-47.05,7.44-70.6,10.97-23.51,3.52-47.04,6.91-70.59,10.18s-47.32,6.45-71.01,9.49-46.78,5.89-70.2,8.6-47.15,5.27-70.76,7.56c-23.46,2.28-46.94,4.3-70.45,6.01-23.39,1.7-46.8,3.08-70.24,4.07s-46.74,1.58-70.13,1.71c-23.13.13-46.27-.21-69.39-1.08-22.95-.87-45.88-2.26-68.75-4.28-22.63-1.99-45.2-4.6-67.69-7.77-22.15-3.12-44.22-6.77-66.21-10.85-21.9-4.07-43.72-8.57-65.46-13.41-21.57-4.8-43.07-9.92-64.5-15.26-21.39-5.33-42.72-10.89-64.01-16.56s-42.67-11.5-63.98-17.33c-21.17-5.79-42.33-11.59-63.52-17.31-21.36-5.76-42.75-11.44-64.19-16.93-21.42-5.48-42.89-10.77-64.43-15.77-10.46-2.43-20.94-4.79-31.44-7.06-1.25-.27-1.79,1.65-.53,1.93Z"/>
        </g>
        <g>
          <path class="cls-2" d="M571.19,277.32c201.91,43.82,392.04,116.29,602.39,137.04,164.21,16.2,335.4.25,504.7-21.54,81.15-10.45,162.47-22.32,243.72-35.85v-100.92c-198.73,44.68-398.13,72.59-592.35,56.63-251.15-20.64-474.47-113.39-714.17-166.11C417.59,103.05,189.63,91.19-9.62,163.42v128.61c187.59-68.41,396.28-54.75,580.81-14.7Z"/>
          <path class="cls-3" d="M570.93,278.29c21.12,4.59,42.18,9.49,63.17,14.64s41.79,10.48,62.61,15.97c20.79,5.48,41.54,11.1,62.28,16.75,20.72,5.65,41.44,11.34,62.17,16.97,20.73,5.63,41.49,11.21,62.28,16.64,20.82,5.43,41.68,10.72,62.61,15.75,20.99,5.05,42.03,9.85,63.16,14.3,21.23,4.48,42.54,8.61,63.93,12.3,21.5,3.71,43.08,6.98,64.72,9.72,22.02,2.79,44.11,5.02,66.24,6.67,22.38,1.67,44.8,2.78,67.24,3.39,22.6.62,45.21.74,67.81.43s45.52-1.04,68.25-2.13c22.87-1.1,45.73-2.56,68.56-4.31,22.94-1.76,45.85-3.81,68.74-6.09,22.95-2.29,45.88-4.81,68.79-7.49,22.93-2.69,45.83-5.54,68.72-8.5,22.9-2.96,45.79-6.03,68.67-9.22,23-3.2,45.98-6.52,68.94-9.97,23-3.45,45.99-7.02,68.95-10.71,11.17-1.8,22.33-3.63,33.49-5.48.43-.07.73-.56.73-.96v-96.77c0-1.31.1-2.67,0-3.98,0-.06,0-.11,0-.17,0-.67-.64-1.11-1.27-.96-16.82,3.78-33.67,7.45-50.54,10.98-16.9,3.54-33.83,6.95-50.79,10.21-16.82,3.23-33.66,6.32-50.54,9.24-16.89,2.92-33.8,5.68-50.74,8.25-16.86,2.56-33.75,4.94-50.66,7.12-16.84,2.17-33.71,4.14-50.61,5.88s-33.49,3.25-50.27,4.53c-16.7,1.28-33.42,2.32-50.14,3.12s-33.49,1.33-50.24,1.6-33.23.26-49.84-.03c-16.64-.29-33.27-.87-49.89-1.75-16.45-.88-32.88-2.06-49.28-3.55-16.2-1.48-32.37-3.25-48.5-5.31-15.99-2.04-31.94-4.35-47.85-6.91-15.74-2.53-31.45-5.31-47.11-8.29-15.66-2.99-31.29-6.18-46.87-9.56-15.45-3.35-30.87-6.88-46.25-10.55-15.42-3.68-30.8-7.52-46.15-11.46-15.25-3.92-30.48-7.96-45.68-12.08s-30.35-8.32-45.5-12.57-30.42-8.59-45.61-12.94-30.24-8.67-45.36-13c-15.2-4.36-30.4-8.7-45.62-13-15.16-4.28-30.32-8.53-45.51-12.7s-30.59-8.31-45.92-12.33c-15.29-4-30.6-7.9-45.95-11.66s-30.82-7.4-46.28-10.87-29.4-6.41-44.16-9.31c-14.68-2.88-29.4-5.56-44.16-8.03-14.99-2.5-30.02-4.79-45.08-6.84-15.06-2.05-30.14-3.88-45.26-5.46-15.34-1.6-30.7-2.96-46.08-4.04-15.37-1.09-30.76-1.91-46.16-2.44-15.44-.54-30.88-.79-46.33-.75-15.53.05-31.06.4-46.58,1.08s-30.86,1.67-46.26,3.01c-15.45,1.35-30.87,3.04-46.24,5.1-15.21,2.04-30.38,4.43-45.47,7.21s-30.18,5.95-45.14,9.53c-15.01,3.59-29.93,7.58-44.71,12-14.22,4.25-28.31,8.9-42.26,13.96-.42.15-.73.5-.73.96v123.35c0,1.66-.12,3.38,0,5.04,0,.07,0,.15,0,.22,0,.61.65,1.19,1.27.96,18.23-6.64,36.73-12.55,55.43-17.72,18.62-5.15,37.43-9.59,56.38-13.35,18.97-3.76,38.08-6.86,57.26-9.31s38.3-4.26,57.53-5.51,38.47-1.92,57.72-2.07,38.46.22,57.67,1.06c19.07.84,38.12,2.14,57.14,3.86,19.05,1.73,38.06,3.88,57.02,6.41,18.7,2.5,37.35,5.38,55.94,8.6s36.67,6.68,54.92,10.49c4.43.92,8.85,1.87,13.27,2.83,1.25.27,1.79-1.66.53-1.93-18.22-3.95-36.5-7.61-54.83-10.95s-37.26-6.43-55.97-9.12-37.59-5.02-56.45-6.94c-19.12-1.95-38.28-3.48-57.47-4.55-19.26-1.07-38.55-1.69-57.84-1.78-19.25-.1-38.51.31-57.73,1.28-19.32.98-38.6,2.52-57.82,4.67-19.17,2.15-38.27,4.91-57.26,8.33s-38.02,7.55-56.8,12.37-37.35,10.35-55.68,16.62c-4.51,1.54-9.01,3.13-13.49,4.77l1.27.96v-43.52c0-12.37,0-24.74,0-37.11v-46.04c0-.54.09-1.18,0-1.71-.01-.07,0-.15,0-.22l-.73.96c14.44-5.23,29.03-10.03,43.75-14.4s29.72-8.36,44.74-11.92,30.03-6.69,45.16-9.45c15.29-2.79,30.65-5.19,46.06-7.21,15.3-2.01,30.65-3.65,46.03-4.96,15.47-1.31,30.97-2.28,46.49-2.92,15.45-.64,30.9-.95,46.36-.97,15.44-.01,30.89.27,46.32.84s30.93,1.42,46.37,2.55,30.59,2.48,45.84,4.11c15.29,1.63,30.55,3.5,45.78,5.61,14.97,2.08,29.91,4.38,44.81,6.9s29.58,5.23,44.31,8.15c14.76,2.93,29.47,6.09,44.15,9.4,15.45,3.49,30.87,7.14,46.25,10.93s30.8,7.73,46.15,11.77,30.48,8.12,45.68,12.31c15.26,4.2,30.5,8.47,45.72,12.78,15.14,4.29,30.27,8.61,45.4,12.95,15.12,4.33,30.24,8.68,45.36,13s30.4,8.66,45.62,12.92,30.32,8.44,45.51,12.54c15.28,4.13,30.58,8.17,45.91,12.1,15.28,3.91,30.6,7.71,45.95,11.35s30.96,7.19,46.5,10.53c15.52,3.34,31.08,6.49,46.68,9.43,15.68,2.96,31.39,5.7,47.15,8.2,15.87,2.52,31.78,4.79,47.73,6.79,16.07,2.02,32.17,3.76,48.3,5.19,16.5,1.47,33.03,2.62,49.57,3.47,16.54.85,33.1,1.39,49.66,1.65s33.39.23,50.09-.07,33.35-.86,50.01-1.68c16.73-.82,33.45-1.89,50.15-3.19,16.86-1.31,33.7-2.87,50.51-4.63,16.81-1.77,33.61-3.75,50.37-5.93,16.85-2.19,33.67-4.57,50.47-7.14,16.86-2.58,33.7-5.33,50.5-8.25,16.87-2.93,33.72-6.03,50.54-9.27,16.96-3.27,33.89-6.69,50.79-10.24s32.59-6.97,48.84-10.63l-1.27-.96v96.77c0,1.23-.25,2.77,0,3.98.01.05,0,.12,0,.17l.73-.96c-22.96,3.82-45.94,7.52-68.95,11.09s-45.95,7-68.95,10.33c-22.95,3.31-45.92,6.51-68.9,9.59-22.91,3.07-45.84,6.04-68.78,8.87-22.82,2.82-45.66,5.5-68.52,7.99-22.91,2.49-45.83,4.78-68.78,6.81-22.87,2.02-45.76,3.78-68.67,5.21-22.79,1.42-45.6,2.52-68.42,3.22-22.59.69-45.2,1-67.8.84-22.44-.15-44.88-.76-67.29-1.9-22.33-1.14-44.63-2.8-66.87-5.06-21.96-2.23-43.85-5.04-65.67-8.35s-42.99-7.02-64.37-11.16c-21.16-4.1-42.25-8.59-63.27-13.38s-41.8-9.82-62.62-15.08-41.64-10.72-62.41-16.28c-20.75-5.56-41.47-11.22-62.19-16.88-20.73-5.67-41.45-11.34-62.2-16.93-20.7-5.57-41.43-11.06-62.2-16.36-20.9-5.33-41.86-10.48-62.87-15.35-10.16-2.35-20.34-4.64-30.54-6.86-1.25-.27-1.79,1.65-.53,1.93Z"/>
        </g>
      </g>
    </g>
  </g>
</svg>