<?xml version="1.0" encoding="UTF-8"?>
<svg id="Layer_2" data-name="Layer 2" xmlns="http://www.w3.org/2000/svg" xmlns:xlink="http://www.w3.org/1999/xlink" viewBox="0 0 1180 904.18">
  <defs>
    <style>
      .cls-1 {
        fill: none;
      }

      .cls-2 {
        fill: #2f7f7f;
      }

      .cls-3 {
        fill: #262834;
      }

      .cls-4 {
        fill: #3d6c91;
      }

      .cls-5 {
        clip-path: url(#clippath);
      }

      .cls-6 {
        fill: #0b6060;
      }
    </style>
    <clipPath id="clippath">
      <rect class="cls-1" width="1180" height="904.18"/>
    </clipPath>
  </defs>
  <g id="Graphics_1" data-name="Graphics 1">
    <g class="cls-5">
      <g>
        <g>
          <path class="cls-6" d="M427.04,354.94c102.5,44.3,174.52,134.53,253.05,209.94,71.45,68.62,145.49,134.98,226.8,191.96,64.6,45.26,133.75,84.62,207.62,112.88,22.57,8.63,45.55,16.21,68.86,22.61v-93.58c-69.79-18.27-136.32-45.53-200.9-83.85-100.32-59.54-189.32-136.17-273.01-216.74-84.66-81.49-166.98-168.76-271.27-223.27C304.25,204.89,150.21,196.4-2.9,192.62v87.72c71.48,2.15,143.01,8.53,213.24,18.78,73.62,10.75,148.17,26.2,216.7,55.82Z"/>
          <path class="cls-3" d="M426.15,356.45c12.89,5.58,25.44,11.93,37.61,18.95,12.07,6.96,23.77,14.55,35.12,22.64s22.33,16.65,33.03,25.57,21.22,18.27,31.48,27.8,20.38,19.35,30.36,29.25,19.84,19.93,29.68,29.96c9.8,9.99,19.59,20,29.46,29.93s20.09,19.96,30.32,29.76c11.65,11.16,23.37,22.24,35.17,33.24s23.71,21.9,35.72,32.67,24.13,21.42,36.39,31.92c12.25,10.49,24.64,20.83,37.18,30.98,12.54,10.15,25.22,20.11,38.07,29.86,12.8,9.71,25.77,19.2,38.92,28.44s26.02,17.92,39.3,26.48,26.73,16.84,40.37,24.8,27.47,15.61,41.48,22.89c14.01,7.29,28.21,14.21,42.6,20.74,14.39,6.53,28.97,12.66,43.71,18.34,15.6,6.01,31.39,11.52,47.35,16.49,7.77,2.42,15.58,4.7,23.43,6.86,1.1.3,2.22-.55,2.22-1.69v-82.01c0-3.79.17-7.62,0-11.41,0-.05,0-.11,0-.16,0-.76-.54-1.5-1.29-1.69-22.01-5.77-43.77-12.44-65.2-20.07-21.39-7.62-42.45-16.17-63.08-25.67-21.15-9.73-41.85-20.43-62.04-32.01-19.76-11.34-39.08-23.47-58.01-36.13s-37.48-25.89-55.66-39.6-35.79-27.71-53.2-42.17-34.76-29.49-51.73-44.7c-16.84-15.1-33.43-30.47-49.83-46.05s-31.8-30.6-47.6-46-31.08-30.3-46.82-45.25-31.83-29.85-48.22-44.24c-16.21-14.24-32.81-28.05-49.91-41.22-17.15-13.2-34.83-25.73-53.13-37.3s-37.41-22.24-57.02-31.65-40.66-18.01-61.65-25.29-41.96-13.31-63.34-18.47c-21.64-5.22-43.5-9.49-65.48-12.99s-44.17-6.27-66.37-8.47c-22.52-2.23-45.09-3.88-67.68-5.15s-45.14-2.16-67.72-2.86c-11-.34-22.01-.64-33.01-.91-.95-.02-1.75.82-1.75,1.75v76.93c0,3.53-.16,7.11,0,10.64,0,.05,0,.11,0,.16,0,.97.8,1.73,1.75,1.75,29.49.89,58.96,2.49,88.37,4.79,29.19,2.28,58.32,5.25,87.37,8.9,28.03,3.52,56.01,7.6,83.83,12.57s54.65,10.7,81.53,17.92,52.96,15.74,78.52,26.2c3.16,1.29,6.3,2.62,9.43,3.97.88.38,1.87.25,2.4-.63.44-.74.24-2.03-.63-2.4-25.56-11.03-51.9-20.14-78.68-27.73-26.86-7.61-54.12-13.73-81.56-18.87-27.74-5.2-55.65-9.42-83.62-13.1s-58.43-7-87.75-9.46c-29.4-2.47-58.86-4.25-88.34-5.31-3.62-.13-7.25-.25-10.87-.36l1.75,1.75v-84.16c0-1.1.14-2.31,0-3.41,0-.05,0-.11,0-.16l-1.75,1.75c22.76.56,45.51,1.23,68.26,2.18s45.04,2.18,67.52,3.89c22.4,1.71,44.77,3.88,67.05,6.74,22.08,2.83,44.08,6.34,65.91,10.71,21.61,4.32,43.05,9.5,64.2,15.71,21.26,6.24,42.22,13.53,62.69,22s40.2,18.04,59.39,28.84c18.81,10.59,37,22.27,54.6,34.76s34.66,25.79,51.25,39.62,32.79,28.23,48.68,42.9,31.82,29.93,47.5,45.14,31.03,30.27,46.61,45.34,32.51,31.17,49.06,46.43,33.62,30.54,50.82,45.37,34.58,29.22,52.35,43.25,36.08,27.82,54.66,40.99,37.29,25.65,56.52,37.59c19.71,12.24,39.83,23.79,60.49,34.36,20.42,10.46,41.31,20,62.58,28.6s42.31,16.02,63.93,22.64c10.52,3.22,21.11,6.22,31.75,9.01l-1.29-1.69v89.75c0,1.19-.15,2.49,0,3.67,0,.05,0,.11,0,.16l2.22-1.69c-16.16-4.44-32.16-9.44-47.98-14.97s-30.47-11.2-45.42-17.5c-14.49-6.1-28.79-12.64-42.91-19.54-14.19-6.94-28.19-14.25-42-21.91s-27.45-15.65-40.89-23.93c-13.44-8.29-26.7-16.87-39.79-25.71s-26.19-18.08-39.03-27.48c-13.02-9.54-25.87-19.32-38.56-29.3s-25.2-20.15-37.58-30.5c-12.38-10.35-24.62-20.87-36.73-31.52s-24-21.35-35.84-32.2-23.69-21.91-35.41-33c-11.02-10.43-22.01-20.89-32.82-31.54-9.93-9.79-19.74-19.71-29.51-29.66s-19.55-19.96-29.38-29.89c-9.89-9.99-19.86-19.92-29.99-29.67s-20.38-19.29-30.91-28.56-21.24-18.2-32.31-26.74c-11.02-8.51-22.37-16.61-34.08-24.15s-23.75-14.48-36.17-20.72c-6.12-3.08-12.32-5.97-18.6-8.69-.88-.38-1.87-.25-2.4.63-.44.74-.24,2.02.63,2.4Z"/>
        </g>
        <g>
          <path class="cls-4" d="M602.89,217.86c177.93,131.37,288.35,351.58,492.31,437.73,28.53,12.05,58.06,21.05,88.17,28.12v-56.97c-173.62-50.24-207.42-138.26-492.94-415.04C472.96.9,151.13-4.77-2.9,6.79v70.21c213-19.98,435.3,14.98,605.79,140.86Z"/>
          <path class="cls-3" d="M602,219.38c19.26,14.23,37.72,29.5,55.55,45.48,17.94,16.08,35.23,32.88,52.09,50.08,16.95,17.31,33.47,35.03,49.8,52.93s32.51,36.03,48.74,54.08c16.16,17.97,32.37,35.9,48.9,53.53s33.06,34.65,50.29,51.28,34.6,32.32,52.91,47.33,37.08,28.96,56.8,41.77c19.79,12.85,40.4,24.43,61.79,34.39,26.51,12.35,54.16,22.06,82.37,29.69,7.19,1.95,14.41,3.76,21.66,5.47,1.1.26,2.22-.52,2.22-1.69v-56.97c0-.78-.55-1.48-1.29-1.69-8.07-2.34-16.1-4.83-24.07-7.51-7.56-2.54-15.07-5.26-22.49-8.17s-13.8-5.6-20.74-8.76-13.31-6.27-19.82-9.69-12.72-6.9-18.93-10.61-12.36-7.63-18.38-11.69-12.06-8.37-17.93-12.77-11.77-9.04-17.62-13.84-12.12-10.16-18.05-15.4-12.33-11.09-18.38-16.76c-6.42-6.02-12.77-12.12-19.06-18.28-6.72-6.58-13.37-13.23-19.99-19.91-7.13-7.21-14.22-14.46-21.28-21.74-7.57-7.8-15.11-15.63-22.64-23.47-8.12-8.46-16.24-16.93-24.35-25.4-8.77-9.15-17.54-18.29-26.32-27.43-9.54-9.92-19.1-19.81-28.68-29.69-10.32-10.63-20.67-21.23-31.05-31.79-11.22-11.42-22.49-22.79-33.8-34.12-12.27-12.29-24.6-24.53-36.98-36.71-12.68-12.48-25.31-25.03-38.26-37.23-10.78-10.14-21.92-19.91-33.38-29.27s-22.86-18.03-34.73-26.46-23.7-16.26-35.93-23.8-24.24-14.44-36.68-21.11-24.75-12.8-37.38-18.66-25.17-11.26-37.97-16.39c-12.66-5.07-25.45-9.82-38.36-14.25s-25.44-8.39-38.3-12.14-25.4-7.1-38.2-10.24c-12.63-3.1-25.33-5.93-38.08-8.52s-24.91-4.8-37.42-6.85-24.56-3.8-36.88-5.39-23.88-2.88-35.85-4.03c-11.57-1.11-23.16-2.05-34.76-2.81s-22.4-1.32-33.62-1.74-21.32-.67-31.98-.8c-10.1-.12-20.2-.12-30.3,0-9.51.12-19.02.34-28.53.67-8.78.31-17.55.7-26.32,1.19-7.75.43-15.5.94-23.24,1.52-.95.07-1.75.75-1.75,1.75v70.21c0,.88.81,1.84,1.75,1.75,20.87-1.95,41.79-3.39,62.73-4.25s41.67-1.18,62.51-.9,41.74,1.14,62.57,2.63,41.42,3.58,62.02,6.36c20.52,2.76,40.95,6.19,61.24,10.33s40.23,8.92,60.07,14.46c19.68,5.5,39.16,11.73,58.36,18.73s38.24,14.81,56.85,23.4,36.64,17.88,54.32,28.01c17.88,10.24,35.29,21.29,52.14,33.15,4.07,2.86,8.1,5.77,12.1,8.72,1.82,1.34,3.57-1.7,1.77-3.03-16.61-12.25-33.79-23.72-51.48-34.37-17.58-10.59-35.65-20.37-54.11-29.35-18.45-8.98-37.3-17.16-56.43-24.56s-38.51-14.01-58.14-19.89-39.78-11.09-59.93-15.55c-20.19-4.47-40.54-8.22-60.99-11.3-20.64-3.11-41.37-5.56-62.16-7.36-20.85-1.81-41.76-2.98-62.68-3.55-20.97-.57-41.95-.54-62.92.06s-41.77,1.76-62.6,3.45c-5.08.41-10.16.86-15.23,1.33l1.75,1.75V6.79l-1.75,1.75c8.03-.6,16.08-1.13,24.12-1.57,8.79-.49,17.59-.88,26.4-1.18,9.53-.32,19.07-.54,28.6-.65,10.12-.12,20.24-.11,30.36.02,10.68.14,21.36.41,32.04.83s22.35,1.02,33.52,1.77c11.61.78,23.21,1.72,34.8,2.85s24.05,2.53,36.04,4.09,24.45,3.4,36.62,5.42,25.01,4.39,37.45,6.93,25.35,5.45,37.93,8.56,25.55,6.61,38.21,10.33,25.63,7.86,38.3,12.24,25.58,9.2,38.18,14.28c12.79,5.16,25.45,10.67,37.94,16.52,12.62,5.91,25.08,12.18,37.34,18.81,12.42,6.72,24.64,13.81,36.63,21.27s24.07,15.53,35.71,23.87,23.33,17.32,34.54,26.57c11.48,9.48,22.63,19.36,33.41,29.63,13.06,12.44,25.89,25.13,38.73,37.79s24.43,24.18,36.57,36.35c11.24,11.27,22.43,22.58,33.58,33.93,10.32,10.5,20.6,21.04,30.85,31.61,9.48,9.78,18.94,19.58,28.38,29.39,8.77,9.12,17.52,18.25,26.28,27.39,8.07,8.42,16.13,16.84,24.21,25.24,7.49,7.79,14.99,15.57,22.51,23.32,6.99,7.2,14.01,14.38,21.08,21.51,6.59,6.64,13.22,13.25,19.91,19.79,6.27,6.12,12.59,12.19,19,18.17,6.06,5.66,12.2,11.24,18.42,16.72,5.89,5.18,11.87,10.27,17.95,15.22s11.91,9.51,18.02,14.07,11.85,8.62,17.94,12.7,12.11,7.89,18.33,11.58,12.61,7.25,19.06,10.61,13.17,6.61,19.88,9.64,14.11,6.13,21.27,8.92,14.91,5.58,22.45,8.11,15.46,4.98,23.26,7.24l-1.29-1.69v56.97l2.22-1.69c-30.02-7.07-59.66-16.07-88.09-28.09-21.82-9.23-42.89-20.16-63.13-32.46s-39.27-25.67-57.72-40.13c-18.49-14.5-36.23-29.94-53.38-45.99s-34.29-33.26-50.77-50.54-32.94-35.26-49.11-53.17c-16.26-18-32.39-36.11-48.67-54.1s-32.5-35.66-49.19-53.07-33.77-34.47-51.45-50.89-35.75-32.01-54.68-46.74c-4.58-3.56-9.2-7.07-13.86-10.51-.77-.57-1.95-.12-2.4.63-.53.89-.13,1.84.63,2.4Z"/>
        </g>
        <g>
          <path class="cls-2" d="M709.46,498.17c83.7,80.57,172.69,157.2,273.01,216.74,64.57,38.32,131.11,65.58,200.9,83.85v-115.03c-30.1-7.08-59.64-16.08-88.17-28.12-203.96-86.15-314.38-306.37-492.31-437.73C432.4,91.99,210.1,57.02-2.9,77v115.61c153.11,3.78,307.15,12.27,441.09,82.28,104.29,54.51,186.61,141.78,271.27,223.27Z"/>
          <path class="cls-3" d="M708.22,499.41c13.3,12.8,26.71,25.48,40.27,38s27.19,24.82,41.04,36.94c13.91,12.18,28,24.15,42.3,35.87,14.23,11.67,28.68,23.08,43.34,34.2s29.56,21.92,44.7,32.37c15.21,10.5,30.68,20.63,46.4,30.35,16.01,9.89,32.29,19.33,48.93,28.14s33.47,16.95,50.65,24.5c16.89,7.42,34.04,14.24,51.42,20.44s34.83,11.73,52.53,16.67c4.36,1.22,8.73,2.4,13.1,3.55,1.1.29,2.22-.54,2.22-1.69v-100.87c0-4.64.18-9.32,0-13.96,0-.07,0-.14,0-.21,0-.75-.54-1.52-1.29-1.69-26.66-6.28-52.99-14.08-78.47-24.16-20.2-7.99-39.79-17.47-58.7-28.15-18.04-10.19-35.44-21.49-52.22-33.64-16.89-12.22-33.14-25.31-48.87-38.99s-31.07-28.09-45.96-42.81-29.69-30.14-44.11-45.61c-14.62-15.69-29.02-31.59-43.36-47.53-14.31-15.91-28.57-31.88-42.95-47.73s-28.85-31.57-43.63-47.03-29.89-30.69-45.43-45.43c-15.37-14.57-31.17-28.69-47.54-42.12-17.2-14.12-35.03-27.46-53.53-39.84-19.65-13.15-40.02-25.24-60.94-36.26-20.88-10.99-42.32-20.91-64.17-29.81-21.82-8.89-44.06-16.74-66.59-23.6-22.71-6.92-45.72-12.84-68.94-17.82-23.35-5.01-46.9-9.08-70.57-12.28-23.74-3.2-47.6-5.54-71.51-7.06-24.05-1.52-48.16-2.22-72.26-2.14s-48.25.92-72.32,2.49c-11.57.75-23.13,1.68-34.67,2.76-.94.09-1.75.73-1.75,1.75v101.4c0,4.66-.18,9.35,0,14,0,.07,0,.14,0,.2,0,.97.8,1.73,1.75,1.75,26.97.67,53.94,1.48,80.9,2.75s53.34,2.97,79.93,5.45c26.49,2.47,52.91,5.71,79.15,10.07,25.92,4.31,51.68,9.7,77.06,16.5s50.22,14.96,74.49,24.79c24.24,9.81,47.78,21.33,70.39,34.48,22.13,12.87,43.36,27.23,63.83,42.59s40.39,31.91,59.68,48.95,38.05,34.63,56.61,52.45,37.13,36.07,55.7,54.09c4.45,4.32,8.9,8.63,13.37,12.93,1.63,1.57,4.11-.91,2.48-2.48-18.68-17.98-37.17-36.17-55.79-54.21-18.64-18.06-37.42-35.99-56.66-53.42-19.1-17.31-38.65-34.13-58.92-50.05-20.19-15.85-41.08-30.83-62.86-44.42s-45.16-26.11-69-36.69c-24.03-10.67-48.78-19.67-73.98-27.17-25.22-7.51-50.86-13.54-76.72-18.39-26.1-4.9-52.41-8.62-78.8-11.49s-53.39-4.94-80.15-6.45-54.03-2.5-81.06-3.26c-6.56-.18-13.11-.35-19.67-.52l1.75,1.75v-110.89c0-1.47.16-3.05,0-4.52,0-.07,0-.14,0-.2l-1.75,1.75c24.07-2.25,48.21-3.81,72.38-4.61,24.04-.8,48.1-.86,72.14-.12,23.98.74,47.93,2.26,71.81,4.64s47.4,5.59,70.9,9.72c23.45,4.12,46.73,9.16,69.77,15.16,22.91,5.97,45.57,12.91,67.87,20.88,22.14,7.91,43.92,16.83,65.2,26.81,21.31,9.99,42.12,21.03,62.3,33.13s39.48,25.11,58.14,39.19c16.95,12.79,33.28,26.4,49.11,40.56,15.83,14.16,31.16,28.88,46.13,43.94,15.05,15.15,29.73,30.65,44.22,46.33s28.85,31.63,43.15,47.56,28.61,31.92,43.05,47.76,28.85,31.34,43.68,46.64,29.59,29.92,45.01,44.23,31,27.84,47.32,40.78c16.24,12.89,33.06,25.07,50.52,36.26s35.88,21.57,54.76,30.6c22.66,10.84,46.19,19.77,70.24,27.02,12.59,3.8,25.3,7.16,38.1,10.17l-1.29-1.69v110.34c0,1.46-.16,3.03,0,4.48,0,.07,0,.14,0,.21l2.22-1.69c-17.78-4.66-35.4-9.91-52.82-15.78-17.45-5.88-34.69-12.38-51.68-19.5s-33.92-14.97-50.45-23.35c-16.86-8.56-33.4-17.75-49.61-27.48-15.73-9.43-31.19-19.3-46.41-29.53s-30.28-20.91-45.06-31.88c-14.78-10.96-29.33-22.25-43.66-33.8s-28.34-23.27-42.22-35.25c-13.94-12.03-27.69-24.27-41.29-36.68-13.53-12.35-26.9-24.86-40.15-37.5-3.27-3.12-6.53-6.24-9.78-9.37-1.63-1.57-4.11.91-2.48,2.48Z"/>
        </g>
      </g>
    </g>
  </g>
</svg>