<?xml version="1.0" encoding="UTF-8"?>
<svg id="Layer_2" xmlns="http://www.w3.org/2000/svg" version="1.1" viewBox="0 0 1120.72 598.35">
  <!-- Generator: Adobe Illustrator 29.7.1, SVG Export Plug-In . SVG Version: 2.1.1 Build 8)  -->
  <defs>
    <style>
      .st0 {
        fill: #86878e;
      }

      .st1 {
        fill: #cfbdb1;
      }

      .st2 {
        fill: #9d9ea3;
      }

      .st3 {
        fill: #eebfaf;
      }

      .st4 {
        fill: #dbc1b4;
      }

      .st5 {
        fill: #fff;
      }

      .st6 {
        fill: #e4c4af;
      }

      .st7 {
        fill: #15817c;
      }

      .st8 {
        fill: #f3a736;
      }

      .st9 {
        fill: #f0a48b;
      }

      .st10 {
        fill: #eec5b1;
      }

      .st11 {
        fill: #eec0b0;
      }

      .st12 {
        fill: #f34d19;
      }

      .st13 {
        fill: #c1b9ad;
      }

      .st14 {
        fill: #5b931f;
      }

      .st15 {
        fill: #f24d19;
      }

      .st16 {
        fill: #98999f;
      }

      .st17 {
        fill: #272834;
      }

      .st18 {
        fill: #b9b6aa;
      }

      .st19 {
        fill: #7c7d85;
      }
    </style>
  </defs>
  <g id="Type_1">
    <g>
      <path class="st17" d="M107.14.59C154.81.07,205.31.07,253.2.59,347.04.07,445.44.07,539.44.59c36.86-.51,76.13-.51,113.21,0,8.8-.5,18.65-.49,27.57,0,49.17-.82,98.08-.17,146.72,1.95,14.61,1.13,32.33,3.39,46.12,8.88,16.41,6.53,32.15,24.63,42.88,38.42,27.15,34.87,43.37,71.58,52.15,115.07,10.56,52.31,4.99,104.1-7.25,156.61,29.93,32.2,50.33,71.93,67.51,110.74l5.37,10.74c24.57-.76,53.76,9.99,71.01,27.89,8.61,8.93,15.72,20.05,16.01,32.76v10.55c-1.13,5.89-3.58,11.84-8.23,15.74l-4.9,4.11,5.79,6.77c9.86,11.52,6.07,24.05-4.26,33.35-8.23,7.4-17.9,12.24-28.59,15.45-14.45,4.34-28.96,6.53-43.95,7.59l-8.27.59c-12.32.88-24.64.63-37.01,0l-9.61-.48-9.39-.57-9.33-.61-7.62-.57-7.05-.59-6.46-.55-6.48-.57-62.16-6.8-7.03-.59-7.63-.58-7.63-.58-7.63-.59-7.63-.59-7.62-.57-8.22-.59-8.23-.58-9.35-.59-34.02-.03-5.93.46c-16.5,1.27-32.34,3.56-48.66,6.43-17.64,3.1-34.32,6.33-51.96,5.05-14.24-1.03-29.72-8.12-32.86-23.48-1.01-4.94.81-9.79,4.16-13.61s8.2-6.24,13.2-7.78l8.5-2.62c-17.35-13.46-17.1-37.7-2.58-53.21,8.4-8.97,19.75-13.96,32.05-15.86,7.79-1.2,15.38-2.18,22.99-3.87,4.08-.9,5.72-3.71,6.08-7.68.57-6.26,2.44-12.08,6.3-17.04l-243.77.02c-1.73,0-3.04.62-4.6.26-1.8-.42-3.62.31-5.79.31H88.46c-6.81-2.73-13.15-6.51-17.71-12.31-9.74-12.38-17.22-25.66-24.04-39.94-11.84-24.82-21.84-50.11-30.15-76.43-7.32-23.17-14.48-59.6-15.69-83.63l-.74-14.64c-.24-4.78-.1-9.2.04-14.01.53-19.06,3.54-37.1,8.68-55.43,6.83-24.39,14.73-47.99,26.26-70.48,7.54-14.72,31.1-50.52,41.43-61.22l8.35-8.65c4.36-4.51,7.78-7.9,13-11.72l9.27-.07-.02-.03h0Z"/>
      <path class="st16" d="M539.44,0c.51.17.5.36,0,.59H253.2c-.51-.17-.5-.36,0-.59h286.24Z"/>
      <g>
        <path class="st7" d="M1036.4,447.4l13.28,4.02c9.87,2.99,19.41,5.63,28.68,10.22,12.54,6.2,23.35,15.04,30.11,27.3,3.91,7.08,6.19,14.66,5.5,22.65-.9,10.35-4.99,12.45-11.64,18.23-2.46,2.14-2.59,5.46-.43,7.98l7.02,8.21c2.5,2.92,4.11,7.04,3.36,10.86-2.47,12.57-19.59,21.71-30.81,25.41-27.69,9.12-63.55,10.28-92.75,8.93-28.86-1.33-56.91-4.04-85.56-7.07l-29.98-3.16-53.4-4.01c-32.38-2.43-64.04-1.04-96.03,4.2l-35.33,5.78c-9.5,1.55-18.89,1.76-28.37.8-6.4-.65-12.53-2.69-17.53-6.44s-8.5-8.76-7.96-14.91c1.2-13.56,25.97-12.54,27.77-18.19,1.37-4.28-9.08-7.37-13.27-18.8s-1.06-23.47,7.08-32.19c15.04-16.12,33.08-13.72,52.92-18.6,6.43-1.58,9.38-6.72,9.82-13.07.51-7.34,3.65-14.41,10.22-17.95l11.53-.39,12.36-.23c8.53-.16,16.83-.37,25.33-.01l12.95.55c-4.65,4.26-9.5,6.93-14.92,9.86-8.24,4.45-16.21,8.77-23.88,14.11-6.09,4.25-13.9,11.03-11.6,18.45,1.65,5.3,9.61,6.62,14.39,5.51,13.1-3.04,16.83-10.28,25.72-5.6l10.26,5.41c4.44,2.34,9.69,1.77,14.13-.25l9.67-4.4c4.88,6.79,11.64,11.65,20.07,12.03,5.84.26,14.78-4.45,18.85-1.64l8.38,5.78c9.92,6.84,20.96-.93,29.31-6.49,5.2-3.47,11.02-5.21,17.39-4.16l15.91,2.63c5.33.88,10.7.16,15.49-2.28,5.28-2.69,7.71-7.96,7.66-14.27,15.75,8.5,20.83-5.89,44.05-.16,8.52,2.1,16.62,4.61,24.97,7.38,12.48,4.13,29.68,4.31,37.76-7.51,4.89-7.16-.55-15.56-6.03-20.72l-11.16-10.5c-.55-.52-1.23-1.56-1.98-2.52l.7-.76v-.02h0Z"/>
        <path class="st4" d="M1083.23,571.72c-.43-.18-.43-.39-.02-.64,5.16-3.73,11.16-8.26,10.72-14.36-.17-2.34-1.8-5.49-4.09-6.95l-8.3-5.27c-5.06-3.21-6.22-9.42-2.68-14.27,5.2-7.11,12.49-10.28,17.07-16.89,4.05-5.83,3.44-13.83-.41-19.61l-3.57-5.36c-.79-.82-.46-1.12.58-.59,8.36,5.44,11.65,19.05,5.41,27.79-4.67,6.54-11.66,9.5-16.9,16.55-2.24,3.01-1.87,7.15,1.34,9.35,2.83,1.94,5.62,3.64,8.64,5.49,6.13,3.75,8.39,12.22,3.46,17.92-2.92,3.37-7.25,5.77-11.24,6.85h0Z"/>
        <path class="st1" d="M652.92,569.54c.56,4.21,9.37,7.81,14.43,7.06-4.39,1.47-9.62.09-13.57-2.69-2.88-2.02-3.38-6.03-1.88-9.05,3.06-6.12,11.04-7.8,18.46-11.71,3.54-1.86,4.62-5.95,2.62-9.33-5.24-8.86-11.15-12.71-13.25-24.21-1.58-8.63,2.79-17.04,11.05-20.67-1.93,2.05-3.89,3.89-5.7,6.02-7.51,8.8-3.29,20.01,3.27,28.06,2.58,3.17,5.19,6.19,7.1,9.71,2.74,5.03.87,10.98-4.41,13.19l-11.14,4.66c-3.86,1.62-7.54,4.72-6.98,8.96h0Z"/>
        <path class="st13" d="M1092.53,487.77l-.58.59-3.89-3.51c2.67-.26,3.23,2.11,4.47,2.92Z"/>
        <path class="st18" d="M1083.21,571.08l.02.64c-1.89,1.02-4.05,2.07-6.26,1.92,2.06-1.29,4.66-1.42,6.24-2.56Z"/>
      </g>
      <rect class="st19" x="107.14" width="146.05" height=".59"/>
      <g>
        <path class="st14" d="M1037.56,485.67c-20.19,3.63-42.93-17.5-70.78-8.66-6.15,1.95-12.4,3.11-18.75,3.58-5.01-18.04-10.27-21.93-12.5-41.6l-2.99-26.3c-1.51-13.34-3.62-26.1-7.45-39.01-8.4-28.3-24.07-52.09-47.17-70.54-30.82-24.63-60.79-32.71-99.18-38.71-16.31-2.55-32.1-5.02-48.61-5.64l-15.8-.6-.43-19.43c20.19-.99,39.61-.03,59.65,2.65,48.94,6.55,83.12,13.44,125.57,39.84,33.61,20.9,54.4,39.47,77.12,71.93,11.09,15.84,21.34,31.6,29.59,49.05l17.98,38.04c4.07,8.6,9.53,15.49,16.76,21.51,3.93,3.27,12.8,11.26,9.31,16.74-2.77,4.33-7.4,6.28-12.33,7.16h0Z"/>
        <path class="st6" d="M1018.26,468.2c-15.03-9.87-35.56-9.59-52.47-4.52,8.79-8.72,20.18-7.7,30.58-6.97,8.57.59,16.27,3.28,23.44,7.78,3.03,1.9,5.98,3.4,9.7,4.8-1.06-4.61-3.68-7.75-6.66-10.86l-9.45-9.87c-2.98-3.11-4.45-6.69-6.36-10.65-10.61-21.95-21.56-43.38-33.99-64.38l-14.55-24.57c1.76-3.96,17.35,22.96,17.9,23.93,12.7,22.16,24.32,44.48,35.69,67.34,1.33,2.68,3.17,4.73,5.15,6.77l9.51,9.83c2.72,2.81,8.96,11.3,6.01,15.04-2.75,3.49-11.32-1.58-14.51-3.67h0Z"/>
      </g>
      <path class="st0" d="M652.65,0c.51.17.5.36,0,.59h-113.21v-.59h113.21Z"/>
      <g>
        <path class="st15" d="M888.47,495.54c-6.84,4.54-16,11.34-23.33,6.26l-7.99-5.54c-7.08-4.91-17.26,1.35-22.96.55s-10.48-4.18-15.18-8.06c12.65-6.52,17.28-7.75,26.13-19.52,5.03-6.7,8.8-13.62,12.23-21.26,13.06-29.14,8.17-59.44-6.38-86.93-7.34-13.87-17.6-24.95-30.38-34.18-15.08-10.9-31.18-19.93-48.49-26.89-11.09-4.45-22.48-7.06-34.4-6.67-7.85.26-16.17,3.48-17.29-.63-2.68-9.84-4.83-19.64-5.69-29.61l11.29.78c17.43,1.2,34.16,3.76,51.39,6.6,37.75,6.21,67.36,13.81,97.55,38.46,11.1,9.07,20.58,19.45,28.2,31.65,14.77,23.63,20.13,46.73,23.17,74.16l2.52,22.72c2.86,25.81,9.35,28.79,12.77,44.57.72,3.3-.52,6.98-3.21,8.8-3.82,2.6-8.47,3.18-13.01,2.4l-14.62-2.5c-8.05-1.38-15.57.36-22.31,4.83h0Z"/>
        <path class="st11" d="M900.17,363.54c-.46-1.16-.31-1.57.46-1.25,1.64,3.24,3.73,6.53,4.99,10.21,3.52,10.26,4.93,20.58,6.35,31.33,1.76,13.32,3.28,26.13,5.71,39.33,2.09,11.31,5.29,21.79,8.1,32.92.32,1.26-.33,3.48-1.24,3.97-4.64,2.53-11.39-10.14-24.18-4.49-15.28,6.76-16.04,15.03-23.8,12.16-11.98-4.45-21.3-6.13-32.69.49,6.7-12.66,23.04-8.62,33.21-4.71,2.18.84,3.47.81,5.14-.75,4.77-4.47,10.03-8.15,16.04-10.78,9.37-4.1,14.19-1.71,23.24,3.2-2.91-11.8-6.53-22.43-8.01-33.97l-5.2-40.52c-1.19-9.28-1.87-18.07-4.82-27.07l-3.3-10.08h0Z"/>
        <path class="st9" d="M900.63,362.29c-.15-.02-.57.9-.46,1.25-1.01-1.71-1.67-3.6-2.16-5.99,1.03,1.67,1.81,3.14,2.62,4.74Z"/>
        <circle class="st9" cx="897.54" cy="356.76" r=".29"/>
      </g>
      <rect class="st2" x="652.65" width="27.57" height=".59"/>
      <g>
        <path class="st8" d="M766.43,483.72c-4.28,2.27-13.95,7.07-18.41,4.38-3.57-2.16,7.67-10.58,9.34-11.69,7.14-4.73,14.27-8.76,21.85-12.74s14.29-8.35,20.42-14.18c15.07-14.35,14.36-36.61,11.02-55.66-4.98-28.42-23.25-46.77-51.21-53.18-6.28-1.44-12.36-1.99-18.83-2.84l-9.28-18.49c-3.14-6.26-5.78-12.5-8.26-19.01l14.1-.63c11.32-.5,22.24,2.12,32.77,6.39,16.65,6.76,32.12,15.4,46.54,26.05,8.96,6.62,16.64,13.88,22.88,23.1,9.35,13.81,15.34,29.33,17.89,45.85,2.32,15,.15,29.48-5.82,43.26-4.99,11.52-14.17,27.9-25.75,33.44l-22.66,10.83c-12.27,5.87-19.74-13.81-36.59-4.89h0Z"/>
        <path class="st10" d="M774.18,475.12c4.43-4.39,15.16-1.68,20.45,1.51,3.52,2.12,7.85,1.9,11.13-.45,2.19-1.57,4.45-3,6.54-4.68,5.51-4.42,9.53-10.11,13.5-15.91,5.22-7.63,8.97-15.59,11.13-24.66,2.65-11.15,3.69-22.3,3.29-33.77s-3.25-21.8-9.05-31.42c-1.52-2.52-3.87-4.38-5.68-6.95,11.9,4.65,17.67,24.92,18.52,36.18.97,12.98.05,25.76-3.13,38.37-2.2,8.72-5.77,16.41-10.78,23.82-4.44,6.58-9.02,12.98-15.29,17.9-6.75,5.29-13.57,10.1-21.9,5.44-4.91-2.75-12.4-6.87-18.73-5.37h0Z"/>
      </g>
      <g>
        <path class="st12" d="M740.42,357.08c12.9,22.3,25.81,43.39,43.28,61.83,5.62,5.93,11.74,10.39,18.39,15.39-1.47,3.11-3.22,5.87-5.49,8.06l-57.87-.71-639.5-.39-13.25.07c-3.68-2.71-6.8-6.93-9.68-10.76-9.03-11.99-16.36-24.57-22.79-38.26-11.16-23.76-20.98-47.8-28.96-72.9s-12.98-51.29-15.51-77.85c-2.18-22.88-1.85-45.37,2.75-67.87,4.6-22.5,11.32-43.22,19.49-64.17,6.54-16.79,14.42-32.22,24.41-47.14,7.98-11.92,16.04-23.17,24.78-34.45,4.83-6.23,10.34-11.01,16.21-16.15l4.19-3.66,29.32-.35,236.23-.07,221.66-.21h131.4l93.86-.1c1.03.25,2.51.68,1,.68-4.09,1.56-7.9,2.62-11.24,4.58l-9.99,5.87c-5.15,3.03-9.41,7.27-14.02,11.06-2.52,2.06-4.66,4.37-6.75,6.8l-7.61,8.84c-7.98,9.26-19.78,29.99-24.97,41.3l-2.81,6.12c-11.32,24.65-20.46,49.85-25.73,76.6-4.7,23.83-5.25,47.49-4.3,71.66l1.03,26.48c.9,23.03,20.7,69.32,32.5,89.71h-.03Z"/>
        <path class="st3" d="M666.67,26.5l-42.99-.07-160.95.07-127.42.2-207.46.06-21.22.09c-1.08,0-2.75-1.68-2.83-2.63-.12-1.23,1.28-2.89,2.67-2.89h177.89l302.55-.03c37.01,0,73.78.46,110.48,2.06,15.93.7,31,1.16,46.93,3.43l-77.63-.29h-.02,0Z"/>
      </g>
    </g>
  </g>
  <g>
    <path class="st5" d="M90.88,213.02v-50.4h5.29l19.12,45.58h-2.38l18.86-45.58h5.36v50.4h-4.63v-44.64l1.72-.07-18.46,44.71h-3.37l-18.66-44.71,1.79.07v44.64h-4.63Z"/>
    <path class="st5" d="M156.91,213.88c-2.74,0-5.01-.5-6.81-1.51-1.81-1.01-3.15-2.34-4.04-4-.88-1.66-1.32-3.4-1.32-5.22,0-3.94,1.31-6.94,3.94-9,2.62-2.06,6.08-3.1,10.36-3.1,1.81,0,3.51.16,5.09.47,1.59.31,2.89.66,3.9,1.04v-1.51c0-3.36-.78-5.92-2.35-7.67-1.57-1.75-3.7-2.63-6.39-2.63-2.29,0-4.27.52-5.92,1.55-1.65,1.03-2.68,2.77-3.08,5.22h-4.83c.26-2.59,1.08-4.7,2.45-6.34,1.37-1.63,3.05-2.83,5.06-3.6,2.01-.77,4.11-1.15,6.32-1.15,4.54,0,7.91,1.36,10.09,4.07,2.18,2.71,3.27,6.23,3.27,10.55v12.02c0,1.73.1,2.98.3,3.74.2.77.55,1.24,1.06,1.4.51.17,1.2.25,2.08.25h.53v4.54h-.99c-2.03,0-3.7-.41-5-1.22-1.3-.82-2.13-2.47-2.48-4.97-.97,1.97-2.35,3.64-4.14,5s-4.16,2.05-7.11,2.05ZM157.37,209.56c2.21,0,4.1-.62,5.69-1.87,1.59-1.25,2.81-2.85,3.67-4.82.86-1.97,1.29-4.03,1.29-6.19-1.06-.33-2.37-.65-3.94-.94-1.57-.29-3.14-.43-4.73-.43-3.62,0-6.18.74-7.68,2.23-1.5,1.49-2.25,3.31-2.25,5.47,0,1.87.68,3.43,2.05,4.68,1.37,1.25,3.33,1.87,5.89,1.87Z"/>
    <path class="st5" d="M183.31,213.02v-51.84h4.63v51.84h-4.63ZM187.15,200.13l-.66-5.33,17.47-17.5h5.89l-22.7,22.82ZM205.48,213.02l-14.03-19.66,3.04-3.53,17.01,23.18h-6.02Z"/>
    <path class="st5" d="M229.96,213.88c-3.09,0-5.82-.78-8.21-2.34-2.38-1.56-4.26-3.74-5.62-6.55-1.37-2.81-2.05-6.11-2.05-9.9s.67-7.08,2.02-9.86c1.34-2.78,3.23-4.94,5.66-6.48,2.43-1.54,5.2-2.3,8.34-2.3s5.89.78,8.14,2.34c2.25,1.56,3.97,3.59,5.16,6.08,1.19,2.5,1.79,5.18,1.79,8.06v1.51c0,.53-.02,1.13-.07,1.8h-27.46v-4.32h23.03c-.13-3.5-1.21-6.24-3.24-8.21-2.03-1.97-4.54-2.95-7.54-2.95-1.98,0-3.84.48-5.56,1.44-1.72.96-3.11,2.36-4.17,4.21-1.06,1.85-1.59,4.14-1.59,6.88v1.94c0,3.22.55,5.89,1.65,8.03,1.1,2.14,2.52,3.72,4.27,4.75,1.74,1.03,3.56,1.55,5.46,1.55,2.47,0,4.54-.62,6.22-1.87,1.68-1.25,2.87-2.98,3.57-5.18h4.5c-.53,2.16-1.43,4.1-2.71,5.83-1.28,1.73-2.89,3.08-4.83,4.07-1.94.98-4.19,1.48-6.75,1.48Z"/>
    <path class="st5" d="M283.49,213.88c-2.74,0-5.01-.5-6.81-1.51-1.81-1.01-3.15-2.34-4.04-4-.88-1.66-1.32-3.4-1.32-5.22,0-3.94,1.31-6.94,3.94-9,2.62-2.06,6.08-3.1,10.36-3.1,1.81,0,3.51.16,5.09.47,1.59.31,2.89.66,3.9,1.04v-1.51c0-3.36-.78-5.92-2.35-7.67-1.57-1.75-3.7-2.63-6.39-2.63-2.29,0-4.27.52-5.92,1.55-1.65,1.03-2.68,2.77-3.08,5.22h-4.83c.26-2.59,1.08-4.7,2.45-6.34,1.37-1.63,3.05-2.83,5.06-3.6,2.01-.77,4.11-1.15,6.32-1.15,4.54,0,7.91,1.36,10.09,4.07,2.18,2.71,3.27,6.23,3.27,10.55v12.02c0,1.73.1,2.98.3,3.74.2.77.55,1.24,1.06,1.4.51.17,1.2.25,2.08.25h.53v4.54h-.99c-2.03,0-3.7-.41-5-1.22-1.3-.82-2.13-2.47-2.48-4.97-.97,1.97-2.35,3.64-4.14,5s-4.16,2.05-7.11,2.05ZM283.95,209.56c2.21,0,4.1-.62,5.69-1.87,1.59-1.25,2.81-2.85,3.67-4.82.86-1.97,1.29-4.03,1.29-6.19-1.06-.33-2.37-.65-3.94-.94-1.57-.29-3.14-.43-4.73-.43-3.62,0-6.18.74-7.68,2.23-1.5,1.49-2.25,3.31-2.25,5.47,0,1.87.68,3.43,2.05,4.68,1.37,1.25,3.33,1.87,5.89,1.87Z"/>
    <path class="st5" d="M347.01,213.88c-2.78,0-5.24-.64-7.38-1.91-2.14-1.27-3.78-3.04-4.93-5.29v6.34h-4.63v-51.84h4.63v22.32c1.06-1.82,2.61-3.46,4.67-4.9s4.62-2.16,7.71-2.16c3.31,0,6.18.82,8.6,2.45,2.43,1.63,4.31,3.86,5.66,6.7,1.35,2.83,2.02,6.05,2.02,9.65s-.67,6.8-2.02,9.61c-1.35,2.81-3.23,5.02-5.66,6.62-2.43,1.61-5.32,2.41-8.67,2.41ZM346.81,209.49c2.34,0,4.39-.6,6.15-1.8,1.76-1.2,3.15-2.87,4.17-5,1.01-2.14,1.52-4.64,1.52-7.52s-.51-5.4-1.52-7.56c-1.02-2.16-2.4-3.83-4.17-5-1.77-1.18-3.82-1.76-6.15-1.76s-4.33.59-6.12,1.76c-1.79,1.18-3.19,2.84-4.2,5-1.02,2.16-1.52,4.68-1.52,7.56s.51,5.39,1.52,7.52c1.01,2.14,2.42,3.8,4.2,5,1.79,1.2,3.83,1.8,6.12,1.8Z"/>
    <path class="st5" d="M370.3,213.02v-35.71h4.63v5.69c.71-1.87,1.7-3.32,2.98-4.36,1.28-1.03,2.87-1.55,4.76-1.55h5.29v4.82h-5.76c-1.32,0-2.54.42-3.64,1.26-1.1.84-1.99,2.23-2.65,4.18s-.99,4.57-.99,7.88v17.78h-4.63Z"/>
    <path class="st5" d="M404.11,213.88c-2.74,0-5.01-.5-6.81-1.51-1.81-1.01-3.15-2.34-4.04-4-.88-1.66-1.32-3.4-1.32-5.22,0-3.94,1.31-6.94,3.94-9,2.62-2.06,6.08-3.1,10.36-3.1,1.81,0,3.51.16,5.09.47,1.59.31,2.89.66,3.9,1.04v-1.51c0-3.36-.78-5.92-2.35-7.67-1.57-1.75-3.7-2.63-6.39-2.63-2.29,0-4.27.52-5.92,1.55-1.65,1.03-2.68,2.77-3.08,5.22h-4.83c.26-2.59,1.08-4.7,2.45-6.34,1.37-1.63,3.05-2.83,5.06-3.6,2.01-.77,4.11-1.15,6.32-1.15,4.54,0,7.91,1.36,10.09,4.07,2.18,2.71,3.27,6.23,3.27,10.55v12.02c0,1.73.1,2.98.3,3.74.2.77.55,1.24,1.06,1.4.51.17,1.2.25,2.08.25h.53v4.54h-.99c-2.03,0-3.7-.41-5-1.22-1.3-.82-2.13-2.47-2.48-4.97-.97,1.97-2.35,3.64-4.14,5s-4.16,2.05-7.11,2.05ZM404.58,209.56c2.21,0,4.1-.62,5.69-1.87,1.59-1.25,2.81-2.85,3.67-4.82.86-1.97,1.29-4.03,1.29-6.19-1.06-.33-2.37-.65-3.94-.94-1.57-.29-3.14-.43-4.73-.43-3.62,0-6.18.74-7.68,2.23-1.5,1.49-2.25,3.31-2.25,5.47,0,1.87.68,3.43,2.05,4.68,1.37,1.25,3.33,1.87,5.89,1.87Z"/>
    <path class="st5" d="M430.78,213.02v-35.71h4.63v6.19c1.1-2.21,2.65-3.94,4.63-5.18,1.99-1.25,4.19-1.87,6.62-1.87,3.79,0,6.86,1.25,9.2,3.74,2.34,2.5,3.51,6.41,3.51,11.74v21.1h-4.63v-20.52c0-3.94-.76-6.86-2.28-8.78-1.52-1.92-3.72-2.88-6.58-2.88s-5.49,1.18-7.48,3.53c-1.98,2.35-2.98,5.74-2.98,10.15v18.5h-4.63Z"/>
    <path class="st5" d="M482.52,213.88c-3.31,0-6.18-.82-8.6-2.45-2.43-1.63-4.31-3.86-5.66-6.7-1.35-2.83-2.02-6.05-2.02-9.65s.67-6.8,2.02-9.61c1.34-2.81,3.24-5.02,5.69-6.62,2.45-1.61,5.33-2.41,8.63-2.41,2.78,0,5.25.64,7.41,1.91,2.16,1.27,3.79,3.04,4.9,5.29v-22.46h4.63v51.84h-4.63v-6.19c-1.06,1.78-2.6,3.4-4.63,4.86-2.03,1.46-4.61,2.2-7.74,2.2ZM482.79,209.49c2.34,0,4.39-.6,6.15-1.8,1.76-1.2,3.15-2.87,4.17-5,1.01-2.14,1.52-4.64,1.52-7.52s-.51-5.4-1.52-7.56c-1.02-2.16-2.4-3.83-4.17-5-1.76-1.18-3.82-1.76-6.15-1.76s-4.33.59-6.12,1.76c-1.79,1.18-3.19,2.84-4.2,5-1.02,2.16-1.52,4.68-1.52,7.56s.51,5.39,1.52,7.52c1.01,2.14,2.42,3.8,4.2,5,1.79,1.2,3.83,1.8,6.12,1.8Z"/>
    <path class="st5" d="M528.57,213.02v-35.71h4.63v6.19c1.1-2.21,2.65-3.94,4.63-5.18,1.99-1.25,4.19-1.87,6.62-1.87,3.79,0,6.86,1.25,9.2,3.74,2.34,2.5,3.51,6.41,3.51,11.74v21.1h-4.63v-20.52c0-3.94-.76-6.86-2.28-8.78-1.52-1.92-3.72-2.88-6.58-2.88s-5.49,1.18-7.48,3.53c-1.98,2.35-2.98,5.74-2.98,10.15v18.5h-4.63Z"/>
    <path class="st5" d="M579.92,213.88c-3.09,0-5.82-.78-8.21-2.34-2.38-1.56-4.26-3.74-5.62-6.55-1.37-2.81-2.05-6.11-2.05-9.9s.67-7.08,2.02-9.86c1.34-2.78,3.23-4.94,5.66-6.48,2.42-1.54,5.2-2.3,8.34-2.3s5.89.78,8.14,2.34c2.25,1.56,3.97,3.59,5.16,6.08,1.19,2.5,1.79,5.18,1.79,8.06v1.51c0,.53-.02,1.13-.07,1.8h-27.46v-4.32h23.03c-.13-3.5-1.21-6.24-3.24-8.21-2.03-1.97-4.54-2.95-7.54-2.95-1.99,0-3.84.48-5.56,1.44-1.72.96-3.11,2.36-4.17,4.21-1.06,1.85-1.59,4.14-1.59,6.88v1.94c0,3.22.55,5.89,1.65,8.03,1.1,2.14,2.53,3.72,4.27,4.75,1.74,1.03,3.56,1.55,5.46,1.55,2.47,0,4.54-.62,6.22-1.87,1.68-1.25,2.87-2.98,3.57-5.18h4.5c-.53,2.16-1.43,4.1-2.71,5.83-1.28,1.73-2.89,3.08-4.83,4.07-1.94.98-4.19,1.48-6.75,1.48Z"/>
    <path class="st5" d="M609.37,213.02l-9.59-35.71h4.7l7.87,30.89h-1.19l8.93-30.89h5.29l8.93,30.89h-1.19l7.87-30.89h4.7l-9.59,35.71h-4.7l-9.26-32.47h1.19l-9.26,32.47h-4.7Z"/>
    <path class="st5" d="M168.69,300.28c-3.57,0-6.67-.59-9.3-1.76-2.62-1.17-4.69-2.93-6.19-5.26-1.5-2.33-2.32-5.19-2.45-8.6h4.76c0,2.02.48,3.86,1.46,5.54.97,1.68,2.44,3.04,4.4,4.07,1.96,1.03,4.4,1.55,7.31,1.55,3.79,0,6.65-1.06,8.57-3.17,1.92-2.11,2.88-4.66,2.88-7.63,0-2.54-.6-4.61-1.79-6.19s-2.79-2.75-4.8-3.49c-2.01-.74-4.2-1.12-6.58-1.12h-4.9v-4.32h4.96c3.53,0,6.25-.8,8.17-2.41,1.92-1.61,2.88-3.8,2.88-6.59,0-2.4-.77-4.38-2.32-5.94-1.54-1.56-3.9-2.34-7.08-2.34-3.53,0-6.22.85-8.07,2.56-1.85,1.7-2.89,3.9-3.11,6.59h-4.83c.13-2.64.83-4.98,2.08-7.02,1.26-2.04,3.07-3.65,5.43-4.82,2.36-1.18,5.19-1.76,8.5-1.76,3.13,0,5.75.56,7.84,1.69,2.09,1.13,3.67,2.64,4.73,4.54,1.06,1.9,1.59,3.97,1.59,6.23,0,2.4-.64,4.68-1.92,6.84-1.28,2.16-3.35,3.6-6.22,4.32,2.87.62,5.28,2.05,7.25,4.28,1.96,2.23,2.94,5.2,2.94,8.89,0,2.74-.61,5.27-1.82,7.6-1.21,2.33-3.02,4.2-5.43,5.62-2.4,1.42-5.39,2.12-8.97,2.12Z"/>
    <path class="st5" d="M215.07,299.42v-35.71h4.63v5.18c1.06-1.92,2.47-3.41,4.23-4.46,1.76-1.06,3.73-1.58,5.89-1.58,2.6,0,4.86.59,6.78,1.76,1.92,1.18,3.36,2.99,4.33,5.44,1.1-2.26,2.67-4.02,4.7-5.29,2.03-1.27,4.19-1.91,6.48-1.91,3.79,0,6.88,1.25,9.26,3.74,2.38,2.5,3.57,6.41,3.57,11.74v21.1h-4.63v-20.52c0-3.94-.73-6.86-2.18-8.78-1.46-1.92-3.51-2.88-6.15-2.88s-5.03,1.18-6.88,3.53c-1.85,2.35-2.78,5.74-2.78,10.15v18.5h-4.63v-20.52c0-3.94-.73-6.86-2.18-8.78-1.46-1.92-3.51-2.88-6.15-2.88s-5.03,1.18-6.88,3.53c-1.85,2.35-2.78,5.74-2.78,10.15v18.5h-4.63Z"/>
    <path class="st5" d="M273.5,256.43v-7.42h6.62v7.42h-6.62ZM274.56,299.42v-35.71h4.63v35.71h-4.63Z"/>
    <path class="st5" d="M288.39,299.42v-35.71h4.63v6.19c1.1-2.21,2.65-3.94,4.63-5.18,1.99-1.25,4.19-1.87,6.62-1.87,3.79,0,6.86,1.25,9.2,3.74,2.34,2.5,3.51,6.41,3.51,11.74v21.1h-4.63v-20.52c0-3.94-.76-6.86-2.28-8.78-1.52-1.92-3.72-2.88-6.58-2.88s-5.49,1.18-7.48,3.53c-1.98,2.35-2.98,5.74-2.98,10.15v18.5h-4.63Z"/>
    <path class="st5" d="M337.75,300.28c-3.49,0-6.36-1.25-8.63-3.74-2.27-2.5-3.41-6.41-3.41-11.74v-21.1h4.63v20.52c0,3.94.74,6.86,2.22,8.78,1.48,1.92,3.47,2.88,5.99,2.88,3,0,5.38-1.18,7.15-3.53,1.76-2.35,2.65-5.73,2.65-10.15v-18.5h4.63v35.71h-4.63v-6.05c-.97,2.21-2.38,3.91-4.23,5.11-1.85,1.2-3.97,1.8-6.35,1.8Z"/>
    <path class="st5" d="M371.49,299.42c-1.68,0-3.1-.24-4.27-.72-1.17-.48-2.05-1.36-2.65-2.63-.6-1.27-.89-3.08-.89-5.44v-22.61h-5.69v-4.32h5.69v-8.28h4.63v8.28h9.79v4.32h-9.79v21.67c0,1.73.12,2.98.36,3.74.24.77.73,1.24,1.46,1.4.73.17,1.84.25,3.34.25h4.04v4.32h-6.02Z"/>
    <path class="st5" d="M397.5,300.28c-3.09,0-5.82-.78-8.21-2.34-2.38-1.56-4.26-3.74-5.62-6.55-1.37-2.81-2.05-6.11-2.05-9.9s.67-7.08,2.02-9.86c1.34-2.78,3.23-4.94,5.66-6.48,2.43-1.54,5.2-2.3,8.34-2.3s5.89.78,8.14,2.34c2.25,1.56,3.97,3.59,5.16,6.08,1.19,2.5,1.79,5.18,1.79,8.06v1.51c0,.53-.02,1.13-.07,1.8h-27.46v-4.32h23.03c-.13-3.5-1.21-6.24-3.24-8.21-2.03-1.97-4.54-2.95-7.54-2.95-1.98,0-3.84.48-5.56,1.44-1.72.96-3.11,2.36-4.17,4.21-1.06,1.85-1.59,4.14-1.59,6.88v1.94c0,3.22.55,5.89,1.65,8.03,1.1,2.14,2.52,3.72,4.27,4.75,1.74,1.03,3.56,1.55,5.46,1.55,2.47,0,4.54-.62,6.22-1.87,1.68-1.25,2.87-2.98,3.57-5.18h4.5c-.53,2.16-1.43,4.1-2.71,5.83-1.28,1.73-2.89,3.08-4.83,4.07-1.94.98-4.19,1.48-6.75,1.48Z"/>
    <path class="st5" d="M453.28,300.28c-3.84,0-7.08-.97-9.73-2.92-2.65-1.94-4.21-4.96-4.7-9.04h4.83c.35,2.35,1.38,4.2,3.08,5.54,1.7,1.34,3.91,2.02,6.65,2.02,2.47,0,4.39-.6,5.76-1.8,1.37-1.2,2.05-2.74,2.05-4.61,0-1.39-.4-2.44-1.19-3.13-.79-.7-2.29-1.28-4.5-1.76-.93-.24-1.84-.44-2.75-.61-.9-.17-1.82-.35-2.75-.54-1.37-.29-2.78-.79-4.23-1.51-1.46-.72-2.68-1.76-3.67-3.13s-1.49-3.16-1.49-5.36c0-3.02,1.07-5.54,3.21-7.56,2.14-2.02,4.97-3.02,8.5-3.02s6.19.84,8.5,2.52c2.32,1.68,3.65,4.46,4,8.35h-4.7c-.18-2.35-.99-4.02-2.45-5-1.46-.98-3.29-1.48-5.49-1.48-1.99,0-3.65.52-5,1.55-1.35,1.03-2.02,2.39-2.02,4.07,0,3.07,1.94,5.02,5.82,5.83.57.1,1.14.2,1.69.32.55.12,1.1.24,1.65.36.55.12,1.09.23,1.62.32.93.14,1.94.38,3.04.72,1.1.34,2.17.84,3.21,1.51,1.04.67,1.89,1.57,2.55,2.7.66,1.13.99,2.6.99,4.43,0,2.16-.52,4.08-1.56,5.76-1.04,1.68-2.49,3.01-4.37,4-1.88.98-4.07,1.48-6.58,1.48Z"/>
    <path class="st5" d="M473.46,299.42v-51.84h4.63v22.46c1.15-2.26,2.75-4.02,4.8-5.29,2.05-1.27,4.27-1.91,6.65-1.91,3.71,0,6.72,1.25,9.03,3.74,2.32,2.5,3.47,6.41,3.47,11.74v21.1h-4.57v-20.52c0-3.94-.73-6.86-2.18-8.78-1.46-1.92-3.62-2.88-6.48-2.88s-5.54,1.18-7.61,3.53c-2.07,2.35-3.11,5.74-3.11,10.15v18.5h-4.63Z"/>
    <path class="st5" d="M525.79,300.28c-3.18,0-6.02-.77-8.54-2.3-2.51-1.54-4.49-3.71-5.92-6.52-1.43-2.81-2.15-6.11-2.15-9.9s.73-7.15,2.18-9.94c1.46-2.78,3.45-4.94,5.99-6.48,2.54-1.54,5.39-2.3,8.57-2.3s6.08.77,8.57,2.3c2.49,1.54,4.46,3.7,5.89,6.48,1.43,2.78,2.15,6.1,2.15,9.94s-.73,7.09-2.18,9.9c-1.46,2.81-3.44,4.98-5.96,6.52-2.51,1.54-5.38,2.3-8.6,2.3ZM525.79,295.96c2.16,0,4.15-.54,5.96-1.62,1.81-1.08,3.26-2.69,4.37-4.82,1.1-2.14,1.65-4.79,1.65-7.96s-.54-5.88-1.62-7.99c-1.08-2.11-2.53-3.71-4.33-4.79-1.81-1.08-3.77-1.62-5.89-1.62s-4.09.54-5.92,1.62c-1.83,1.08-3.3,2.68-4.4,4.79-1.1,2.11-1.65,4.78-1.65,7.99s.55,5.82,1.65,7.96c1.1,2.14,2.55,3.74,4.33,4.82s3.74,1.62,5.86,1.62Z"/>
    <path class="st5" d="M549.48,299.42v-35.71h4.63v5.69c.71-1.87,1.7-3.32,2.98-4.36,1.28-1.03,2.87-1.55,4.76-1.55h5.29v4.82h-5.76c-1.32,0-2.54.42-3.64,1.26-1.1.84-1.99,2.23-2.65,4.18s-.99,4.57-.99,7.88v17.78h-4.63Z"/>
    <path class="st5" d="M584.55,299.42c-1.68,0-3.1-.24-4.27-.72-1.17-.48-2.05-1.36-2.65-2.63-.6-1.27-.89-3.08-.89-5.44v-22.61h-5.69v-4.32h5.69v-8.28h4.63v8.28h9.79v4.32h-9.79v21.67c0,1.73.12,2.98.36,3.74.24.77.73,1.24,1.46,1.4.73.17,1.84.25,3.34.25h4.04v4.32h-6.02Z"/>
    <path class="st5" d="M597.65,299.42v-7.42h6.75v7.42h-6.75Z"/>
  </g>
</svg>