<?xml version="1.0" encoding="UTF-8"?>
<svg id="Layer_2" xmlns="http://www.w3.org/2000/svg" version="1.1" viewBox="0 0 1120.72 598.35">
  <!-- Generator: Adobe Illustrator 29.7.1, SVG Export Plug-In . SVG Version: 2.1.1 Build 8)  -->
  <defs>
    <style>
      .st0 {
        fill: #86878e;
      }

      .st1 {
        fill: #cfbdb1;
      }

      .st2 {
        fill: #9d9ea3;
      }

      .st3 {
        fill: #eebfaf;
      }

      .st4 {
        fill: #dbc1b4;
      }

      .st5 {
        fill: #fff;
      }

      .st6 {
        fill: #e4c4af;
      }

      .st7 {
        fill: #15817c;
      }

      .st8 {
        fill: #f3a736;
      }

      .st9 {
        fill: #f0a48b;
      }

      .st10 {
        fill: #eec5b1;
      }

      .st11 {
        fill: #eec0b0;
      }

      .st12 {
        fill: #f34d19;
      }

      .st13 {
        fill: #c1b9ad;
      }

      .st14 {
        fill: #5b931f;
      }

      .st15 {
        fill: #f24d19;
      }

      .st16 {
        fill: #98999f;
      }

      .st17 {
        fill: #272834;
      }

      .st18 {
        fill: #b9b6aa;
      }

      .st19 {
        fill: #7c7d85;
      }
    </style>
  </defs>
  <g id="Type_1">
    <g>
      <path class="st17" d="M107.14.59C154.81.07,205.31.07,253.2.59,347.04.07,445.44.07,539.44.59c36.86-.51,76.13-.51,113.21,0,8.8-.5,18.65-.49,27.57,0,49.17-.82,98.08-.17,146.72,1.95,14.61,1.13,32.33,3.39,46.12,8.88,16.41,6.53,32.15,24.63,42.88,38.42,27.15,34.87,43.37,71.58,52.15,115.07,10.56,52.31,4.99,104.1-7.25,156.61,29.93,32.2,50.33,71.93,67.51,110.74l5.37,10.74c24.57-.76,53.76,9.99,71.01,27.89,8.61,8.93,15.72,20.05,16.01,32.76v10.55c-1.13,5.89-3.58,11.84-8.23,15.74l-4.9,4.11,5.79,6.77c9.86,11.52,6.07,24.05-4.26,33.35-8.23,7.4-17.9,12.24-28.59,15.45-14.45,4.34-28.96,6.53-43.95,7.59l-8.27.59c-12.32.88-24.64.63-37.01,0l-9.61-.48-9.39-.57-9.33-.61-7.62-.57-7.05-.59-6.46-.55-6.48-.57-62.16-6.8-7.03-.59-7.63-.58-7.63-.58-7.63-.59-7.63-.59-7.62-.57-8.22-.59-8.23-.58-9.35-.59-34.02-.03-5.93.46c-16.5,1.27-32.34,3.56-48.66,6.43-17.64,3.1-34.32,6.33-51.96,5.05-14.24-1.03-29.72-8.12-32.86-23.48-1.01-4.94.81-9.79,4.16-13.61s8.2-6.24,13.2-7.78l8.5-2.62c-17.35-13.46-17.1-37.7-2.58-53.21,8.4-8.97,19.75-13.96,32.05-15.86,7.79-1.2,15.38-2.18,22.99-3.87,4.08-.9,5.72-3.71,6.08-7.68.57-6.26,2.44-12.08,6.3-17.04l-243.77.02c-1.73,0-3.04.62-4.6.26-1.8-.42-3.62.31-5.79.31H88.46c-6.81-2.73-13.15-6.51-17.71-12.31-9.74-12.38-17.22-25.66-24.04-39.94-11.84-24.82-21.84-50.11-30.15-76.43-7.32-23.17-14.48-59.6-15.69-83.63l-.74-14.64c-.24-4.78-.1-9.2.04-14.01.53-19.06,3.54-37.1,8.68-55.43,6.83-24.39,14.73-47.99,26.26-70.48,7.54-14.72,31.1-50.52,41.43-61.22l8.35-8.65c4.36-4.51,7.78-7.9,13-11.72l9.27-.07-.02-.03Z"/>
      <path class="st16" d="M539.44,0c.51.17.5.36,0,.59H253.2c-.51-.17-.5-.36,0-.59h286.24Z"/>
      <g>
        <path class="st7" d="M1036.4,447.4l13.28,4.02c9.87,2.99,19.41,5.63,28.68,10.22,12.54,6.2,23.35,15.04,30.11,27.3,3.91,7.08,6.19,14.66,5.5,22.65-.9,10.35-4.99,12.45-11.64,18.23-2.46,2.14-2.59,5.46-.43,7.98l7.02,8.21c2.5,2.92,4.11,7.04,3.36,10.86-2.47,12.57-19.59,21.71-30.81,25.41-27.69,9.12-63.55,10.28-92.75,8.93-28.86-1.33-56.91-4.04-85.56-7.07l-29.98-3.16-53.4-4.01c-32.38-2.43-64.04-1.04-96.03,4.2l-35.33,5.78c-9.5,1.55-18.89,1.76-28.37.8-6.4-.65-12.53-2.69-17.53-6.44s-8.5-8.76-7.96-14.91c1.2-13.56,25.97-12.54,27.77-18.19,1.37-4.28-9.08-7.37-13.27-18.8s-1.06-23.47,7.08-32.19c15.04-16.12,33.08-13.72,52.92-18.6,6.43-1.58,9.38-6.72,9.82-13.07.51-7.34,3.65-14.41,10.22-17.95l11.53-.39,12.36-.23c8.53-.16,16.83-.37,25.33-.01l12.95.55c-4.65,4.26-9.5,6.93-14.92,9.86-8.24,4.45-16.21,8.77-23.88,14.11-6.09,4.25-13.9,11.03-11.6,18.45,1.65,5.3,9.61,6.62,14.39,5.51,13.1-3.04,16.83-10.28,25.72-5.6l10.26,5.41c4.44,2.34,9.69,1.77,14.13-.25l9.67-4.4c4.88,6.79,11.64,11.65,20.07,12.03,5.84.26,14.78-4.45,18.85-1.64l8.38,5.78c9.92,6.84,20.96-.93,29.31-6.49,5.2-3.47,11.02-5.21,17.39-4.16l15.91,2.63c5.33.88,10.7.16,15.49-2.28,5.28-2.69,7.71-7.96,7.66-14.27,15.75,8.5,20.83-5.89,44.05-.16,8.52,2.1,16.62,4.61,24.97,7.38,12.48,4.13,29.68,4.31,37.76-7.51,4.89-7.16-.55-15.56-6.03-20.72l-11.16-10.5c-.55-.52-1.23-1.56-1.98-2.52l.7-.76v-.02Z"/>
        <path class="st4" d="M1083.23,571.72c-.43-.18-.43-.39-.02-.64,5.16-3.73,11.16-8.26,10.72-14.36-.17-2.34-1.8-5.49-4.09-6.95l-8.3-5.27c-5.06-3.21-6.22-9.42-2.68-14.27,5.2-7.11,12.49-10.28,17.07-16.89,4.05-5.83,3.44-13.83-.41-19.61l-3.57-5.36c-.79-.82-.46-1.12.58-.59,8.36,5.44,11.65,19.05,5.41,27.79-4.67,6.54-11.66,9.5-16.9,16.55-2.24,3.01-1.87,7.15,1.34,9.35,2.83,1.94,5.62,3.64,8.64,5.49,6.13,3.75,8.39,12.22,3.46,17.92-2.92,3.37-7.25,5.77-11.24,6.85h0Z"/>
        <path class="st1" d="M652.92,569.54c.56,4.21,9.37,7.81,14.43,7.06-4.39,1.47-9.62.09-13.57-2.69-2.88-2.02-3.38-6.03-1.88-9.05,3.06-6.12,11.04-7.8,18.46-11.71,3.54-1.86,4.62-5.95,2.62-9.33-5.24-8.86-11.15-12.71-13.25-24.21-1.58-8.63,2.79-17.04,11.05-20.67-1.93,2.05-3.89,3.89-5.7,6.02-7.51,8.8-3.29,20.01,3.27,28.06,2.58,3.17,5.19,6.19,7.1,9.71,2.74,5.03.87,10.98-4.41,13.19l-11.14,4.66c-3.86,1.62-7.54,4.72-6.98,8.96h0Z"/>
        <path class="st13" d="M1092.53,487.77l-.58.59-3.89-3.51c2.67-.26,3.23,2.11,4.47,2.92Z"/>
        <path class="st18" d="M1083.21,571.08l.02.64c-1.89,1.02-4.05,2.07-6.26,1.92,2.06-1.29,4.66-1.42,6.24-2.56Z"/>
      </g>
      <rect class="st19" x="107.14" width="146.05" height=".59"/>
      <g>
        <path class="st14" d="M1037.56,485.67c-20.19,3.63-42.93-17.5-70.78-8.66-6.15,1.95-12.4,3.11-18.75,3.58-5.01-18.04-10.27-21.93-12.5-41.6l-2.99-26.3c-1.51-13.34-3.62-26.1-7.45-39.01-8.4-28.3-24.07-52.09-47.17-70.54-30.82-24.63-60.79-32.71-99.18-38.71-16.31-2.55-32.1-5.02-48.61-5.64l-15.8-.6-.43-19.43c20.19-.99,39.61-.03,59.65,2.65,48.94,6.55,83.12,13.44,125.57,39.84,33.61,20.9,54.4,39.47,77.12,71.93,11.09,15.84,21.34,31.6,29.59,49.05l17.98,38.04c4.07,8.6,9.53,15.49,16.76,21.51,3.93,3.27,12.8,11.26,9.31,16.74-2.77,4.33-7.4,6.28-12.33,7.16h0Z"/>
        <path class="st6" d="M1018.26,468.2c-15.03-9.87-35.56-9.59-52.47-4.52,8.79-8.72,20.18-7.7,30.58-6.97,8.57.59,16.27,3.28,23.44,7.78,3.03,1.9,5.98,3.4,9.7,4.8-1.06-4.61-3.68-7.75-6.66-10.86l-9.45-9.87c-2.98-3.11-4.45-6.69-6.36-10.65-10.61-21.95-21.56-43.38-33.99-64.38l-14.55-24.57c1.76-3.96,17.35,22.96,17.9,23.93,12.7,22.16,24.32,44.48,35.69,67.34,1.33,2.68,3.17,4.73,5.15,6.77l9.51,9.83c2.72,2.81,8.96,11.3,6.01,15.04-2.75,3.49-11.32-1.58-14.51-3.67h0Z"/>
      </g>
      <path class="st0" d="M652.65,0c.51.17.5.36,0,.59h-113.21v-.59h113.21Z"/>
      <g>
        <path class="st15" d="M888.47,495.54c-6.84,4.54-16,11.34-23.33,6.26l-7.99-5.54c-7.08-4.91-17.26,1.35-22.96.55s-10.48-4.18-15.18-8.06c12.65-6.52,17.28-7.75,26.13-19.52,5.03-6.7,8.8-13.62,12.23-21.26,13.06-29.14,8.17-59.44-6.38-86.93-7.34-13.87-17.6-24.95-30.38-34.18-15.08-10.9-31.18-19.93-48.49-26.89-11.09-4.45-22.48-7.06-34.4-6.67-7.85.26-16.17,3.48-17.29-.63-2.68-9.84-4.83-19.64-5.69-29.61l11.29.78c17.43,1.2,34.16,3.76,51.39,6.6,37.75,6.21,67.36,13.81,97.55,38.46,11.1,9.07,20.58,19.45,28.2,31.65,14.77,23.63,20.13,46.73,23.17,74.16l2.52,22.72c2.86,25.81,9.35,28.79,12.77,44.57.72,3.3-.52,6.98-3.21,8.8-3.82,2.6-8.47,3.18-13.01,2.4l-14.62-2.5c-8.05-1.38-15.57.36-22.31,4.83h0Z"/>
        <path class="st11" d="M900.17,363.54c-.46-1.16-.31-1.57.46-1.25,1.64,3.24,3.73,6.53,4.99,10.21,3.52,10.26,4.93,20.58,6.35,31.33,1.76,13.32,3.28,26.13,5.71,39.33,2.09,11.31,5.29,21.79,8.1,32.92.32,1.26-.33,3.48-1.24,3.97-4.64,2.53-11.39-10.14-24.18-4.49-15.28,6.76-16.04,15.03-23.8,12.16-11.98-4.45-21.3-6.13-32.69.49,6.7-12.66,23.04-8.62,33.21-4.71,2.18.84,3.47.81,5.14-.75,4.77-4.47,10.03-8.15,16.04-10.78,9.37-4.1,14.19-1.71,23.24,3.2-2.91-11.8-6.53-22.43-8.01-33.97l-5.2-40.52c-1.19-9.28-1.87-18.07-4.82-27.07l-3.3-10.08h0Z"/>
        <path class="st9" d="M900.63,362.29c-.15-.02-.57.9-.46,1.25-1.01-1.71-1.67-3.6-2.16-5.99,1.03,1.67,1.81,3.14,2.62,4.74Z"/>
        <circle class="st9" cx="897.54" cy="356.76" r=".29"/>
      </g>
      <rect class="st2" x="652.65" width="27.57" height=".59"/>
      <g>
        <path class="st8" d="M766.43,483.72c-4.28,2.27-13.95,7.07-18.41,4.38-3.57-2.16,7.67-10.58,9.34-11.69,7.14-4.73,14.27-8.76,21.85-12.74s14.29-8.35,20.42-14.18c15.07-14.35,14.36-36.61,11.02-55.66-4.98-28.42-23.25-46.77-51.21-53.18-6.28-1.44-12.36-1.99-18.83-2.84l-9.28-18.49c-3.14-6.26-5.78-12.5-8.26-19.01l14.1-.63c11.32-.5,22.24,2.12,32.77,6.39,16.65,6.76,32.12,15.4,46.54,26.05,8.96,6.62,16.64,13.88,22.88,23.1,9.35,13.81,15.34,29.33,17.89,45.85,2.32,15,.15,29.48-5.82,43.26-4.99,11.52-14.17,27.9-25.75,33.44l-22.66,10.83c-12.27,5.87-19.74-13.81-36.59-4.89h0Z"/>
        <path class="st10" d="M774.18,475.12c4.43-4.39,15.16-1.68,20.45,1.51,3.52,2.12,7.85,1.9,11.13-.45,2.19-1.57,4.45-3,6.54-4.68,5.51-4.42,9.53-10.11,13.5-15.91,5.22-7.63,8.97-15.59,11.13-24.66,2.65-11.15,3.69-22.3,3.29-33.77s-3.25-21.8-9.05-31.42c-1.52-2.52-3.87-4.38-5.68-6.95,11.9,4.65,17.67,24.92,18.52,36.18.97,12.98.05,25.76-3.13,38.37-2.2,8.72-5.77,16.41-10.78,23.82-4.44,6.58-9.02,12.98-15.29,17.9-6.75,5.29-13.57,10.1-21.9,5.44-4.91-2.75-12.4-6.87-18.73-5.37h0Z"/>
      </g>
      <g>
        <path class="st12" d="M740.42,357.08c12.9,22.3,25.81,43.39,43.28,61.83,5.62,5.93,11.74,10.39,18.39,15.39-1.47,3.11-3.22,5.87-5.49,8.06l-57.87-.71-639.5-.39-13.25.07c-3.68-2.71-6.8-6.93-9.68-10.76-9.03-11.99-16.36-24.57-22.79-38.26-11.16-23.76-20.98-47.8-28.96-72.9s-12.98-51.29-15.51-77.85c-2.18-22.88-1.85-45.37,2.75-67.87,4.6-22.5,11.32-43.22,19.49-64.17,6.54-16.79,14.42-32.22,24.41-47.14,7.98-11.92,16.04-23.17,24.78-34.45,4.83-6.23,10.34-11.01,16.21-16.15l4.19-3.66,29.32-.35,236.23-.07,221.66-.21h131.4l93.86-.1c1.03.25,2.51.68,1,.68-4.09,1.56-7.9,2.62-11.24,4.58l-9.99,5.87c-5.15,3.03-9.41,7.27-14.02,11.06-2.52,2.06-4.66,4.37-6.75,6.8l-7.61,8.84c-7.98,9.26-19.78,29.99-24.97,41.3l-2.81,6.12c-11.32,24.65-20.46,49.85-25.73,76.6-4.7,23.83-5.25,47.49-4.3,71.66l1.03,26.48c.9,23.03,20.7,69.32,32.5,89.71h-.03Z"/>
        <path class="st3" d="M666.67,26.5l-42.99-.07-160.95.07-127.42.2-207.46.06-21.22.09c-1.08,0-2.75-1.68-2.83-2.63-.12-1.23,1.28-2.89,2.67-2.89h177.89s302.55-.03,302.55-.03c37.01,0,73.78.46,110.48,2.06,15.93.7,31,1.16,46.93,3.43l-77.63-.29h-.02Z"/>
      </g>
    </g>
  </g>
  <g>
    <path class="st5" d="M50.58,207.1v-53.9h6.16l22.25,48.74h-2.77l21.94-48.74h6.24v53.9h-5.39v-47.74l2-.08-21.48,47.82h-3.93l-21.71-47.82,2.08.08v47.74h-5.39Z"/>
    <path class="st5" d="M127.42,208.03c-3.18,0-5.83-.54-7.93-1.62-2.11-1.08-3.67-2.5-4.7-4.27-1.03-1.77-1.54-3.63-1.54-5.58,0-4.21,1.53-7.42,4.58-9.62,3.05-2.21,7.07-3.31,12.05-3.31,2.1,0,4.08.17,5.93.5,1.85.33,3.36.71,4.54,1.12v-1.62c0-3.59-.91-6.33-2.73-8.2-1.82-1.87-4.3-2.81-7.43-2.81-2.67,0-4.97.55-6.89,1.66-1.92,1.1-3.12,2.96-3.58,5.58h-5.62c.31-2.77,1.26-5.03,2.85-6.78,1.59-1.74,3.55-3.03,5.89-3.85,2.34-.82,4.79-1.23,7.35-1.23,5.29,0,9.2,1.45,11.74,4.35,2.54,2.9,3.81,6.66,3.81,11.28v12.86c0,1.85.12,3.18.35,4,.23.82.64,1.32,1.23,1.5.59.18,1.4.27,2.43.27h.62v4.85h-1.15c-2.36,0-4.3-.44-5.81-1.31-1.51-.87-2.48-2.64-2.89-5.31-1.13,2.11-2.73,3.89-4.81,5.35s-4.84,2.19-8.28,2.19ZM127.96,203.41c2.57,0,4.77-.67,6.62-2,1.85-1.33,3.27-3.05,4.27-5.16,1-2.1,1.5-4.31,1.5-6.62-1.23-.36-2.76-.69-4.58-1-1.82-.31-3.66-.46-5.51-.46-4.21,0-7.19.8-8.93,2.39-1.75,1.59-2.62,3.54-2.62,5.85,0,2,.8,3.67,2.39,5,1.59,1.34,3.88,2,6.85,2Z"/>
    <path class="st5" d="M158.14,207.1v-55.44h5.39v55.44h-5.39ZM162.61,193.32l-.77-5.7,20.33-18.71h6.85l-26.41,24.41ZM183.94,207.1l-16.32-21.02,3.54-3.77,19.79,24.79h-7.01Z"/>
    <path class="st5" d="M212.43,208.03c-3.59,0-6.78-.83-9.55-2.5s-4.95-4-6.54-7.01c-1.59-3-2.39-6.53-2.39-10.59s.78-7.57,2.35-10.55c1.56-2.98,3.76-5.29,6.58-6.93,2.82-1.64,6.06-2.46,9.7-2.46s6.85.83,9.47,2.5c2.62,1.67,4.62,3.84,6.01,6.51,1.39,2.67,2.08,5.54,2.08,8.62v1.62c0,.57-.03,1.21-.08,1.93h-31.95v-4.62h26.8c-.15-3.75-1.41-6.67-3.77-8.78-2.36-2.1-5.29-3.16-8.78-3.16-2.31,0-4.47.51-6.47,1.54-2,1.03-3.62,2.53-4.85,4.5-1.23,1.98-1.85,4.43-1.85,7.35v2.08c0,3.44.64,6.3,1.93,8.59,1.28,2.28,2.94,3.98,4.97,5.08,2.03,1.1,4.15,1.66,6.35,1.66,2.87,0,5.29-.67,7.24-2,1.95-1.33,3.34-3.18,4.16-5.54h5.24c-.62,2.31-1.67,4.39-3.16,6.24-1.49,1.85-3.36,3.3-5.62,4.35-2.26,1.05-4.88,1.58-7.85,1.58Z"/>
    <path class="st5" d="M274.72,208.03c-3.18,0-5.83-.54-7.93-1.62-2.11-1.08-3.67-2.5-4.7-4.27-1.03-1.77-1.54-3.63-1.54-5.58,0-4.21,1.53-7.42,4.58-9.62,3.05-2.21,7.07-3.31,12.05-3.31,2.1,0,4.08.17,5.93.5,1.85.33,3.36.71,4.54,1.12v-1.62c0-3.59-.91-6.33-2.73-8.2-1.82-1.87-4.3-2.81-7.43-2.81-2.67,0-4.97.55-6.89,1.66-1.92,1.1-3.12,2.96-3.58,5.58h-5.62c.31-2.77,1.26-5.03,2.85-6.78,1.59-1.74,3.55-3.03,5.89-3.85,2.34-.82,4.79-1.23,7.35-1.23,5.29,0,9.2,1.45,11.74,4.35,2.54,2.9,3.81,6.66,3.81,11.28v12.86c0,1.85.12,3.18.35,4,.23.82.64,1.32,1.23,1.5.59.18,1.4.27,2.43.27h.62v4.85h-1.15c-2.36,0-4.3-.44-5.81-1.31-1.51-.87-2.48-2.64-2.89-5.31-1.13,2.11-2.73,3.89-4.81,5.35s-4.84,2.19-8.28,2.19ZM275.26,203.41c2.57,0,4.77-.67,6.62-2,1.85-1.33,3.27-3.05,4.27-5.16,1-2.1,1.5-4.31,1.5-6.62-1.23-.36-2.76-.69-4.58-1-1.82-.31-3.66-.46-5.51-.46-4.21,0-7.19.8-8.93,2.39-1.75,1.59-2.62,3.54-2.62,5.85,0,2,.8,3.67,2.39,5,1.59,1.34,3.88,2,6.85,2Z"/>
    <path class="st5" d="M348.64,208.03c-3.23,0-6.1-.68-8.59-2.04-2.49-1.36-4.4-3.25-5.74-5.66v6.78h-5.39v-55.44h5.39v23.87c1.23-1.95,3.04-3.7,5.43-5.24,2.39-1.54,5.38-2.31,8.97-2.31,3.85,0,7.19.87,10.01,2.62,2.82,1.75,5.02,4.13,6.58,7.16,1.57,3.03,2.35,6.47,2.35,10.32s-.78,7.28-2.35,10.28c-1.57,3-3.76,5.36-6.58,7.08-2.82,1.72-6.19,2.58-10.09,2.58ZM348.41,203.33c2.72,0,5.11-.64,7.16-1.93,2.05-1.28,3.67-3.07,4.85-5.35,1.18-2.28,1.77-4.97,1.77-8.05s-.59-5.77-1.77-8.08c-1.18-2.31-2.8-4.09-4.85-5.35-2.05-1.26-4.44-1.89-7.16-1.89s-5.04.63-7.12,1.89c-2.08,1.26-3.71,3.04-4.89,5.35-1.18,2.31-1.77,5.01-1.77,8.08s.59,5.76,1.77,8.05c1.18,2.28,2.81,4.07,4.89,5.35,2.08,1.28,4.45,1.93,7.12,1.93Z"/>
    <path class="st5" d="M375.74,207.1v-38.19h5.39v6.08c.82-2,1.98-3.55,3.46-4.66,1.49-1.1,3.34-1.66,5.54-1.66h6.16v5.16h-6.7c-1.54,0-2.95.45-4.23,1.35-1.28.9-2.31,2.39-3.08,4.47-.77,2.08-1.15,4.89-1.15,8.43v19.02h-5.39Z"/>
    <path class="st5" d="M415.09,208.03c-3.18,0-5.83-.54-7.93-1.62-2.11-1.08-3.67-2.5-4.7-4.27-1.03-1.77-1.54-3.63-1.54-5.58,0-4.21,1.53-7.42,4.58-9.62,3.05-2.21,7.07-3.31,12.05-3.31,2.1,0,4.08.17,5.93.5,1.85.33,3.36.71,4.54,1.12v-1.62c0-3.59-.91-6.33-2.73-8.2-1.82-1.87-4.3-2.81-7.43-2.81-2.67,0-4.97.55-6.89,1.66-1.92,1.1-3.12,2.96-3.58,5.58h-5.62c.31-2.77,1.26-5.03,2.85-6.78,1.59-1.74,3.55-3.03,5.89-3.85,2.34-.82,4.79-1.23,7.35-1.23,5.29,0,9.2,1.45,11.74,4.35,2.54,2.9,3.81,6.66,3.81,11.28v12.86c0,1.85.12,3.18.35,4,.23.82.64,1.32,1.23,1.5.59.18,1.4.27,2.43.27h.62v4.85h-1.15c-2.36,0-4.3-.44-5.81-1.31-1.51-.87-2.48-2.64-2.89-5.31-1.13,2.11-2.73,3.89-4.81,5.35s-4.84,2.19-8.28,2.19ZM415.63,203.41c2.57,0,4.77-.67,6.62-2,1.85-1.33,3.27-3.05,4.27-5.16,1-2.1,1.5-4.31,1.5-6.62-1.23-.36-2.76-.69-4.58-1-1.82-.31-3.66-.46-5.51-.46-4.21,0-7.19.8-8.93,2.39-1.75,1.59-2.62,3.54-2.62,5.85,0,2,.8,3.67,2.39,5,1.59,1.34,3.88,2,6.85,2Z"/>
    <path class="st5" d="M446.12,207.1v-38.19h5.39v6.62c1.28-2.36,3.08-4.21,5.39-5.54,2.31-1.33,4.88-2,7.7-2,4.41,0,7.98,1.34,10.7,4,2.72,2.67,4.08,6.85,4.08,12.55v22.56h-5.39v-21.94c0-4.21-.89-7.34-2.66-9.39-1.77-2.05-4.33-3.08-7.66-3.08s-6.39,1.26-8.7,3.77c-2.31,2.52-3.46,6.13-3.46,10.86v19.79h-5.39Z"/>
    <path class="st5" d="M506.33,208.03c-3.85,0-7.19-.87-10.01-2.62-2.82-1.74-5.02-4.13-6.58-7.16-1.57-3.03-2.35-6.47-2.35-10.32s.78-7.28,2.35-10.28c1.56-3,3.77-5.36,6.62-7.08,2.85-1.72,6.2-2.58,10.05-2.58,3.23,0,6.11.68,8.62,2.04,2.51,1.36,4.41,3.25,5.7,5.66v-24.02h5.39v55.44h-5.39v-6.62c-1.23,1.9-3.03,3.63-5.39,5.2-2.36,1.56-5.36,2.35-9.01,2.35ZM506.64,203.33c2.72,0,5.11-.64,7.16-1.93,2.05-1.28,3.67-3.07,4.85-5.35,1.18-2.28,1.77-4.97,1.77-8.05s-.59-5.77-1.77-8.08c-1.18-2.31-2.8-4.09-4.85-5.35-2.05-1.26-4.44-1.89-7.16-1.89s-5.04.63-7.12,1.89c-2.08,1.26-3.71,3.04-4.89,5.35-1.18,2.31-1.77,5.01-1.77,8.08s.59,5.76,1.77,8.05c1.18,2.28,2.81,4.07,4.89,5.35,2.08,1.28,4.45,1.93,7.12,1.93Z"/>
    <path class="st5" d="M559.92,207.1v-38.19h5.39v6.62c1.28-2.36,3.08-4.21,5.39-5.54,2.31-1.33,4.88-2,7.7-2,4.41,0,7.98,1.34,10.7,4,2.72,2.67,4.08,6.85,4.08,12.55v22.56h-5.39v-21.94c0-4.21-.88-7.34-2.66-9.39-1.77-2.05-4.33-3.08-7.66-3.08s-6.39,1.26-8.7,3.77c-2.31,2.52-3.46,6.13-3.46,10.86v19.79h-5.39Z"/>
    <path class="st5" d="M619.67,208.03c-3.59,0-6.78-.83-9.55-2.5-2.77-1.67-4.95-4-6.54-7.01-1.59-3-2.39-6.53-2.39-10.59s.78-7.57,2.35-10.55c1.57-2.98,3.76-5.29,6.58-6.93,2.82-1.64,6.06-2.46,9.7-2.46s6.85.83,9.47,2.5c2.62,1.67,4.62,3.84,6.01,6.51,1.39,2.67,2.08,5.54,2.08,8.62v1.62c0,.57-.03,1.21-.08,1.93h-31.96v-4.62h26.8c-.15-3.75-1.41-6.67-3.77-8.78-2.36-2.1-5.29-3.16-8.78-3.16-2.31,0-4.47.51-6.47,1.54-2,1.03-3.62,2.53-4.85,4.5-1.23,1.98-1.85,4.43-1.85,7.35v2.08c0,3.44.64,6.3,1.92,8.59,1.28,2.28,2.94,3.98,4.97,5.08,2.03,1.1,4.14,1.66,6.35,1.66,2.87,0,5.29-.67,7.24-2,1.95-1.33,3.34-3.18,4.16-5.54h5.24c-.62,2.31-1.67,4.39-3.16,6.24-1.49,1.85-3.36,3.3-5.62,4.35-2.26,1.05-4.88,1.58-7.85,1.58Z"/>
    <path class="st5" d="M653.94,207.1l-11.17-38.19h5.47l9.16,33.03h-1.39l10.4-33.03h6.16l10.39,33.03h-1.39l9.16-33.03h5.47l-11.17,38.19h-5.47l-10.78-34.73h1.39l-10.78,34.73h-5.47Z"/>
    <path class="st5" d="M129.31,300.43c-4.16,0-7.76-.63-10.82-1.89-3.05-1.26-5.46-3.13-7.2-5.62-1.75-2.49-2.69-5.56-2.85-9.2h5.54c0,2.16.56,4.13,1.69,5.93,1.13,1.8,2.84,3.25,5.12,4.35,2.28,1.1,5.12,1.66,8.51,1.66,4.41,0,7.74-1.13,9.97-3.39,2.23-2.26,3.35-4.98,3.35-8.16,0-2.72-.69-4.93-2.08-6.62-1.39-1.69-3.25-2.94-5.58-3.73-2.34-.8-4.89-1.19-7.66-1.19h-5.7v-4.62h5.77c4.11,0,7.28-.86,9.51-2.58,2.23-1.72,3.35-4.07,3.35-7.05,0-2.57-.9-4.68-2.69-6.35-1.8-1.67-4.54-2.5-8.24-2.5-4.11,0-7.24.91-9.39,2.73-2.16,1.82-3.36,4.17-3.62,7.05h-5.62c.15-2.82.96-5.33,2.43-7.51,1.46-2.18,3.57-3.9,6.31-5.16,2.75-1.26,6.04-1.89,9.89-1.89,3.64,0,6.69.6,9.12,1.81,2.44,1.21,4.27,2.82,5.51,4.85,1.23,2.03,1.85,4.25,1.85,6.66,0,2.57-.74,5-2.23,7.31-1.49,2.31-3.9,3.85-7.24,4.62,3.34.67,6.15,2.19,8.43,4.58,2.28,2.39,3.43,5.56,3.43,9.51,0,2.93-.71,5.63-2.12,8.12-1.41,2.49-3.52,4.49-6.31,6.01-2.8,1.51-6.28,2.27-10.43,2.27Z"/>
    <path class="st5" d="M183.29,299.5v-38.19h5.39v5.54c1.23-2.05,2.87-3.64,4.93-4.77,2.05-1.13,4.34-1.69,6.85-1.69,3.03,0,5.66.63,7.89,1.89,2.23,1.26,3.91,3.2,5.04,5.81,1.28-2.41,3.11-4.3,5.47-5.66,2.36-1.36,4.88-2.04,7.55-2.04,4.41,0,8.01,1.34,10.78,4,2.77,2.67,4.16,6.85,4.16,12.55v22.56h-5.39v-21.94c0-4.21-.85-7.34-2.54-9.39-1.69-2.05-4.08-3.08-7.16-3.08s-5.85,1.26-8.01,3.77c-2.16,2.52-3.23,6.13-3.23,10.86v19.79h-5.39v-21.94c0-4.21-.85-7.34-2.54-9.39-1.69-2.05-4.08-3.08-7.16-3.08s-5.85,1.26-8.01,3.77c-2.16,2.52-3.23,6.13-3.23,10.86v19.79h-5.39Z"/>
    <path class="st5" d="M251.28,253.53v-7.93h7.7v7.93h-7.7ZM252.51,299.5v-38.19h5.39v38.19h-5.39Z"/>
    <path class="st5" d="M268.6,299.5v-38.19h5.39v6.62c1.28-2.36,3.08-4.21,5.39-5.54,2.31-1.33,4.88-2,7.7-2,4.41,0,7.98,1.34,10.7,4,2.72,2.67,4.08,6.85,4.08,12.55v22.56h-5.39v-21.94c0-4.21-.89-7.34-2.66-9.39-1.77-2.05-4.33-3.08-7.66-3.08s-6.39,1.26-8.7,3.77c-2.31,2.52-3.46,6.13-3.46,10.86v19.79h-5.39Z"/>
    <path class="st5" d="M326.04,300.43c-4.06,0-7.41-1.33-10.05-4-2.64-2.67-3.97-6.85-3.97-12.55v-22.56h5.39v21.94c0,4.21.86,7.34,2.58,9.39,1.72,2.05,4.04,3.08,6.97,3.08,3.49,0,6.26-1.26,8.32-3.77,2.05-2.51,3.08-6.13,3.08-10.86v-19.79h5.39v38.19h-5.39v-6.47c-1.13,2.36-2.77,4.18-4.93,5.47-2.16,1.28-4.62,1.93-7.39,1.93Z"/>
    <path class="st5" d="M365.31,299.5c-1.95,0-3.61-.26-4.97-.77-1.36-.51-2.39-1.45-3.08-2.81-.69-1.36-1.04-3.3-1.04-5.81v-24.18h-6.62v-4.62h6.62v-8.85h5.39v8.85h11.4v4.62h-11.4v23.18c0,1.85.14,3.18.42,4,.28.82.85,1.32,1.69,1.5.85.18,2.14.27,3.89.27h4.7v4.62h-7.01Z"/>
    <path class="st5" d="M395.57,300.43c-3.59,0-6.78-.84-9.55-2.5s-4.95-4-6.54-7.01c-1.59-3-2.39-6.53-2.39-10.59s.78-7.57,2.35-10.55c1.56-2.98,3.76-5.29,6.58-6.93,2.82-1.64,6.06-2.46,9.7-2.46s6.85.83,9.47,2.5c2.62,1.67,4.62,3.84,6.01,6.51,1.39,2.67,2.08,5.54,2.08,8.62v1.62c0,.57-.03,1.21-.08,1.93h-31.95v-4.62h26.8c-.15-3.75-1.41-6.67-3.77-8.78-2.36-2.1-5.29-3.16-8.78-3.16-2.31,0-4.47.51-6.47,1.54-2,1.03-3.62,2.53-4.85,4.5-1.23,1.98-1.85,4.43-1.85,7.35v2.08c0,3.44.64,6.3,1.93,8.59,1.28,2.28,2.94,3.98,4.97,5.08,2.03,1.1,4.15,1.66,6.35,1.66,2.87,0,5.29-.67,7.24-2,1.95-1.33,3.34-3.18,4.16-5.54h5.24c-.62,2.31-1.67,4.39-3.16,6.24-1.49,1.85-3.36,3.3-5.62,4.35-2.26,1.05-4.88,1.58-7.85,1.58Z"/>
    <path class="st5" d="M460.48,300.43c-4.47,0-8.24-1.04-11.32-3.12-3.08-2.08-4.9-5.3-5.47-9.66h5.62c.41,2.52,1.6,4.49,3.58,5.93,1.98,1.44,4.56,2.16,7.74,2.16,2.87,0,5.11-.64,6.7-1.93,1.59-1.28,2.39-2.93,2.39-4.93,0-1.49-.46-2.6-1.39-3.35-.92-.74-2.67-1.37-5.24-1.89-1.08-.26-2.14-.47-3.2-.65-1.05-.18-2.12-.37-3.2-.58-1.59-.31-3.23-.85-4.93-1.62s-3.12-1.89-4.27-3.35c-1.16-1.46-1.73-3.37-1.73-5.74,0-3.23,1.24-5.93,3.73-8.08,2.49-2.16,5.79-3.23,9.89-3.23s7.2.9,9.89,2.7c2.69,1.8,4.25,4.77,4.66,8.93h-5.47c-.21-2.51-1.16-4.3-2.85-5.35-1.69-1.05-3.82-1.58-6.39-1.58-2.31,0-4.25.55-5.81,1.66-1.57,1.1-2.35,2.55-2.35,4.35,0,3.29,2.26,5.36,6.78,6.24.67.1,1.32.22,1.96.35.64.13,1.28.26,1.92.39.64.13,1.27.24,1.89.35,1.08.15,2.26.41,3.54.77,1.28.36,2.53.9,3.73,1.62,1.21.72,2.19,1.68,2.96,2.89.77,1.21,1.15,2.79,1.15,4.74,0,2.31-.6,4.36-1.81,6.16-1.21,1.8-2.9,3.22-5.08,4.27-2.18,1.05-4.74,1.58-7.66,1.58Z"/>
    <path class="st5" d="M483.97,299.5v-55.44h5.39v24.02c1.33-2.41,3.2-4.3,5.58-5.66,2.39-1.36,4.97-2.04,7.74-2.04,4.31,0,7.82,1.34,10.51,4,2.69,2.67,4.04,6.85,4.04,12.55v22.56h-5.31v-21.94c0-4.21-.85-7.34-2.54-9.39-1.69-2.05-4.21-3.08-7.55-3.08s-6.44,1.26-8.85,3.77c-2.41,2.52-3.62,6.13-3.62,10.86v19.79h-5.39Z"/>
    <path class="st5" d="M544.87,300.43c-3.7,0-7.01-.82-9.93-2.46s-5.22-3.97-6.89-6.97c-1.67-3-2.5-6.53-2.5-10.59s.85-7.65,2.54-10.63c1.69-2.98,4.02-5.29,6.97-6.93,2.95-1.64,6.28-2.46,9.97-2.46s7.07.82,9.97,2.46c2.9,1.64,5.18,3.95,6.85,6.93,1.67,2.98,2.5,6.52,2.5,10.63s-.85,7.58-2.54,10.59c-1.69,3-4,5.33-6.93,6.97-2.93,1.64-6.26,2.46-10.01,2.46ZM544.87,295.81c2.51,0,4.82-.58,6.93-1.73,2.1-1.15,3.8-2.87,5.08-5.16,1.28-2.28,1.93-5.12,1.93-8.51s-.63-6.29-1.89-8.55c-1.26-2.26-2.94-3.97-5.04-5.12-2.11-1.15-4.39-1.73-6.85-1.73s-4.76.58-6.89,1.73c-2.13,1.16-3.84,2.86-5.12,5.12-1.28,2.26-1.93,5.11-1.93,8.55s.64,6.23,1.93,8.51c1.28,2.28,2.96,4,5.04,5.16,2.08,1.16,4.35,1.73,6.81,1.73Z"/>
    <path class="st5" d="M572.44,299.5v-38.19h5.39v6.08c.82-2,1.98-3.55,3.46-4.66,1.49-1.1,3.34-1.66,5.54-1.66h6.16v5.16h-6.7c-1.54,0-2.95.45-4.23,1.35-1.28.9-2.31,2.39-3.08,4.47-.77,2.08-1.16,4.89-1.16,8.43v19.02h-5.39Z"/>
    <path class="st5" d="M613.25,299.5c-1.95,0-3.61-.26-4.97-.77-1.36-.51-2.39-1.45-3.08-2.81-.69-1.36-1.04-3.3-1.04-5.81v-24.18h-6.62v-4.62h6.62v-8.85h5.39v8.85h11.4v4.62h-11.4v23.18c0,1.85.14,3.18.42,4,.28.82.85,1.32,1.69,1.5.85.18,2.14.27,3.89.27h4.7v4.62h-7.01Z"/>
    <path class="st5" d="M628.49,299.5v-7.93h7.85v7.93h-7.85Z"/>
  </g>
</svg>