<?xml version="1.0" encoding="UTF-8"?>
<svg id="Layer_2" data-name="Layer 2" xmlns="http://www.w3.org/2000/svg" viewBox="0 0 806.69 196.7">
  <defs>
    <style>
      .cls-1 {
        fill: #ff8faf;
      }

      .cls-2 {
        fill: #2b2c3a;
      }

      .cls-3 {
        fill: #e2678a;
      }
    </style>
  </defs>
  <g id="Type_1" data-name="Type 1">
    <g>
      <rect class="cls-3" x="17.47" y="19.21" width="789.22" height="177.49" rx="52.14" ry="52.14"/>
      <g>
        <rect class="cls-1" x="2.47" y="2.46" width="789.22" height="177.49" rx="52.14" ry="52.14"/>
        <path class="cls-2" d="M739.54,177.49h-441.19c-9.73,0-19.46,0-29.19,0s-18.76,0-28.14,0H58.52c-1.16,0-2.33,0-3.49,0-7.13,0-14.25-1.36-20.76-4.33-11.97-5.45-21.65-15.57-26.21-27.95-2.07-5.62-3.11-11.5-3.12-17.48,0-1.63,0-3.26,0-4.89,0-8.31,0-16.62,0-24.93,0-9.68,0-19.36,0-29.04,0-4.75-.01-9.51,0-14.26.04-13.31,5.39-26.15,14.9-35.48,9.26-9.09,21.82-14.17,34.78-14.21.64,0,1.29,0,1.93,0h76.14c7.12,0,14.24,0,21.36,0,7.78,0,15.57,0,23.35,0h107.91c9.83,0,19.66,0,29.49,0s20.14,0,30.21,0h261.75c8.02,0,16.05,0,24.07,0,7.39,0,14.77,0,22.16,0,6.74,0,13.47,0,20.21,0,5.96,0,11.92,0,17.88,0,5.16,0,10.31,0,15.47,0h12.72c3.29,0,6.57,0,9.86,0,2.23,0,4.46,0,6.69,0,1.12,0,2.24,0,3.36,0,7.62,0,15.19,1.6,22.05,4.96,11.88,5.83,21.23,16.3,25.42,28.89,1.73,5.18,2.56,10.55,2.57,16.01,0,1.8,0,3.6,0,5.4,0,8.47,0,16.95,0,25.42,0,9.61,0,19.22,0,28.83s.08,9.62-.01,14.42c-.27,13.43-6.11,26.31-15.95,35.43-9.14,8.48-21.27,13.15-33.72,13.19-3.17.01-3.17,4.94,0,4.93,14.19-.05,27.98-5.62,38.15-15.53,10.12-9.87,16.07-23.54,16.44-37.66.13-4.85.02-9.72.02-14.57,0-9.68,0-19.35,0-29.03,0-8.5,0-16.99,0-25.49,0-1.78,0-3.56,0-5.34,0-5.75-.86-11.52-2.64-16.99-4.31-13.21-13.67-24.53-25.88-31.17C757.55,2.24,748.48,0,739.3,0,738.27,0,737.24,0,736.2,0h-6.51c-3.23,0-6.46,0-9.69,0-4.2,0-8.4,0-12.6,0-5.13,0-10.25,0-15.38,0h-38c-7.42,0-14.84,0-22.25,0-8.03,0-16.07,0-24.1,0h-201.35c-10.29,0-20.57,0-30.86,0S355,0,344.77,0H56.29c-1.14,0-2.29,0-3.43.03-14.06.47-27.63,6.44-37.43,16.55S.04,40.47,0,54.61c-.01,4.72,0,9.44,0,14.16,0,9.71,0,19.43,0,29.14,0,8.33,0,16.66,0,25,0,1.61,0,3.22,0,4.83.01,6.27,1.05,12.57,3.18,18.47,4.7,13,14.3,24.02,26.66,30.28,7.78,3.94,16.35,5.92,25.06,5.93,1.08,0,2.16,0,3.24,0h681.4c3.17,0,3.17-4.93,0-4.93Z"/>
      </g>
    </g>
  </g>
</svg>